<?xml version="1.0" encoding="utf-8"?>
<svg xmlns="http://www.w3.org/2000/svg" fill="none" height="40" viewBox="0 0 98 40" width="98">
<g clip-path="url(#clip0_654_2801)">
<path d="M0.264187 19.8646C0.991368 15.9332 3.2036 12.5072 6.31647 10.1557C8.72751 7.1233 12.2447 4.96661 16.2755 4.25724C15.3335 4.09224 14.3622 4 13.3695 4C9.61747 4 6.16436 5.24204 3.40908 7.32338C1.27423 10.0075 0 13.3725 0 17.0324C0 17.999 0.096068 18.9448 0.264187 19.8646Z" fill="#F99E1E"/>
<path d="M16.2795 35.4694C12.2473 34.7601 8.73018 32.6047 6.31914 29.5736C3.20493 27.2234 0.994037 23.796 0.264187 19.8646C0.0947337 20.7845 0 21.7316 0 22.6969C0 26.3568 1.27557 29.723 3.41041 32.4046C6.1657 34.4846 9.61881 35.7267 13.3721 35.7267C14.3662 35.7267 15.3362 35.6357 16.2795 35.4694Z" fill="#2BACE2"/>
<path d="M6.31595 10.157C3.20309 12.5059 0.992187 15.9332 0.263672 19.8646C0.992187 23.7947 3.20442 27.2208 6.31729 29.5723C4.18244 26.8895 2.90688 23.5232 2.90688 19.8646C2.90688 16.2074 4.17978 12.8372 6.31462 10.1557" fill="#C6E9FA"/>
<path d="M16.2754 4.25724C20.3116 4.96531 23.8247 7.1207 26.2398 10.1557C29.3526 12.5059 31.5635 15.9345 32.2934 19.8633C32.4628 18.9435 32.5549 17.9964 32.5549 17.0311C32.5549 13.3725 31.282 10.0062 29.1458 7.32208C26.3919 5.24074 22.9374 4 19.1828 4C18.1901 4 17.2214 4.09224 16.2754 4.25724Z" fill="#AB56A1"/>
<path d="M6.31641 10.1569C9.07035 8.07562 12.5248 6.83357 16.2768 6.83357C20.0314 6.83357 23.4846 8.07432 26.2412 10.1556C23.8261 7.122 20.313 4.96531 16.2755 4.25724C12.2446 4.96661 8.72745 7.1233 6.31641 10.1569Z" fill="#FFCF7C"/>
<path d="M32.2887 19.862C31.5628 23.7921 29.3519 27.2195 26.2404 29.571C23.8267 32.6021 20.3109 34.7588 16.2773 35.4694C17.2233 35.6357 18.192 35.7267 19.1847 35.7267C22.9367 35.7267 26.3925 34.4833 29.1465 32.4033C31.2813 29.7217 32.5542 26.3542 32.5542 22.6956C32.5542 21.7303 32.4621 20.7832 32.2887 19.8633" fill="#9ACA3E"/>
<path d="M6.31836 29.5736C8.73073 32.6047 12.2466 34.7601 16.2787 35.4694C20.3149 34.7588 23.8281 32.6034 26.2418 29.5723C23.4865 31.6511 20.0334 32.8931 16.2787 32.8931C12.5268 32.8931 9.07231 31.6524 6.31836 29.5736Z" fill="#C7DE8A"/>
<path d="M26.241 29.5723C29.3525 27.2208 31.5634 23.7934 32.2892 19.8633C31.562 15.9319 29.3512 12.5059 26.2383 10.1557C28.3718 12.8359 29.6474 16.2048 29.6474 19.8633C29.6474 23.5206 28.3731 26.8895 26.2396 29.5723" fill="#D3B6D7"/>
<path d="M6.31595 10.1569C4.1811 12.8385 2.90687 16.2074 2.9082 19.8659C2.9082 23.5245 4.18244 26.8921 6.31862 29.5736C9.07257 31.6524 12.527 32.8931 16.279 32.8931C20.0337 32.8931 23.4868 31.6524 26.242 29.5723C28.3756 26.8895 29.6498 23.5219 29.6498 19.8633C29.6498 16.2048 28.3742 12.8359 26.2407 10.1556C23.4854 8.07432 20.0323 6.83357 16.2763 6.83357C12.5257 6.83357 9.0699 8.07562 6.31595 10.1569Z" fill="white"/>
<path d="M17.3112 14.647H18.9843C19.3753 14.647 19.4834 14.7951 19.5034 15.155L19.5474 15.663C20.1572 15.1758 21.2646 14.4794 23.0232 14.4794C25.0219 14.4794 26.1721 15.6617 26.1721 17.313V24.6314C26.1721 25.0121 26.0213 25.1784 25.629 25.1784H23.8705C23.4795 25.1784 23.3061 25.0121 23.3061 24.6314V18.0107C23.3061 17.2493 23.0659 16.8881 22.1346 16.8881C21.0485 16.8881 20.0704 17.5027 19.6141 17.8418V24.6314C19.6141 25.0121 19.4847 25.1784 19.1151 25.1784H17.3125C16.9202 25.1784 16.7694 25.0108 16.7708 24.6314V15.155C16.7708 14.7951 16.9189 14.647 17.3125 14.6457M14.7987 17.5897V20.0426C14.7987 20.3804 14.6693 20.5298 14.3224 20.5298H8.7611V22.0954C8.7611 22.8346 9.17473 23.2569 10.4556 23.2569C11.7365 23.2569 12.1488 22.8346 12.1488 22.0941V21.9888C12.1488 21.6277 12.3009 21.4588 12.6919 21.4588H14.213C14.5826 21.4588 14.756 21.6277 14.756 21.9888V22.2214C14.756 24.1234 13.6285 25.3512 10.433 25.3525C7.2427 25.3525 5.98047 24.1247 5.98047 22.2214V17.5897C5.98047 15.7059 7.26137 14.4807 10.453 14.4807C13.6259 14.4807 14.796 15.7059 14.796 17.5897M8.7611 17.7391V18.6668H12.1502V17.7391C12.1502 16.9973 11.6725 16.5737 10.4556 16.5737C9.21609 16.5737 8.7611 16.9973 8.7611 17.7391Z" fill="#AB56A1"/>
<path d="M36.3679 14.0117C36.6361 14.0117 36.7122 14.1234 36.7322 14.3846L36.7682 14.9627C37.3059 14.5509 38.3413 13.8623 39.9491 13.861C41.8091 13.861 42.6497 14.8679 42.6497 16.397V20.8741C42.6497 22.402 41.8091 23.4115 39.9491 23.4115C38.396 23.4115 37.3633 22.7775 36.8082 22.3669V26.7128C36.8082 26.9557 36.7122 27.0675 36.464 27.0675H35.3525C35.0843 27.0675 34.9883 26.9557 34.9883 26.7141V14.3859C34.9883 14.1247 35.083 14.013 35.3512 14.013H36.3666L36.3679 14.0117ZM40.8297 16.679C40.8297 16.0255 40.5042 15.4642 39.4127 15.4642C38.1679 15.4642 37.2285 16.119 36.8082 16.436V20.8559C37.2285 21.1535 38.1692 21.807 39.4127 21.807C40.5042 21.807 40.8297 21.247 40.8297 20.5948V16.679Z" fill="#AB56A1"/>
<path d="M43.9326 16.3776C43.9326 14.8874 44.9293 13.861 47.5538 13.8597C50.2544 13.8597 51.1751 14.8861 51.1751 16.3763V22.8866C51.1751 23.1477 51.079 23.2608 50.8295 23.2608H49.8341C49.5659 23.2608 49.4872 23.1477 49.4699 22.8866L49.4312 22.3461C48.8734 22.7762 47.8607 23.4102 46.405 23.4102C44.6238 23.4102 43.7031 22.3656 43.7031 21.1522V20.2583C43.7031 19.0461 44.5851 18.0003 46.3663 18.0003H49.3925V16.5633C49.3925 15.7994 48.9909 15.2966 47.5365 15.2966C46.0795 15.2966 45.6392 15.7435 45.6392 16.5075V16.6582C45.6392 16.9167 45.5444 17.0298 45.2749 17.0298H44.2782C44.0287 17.0298 43.934 16.9167 43.934 16.6582V16.3763L43.9326 16.3776ZM49.3925 20.9859V19.38H46.7506C45.7926 19.38 45.4844 19.7919 45.4844 20.5194V20.8936C45.4844 21.6199 45.9074 21.9369 46.8667 21.9369C48.0342 21.9369 48.9522 21.3211 49.3925 20.9859Z" fill="#AB56A1"/>
<path d="M57.7992 14.2144V15.0706C57.7992 15.333 57.6658 15.4252 57.4176 15.4447C55.9806 15.5396 54.8892 16.2645 54.4489 16.6387V22.8866C54.4489 23.1477 54.3528 23.2608 54.1046 23.2608H52.9932C52.725 23.2608 52.6289 23.149 52.6289 22.8866V14.3638C52.6289 14.1221 52.7236 14.0104 52.9932 14.0104H54.0072C54.2741 14.0104 54.3515 14.1221 54.3715 14.3638L54.4302 15.1667C54.9465 14.6626 56.0193 13.8597 57.4176 13.8597C57.6658 13.8597 57.7992 13.9714 57.7992 14.2144Z" fill="#AB56A1"/>
<path d="M58.2223 16.3763C58.2223 14.8861 59.2163 13.8597 61.8422 13.8584C64.5428 13.8584 65.4621 14.8848 65.4621 16.375V22.8853C65.4621 23.1464 65.3674 23.2595 65.1178 23.2595H64.1211C63.8556 23.2595 63.7769 23.1464 63.7582 22.8853L63.7209 22.3448C63.1658 22.7749 62.1491 23.4089 60.6947 23.4089C58.9121 23.4089 57.9941 22.3643 57.9941 21.1509V20.257C57.9941 19.0448 58.8761 17.999 60.6547 17.999H63.6822V16.5621C63.6822 15.7981 63.2805 15.2953 61.8248 15.2953C60.3678 15.2953 59.9275 15.7423 59.9275 16.5062V16.6569C59.9275 16.9154 59.8328 17.0285 59.5633 17.0285H58.5679C58.3197 17.0285 58.225 16.9154 58.225 16.6569V16.375L58.2223 16.3763ZM63.6808 20.9846V19.3787H61.0376C60.0796 19.3787 59.7727 19.7906 59.7727 20.5181V20.8923C59.7727 21.6186 60.1957 21.9356 61.1524 21.9356C62.3212 21.9356 63.2392 21.3198 63.6808 20.9846Z" fill="#AB56A1"/>
<path d="M68.1052 23.0347C68.1052 23.2023 68.0278 23.2595 67.8744 23.2595H67.3193C67.1472 23.2595 67.0898 23.2023 67.0898 23.0347V21.6004C67.0898 21.4497 67.1472 21.3769 67.3193 21.3769H67.8744C68.0278 21.3769 68.1052 21.4497 68.1039 21.6004V23.0347H68.1052Z" fill="#D3B6D7"/>
<path d="M76.1316 16.2269V16.5815C76.1316 16.7504 76.0716 16.805 75.9008 16.805H75.4031C75.231 16.805 75.1736 16.7491 75.1736 16.5815V16.2827C75.1736 15.3694 74.6746 14.7354 72.7786 14.7354C70.9013 14.7354 70.4022 15.3694 70.4036 16.2827V21.0404C70.4036 21.9733 70.9026 22.5878 72.7799 22.5878C74.6759 22.5878 75.1749 21.9733 75.1749 21.0404V20.5909C75.1749 20.422 75.2323 20.3674 75.4044 20.3674H75.9021C76.0729 20.3674 76.133 20.422 76.133 20.5909V21.1132C76.133 22.4553 75.3471 23.4076 72.7612 23.4076C70.1941 23.4076 69.4082 22.4553 69.4082 21.1145V16.2269C69.4082 14.8653 70.1928 13.9156 72.7786 13.9156C75.3457 13.9156 76.1316 14.8653 76.133 16.2269" fill="#D3B6D7"/>
<path d="M76.875 16.2269C76.875 14.8653 77.7783 13.9156 80.3441 13.9143C82.9099 13.9143 83.8106 14.864 83.8106 16.2256V21.1132C83.8106 22.4553 82.9113 23.4076 80.3441 23.4076C77.7783 23.4076 76.875 22.4553 76.875 21.1145V16.2282V16.2269ZM82.8139 16.2814C82.8139 15.3668 82.2201 14.7341 80.3441 14.7341C78.4668 14.7341 77.873 15.3681 77.873 16.2814V21.0391C77.873 21.972 78.4668 22.5865 80.3454 22.5865C82.2214 22.5865 82.8152 21.972 82.8152 21.0391V16.2814H82.8139Z" fill="#D3B6D7"/>
<path d="M85.9155 14.0624C86.069 14.0624 86.1464 14.139 86.1464 14.2858L86.165 15.0511C86.6841 14.6236 87.7542 13.9143 89.3833 13.9143C90.7056 13.9143 91.4915 14.4171 91.8344 15.2005C92.2947 14.7899 93.3862 13.9143 95.2061 13.9143C97.0074 13.9143 97.8493 14.8458 97.8493 16.1515V23.0334C97.8493 23.1841 97.7746 23.2582 97.6198 23.2582H97.0821C96.9113 23.2582 96.8339 23.1828 96.8339 23.0334V16.3386C96.8339 15.4239 96.2975 14.7899 94.9553 14.7912C93.3475 14.7912 92.3494 15.6123 91.9665 15.9306C92.0052 16.0606 92.0052 16.21 92.0052 16.3399V23.0347C92.0052 23.1841 91.9491 23.2595 91.7944 23.2595H91.2393C91.0859 23.2595 91.0298 23.1841 91.0298 23.0347V16.3399C91.0298 15.4252 90.4721 14.7912 89.1498 14.7912C87.5994 14.7912 86.604 15.5552 86.2011 15.9111V23.0347C86.2011 23.1854 86.125 23.2595 85.9729 23.2595H85.4379C85.2631 23.2595 85.207 23.1841 85.207 23.0347V14.2884C85.207 14.1403 85.2631 14.065 85.4379 14.065H85.9142L85.9155 14.0624Z" fill="#D3B6D7"/>
</g>
<defs>
<clipPath id="clip0_654_2801">
<rect fill="white" height="32" transform="translate(0 4)" width="98"/>
</clipPath>
</defs>
</svg>