<?xml version="1.0" encoding="utf-8"?>
<svg xmlns="http://www.w3.org/2000/svg" fill="none" height="40" viewBox="0 0 118 40" width="118">
<g clip-path="url(#clip0_10362_3729)">
<path clip-rule="evenodd" d="M20.8934 24.6199C21.0878 20.6064 18.8446 18.1511 16.0021 18.1511C13.4592 18.1511 11.4185 20.3703 11.4185 23.9195C11.4185 27.4687 13.7184 29.3416 16.2288 29.3416C18.0671 29.3416 20.2132 28.1533 20.7234 25.5721H16.9496C16.8767 26.0757 16.577 26.4613 16.164 26.4613C15.3542 26.4613 15.2489 25.4934 15.2489 24.6277M15.2489 22.4085C15.2489 21.6609 15.5323 21.0157 16.1236 21.0157C16.7147 21.0157 17.0711 21.6767 17.0711 22.4085H15.2489Z" fill="#005699" fill-rule="evenodd"/>
<path clip-rule="evenodd" d="M25.9712 18.3951H22.1812V29.0977H26.0603V23.8801C26.0603 23.2585 26.0603 22.3692 26.7081 22.3692C27.356 22.3692 27.3722 23.2585 27.3722 23.8801V29.0977H31.2513V22.503C31.2513 20.1421 30.4657 18.1511 28.4817 18.1511C27.2345 18.1511 26.6595 18.9381 25.9064 20.1107H25.8173" fill="#005699" fill-rule="evenodd"/>
<path clip-rule="evenodd" d="M45.974 19.001V18.395H37.7461V21.7632H39.6249L40.5158 21.6216V21.7081L37.3574 28.3736V29.0976H45.7797V25.6901H43.5688L42.7671 25.8082V25.6901L43.6012 23.7148" fill="#005699" fill-rule="evenodd"/>
<path clip-rule="evenodd" d="M73.735 18.3951H69.6372V29.0977H73.8242V23.8801C73.8242 23.2585 73.8242 22.3692 74.4725 22.3692C75.1201 22.3692 75.1359 23.2585 75.1359 23.8801V29.0977H79.0155V22.503C79.0155 20.1421 78.2299 18.1511 76.2459 18.1511C74.9987 18.1511 74.4238 18.9381 73.6705 20.1107H73.5813" fill="#005699" fill-rule="evenodd"/>
<path clip-rule="evenodd" d="M80.1572 29.0976H84.1178L84.1253 23.7227L85.9879 29.0976H90.6688L87.7374 23.1482L90.6043 18.395H86.0613L84.2879 22.9122L84.0368 22.3613V13.996H80.1572" fill="#005699" fill-rule="evenodd"/>
<path clip-rule="evenodd" d="M51.376 19.7251V17.5688H51.6595C52.2587 17.5688 53.028 17.4901 53.028 18.5997C53.028 19.6463 52.3478 19.7329 51.7485 19.7329M47.1973 29.1055H53.6678C55.6519 29.1055 57.8222 28.0353 57.8222 24.9111C57.8222 23.0775 57.061 22.078 55.5709 21.3068C57.2229 20.3782 57.4659 19.5913 57.4659 18.2613C57.4659 15.1056 54.3966 13.9016 52.8661 13.9016H47.2135V29.1055H47.1973ZM51.3679 22.9358H51.7728C52.4369 22.9358 53.4896 22.9122 53.4896 24.1871C53.4896 25.4619 52.5097 25.4777 51.8376 25.4777H51.3679V22.9358Z" fill="#005699" fill-rule="evenodd"/>
<path clip-rule="evenodd" d="M64.3 29.0977H68.4625V18.3951H64.3L64.4214 19.6621H64.3324C63.7574 18.6154 62.9637 18.1511 62 18.1511C59.4734 18.1511 58.5259 21.0943 58.5259 23.7936C58.5259 26.4929 59.7325 29.3337 61.8948 29.3337C62.9962 29.3337 63.6278 28.6885 64.3324 27.6811H64.4214M62.3725 23.6913C62.3725 22.9043 62.7613 21.6059 63.3768 21.6059C63.9922 21.6059 64.4133 22.8256 64.4133 23.6519C64.4133 24.4783 64.219 25.9183 63.482 25.9183C62.7451 25.9183 62.3725 24.5412 62.3725 23.6913Z" fill="#005699" fill-rule="evenodd"/>
<path clip-rule="evenodd" d="M0 29.0976H5.2153C8.54368 29.0976 10.9165 26.2331 10.9165 21.716C10.9165 16.1286 8.00115 13.8937 4.19492 13.8937H0M4.12203 17.5923H4.37308C5.87936 17.5923 6.79447 19.5597 6.79447 21.6923C6.79447 23.6912 5.74169 25.3359 4.37308 25.3359H4.12203V17.5923Z" fill="#005699" fill-rule="evenodd"/>
<path clip-rule="evenodd" d="M32.8468 17.4192H36.3047V14.1298H32.8468V17.4192ZM32.6362 29.0976H36.5153V18.395H32.6362V29.0976Z" fill="#005699" fill-rule="evenodd"/>
<path d="M95.3248 18.0646C95.5759 16.6559 96.135 15.3496 96.9363 14.2163L95.8839 13.1855C95.1794 12.5008 95.1794 11.3991 95.8675 10.7223C96.5556 10.0455 97.6896 10.0534 98.386 10.738L99.4226 11.7532C100.597 10.9426 101.949 10.3682 103.415 10.1085V8.75491C103.415 7.78695 104.208 7 105.189 7C106.168 7 106.962 7.78695 106.962 8.75491V10.1006C108.452 10.3524 109.829 10.9348 111.011 11.7532L111.95 10.8325C112.647 10.1478 113.781 10.1399 114.469 10.8167C115.166 11.4935 115.158 12.5952 114.453 13.2799L113.497 14.2163C114.291 15.3496 114.85 16.6559 115.109 18.0646H116.21C117.199 18.0646 118 18.8437 118 19.7959C118 20.7481 117.199 21.5271 116.21 21.5271H115.093C114.826 22.9594 114.243 24.2894 113.417 25.4305L114.259 26.2567C114.955 26.9414 114.964 28.0431 114.267 28.7199C113.578 29.3967 112.444 29.3888 111.748 28.7042L110.89 27.8621C109.732 28.6412 108.395 29.1842 106.954 29.4361V30.7031C106.954 31.671 106.16 32.4579 105.181 32.4579C104.201 32.4579 103.407 31.671 103.407 30.7031V29.4282C101.99 29.1763 100.67 28.6333 99.5282 27.8621L98.5726 28.7986C97.868 29.4833 96.7422 29.4911 96.0534 28.8143C95.3653 28.1376 95.3653 27.0359 96.0699 26.3512L97.0091 25.4305C96.1831 24.2815 95.5924 22.9594 95.333 21.5193H95.2356H93.7538C92.7659 21.5193 91.9639 20.7402 91.9639 19.788C91.9639 18.8358 92.7659 18.0567 93.7538 18.0567H95.2356" fill="white"/>
<path clip-rule="evenodd" d="M99.3009 19.1112C99.4223 18.0252 99.86 17.0258 100.508 16.2073L102.638 18.2849C102.483 18.5446 102.37 18.8201 102.298 19.1191M101.512 15.2158C102.313 14.5941 103.294 14.1613 104.354 14.0117V16.9629C104.103 17.0415 103.86 17.1438 103.633 17.2855L101.512 15.2158ZM105.787 13.9803C106.986 14.0905 108.088 14.5547 108.97 15.2551L106.857 17.3169C106.541 17.1123 106.185 16.9707 105.796 16.892V13.9724L105.787 13.9803ZM109.959 16.2625C110.59 17.0809 111.011 18.0646 111.132 19.1348H108.136C108.071 18.8515 107.966 18.5839 107.828 18.3479L109.959 16.2625ZM111.117 20.5277C110.979 21.598 110.534 22.5817 109.885 23.3923L107.764 21.3225C107.918 21.0786 108.039 20.8111 108.112 20.5277H111.117ZM108.865 24.3759C107.999 25.037 106.945 25.4619 105.796 25.5721V22.6525C106.128 22.5895 106.452 22.4637 106.735 22.2984L108.865 24.3759ZM104.363 25.5406C103.334 25.399 102.394 24.9976 101.601 24.4074L103.731 22.322C103.925 22.4321 104.135 22.5187 104.354 22.5817V25.5327L104.363 25.5406ZM100.58 23.4395C99.9005 22.621 99.447 21.6137 99.3009 20.512H102.306C102.387 20.8268 102.516 21.1101 102.694 21.3698L100.58 23.4316V23.4395ZM96.1505 20.7795H94.0211C93.3652 20.7795 92.8301 20.3467 92.8301 19.8116C92.8301 19.2765 93.3652 18.8437 94.0211 18.8437H96.1423C96.3289 17.1202 97.017 15.5385 98.0619 14.2557L96.6205 12.8471C96.1505 12.3906 96.0943 11.7139 96.4744 11.3361C96.8633 10.9584 97.5515 11.0213 98.0214 11.4778L99.447 12.8786C100.767 11.824 102.402 11.1237 104.192 10.9269V9.03823C104.192 8.39292 104.629 7.87354 105.172 7.87354C105.715 7.87354 106.16 8.39292 106.16 9.03823V10.9269C107.975 11.1158 109.627 11.8162 110.962 12.8864L112.29 11.5801C112.76 11.1237 113.449 11.0607 113.838 11.4384C114.226 11.8162 114.161 12.493 113.691 12.9494L112.347 14.2636C113.392 15.5542 114.072 17.1281 114.259 18.8515H116.016C116.672 18.8515 117.206 19.2843 117.206 19.8195C117.206 20.3546 116.672 20.7874 116.016 20.7874H114.259C114.056 22.5345 113.344 24.132 112.266 25.4226L113.57 26.7053C114.04 27.1617 114.104 27.8385 113.716 28.2163C113.327 28.594 112.639 28.5311 112.169 28.0746L110.857 26.784C109.546 27.7992 107.934 28.4759 106.168 28.6569V30.5614C106.168 31.2067 105.723 31.7261 105.172 31.7261C104.622 31.7261 104.184 31.2067 104.184 30.5614V28.6491C102.443 28.4602 100.856 27.7913 99.552 26.784L98.1346 28.1612C97.6653 28.6176 96.9765 28.6806 96.5882 28.3028C96.1993 27.9251 96.2644 27.2483 96.7337 26.7919L98.1346 25.4226C97.0575 24.132 96.3371 22.5345 96.1423 20.7795" fill="#CE2145" fill-rule="evenodd"/>
</g>
<defs>
<clipPath id="clip0_10362_3729">
<rect fill="white" height="26" transform="translate(0 7)" width="118"/>
</clipPath>
</defs>
</svg>