<?xml version="1.0" encoding="utf-8"?>
<svg xmlns="http://www.w3.org/2000/svg" fill="none" height="40" viewBox="0 0 122 40" width="122">
<g clip-path="url(#clip0_11_59)">
<mask height="26" id="mask0_11_59" maskUnits="userSpaceOnUse" style="mask-type:luminance" width="122" x="0" y="7">
<path d="M121.726 7H0V32.8221H121.726V7Z" fill="white"/>
</mask>
<g mask="url(#mask0_11_59)">
<path d="M25.8668 19.9133C25.8668 22.6182 25.0352 25.1316 23.605 27.2025C22.8511 28.3018 21.9281 29.2825 20.8726 30.0989C20.5482 30.3498 20.2101 30.5916 19.8628 30.8105C17.8569 32.0832 15.4809 32.8221 12.9312 32.8221C12.0904 32.8221 11.2634 32.74 10.4638 32.5895C10.5552 31.773 10.8476 31.0203 11.2862 30.3726C11.9579 29.3828 12.9677 28.6484 14.1558 28.3337C14.4299 28.2972 14.6995 28.247 14.96 28.1923C15.8555 28.0007 16.7054 27.6951 17.5005 27.2891C18.789 26.6368 19.9313 25.7337 20.8543 24.6389C21.9373 23.3572 22.7232 21.82 23.107 20.1277C22.6912 21.0993 22.1383 21.9933 21.4666 22.787C21.0417 23.2933 20.571 23.7586 20.0547 24.1782C19.2779 24.8123 18.4143 25.3368 17.4776 25.7337C17.4091 25.7656 17.3451 25.793 17.2766 25.8203C16.7054 26.0439 16.0886 26.167 15.4397 26.167C13.708 26.167 12.1864 25.2912 11.2862 23.9593C10.9344 23.4347 10.674 22.8418 10.5415 22.2032C11.3594 22.4495 12.223 22.5818 13.1231 22.5818C15.9332 22.5818 18.4418 21.2863 20.0776 19.2656C20.3746 18.9007 20.6396 18.513 20.8772 18.1025C21.6311 16.7933 22.0606 15.2789 22.0606 13.6596C22.0606 13.614 22.0606 13.573 22.0606 13.5274C22.0606 13.1807 22.0332 12.8386 21.9875 12.5011C21.8779 11.6526 21.6494 10.8407 21.3158 10.0835C22.0378 10.6947 22.6912 11.3881 23.2624 12.1453C24.8982 14.3074 25.8668 16.9986 25.8668 19.9179V19.9133ZM12.2778 26.5274C11.437 26.0347 10.7242 25.346 10.1942 24.5295C9.69156 24.8351 9.22093 25.1818 8.77771 25.5649C8.27052 26.0074 7.80902 26.5 7.39778 27.0382C7.3658 27.0793 7.33381 27.1203 7.3064 27.1614C8.08774 28.2151 9.07014 29.1091 10.1942 29.7933C10.5415 29.2505 10.971 28.7716 11.469 28.3611C12.1361 27.8091 12.9175 27.3986 13.7719 27.1614C13.2419 27.0154 12.7393 26.8011 12.2778 26.5274Z" fill="white"/>
<path d="M0 19.9088C0 17.2039 0.83161 14.6905 2.2618 12.6196C3.01573 11.5204 3.93873 10.5396 4.99423 9.72316C5.31865 9.47228 5.65678 9.23053 6.00404 9.01158C8.00539 7.73895 10.3814 7 12.9311 7C13.7718 7 14.5989 7.08211 15.3985 7.23263C15.3071 8.04912 15.0147 8.80175 14.576 9.44947C13.9043 10.4393 12.8945 11.1737 11.7065 11.4884C11.4324 11.5249 11.1628 11.5751 10.9023 11.6298C10.0067 11.8214 9.15685 12.127 8.3618 12.533C7.07326 13.1853 5.93094 14.0884 5.00794 15.1832C3.92502 16.4649 3.1391 18.0021 2.75528 19.6944C3.17109 18.7228 3.72397 17.8288 4.39566 17.0351C4.8206 16.5288 5.29124 16.0635 5.80757 15.6439C6.58434 15.0098 7.44794 14.4853 8.38464 14.0884C8.45318 14.0565 8.51715 14.0291 8.58569 14.0018C9.15685 13.7782 9.77371 13.6551 10.4225 13.6551C12.1543 13.6551 13.6759 14.5309 14.576 15.8628C14.9279 16.3874 15.1883 16.9804 15.3208 17.6189C14.5029 17.3726 13.6393 17.2404 12.7392 17.2404C9.92906 17.2404 7.42052 18.5358 5.78472 20.5565C5.48772 20.9214 5.2227 21.3091 4.98509 21.7196C4.23116 23.0288 3.80165 24.5432 3.80165 26.1625C3.80165 26.2081 3.80165 26.2491 3.80165 26.2947C3.80165 26.6414 3.82906 26.9835 3.87476 27.3211C3.98442 28.1695 4.21288 28.9814 4.54644 29.7386C3.82449 29.1274 3.17109 28.434 2.59993 27.6768C0.968689 25.5193 0 22.8281 0 19.9088ZM13.5891 13.2947C14.4298 13.7874 15.1426 14.4761 15.6727 15.2926C16.1753 14.987 16.6459 14.6404 17.0891 14.2572C17.5963 13.8147 18.0578 13.3221 18.4691 12.7839C18.501 12.7428 18.533 12.7018 18.5604 12.6607C17.7791 11.607 16.7967 10.713 15.6727 10.0288C15.3254 10.5716 14.8959 11.0505 14.3978 11.4611C13.7307 12.013 12.9494 12.4235 12.0949 12.6607C12.6249 12.8067 13.1276 13.0211 13.5891 13.2947Z" fill="white"/>
<path d="M25.8668 19.9133C25.8668 22.6182 25.0352 25.1316 23.605 27.2025C22.8511 28.3018 21.9281 29.2825 20.8726 30.0989C20.5482 30.3498 20.2101 30.5916 19.8628 30.8105C17.8569 32.0832 15.4809 32.8221 12.9312 32.8221C12.0904 32.8221 11.2634 32.74 10.4638 32.5895C10.5552 31.773 10.8476 31.0203 11.2862 30.3726C11.9579 29.3828 12.9677 28.6484 14.1558 28.3337C14.4299 28.2972 14.6995 28.247 14.96 28.1923C15.8555 28.0007 16.7054 27.6951 17.5005 27.2891C18.789 26.6368 19.9313 25.7337 20.8543 24.6389C21.9373 23.3572 22.7232 21.82 23.107 20.1277C22.6912 21.0993 22.1383 21.9933 21.4666 22.787C21.0417 23.2933 20.571 23.7586 20.0547 24.1782C19.2779 24.8123 18.4143 25.3368 17.4776 25.7337C17.4091 25.7656 17.3451 25.793 17.2766 25.8203C16.7054 26.0439 16.0886 26.167 15.4397 26.167C13.708 26.167 12.1864 25.2912 11.2862 23.9593C10.9344 23.4347 10.674 22.8418 10.5415 22.2032C11.3594 22.4495 12.223 22.5818 13.1231 22.5818C15.9332 22.5818 18.4418 21.2863 20.0776 19.2656C20.3746 18.9007 20.6396 18.513 20.8772 18.1025C21.6311 16.7933 22.0606 15.2789 22.0606 13.6596C22.0606 13.614 22.0606 13.573 22.0606 13.5274C22.0606 13.1807 22.0332 12.8386 21.9875 12.5011C21.8779 11.6526 21.6494 10.8407 21.3158 10.0835C22.0378 10.6947 22.6912 11.3881 23.2624 12.1453C24.8982 14.3074 25.8668 16.9986 25.8668 19.9179V19.9133ZM12.2778 26.5274C11.437 26.0347 10.7242 25.346 10.1942 24.5295C9.69156 24.8351 9.22093 25.1818 8.77771 25.5649C8.27052 26.0074 7.80902 26.5 7.39778 27.0382C7.3658 27.0793 7.33381 27.1203 7.3064 27.1614C8.08774 28.2151 9.07014 29.1091 10.1942 29.7933C10.5415 29.2505 10.971 28.7716 11.469 28.3611C12.1361 27.8091 12.9175 27.3986 13.7719 27.1614C13.2419 27.0154 12.7393 26.8011 12.2778 26.5274Z" fill="#D41F34"/>
<path d="M0 19.9088C0 17.2039 0.83161 14.6905 2.2618 12.6196C3.01573 11.5204 3.93873 10.5396 4.99423 9.72316C5.31865 9.47228 5.65678 9.23053 6.00404 9.01158C8.00539 7.73895 10.3814 7 12.9311 7C13.7718 7 14.5989 7.08211 15.3985 7.23263C15.3071 8.04912 15.0147 8.80175 14.576 9.44947C13.9043 10.4393 12.8945 11.1737 11.7065 11.4884C11.4324 11.5249 11.1628 11.5751 10.9023 11.6298C10.0067 11.8214 9.15685 12.127 8.3618 12.533C7.07326 13.1853 5.93094 14.0884 5.00794 15.1832C3.92502 16.4649 3.1391 18.0021 2.75528 19.6944C3.17109 18.7228 3.72397 17.8288 4.39566 17.0351C4.8206 16.5288 5.29124 16.0635 5.80757 15.6439C6.58434 15.0098 7.44794 14.4853 8.38464 14.0884C8.45318 14.0565 8.51715 14.0291 8.58569 14.0018C9.15685 13.7782 9.77371 13.6551 10.4225 13.6551C12.1543 13.6551 13.6759 14.5309 14.576 15.8628C14.9279 16.3874 15.1883 16.9804 15.3208 17.6189C14.5029 17.3726 13.6393 17.2404 12.7392 17.2404C9.92906 17.2404 7.42052 18.5358 5.78472 20.5565C5.48772 20.9214 5.2227 21.3091 4.98509 21.7196C4.23116 23.0288 3.80165 24.5432 3.80165 26.1625C3.80165 26.2081 3.80165 26.2491 3.80165 26.2947C3.80165 26.6414 3.82906 26.9835 3.87476 27.3211C3.98442 28.1695 4.21288 28.9814 4.54644 29.7386C3.82449 29.1274 3.17109 28.434 2.59993 27.6768C0.968689 25.5193 0 22.8281 0 19.9088ZM13.5891 13.2947C14.4298 13.7874 15.1426 14.4761 15.6727 15.2926C16.1753 14.987 16.6459 14.6404 17.0891 14.2572C17.5963 13.8147 18.0578 13.3221 18.4691 12.7839C18.501 12.7428 18.533 12.7018 18.5604 12.6607C17.7791 11.607 16.7967 10.713 15.6727 10.0288C15.3254 10.5716 14.8959 11.0505 14.3978 11.4611C13.7307 12.013 12.9494 12.4235 12.0949 12.6607C12.6249 12.8067 13.1276 13.0211 13.5891 13.2947Z" fill="#00377B"/>
<path d="M39.7025 19.8221C39.7025 21.5372 39.2136 22.8463 38.2358 23.7586C37.258 24.6709 35.8461 25.127 34.0046 25.127H31.0529V14.7179H34.3245C36.0243 14.7179 37.3494 15.1649 38.2906 16.0635C39.2319 16.9621 39.7025 18.2119 39.7025 19.8221ZM37.4042 19.8768C37.4042 17.6418 36.4172 16.5242 34.4387 16.5242H33.2599V23.3025H34.2103C36.3396 23.3025 37.4042 22.1621 37.4042 19.8768ZM46.7575 25.127L46.4651 24.1098H46.3509C46.1178 24.4793 45.7888 24.7667 45.3593 24.9674C44.9298 25.1681 44.4455 25.2684 43.8972 25.2684C42.9605 25.2684 42.2522 25.0175 41.777 24.5158C41.3018 24.014 41.0642 23.2933 41.0642 22.3537V17.1628H43.2392V21.8109C43.2392 22.3856 43.3397 22.8144 43.5453 23.1018C43.7509 23.3891 44.0754 23.5305 44.5231 23.5305C45.1309 23.5305 45.5695 23.3298 45.8437 22.9239C46.1133 22.5179 46.2503 21.8474 46.2503 20.9077V17.1628H48.4253V25.1225H46.7575V25.127ZM42.2933 15.1239C42.2933 14.8137 42.3802 14.5765 42.5629 14.4123C42.7411 14.2481 42.9833 14.1614 43.2849 14.1614C43.5864 14.1614 43.8469 14.2481 44.0251 14.426C44.2033 14.6039 44.2947 14.8319 44.2947 15.1239C44.2947 15.4158 44.2033 15.6393 44.0251 15.8126C43.8423 15.986 43.6002 16.0726 43.2894 16.0726C42.9787 16.0726 42.7457 15.9905 42.5675 15.8218C42.3893 15.6575 42.2979 15.4249 42.2979 15.1239H42.2933ZM45.1674 15.1239C45.1674 14.7909 45.2634 14.5491 45.4553 14.394C45.6472 14.239 45.8848 14.1614 46.1727 14.1614C46.4834 14.1614 46.7255 14.2481 46.9129 14.4168C47.1002 14.5856 47.187 14.8228 47.187 15.1239C47.187 15.4249 47.0957 15.6439 46.9083 15.8126C46.721 15.9814 46.4788 16.0681 46.1727 16.0681C45.8894 16.0681 45.6472 15.9905 45.4553 15.8354C45.2634 15.6804 45.1674 15.4432 45.1674 15.1193V15.1239ZM57.4816 25.127H55.3067V20.479C55.3067 19.9042 55.2061 19.4754 55.0005 19.1881C54.7949 18.9007 54.4705 18.7593 54.0227 18.7593C53.415 18.7593 52.9763 18.96 52.7022 19.366C52.428 19.7719 52.2955 20.4425 52.2955 21.3821V25.127H50.1205V17.1674H51.7837L52.0762 18.1846H52.1995C52.4417 17.8014 52.7753 17.5095 53.2002 17.3133C53.6252 17.1172 54.1095 17.0168 54.6533 17.0168C55.5808 17.0168 56.2845 17.2677 56.7643 17.7695C57.244 18.2712 57.4862 18.9919 57.4862 19.9361V25.127H57.4816ZM57.9386 17.1811H60.3192L61.8225 21.3912C61.9504 21.7561 62.0372 22.1895 62.0875 22.6912H62.1286C62.1789 22.2305 62.284 21.7972 62.4348 21.3912L63.9106 17.1811H66.241L62.8688 25.6197C62.5581 26.3997 62.1195 26.9835 61.5437 27.3712C60.9726 27.7589 60.3009 27.9551 59.5378 27.9551C59.1631 27.9551 58.793 27.9186 58.4321 27.8411V26.2218C58.6925 26.2811 58.9804 26.3084 59.2865 26.3084C59.6703 26.3084 60.0085 26.1989 60.2963 25.9754C60.5842 25.7519 60.8081 25.4189 60.968 24.9765L61.096 24.607L57.9294 17.1765L57.9386 17.1811ZM70.7874 19.8221C70.7874 19.0147 70.3716 18.6133 69.5446 18.6133C68.9094 18.6133 68.1601 18.8049 67.2965 19.1881L66.5745 17.7193C67.493 17.2404 68.5073 16.9986 69.6268 16.9986C70.7463 16.9986 71.5185 17.2312 72.0851 17.6965C72.6562 18.1618 72.9395 18.8688 72.9395 19.8175V25.1225H71.4225L71.0022 24.0414H70.9473C70.5818 24.5021 70.2025 24.8214 69.8187 24.9993C69.4303 25.1772 68.9277 25.2684 68.3017 25.2684C67.5341 25.2684 66.9355 25.0495 66.4923 24.6116C66.0536 24.1737 65.8343 23.5533 65.8343 22.746C65.8343 21.9386 66.1313 21.2772 66.7207 20.8758C67.3148 20.4744 68.2058 20.2509 69.3984 20.2098L70.7828 20.1688V19.8221M70.7874 21.4368L69.9467 21.4642C69.3161 21.4825 68.8455 21.5965 68.5348 21.8063C68.224 22.0161 68.0733 22.3354 68.0733 22.7597C68.0733 23.3709 68.4251 23.6765 69.1288 23.6765C69.6314 23.6765 70.0335 23.5305 70.3396 23.2432C70.6412 22.9558 70.792 22.5681 70.792 22.0891V21.4323L70.7874 21.4368ZM84.6735 25.127H82.1649L79.4325 20.7435L78.5004 21.414V25.1316H76.2888V14.7225H78.5004V19.4846L79.3685 18.2621L82.1924 14.7225H84.6461L81.0089 19.3295L84.6735 25.1316V25.127ZM90.0013 25.127L89.5809 24.046H89.5261C89.1605 24.5067 88.7813 24.826 88.3974 25.0039C88.0091 25.1818 87.5064 25.273 86.8804 25.273C86.1128 25.273 85.5142 25.054 85.071 24.6161C84.6324 24.1782 84.413 23.5579 84.413 22.7505C84.413 21.9432 84.71 21.2818 85.2995 20.8804C85.8935 20.479 86.7845 20.2554 87.9771 20.2144L89.3616 20.1733V19.8267C89.3616 19.0193 88.9458 18.6179 88.1187 18.6179C87.4836 18.6179 86.7342 18.8095 85.8706 19.1926L85.1487 17.7239C86.0671 17.2449 87.0815 17.0032 88.201 17.0032C89.3204 17.0032 90.0927 17.2358 90.6592 17.7011C91.2304 18.1663 91.5137 18.8733 91.5137 19.8221V25.127H89.9967H90.0013ZM89.3616 21.4368L88.5208 21.4642C87.8903 21.4825 87.4196 21.5965 87.1089 21.8063C86.7982 22.0161 86.6474 22.3354 86.6474 22.7597C86.6474 23.3709 86.9992 23.6765 87.7029 23.6765C88.2055 23.6765 88.6076 23.5305 88.9138 23.2432C89.2153 22.9558 89.3661 22.5681 89.3661 22.0891V21.4323L89.3616 21.4368ZM96.2429 23.5397C96.6222 23.5397 97.0791 23.4575 97.6137 23.2888V24.9035C97.07 25.1453 96.4074 25.2684 95.6169 25.2684C94.7488 25.2684 94.1136 25.0495 93.7161 24.6116C93.3186 24.1737 93.1221 23.5123 93.1221 22.6365V18.8004H92.0803V17.8835L93.2774 17.1582L93.9034 15.4797H95.2925V17.1719H97.5269V18.8004H95.2925V22.6365C95.2925 22.9467 95.3793 23.1747 95.553 23.3207C95.7266 23.4667 95.9551 23.5397 96.2429 23.5397ZM100.817 25.127H98.6418V17.1674H100.817V25.127ZM104.399 25.127H102.224V15.4888H104.399V25.127ZM107.995 25.127H105.82V17.1674H107.995V25.127ZM116.759 25.127H114.584V20.479C114.584 19.9042 114.488 19.4754 114.296 19.1881C114.104 18.9007 113.803 18.7593 113.387 18.7593C112.829 18.7593 112.427 18.9646 112.176 19.3705C111.925 19.7765 111.797 20.4516 111.797 21.3867V25.1316H109.622V17.1719H111.285L111.577 18.1891H111.701C111.916 17.8242 112.222 17.5368 112.628 17.3316C113.03 17.1263 113.497 17.0214 114.017 17.0214C115.21 17.0214 116.019 17.4091 116.444 18.1891H116.636C116.85 17.8197 117.166 17.5323 117.581 17.327C117.997 17.1218 118.468 17.0214 118.989 17.0214C119.894 17.0214 120.574 17.254 121.04 17.7147C121.502 18.1754 121.735 18.919 121.735 19.9407V25.1316H119.551V20.4835C119.551 19.9088 119.455 19.48 119.263 19.1926C119.071 18.9053 118.769 18.7639 118.354 18.7639C117.819 18.7639 117.422 18.9554 117.161 19.334C116.896 19.7126 116.764 20.3147 116.764 21.1404V25.1361L116.759 25.127Z" fill="#00377B"/>
</g>
</g>
<defs>
<clipPath id="clip0_11_59">
<rect fill="white" height="26" transform="translate(0 7)" width="122"/>
</clipPath>
</defs>
</svg>