<?xml version="1.0" encoding="utf-8"?>
<svg xmlns="http://www.w3.org/2000/svg" fill="none" height="40" viewBox="0 0 102 40" width="102">
<path d="M14.8949 34.875C14.5526 34.875 14.184 34.7697 13.8681 34.5854L3.94266 28.6354C3.44244 28.3195 3.10018 27.8192 2.99487 27.24L0.0198692 7.38916C-0.0591131 6.80996 0.0988517 6.23075 0.467436 5.80951C0.83602 5.36195 1.3889 5.125 1.9681 5.125H27.769C28.3482 5.125 28.9011 5.38827 29.2696 5.80951C29.6382 6.25708 29.8225 6.83628 29.7172 7.38916L26.7422 27.24C26.6632 27.8192 26.321 28.3458 25.7944 28.6354L15.869 34.5854C15.5531 34.7697 15.2108 34.875 14.8422 34.875H14.8949Z" fill="url(#paint0_linear_10362_3856)"/>
<path d="M14.8947 26.5555C12.7622 26.5555 10.7613 25.713 9.26062 24.2124C7.75996 22.7117 6.91748 20.7108 6.91748 18.5783C6.91748 16.4458 7.75996 14.4449 9.26062 12.9442C10.7613 11.4436 12.7622 10.6011 14.8947 10.6011C17.0272 10.6011 19.0281 11.4436 20.5551 12.9442L18.4226 15.0504C17.4748 14.1026 16.2374 13.6024 14.8947 13.6024C13.552 13.6024 12.3146 14.129 11.3668 15.0504C10.419 15.9982 9.89248 17.2356 9.89248 18.5783C9.89248 19.921 10.419 21.1584 11.3668 22.1062C12.3146 23.0539 13.552 23.5805 14.8947 23.5805C16.2374 23.5805 17.4748 23.0539 18.4226 22.1062L20.5551 24.2124C19.0544 25.713 17.0272 26.5555 14.8947 26.5555Z" fill="white"/>
<path d="M42.302 13.6816C43.5131 13.6816 44.4082 14.0501 45.2243 14.8136C45.3296 14.919 45.3296 15.0506 45.2243 15.1559L44.2766 16.13C44.1976 16.209 44.0659 16.209 43.9869 16.13C43.5394 15.7351 42.9602 15.5245 42.3546 15.5245C40.9856 15.5245 39.9852 16.6566 39.9852 17.9993C39.9852 19.342 41.012 20.4477 42.3546 20.4477C43.6973 20.4477 43.5394 20.2371 43.9606 19.8685C44.0396 19.7895 44.1976 19.7895 44.2766 19.8685L45.2243 20.8689C45.3033 20.9479 45.3033 21.1059 45.2243 21.1849C44.4082 21.9747 43.3551 22.3433 42.302 22.3433C39.8799 22.3433 37.9316 20.4214 37.9316 17.9993C37.9316 15.5771 39.8799 13.6289 42.302 13.6289V13.6816Z" fill="black"/>
<path d="M47.8833 14.0238C47.8833 13.8922 47.9886 13.7869 48.1202 13.7869H53.1225C53.2541 13.7869 53.3594 13.8922 53.3594 14.0238V15.3402C53.3594 15.4718 53.2541 15.5771 53.1225 15.5771H49.7789V17.0778H52.5433C52.6749 17.0778 52.7802 17.1831 52.7802 17.3147V18.6311C52.7802 18.7628 52.6749 18.8681 52.5433 18.8681H49.7789V20.5004H53.1225C53.2541 20.5004 53.3594 20.6057 53.3594 20.7373V22.0537C53.3594 22.1853 53.2541 22.2906 53.1225 22.2906H48.1202C47.9886 22.2906 47.8833 22.1853 47.8833 22.0537V14.0501V14.0238Z" fill="black"/>
<path d="M56.1763 14.0238C56.1763 13.8922 56.2816 13.7869 56.4132 13.7869H59.3356C60.8099 13.7869 62.0473 14.9979 62.0473 16.4459C62.0473 17.8939 60.8362 19.1577 59.3619 19.1577H58.0982V22.001C58.0982 22.1327 57.9929 22.238 57.8612 22.238H56.4395C56.3079 22.238 56.2026 22.1327 56.2026 22.001V13.9975L56.1763 14.0238ZM59.2039 17.4201C59.7305 17.4201 60.1517 16.9988 60.1517 16.4723C60.1517 15.9457 59.7041 15.5771 59.2039 15.5771H58.0455V17.4201H59.2039Z" fill="black"/>
<path d="M65.5751 15.5771H63.8375C63.7059 15.5771 63.6006 15.4718 63.6006 15.3402V14.0238C63.6006 13.8922 63.7059 13.7869 63.8375 13.7869H69.2083C69.34 13.7869 69.4453 13.8922 69.4453 14.0238V15.3402C69.4453 15.4718 69.34 15.5771 69.2083 15.5771H67.4707V22.0274C67.4707 22.159 67.3654 22.2643 67.2338 22.2643H65.7858C65.6541 22.2643 65.5488 22.159 65.5488 22.0274V15.5771H65.5751Z" fill="black"/>
<path d="M71.8413 14.0238C71.8413 13.8922 71.9466 13.7869 72.0783 13.7869H77.0805C77.2121 13.7869 77.3174 13.8922 77.3174 14.0238V15.3402C77.3174 15.4718 77.2121 15.5771 77.0805 15.5771H73.7369V17.0778H76.5013C76.6329 17.0778 76.7382 17.1831 76.7382 17.3147V18.6311C76.7382 18.7628 76.6329 18.8681 76.5013 18.8681H73.7369V20.5004H77.0805C77.2121 20.5004 77.3174 20.6057 77.3174 20.7373V22.0537C77.3174 22.1853 77.2121 22.2906 77.0805 22.2906H72.0783C71.9466 22.2906 71.8413 22.1853 71.8413 22.0537V14.0501V14.0238Z" fill="black"/>
<path d="M81.2138 15.5771H79.4762C79.3446 15.5771 79.2393 15.4718 79.2393 15.3402V14.0238C79.2393 13.8922 79.3446 13.7869 79.4762 13.7869H84.847C84.9786 13.7869 85.084 13.8922 85.084 14.0238V15.3402C85.084 15.4718 84.9786 15.5771 84.847 15.5771H83.1094V22.0274C83.1094 22.159 83.0041 22.2643 82.8724 22.2643H81.4244C81.2928 22.2643 81.1875 22.159 81.1875 22.0274V15.5771H81.2138Z" fill="black"/>
<path d="M87.5059 14.0238C87.5059 13.8922 87.6112 13.7869 87.7428 13.7869H92.745C92.8767 13.7869 92.982 13.8922 92.982 14.0238V15.3402C92.982 15.4718 92.8767 15.5771 92.745 15.5771H89.4014V17.0778H92.1658C92.2975 17.0778 92.4028 17.1831 92.4028 17.3147V18.6311C92.4028 18.7628 92.2975 18.8681 92.1658 18.8681H89.4014V20.5004H92.745C92.8767 20.5004 92.982 20.6057 92.982 20.7373V22.0537C92.982 22.1853 92.8767 22.2906 92.745 22.2906H87.7428C87.6112 22.2906 87.5059 22.1853 87.5059 22.0537V14.0501V14.0238Z" fill="black"/>
<path d="M95.7729 14.0238C95.7729 13.8922 95.8783 13.7869 96.0099 13.7869H98.8269C100.249 13.7869 101.433 14.761 101.433 16.0247C101.433 17.2884 100.591 17.6307 100.038 17.9203C100.67 18.1835 101.644 18.7891 101.644 19.8948C101.644 21.0006 100.459 22.238 99.0112 22.238H96.0099C95.8783 22.238 95.7729 22.1327 95.7729 22.001V13.9975V14.0238ZM98.6163 17.2358C99.0639 17.2358 99.4588 16.8408 99.4588 16.367C99.4588 15.8931 99.0639 15.5508 98.6163 15.5508H97.6685V17.2358H98.6163ZM98.7743 20.5267C99.2482 20.5267 99.6431 20.1318 99.6431 19.6579C99.6431 19.184 99.1165 18.8154 98.6426 18.8154H97.6685V20.553H98.7743V20.5267Z" fill="black"/>
<defs>
<linearGradient gradientUnits="userSpaceOnUse" id="paint0_linear_10362_3856" x1="-0.00645825" x2="29.7699" y1="19.9737" y2="19.9737">
<stop stop-color="#00AF4B"/>
<stop offset="1" stop-color="#00FF4B"/>
</linearGradient>
</defs>
</svg>