<?xml version="1.0" encoding="utf-8"?>
<svg xmlns="http://www.w3.org/2000/svg" fill="none" height="40" viewBox="0 0 64 40" width="64">
<g clip-path="url(#clip0_10362_3742)">
<path d="M26.3427 7.11719H0V32.8013H26.3427V7.11719Z" fill="url(#paint0_linear_10362_3742)"/>
<path d="M25.5301 20.129C25.5301 25.5034 25.7622 30.991 25.7622 30.991C25.7622 31.6133 25.356 32.0093 24.8339 32.0093H2.08861C1.5664 32.0093 1.21826 31.5567 1.16023 30.991C1.16023 30.991 0.521973 26.2954 0.521973 19.1672C0.521973 12.0391 1.16023 8.64465 1.16023 8.64465C1.21826 8.07893 1.5664 7.62634 2.08861 7.62634H24.8919C25.4141 7.62634 25.8202 8.07893 25.8202 8.64465C25.7622 8.58808 25.5301 14.7545 25.5301 20.129Z" fill="url(#paint1_linear_10362_3742)"/>
<path d="M20.4819 14.0756C18.8573 14.9807 18.3351 15.0939 16.5943 16.1122L16.6524 15.9425C17.5808 14.9807 17.9869 14.5282 18.5671 13.6796C16.9425 13.7927 14.5635 13.9624 12.8809 14.3019L12.9969 14.1322C14.5055 13.3967 17.4067 12.6612 18.8573 12.4915C18.5091 11.9824 15.608 10.4549 14.9117 10.172L14.9697 10.0023C17.1746 10.2286 20.0758 11.2469 21.2943 11.9824C21.8165 11.8126 22.3967 11.8126 23.3831 11.6995C23.3831 11.6995 23.209 12.2652 22.1646 13.0007C22.4547 13.6796 21.8165 17.5831 21.2362 18.6014C21.2362 17.0174 21.0622 14.9807 20.4819 14.0756Z" fill="url(#paint2_linear_10362_3742)"/>
<path d="M8.58672 27.936L8.64473 27.7662C7.77437 27.4268 6.90401 27.2005 6.20772 26.5216C6.43984 25.8993 6.67193 25.4468 7.07808 24.881L7.13609 24.7113C6.38179 24.8244 5.74356 25.1073 5.10528 25.2204C4.58306 24.3718 4.40899 23.1838 4.1189 22.0524L4.06086 22.2221C3.94481 23.5233 3.88679 24.4284 4.06086 25.4468C3.53865 25.6165 3.07446 25.6165 2.61027 25.7862L2.55225 25.9559C3.24853 26.3519 3.77074 26.6914 4.58306 27.0308C4.98922 27.8794 5.45342 28.5017 6.14971 29.1806L6.20772 29.0108C6.0917 28.5017 5.91763 28.1057 5.97564 27.54C6.846 27.7662 7.6003 27.936 8.58672 27.936Z" fill="url(#paint3_linear_10362_3742)"/>
<path d="M10.9658 15.0374C10.9658 15.0374 10.6177 15.6596 10.3276 16.4517H10.2695C12.3004 16.7345 14.2152 17.5266 14.6793 17.8094L14.6213 17.9792C12.5325 17.6397 11.43 17.6397 10.6177 17.7528C9.86337 17.8094 9.6893 17.9226 9.6893 17.9226C9.22514 18.8843 8.99302 20.4684 8.877 21.0341L8.81894 21.2038C8.41279 20.2986 7.89057 18.4883 7.89057 18.4883C6.84614 19.054 4.40918 21.2604 4.40918 21.2604C5.7437 18.658 7.13628 17.47 7.13628 17.47C6.67207 17.0174 5.45361 16.7911 4.5252 16.7345L4.58325 16.5648C5.16348 16.3951 6.32393 16.3385 7.07827 16.282C8.00664 16.282 8.52885 16.282 8.52885 16.282C9.34116 15.6596 10.5597 15.0939 10.9658 15.0374Z" fill="url(#paint4_linear_10362_3742)"/>
<path d="M13.5185 26.2954C13.1124 26.8612 12.7062 27.3137 12.242 27.8229C11.5457 27.9926 10.7334 27.9361 10.0952 27.9361L10.0371 28.1058C10.5013 28.3321 10.9655 28.5018 11.4877 28.6149C11.0815 28.9544 10.5593 29.2372 10.1532 29.5201L10.0952 29.6898C10.9075 29.5201 12.0099 29.1807 12.8223 28.6715C13.2284 28.6715 13.6346 28.6715 13.9247 28.6149L13.9827 28.4452C13.9247 28.2755 13.7506 28.1623 13.6926 27.8795C14.4469 27.3137 14.9691 26.8046 15.6074 26.1823L15.7234 26.0126C15.0852 26.4086 14.3309 27.0309 13.6346 27.3703C13.5766 26.9743 13.5766 26.6915 13.5185 26.2954Z" fill="url(#paint5_linear_10362_3742)"/>
<path d="M20.5401 13.9059C18.9155 14.8111 18.3933 14.9242 16.6525 15.9425C17.697 14.8677 18.0451 14.4151 18.6833 13.4533C17.0587 13.5099 14.6797 13.7362 12.9971 14.0756C14.4477 13.2836 17.4068 12.435 18.9155 12.2653C18.5673 11.8127 15.6662 10.2852 14.9699 9.9458C17.2328 10.1155 20.0759 10.9641 21.4105 11.7561C21.9327 11.5864 22.5129 11.5864 23.4993 11.4733C23.2672 11.8693 23.2092 12.1521 22.2808 12.7745C22.5709 13.4533 21.9327 17.3569 21.3524 18.3752C21.2944 16.7911 21.1784 14.7545 20.5401 13.9059Z" fill="white"/>
<path d="M8.64488 27.7662C7.71651 27.4268 7.02022 27.0308 6.32393 26.3519C6.55606 25.7296 6.78814 25.277 7.19429 24.7113C6.43999 24.8244 5.85977 24.881 5.22149 25.0507C4.69928 24.1456 4.46719 23.2404 4.17706 22.0524C4.06102 23.3536 4.003 24.2587 4.17706 25.277C3.59683 25.4468 3.13265 25.5599 2.66846 25.7862C3.36474 26.1822 3.94498 26.5216 4.69928 26.8611C5.10543 27.7097 5.56963 28.332 6.26592 29.0108C6.09185 28.4451 6.03384 27.9925 6.14986 27.3702C6.9042 27.5965 7.6585 27.7097 8.64488 27.7662Z" fill="white"/>
<path d="M11.082 14.9242C10.7918 15.3202 10.4437 15.9991 10.3857 16.282C12.7646 16.6214 14.7374 17.8094 14.7374 17.8094C12.6486 17.47 11.5461 17.47 10.7338 17.5832C9.97953 17.6397 9.80546 17.7529 9.80546 17.7529C9.22519 18.9409 8.87705 21.0341 8.87705 21.0341C8.4709 20.1289 7.94868 18.3186 7.94868 18.3186C6.90425 18.8843 4.46729 21.0907 4.46729 21.0907C5.80181 18.4883 7.19438 17.3003 7.19438 17.3003C6.73018 16.8477 5.51172 16.6214 4.58331 16.5648C5.04751 16.3951 6.26601 16.1688 7.19438 16.1122C8.12275 16.1122 8.64497 16.1122 8.64497 16.1122C9.39927 15.49 10.6758 14.9808 11.082 14.9242Z" fill="white"/>
<path d="M13.6351 26.1257C13.229 26.6915 12.8228 27.144 12.3586 27.6532C11.5463 27.8795 10.9081 27.9361 10.0957 27.9361C10.5599 28.1623 11.0241 28.3321 11.5463 28.4452C11.0241 28.8978 10.6179 29.1807 10.0957 29.5201C10.9081 29.3504 12.0105 29.0109 12.8228 28.5018C13.229 28.5018 13.6351 28.5018 13.9252 28.4452C13.8672 28.2189 13.8092 28.0492 13.7512 27.7098C14.5055 27.144 15.0857 26.6349 15.666 26.0126C14.9697 26.4651 14.3894 26.8046 13.6351 27.144C13.6932 26.8046 13.6351 26.5217 13.6351 26.1257Z" fill="white"/>
<path d="M42.299 15.3202V16.7911C40.9067 16.6214 40.5005 16.6214 38.9339 16.5648C38.8758 17.7528 38.8758 19.3935 38.8758 20.0724C38.8758 20.921 38.8758 23.9193 39.0499 25.3336H36.1487C36.3228 23.9193 36.3228 20.9775 36.3228 20.0724C36.3228 19.3935 36.2648 17.8094 36.2648 16.5648C34.6981 16.6214 34.292 16.6214 32.8994 16.7911V15.3202H42.299Z" fill="black"/>
<path d="M52.1639 15.3202V16.7911C50.7132 16.6214 49.3208 16.678 47.8702 16.678C47.464 16.678 47.174 16.678 46.6517 16.7345C46.6517 17.6963 46.5934 18.8277 46.5934 19.6198L50.3649 19.5066V21.0341L46.5934 20.921C46.5934 21.7695 46.6517 23.0707 46.6517 24.089C48.5664 24.089 50.5393 24.0324 52.454 23.9193V25.3902H43.9243C44.0404 23.9759 44.0987 21.0341 44.0987 20.1289C44.0987 19.1672 44.0404 16.5082 43.9826 15.3768H52.1639V15.3202Z" fill="black"/>
<path clip-rule="evenodd" d="M63.4201 17.6397C63.4201 15.999 61.5054 15.3202 59.6486 15.3202H54.3682C54.5425 16.6214 54.5425 18.7146 54.5425 20.0723C54.5425 22.1089 54.4843 24.0324 54.3682 25.3336H59.1842C61.5632 25.3336 64.0002 24.5981 64.0002 22.5615C64.0002 21.3169 63.0718 20.3552 61.2732 19.846C62.5495 19.5066 63.4201 18.658 63.4201 17.6397ZM57.5267 16.4842C57.699 16.4688 57.8906 16.4516 58.0822 16.4516C60.0551 16.4516 60.8096 16.8476 60.7513 17.866C60.7513 18.8277 59.5329 19.2237 58.7206 19.2237H58.3727L57.7922 20.638H58.3727C59.5911 20.638 61.2158 21.1472 61.2158 22.4483C61.2158 23.5798 60.2291 24.1455 58.2566 24.1455H57.096C57.0381 22.6747 57.0381 21.8826 57.0381 20.0723C57.0381 18.9267 57.0705 18.2584 57.1115 17.4231C57.1251 17.1446 57.1394 16.8476 57.1538 16.5082C57.2584 16.5082 57.386 16.4968 57.5267 16.4842Z" fill="black" fill-rule="evenodd"/>
</g>
<defs>
<linearGradient gradientUnits="userSpaceOnUse" id="paint0_linear_10362_3742" x1="-0.708989" x2="-0.708989" y1="6.50801" y2="33.5924">
<stop stop-color="#00774A"/>
<stop offset="0.6" stop-color="#8CCAAE"/>
<stop offset="1" stop-color="#00975F"/>
</linearGradient>
<linearGradient gradientUnits="userSpaceOnUse" id="paint1_linear_10362_3742" x1="-2.65026" x2="-2.65026" y1="0.765694" y2="31.2011">
<stop stop-color="#00975F"/>
<stop offset="0.3" stop-color="#8CCAAE"/>
<stop offset="0.55" stop-color="#00975F"/>
<stop offset="0.8352" stop-color="#00774A"/>
<stop offset="0.8691" stop-color="#007C4E"/>
<stop offset="0.9244" stop-color="#00895A"/>
<stop offset="0.9938" stop-color="#009E6E"/>
<stop offset="1" stop-color="#00A070"/>
</linearGradient>
<linearGradient gradientUnits="userSpaceOnUse" id="paint2_linear_10362_3742" x1="30.1666" x2="30.1666" y1="29.5211" y2="9.82491">
<stop stop-color="#00A97C"/>
<stop offset="1" stop-color="#00975F"/>
</linearGradient>
<linearGradient gradientUnits="userSpaceOnUse" id="paint3_linear_10362_3742" x1="14.0246" x2="14.0246" y1="29.5214" y2="9.81926">
<stop stop-color="#00A97C"/>
<stop offset="1" stop-color="#00975F"/>
</linearGradient>
<linearGradient gradientUnits="userSpaceOnUse" id="paint4_linear_10362_3742" x1="25.7564" x2="25.7564" y1="29.5172" y2="9.8281">
<stop stop-color="#00A97C"/>
<stop offset="1" stop-color="#00975F"/>
</linearGradient>
<linearGradient gradientUnits="userSpaceOnUse" id="paint5_linear_10362_3742" x1="28.1132" x2="28.1132" y1="29.5201" y2="9.82409">
<stop stop-color="#00A97C"/>
<stop offset="1" stop-color="#00975F"/>
</linearGradient>
<clipPath id="clip0_10362_3742">
<rect fill="white" height="26" transform="translate(0 7)" width="64"/>
</clipPath>
</defs>
</svg>