<?xml version="1.0" encoding="utf-8"?>
<svg xmlns="http://www.w3.org/2000/svg" fill="none" height="40" viewBox="0 0 88 40" width="88">
<g clip-path="url(#clip0_10362_3554)">
<path clip-rule="evenodd" d="M0.545942 14.7945C1.20715 14.7945 1.66791 14.941 1.95403 15.2403C2.2742 15.5751 2.41754 16.1283 2.41754 17.0335V28.3401C2.41754 29.9047 2.10395 30.6026 0.253231 30.6026H-0.000488281V31.2964H8.31677V30.606L8.06581 30.6026C6.23266 30.5796 5.9235 29.8857 5.9235 28.3401V17.0329C5.9235 16.1306 6.06628 15.5797 6.38644 15.2454C6.6753 14.9416 7.14428 14.794 7.81924 14.794H8.31622V14.0903H-0.000488281V14.794H0.545942V14.7945Z" fill="#091C5A" fill-rule="evenodd"/>
<path clip-rule="evenodd" d="M27.1469 25.5285C27.1469 25.5285 27.0024 24.8225 26.9815 24.4274V19.2631C26.9491 16.2517 27.3418 14.7525 24.8244 14.764V14.0874H30.6154V14.764C28.0228 14.7531 28.349 16.2523 28.3341 19.2631V31.3216L27.5099 31.3125L15.0046 17.625C15.0046 17.625 15.1451 18.3298 15.166 18.7255V27.1821C15.0951 30.2671 15.4603 30.6399 17.3605 30.6036V31.3084H11.3234V30.6036C13.2263 30.606 13.6003 30.3412 13.5981 26.9305V27.1344V18.8002L13.5828 17.4774C13.6536 15.7652 13.0489 14.7721 11.2031 14.7881V14.111H16.7614L27.1469 25.5285Z" fill="#091C5A" fill-rule="evenodd"/>
<path clip-rule="evenodd" d="M48.1086 13.7589H47.4705L47.4409 13.9875C47.3975 14.3287 47.2689 14.9002 46.8972 14.9002C46.7912 14.9002 46.527 14.8479 46.2294 14.7055C44.9366 14.1196 43.2616 13.7589 41.8513 13.7589C39.1071 13.7589 36.6177 14.7871 34.8394 16.6549C33.2062 18.3712 32.3127 20.7071 32.3253 23.2315C32.3368 25.6497 33.2458 27.6388 35.1063 29.3154C36.9807 30.9925 39.0808 31.7077 42.1325 31.7077C44.6746 31.7077 46.1299 31.3257 48.3635 30.0718L48.7545 29.8501V25.3384C48.7545 23.4153 48.9797 23.1161 50.4756 23.0529L50.7189 23.0432V22.3728H43.4105V23.0432L43.6537 23.0529C45.32 23.1207 45.6346 23.4331 45.6346 25.0231V29.2039C44.3984 30.0569 43.5 30.3809 42.367 30.3809C40.6904 30.3809 39.1982 29.7031 38.0527 28.5061C36.711 27.1017 36.0564 25.0563 36.0564 22.7451C36.0564 20.2551 36.6902 18.1311 37.9961 16.7663C39.0357 15.679 40.4163 15.0754 41.9914 15.0754C43.3984 15.0754 45.0327 15.7066 46.1536 16.6366C47.0652 17.4171 47.5381 18.1725 47.895 19.4206L47.9494 19.6095H48.5733L48.1086 13.7589Z" fill="#091C5A" fill-rule="evenodd"/>
<path clip-rule="evenodd" d="M80.1215 31.2499C80.5279 31.1856 80.9591 31.1953 81.2831 30.884C82.6559 31.1046 84.0474 30.7496 85.1265 29.9587C85.6952 29.4791 86.2072 28.9225 86.6219 28.3143C86.9866 27.7789 87.2742 27.2798 87.4607 26.6801C87.5998 26.3103 87.7093 25.9254 87.7923 25.5303C88.1839 23.667 87.9782 21.5831 87.398 19.8112C87.2918 19.482 87.1708 19.1633 87.0388 18.8594C86.315 17.2948 85.33 15.6067 83.8131 14.6171C82.9584 14.0599 82.1719 13.1978 81.6895 12.3052C81.4266 12.0582 81.1753 11.7308 80.8359 11.6716C80.9289 11.8319 81.0306 11.9887 81.0559 12.1759L81.0361 12.2024C80.6759 12.2133 80.3937 12.014 80.1473 11.7727L80.419 11.5148C80.3162 11.4603 80.199 11.4396 80.0852 11.412C79.0479 11.2885 78.1943 11.7894 77.2741 12.0306L77.2598 12.084C77.8247 12.3471 77.9429 12.9985 78.2718 13.439C78.3532 13.3368 78.4918 13.4114 78.6057 13.4022C78.7701 13.412 78.9241 13.5361 79.0836 13.4924C79.0886 13.3488 79.011 13.2345 78.9863 13.1059C79.0836 13.0576 79.2013 13.1001 79.3102 13.1059C79.6078 13.2879 80.0852 13.0737 80.2711 13.4924C79.9312 13.5148 79.6127 13.5895 79.2943 13.6705C79.3152 13.8049 79.4439 13.9117 79.4334 14.0467C79.1612 13.9284 78.8724 13.8537 78.5694 13.8164L78.554 13.864C78.9395 14.3368 79.4692 14.6171 80.0087 14.7831C80.7853 14.9709 81.4684 14.5843 82.2181 14.7187C84.0589 15.6004 85.6314 17.617 86.315 19.5309C86.3486 19.6227 86.381 19.7158 86.4113 19.8106C86.9838 21.5584 87.0927 23.7066 86.5185 25.5296C86.2133 26.2878 85.8772 27.0035 85.3388 27.6198C85.1347 27.8823 84.9098 28.1161 84.665 28.3137C83.8934 28.9421 82.9419 29.2194 81.9612 28.938C81.8996 28.8938 81.7759 28.8829 81.7968 28.7709C81.8309 28.621 81.8628 28.4693 81.8908 28.3137C82.0531 27.44 82.1284 26.5211 82.085 25.602C82.0839 25.563 82.0828 25.5233 82.0817 25.4843C82.0272 24.15 81.7726 22.9507 81.3045 21.7968C81.0037 21.1345 80.6462 20.4125 80.1968 19.7646C79.6595 18.9921 78.9934 18.3247 78.1376 17.9915C77.6135 17.8462 76.9661 17.8186 76.5707 18.2753C76.2874 18.5343 76.1703 18.883 76.211 19.2655C75.7688 19.5584 75.2716 19.7164 74.7309 19.7646C74.5984 19.7767 74.4625 19.8278 74.325 19.8261C74.1941 19.8324 74.0665 19.8267 73.9417 19.8106C73.291 19.7267 72.6321 19.3591 72.1322 18.9398C72.1217 18.6601 72.1063 18.397 72.0959 18.1013C71.8093 17.9456 71.5712 17.6498 71.5514 17.3L71.5767 17.2735C71.7422 17.3269 71.8847 17.4126 72.0343 17.5039C71.9672 17.0846 71.8896 16.671 71.6905 16.3052C71.5046 16.2242 71.3198 16.1598 71.1455 16.0628C70.9453 15.9243 70.816 15.6704 70.7863 15.4402C70.9662 15.6228 71.2791 15.5585 71.4183 15.7514C71.1757 15.0042 71.1719 14.1495 70.7753 13.4666C70.5751 12.9617 70.0504 12.7302 69.6907 12.3597C69.5521 12.1817 69.496 11.9347 69.2447 11.9071C69.0384 11.8537 69.023 11.6125 68.9873 11.4557C69.1154 11.4718 69.2232 11.5631 69.3305 11.5843C69.0329 10.7578 68.7706 9.83765 67.9643 9.31094L67.8257 9.40284C67.5122 9.45109 67.1778 9.47292 66.8648 9.48383C67.004 9.26901 67.2498 9.17711 67.4451 9.07947C67.219 8.90256 67.0331 8.86006 66.7499 8.8118C66.586 8.98297 66.289 9.0697 66.0778 9.11795L66.0514 9.09613C66.0459 8.90256 66.0041 8.66649 66.2829 8.61767C66.0151 8.48326 65.5723 8.53783 65.2995 8.61767C65.2236 8.82732 65.0025 9.01571 65.0185 9.26384C64.8601 9.43558 64.7468 9.66706 64.5812 9.79055C64.5763 9.37642 64.7451 8.99504 64.8172 8.64581C64.5856 8.73714 64.3508 8.86637 64.1242 8.97895C63.7601 8.75839 63.3756 8.5384 62.9851 8.37126C62.9499 8.35518 62.8718 8.33967 62.8872 8.40917C63.2216 8.66132 63.0918 9.13518 63.1276 9.49417L62.9169 9.31209C62.8141 9.03811 62.5176 8.83938 62.4665 8.5384C62.1167 8.60847 61.8934 8.70497 61.5694 8.85029L61.5249 8.87729C61.7658 8.87729 61.9709 9.07545 62.0892 9.27533C61.7245 9.29601 61.4006 9.1461 61.0409 9.10761C61.0051 9.07085 60.9738 9.02663 60.9171 9.03237C60.7378 9.10244 60.5827 9.23628 60.4249 9.36551C60.0701 9.73139 59.7099 10.1346 59.5405 10.6188C59.6593 10.6395 59.8078 10.6343 59.8952 10.7096C59.7005 10.833 59.5306 11.0433 59.3408 11.161C59.2737 11.4407 59.2842 11.7589 59.2682 12.0645C59.1186 12.3017 58.919 12.5102 58.8216 12.775C58.5026 13.8537 58.4207 15.0536 58.4669 16.2787C58.3635 16.3815 58.2298 16.4464 58.133 16.5269L58.1435 17.6228H58.1688C58.215 17.3925 58.4773 17.2638 58.6363 17.1075H58.688C58.6621 17.3545 58.6319 17.6021 58.6269 17.8548L58.3288 18.1127C58.0302 18.3872 58.2821 18.8008 58.2573 19.1454C58.2777 19.2356 58.292 19.3706 58.3541 19.3925C58.3904 19.2581 58.5032 19.1616 58.5758 19.0426C58.7034 19.011 58.8167 18.9025 58.9349 18.8876C58.8678 19.1564 58.7815 19.4194 58.6775 19.6773C58.6286 19.7112 58.5708 19.7566 58.5213 19.8117C58.4685 19.8709 58.4262 19.9369 58.4152 20.0105C58.6473 21.2839 59.0108 22.5418 59.4266 23.7405C59.145 24.2407 58.985 24.8295 58.7496 25.3459C58.7155 25.4177 58.6852 25.4917 58.6572 25.5664C58.4212 26.1914 58.3492 26.8904 58.0555 27.4906C57.9361 27.4056 57.808 27.3395 57.6754 27.2809C57.1199 27.0874 56.477 27.2109 56.0716 27.6577C55.7114 27.5877 55.3412 27.652 55.0585 27.8513C54.856 28.0092 54.6995 28.2017 54.6095 28.4257C54.5479 28.5819 54.5199 28.752 54.5293 28.9375C54.2986 29.1035 54.1751 29.3608 54.0982 29.6198C53.9905 30.1999 54.1855 30.8042 54.504 31.2511H80.1215V31.2499Z" fill="white" fill-rule="evenodd"/>
<path clip-rule="evenodd" d="M76.7182 19.1632C76.7127 19.3028 76.6153 19.4596 76.7028 19.5773C76.8265 19.432 77.0322 19.4372 77.1967 19.3734C77.6532 19.3303 78.0904 19.4803 78.5167 19.5888C78.4094 19.4108 78.3368 19.2132 78.2191 19.0512C77.9815 18.9869 77.6224 19.1586 77.5822 18.7933C77.4376 18.664 77.211 18.7565 77.063 18.7657C76.9184 18.8743 76.8007 19.0075 76.7182 19.1632Z" fill="white" fill-rule="evenodd"/>
<path clip-rule="evenodd" d="M61.0127 14.5226C61.0103 14.5202 61.0068 14.5177 61.0044 14.5171C61.0044 14.5171 61.0044 14.5202 61.0056 14.5226H61.0127Z" fill="white" fill-rule="evenodd"/>
<path clip-rule="evenodd" d="M62.8801 19.2999L63.1886 18.9886C63.215 18.9886 63.2348 18.9944 63.2502 19.0162L63.2244 19.6124C63.3729 19.7577 63.5582 19.8059 63.7529 19.8169C63.7689 19.6555 63.8871 19.5429 63.9542 19.4027C64.0109 19.2902 63.9751 19.123 64.0873 19.042L64.1225 19.08C64.1594 19.2569 64.1495 19.4562 64.2369 19.6118C64.2474 19.6974 64.2622 19.8054 64.2721 19.8806C64.4982 19.8921 64.7033 19.8267 64.8782 19.741C64.8678 19.5371 64.9354 19.37 64.9651 19.1816C65.0124 19.1167 64.9085 18.999 65.0377 19.0047C65.1098 19.1655 65.2379 19.3321 65.31 19.5038C65.6075 19.1868 65.7313 18.7732 65.8033 18.3436C65.7164 18.2189 65.5822 18.2189 65.4794 18.1391C64.606 17.8433 63.4845 17.7836 62.6414 18.2408C62.5869 18.6072 62.659 19.0104 62.8801 19.2999Z" fill="white" fill-rule="evenodd"/>
<path clip-rule="evenodd" d="M54.7124 29.3872C54.6811 29.8019 54.7124 30.1901 54.737 30.5985C54.82 30.7329 54.9694 30.8891 55.1172 30.9001L55.1441 30.6255C55.2052 30.243 55.0099 29.8375 55.2162 29.5152C55.3597 29.5635 55.5027 29.6387 55.6276 29.7089C55.6875 29.3539 55.6017 28.9403 55.2772 28.7255L54.7124 29.3872Z" fill="white" fill-rule="evenodd"/>
<path clip-rule="evenodd" d="M55.9818 28.8077C55.7816 29.436 55.6319 30.2126 55.8745 30.8737C56.0125 30.7778 56.1572 30.6859 56.2793 30.5515C56.2545 30.0455 56.1875 29.5055 56.4751 29.0862C56.7265 29.1672 56.8975 29.4199 56.9938 29.6675C57.1643 29.4407 57.2209 29.1293 57.1538 28.8278C57.1643 28.5923 56.9063 28.6463 56.7831 28.5486C56.8249 28.3499 56.8188 28.1195 57.0196 28.007L56.4031 28.0713C56.2441 28.3068 56.0698 28.5389 55.9818 28.8077Z" fill="white" fill-rule="evenodd"/>
<path clip-rule="evenodd" d="M57.2515 30.6634C57.2779 30.7128 57.2515 30.7978 57.3032 30.8087C57.3807 30.3578 57.73 30.0649 57.9203 29.6675C58.0121 29.5331 58.0066 29.3446 58.1562 29.2424C58.357 29.2424 58.5011 29.3935 58.6963 29.4095C58.7579 29.4578 58.6644 29.5003 58.66 29.5537C58.6199 29.9202 58.4857 30.2234 58.5115 30.5991H58.5467C58.819 30.2993 59.0038 29.973 59.2045 29.6289L59.2397 29.3234C59.2859 28.9575 58.9059 28.7214 58.6589 28.5709L58.88 28.2751L58.572 28.162C58.2118 28.1999 57.8878 28.3556 57.6359 28.6519C57.3235 29.2533 57.2724 29.9328 57.2515 30.6634Z" fill="white" fill-rule="evenodd"/>
<path clip-rule="evenodd" d="M58.6343 27.4733C58.7525 27.5112 58.8598 27.409 58.9775 27.4629C59.451 27.645 59.9444 27.8334 60.2986 28.2475L60.7204 29.3704L60.9316 28.6777L60.7925 28.3009C60.6742 28.0321 60.3503 28.054 60.1292 28.0431C60.0373 27.9356 60.1347 27.8116 60.166 27.7099C60.2727 27.3285 59.8261 27.3492 59.6463 27.1947C59.6573 26.9632 59.3894 27.0436 59.2398 27.0218L59.1887 26.9575C59.1584 26.9092 59.082 26.9092 59.0402 26.9465C59.0292 26.931 59.0094 26.9202 59.0204 26.8926L58.906 26.9202C58.7476 27.0655 58.6392 27.2533 58.6343 27.4733Z" fill="white" fill-rule="evenodd"/>
<path clip-rule="evenodd" d="M58.9302 26.2379C58.9456 26.3074 58.9868 26.3775 59.038 26.42C59.2701 26.3556 59.4901 26.1896 59.7574 26.2907C60.1022 26.6078 60.4614 26.9409 60.8788 27.1138L61.0273 27.0862C61.1203 27.1196 61.222 27.1242 61.2842 27.2316C61.3414 27.3769 61.1978 27.463 61.1505 27.5808C61.3826 27.7583 61.2897 28.0759 61.4343 28.2901L61.8045 27.7744C61.7176 27.548 61.8094 27.1615 61.4701 27.1403C61.3573 27.0805 61.2798 26.9622 61.2847 26.8278C61.0647 26.6181 60.7919 26.5274 60.5703 26.3125C60.391 26.1615 60.2832 25.93 60.0511 25.8766C59.8927 25.7859 59.7183 25.737 59.5335 25.6945C59.1876 25.6411 59.1573 26.0702 58.9302 26.2379Z" fill="white" fill-rule="evenodd"/>
<path clip-rule="evenodd" d="M59.4248 25.1787L59.487 25.281C59.7433 25.2643 59.9754 25.1465 60.2278 25.1517C60.3967 25.2597 60.6183 25.2545 60.7921 25.3453C60.9313 25.544 61.0803 25.7697 61.2849 25.9048C61.7024 25.9685 61.9328 26.4366 62.0769 26.7801V26.6135C62.1385 26.3832 62.0714 26.1138 61.9889 25.9048C61.8861 25.7968 61.7376 25.7261 61.6298 25.6296C61.6089 25.5601 61.6243 25.5273 61.6452 25.463C61.4851 25.2856 61.2492 25.1885 61.0539 25.0495C60.7817 24.6354 60.2575 24.7485 59.8412 24.6354L59.4248 25.1787Z" fill="white" fill-rule="evenodd"/>
<path clip-rule="evenodd" d="M59.416 21.235C59.4617 21.4021 59.5178 21.6118 59.5475 21.7886C59.6916 21.4555 59.9754 21.3062 60.2273 21.0316C60.0826 20.9288 59.9033 20.8805 59.7444 20.8484V20.8386C59.6311 20.9564 59.4567 21.0747 59.416 21.235Z" fill="white" fill-rule="evenodd"/>
<path clip-rule="evenodd" d="M60.3486 23.0035L60.5796 22.7565C60.8112 22.5096 61.0015 22.2241 61.0372 21.907C60.8728 21.8048 60.6572 21.8743 60.4977 21.9334C60.4399 22.2838 60.3541 22.6279 60.3486 23.0035Z" fill="white" fill-rule="evenodd"/>
<path clip-rule="evenodd" d="M60.52 23.7617C60.8753 23.7836 61.2191 23.8576 61.5073 23.6497L61.7944 22.6814C61.7025 22.6756 61.6096 22.6331 61.5227 22.6652C61.3329 23.1064 60.9512 23.5412 60.52 23.7617Z" fill="white" fill-rule="evenodd"/>
<path clip-rule="evenodd" d="M60.6231 20.332C60.8541 20.6876 61.2397 21.0851 61.6357 21.197C61.5895 20.7462 61.2199 20.4337 61.0296 20.0471L61.0186 19.9179C60.8695 19.7669 60.6897 19.6658 60.5351 19.5842C60.5104 19.8433 60.5775 20.0908 60.6231 20.332Z" fill="white" fill-rule="evenodd"/>
<path clip-rule="evenodd" d="M61.876 23.8048C62.1482 23.8542 62.4408 23.8048 62.6927 23.7232C63.0585 23.633 63.2587 23.2131 63.3819 22.8857H62.9243L62.4304 23.3906C62.2362 23.4986 62.0498 23.6606 61.876 23.8048Z" fill="white" fill-rule="evenodd"/>
<path clip-rule="evenodd" d="M61.8218 19.8434C61.8993 20.2627 62.0676 20.644 62.3003 21.0048L62.3619 20.2035L61.8218 19.8434Z" fill="white" fill-rule="evenodd"/>
<path clip-rule="evenodd" d="M63.5069 21.934C63.5377 21.6652 63.4304 21.3539 63.4007 21.0799C63.2462 20.9719 63.0295 20.9828 62.8711 20.876C62.881 21.3004 63.1989 21.66 63.5069 21.934Z" fill="white" fill-rule="evenodd"/>
<path clip-rule="evenodd" d="M63.0371 24.6658C63.3611 24.5578 63.6746 24.4395 63.9721 24.2672C64.1619 23.9834 64.4501 23.7238 64.4908 23.3912C64.2548 23.4608 64.0491 23.3809 63.8286 23.494C63.6949 23.7462 63.6124 24.0317 63.3556 24.2138C63.3154 24.3958 63.1246 24.5205 63.0371 24.6658Z" fill="white" fill-rule="evenodd"/>
<path clip-rule="evenodd" d="M63.541 25.3269L63.9266 25.853C64.1323 25.9231 64.3891 25.9013 64.569 25.7778L64.4298 25.2993C64.1581 25.4079 63.8347 25.3746 63.541 25.3269Z" fill="white" fill-rule="evenodd"/>
<path clip-rule="evenodd" d="M64.1836 21.52L64.3326 22.2299C64.6918 21.9232 64.7649 21.4769 64.7561 21.0042C64.5499 21.2511 64.43 21.4022 64.1836 21.52Z" fill="white" fill-rule="evenodd"/>
<path clip-rule="evenodd" d="M65.1963 22.7732C65.2018 22.8749 65.2271 22.9719 65.2837 23.0529C65.6841 23.2029 65.7254 23.7134 66.0961 23.907C66.337 24.0196 66.6142 23.8794 66.8254 23.7778C66.6664 23.59 66.4855 23.4596 66.332 23.2614C66.2242 23.2132 66.1159 23.1431 66.1214 23.0035L65.1963 22.7732Z" fill="white" fill-rule="evenodd"/>
<path clip-rule="evenodd" d="M65.5144 25.3102C65.6899 25.5199 65.9258 25.6273 66.1722 25.6859C66.1315 25.6267 66.1986 25.6859 66.2085 25.6485L65.8994 24.9403C65.746 24.9443 65.5865 24.9771 65.4424 24.9668C65.4523 25.0839 65.4787 25.2017 65.5144 25.3102Z" fill="white" fill-rule="evenodd"/>
<path clip-rule="evenodd" d="M66.0602 21.9984C65.9161 21.6492 65.8556 21.2247 65.8149 20.8381C65.6603 21.0311 65.5014 21.1552 65.3573 21.3534C65.2902 21.7514 65.8336 21.849 66.0602 21.9984Z" fill="white" fill-rule="evenodd"/>
<path clip-rule="evenodd" d="M66.6861 21.6336C66.8709 21.8857 67.2768 21.7996 67.5045 21.7243C67.3956 21.5308 67.0474 21.4182 66.9858 21.2085C66.9495 20.8381 66.8786 20.4779 66.7647 20.139C66.5843 20.5957 66.3676 21.1391 66.6861 21.6336Z" fill="white" fill-rule="evenodd"/>
<path clip-rule="evenodd" d="M67.0122 22.7731C67.5265 23.166 68.0297 23.6221 68.7491 23.4555C68.8008 23.4176 68.8883 23.4227 68.8987 23.3533C68.687 23.2131 68.462 23.1057 68.2453 22.9776L67.9995 22.6008H67.8862C67.6084 22.6979 67.3098 22.7347 67.0122 22.7731Z" fill="white" fill-rule="evenodd"/>
<path clip-rule="evenodd" d="M67.0215 27.1327H67.0567C67.3658 26.8749 67.7304 26.7887 68.0951 26.6807C68.1935 26.718 68.1314 26.8312 68.2188 26.8749C68.4399 26.7778 68.7072 26.7996 68.9333 26.7186C69.2061 26.7301 69.4272 26.7353 69.6477 26.8588C69.8215 27.1 70.151 27.0742 70.3781 27.2344L70.3418 26.8588C69.8639 26.2724 69.1181 26.2293 68.4306 26.2408L68.4146 26.1649C68.2507 26.1649 68.0659 26.2028 67.9119 26.2787C67.6908 26.2884 67.4802 26.4021 67.2684 26.4717C67.1705 26.6761 67.0935 26.9225 67.0215 27.1327Z" fill="white" fill-rule="evenodd"/>
<path clip-rule="evenodd" d="M67.4344 20.5262C67.6351 20.8008 67.9327 21.0099 68.272 20.9404C68.0982 20.7629 67.8969 20.5739 67.8865 20.3218C67.9382 19.8433 67.4344 19.806 67.188 19.5579C67.2694 19.8812 67.26 20.2407 67.4344 20.5262Z" fill="white" fill-rule="evenodd"/>
<path clip-rule="evenodd" d="M67.3818 28.0844H67.4418C67.7146 27.9058 68.1106 28.0408 68.3779 27.8524C68.5269 27.7714 68.5368 27.9868 68.6402 28.0459C68.8921 28.2073 68.9229 28.6904 69.2777 28.5784C69.7034 28.8093 69.5961 29.3533 69.6115 29.7507L70.0075 29.4928C69.9712 29.2832 70.0834 29.0293 69.9553 28.8472C69.8579 28.6169 69.5912 28.5951 69.4625 28.4067C69.617 28.1321 69.2678 28.004 69.1952 27.8047L69.2161 27.7771L69.7595 27.8524C69.9459 27.9707 70.0119 28.1861 70.0686 28.3848C70.4954 28.4601 70.5982 28.965 70.7478 29.2877C70.8347 29.0672 70.8705 28.8306 70.9585 28.6163C70.9634 28.4382 70.7374 28.4382 70.6246 28.3584C70.5927 28.0844 70.475 27.8254 70.2446 27.6594C69.771 27.5359 69.3552 27.2614 68.8366 27.2614L68.4043 27.4015C68.1678 27.4607 67.9159 27.3854 67.7366 27.5566C67.4676 27.5778 67.4478 27.8851 67.3818 28.0844Z" fill="white" fill-rule="evenodd"/>
<path clip-rule="evenodd" d="M67.6523 25.8691L67.7508 25.9173C67.9609 25.8145 68.1721 25.6967 68.3932 25.6106C68.7369 25.5083 69.0048 25.9173 69.293 25.6594C69.4008 25.5784 69.4921 25.6967 69.5751 25.7616C69.6989 25.9983 69.9865 25.9822 70.2021 26.0466C70.0949 25.7404 69.9612 25.3205 69.5856 25.2711C69.4371 25.2016 69.2616 25.2085 69.1175 25.116C68.7221 24.6594 68.4652 25.4917 68.0329 25.2878C67.8795 25.4664 67.6892 25.6324 67.6523 25.8691Z" fill="white" fill-rule="evenodd"/>
<path clip-rule="evenodd" d="M67.75 28.4872C67.9139 28.6313 68.0833 28.8794 68.3396 28.8467C68.6597 29.0029 68.5261 29.4429 68.7004 29.6744L68.8852 29.5021L68.8698 29.4917L68.8962 29.4647L68.9067 29.4808C68.9578 29.3188 68.8857 29.034 68.7983 28.8461C68.68 28.7611 68.5409 28.8518 68.4287 28.7709C68.4128 28.5991 68.3099 28.513 68.1917 28.4056C68.1097 28.3413 68.0014 28.4274 67.909 28.4216L67.75 28.4872Z" fill="white" fill-rule="evenodd"/>
<path clip-rule="evenodd" d="M68.3936 21.934C68.563 22.2304 68.8913 22.4131 69.1537 22.6169C69.3693 22.7198 69.652 22.7456 69.8835 22.6922C69.663 22.5044 69.4622 22.2895 69.2774 22.0627C69.2054 21.9553 69.1894 21.8214 69.0926 21.7244C68.8495 21.7732 68.5784 21.768 68.3936 21.934Z" fill="white" fill-rule="evenodd"/>
<path clip-rule="evenodd" d="M68.6777 20.0105C68.9148 20.3161 69.2794 20.1932 69.6133 20.2035V20.1667L69.0996 19.7141C68.9549 19.7629 68.8015 19.8967 68.6777 20.0105Z" fill="white" fill-rule="evenodd"/>
<path clip-rule="evenodd" d="M59.2158 14.941L59.5134 15.9088C59.5079 15.3603 59.7493 14.9036 59.6982 14.3448L59.9198 14.0001L59.4512 14.1507C59.328 14.3976 59.2263 14.6457 59.2158 14.941Z" fill="white" fill-rule="evenodd"/>
<path clip-rule="evenodd" d="M59.4165 13.2638L59.8219 13.0163V12.3873C59.6519 12.4953 59.5584 12.678 59.4264 12.8233L59.4165 13.2638Z" fill="white" fill-rule="evenodd"/>
<path clip-rule="evenodd" d="M67.7527 14.2426C67.6543 14.377 67.5058 14.4091 67.3831 14.4361C67.5982 14.022 67.7016 13.4459 67.5311 12.9784C67.6449 12.9358 67.7687 12.9152 67.8759 12.8497L67.8649 12.8394L68.1487 12.5803C68.5238 12.3115 68.3797 11.8015 68.5189 11.4201C68.3335 11.1185 68.2774 10.7532 68.0096 10.4999L68.0255 10.4901C67.8143 10.2104 67.4343 10.242 67.145 10.1024C66.7649 9.96804 66.4723 10.242 66.2001 10.4258C66.0818 10.4465 66.1539 10.6079 66.0252 10.6027C65.9537 10.802 65.8657 11.0169 65.8145 11.2368C65.3052 11.161 64.7563 11.2213 64.3499 11.5217C64.1337 11.3557 63.8714 11.323 63.6195 11.2478C63.4352 11.2104 63.224 11.2805 63.0909 11.1719C62.8962 10.9416 62.8539 10.5217 62.5195 10.4632C62.4018 10.4201 62.3765 10.2862 62.3765 10.1673C62.1554 10.13 61.9596 10.0232 61.7434 9.97378C61.4156 9.81755 61.1538 10.0657 60.9063 10.2317C60.7991 10.2805 60.6753 10.296 60.573 10.3615C60.3882 10.6619 60.2128 10.9686 60.0951 11.3012C60.1314 11.5752 60.2436 11.8175 60.3783 12.0484C60.4966 12.3982 60.8662 12.6722 61.1797 12.8124C61.0306 13.3442 61.0306 13.9789 61.1797 14.5166C61.1797 14.5166 61.1709 14.5229 61.1709 14.5217C61.1709 14.5229 61.1544 14.5367 61.1544 14.5367C61.1049 14.5367 61.0526 14.547 61.0119 14.5217H61.0053C61.0774 15.0352 61.3084 15.4844 61.6818 15.8698C61.816 15.9192 61.7852 16.0852 61.8424 16.1932C61.8776 16.2408 61.8826 16.3431 61.8672 16.3862C61.0664 16.3591 60.3514 16.5688 59.709 16.9502C59.5445 17.0363 59.6171 17.2735 59.6017 17.4395C60.0538 17.1283 60.5417 16.8967 61.0812 16.7951C61.3122 16.779 61.5746 16.7199 61.7957 16.7842L61.8215 17.2465C61.2105 17.5797 60.5417 17.7733 60.0175 18.3218C60.028 18.4878 59.9977 18.682 60.0439 18.8221L60.5114 18.4235C60.963 18.0645 61.436 17.7572 61.9557 17.5584C62.0943 17.7308 62.239 17.9134 62.4238 18.0202C62.7367 17.8106 63.0761 17.6555 63.4363 17.5584C63.6266 17.4402 63.9286 17.5475 64.0523 17.3114L64.1403 16.8221C64.1244 16.8112 64.115 16.7905 64.0886 16.7962C63.8472 16.6509 63.6882 16.3988 63.7086 16.1024C63.6266 16.1449 63.5342 16.1725 63.4363 16.1776C63.3538 16.1558 63.2774 16.1351 63.2411 16.0484C63.2356 15.9404 63.1839 15.7796 63.2867 15.6992C63.6206 15.4838 64.0529 15.4729 64.4747 15.5062C64.7877 15.5487 65.2409 15.532 65.3476 15.9203C65.3333 16.0329 65.3426 16.1564 65.2354 16.2316C65.1221 16.296 64.9939 16.2259 64.8905 16.1782C64.8091 16.4413 64.67 16.7377 64.3867 16.8227L64.4236 17.1351C64.4588 17.2753 64.4692 17.5056 64.6804 17.4573C65.1688 17.5809 65.6 17.8445 66.0263 18.1294C66.1704 17.9783 66.2837 17.806 66.3854 17.6509C67.1461 17.9191 67.805 18.5159 68.4314 19.0696L68.4578 18.6182C67.8611 18.0645 67.1978 17.6722 66.5092 17.3655C66.5356 17.2201 66.5664 17.08 66.5708 16.9249C67.3886 16.9726 68.1636 17.2362 68.8379 17.6509L68.8269 17.2638C68.1179 16.8663 67.3419 16.6027 66.4932 16.5918C66.4624 16.5424 66.4525 16.4735 66.458 16.4246C66.8694 16.3546 67.1615 15.9088 67.2605 15.5211C67.4706 15.269 67.7747 14.9944 67.7027 14.6188C67.712 14.5883 67.7225 14.555 67.7329 14.5229C67.7604 14.4281 67.7835 14.3299 67.7527 14.2426Z" fill="white" fill-rule="evenodd"/>
<path clip-rule="evenodd" d="M68.4668 15.6238L68.8881 15.4837L68.9337 15.2367C69.0531 14.8766 68.8017 14.6078 68.6769 14.3223L68.4668 15.6238Z" fill="white" fill-rule="evenodd"/>
<path clip-rule="evenodd" d="M69.5292 17.3281C69.7294 17.5584 69.9252 17.93 70.2805 17.8163C70.2541 17.6612 70.1716 17.5325 70.1205 17.3924C70.027 17.2787 69.9973 16.9565 69.8119 17.0702C69.6728 16.9731 69.6381 16.8111 69.5496 16.6825C69.5094 16.8812 69.5347 17.1288 69.5292 17.3281Z" fill="white" fill-rule="evenodd"/>
<path clip-rule="evenodd" d="M69.6016 18.9019C69.6791 19.0156 69.7 19.1609 69.7759 19.2626C69.9145 19.3585 70.1208 19.3436 70.2896 19.3269C70.4442 19.2896 70.5421 19.4665 70.6856 19.3637C70.5069 19.2459 70.3991 19.0305 70.2286 18.8755C70.0273 18.7089 69.8128 18.8542 69.6016 18.9019Z" fill="white" fill-rule="evenodd"/>
<path clip-rule="evenodd" d="M69.875 21.4021C70.2297 21.6227 70.6807 21.838 71.1537 21.7628C71.2049 21.7352 71.2929 21.741 71.3028 21.6761C71.0096 21.5681 70.7022 21.2619 70.3947 21.1976C70.2248 20.9236 70.0037 21.2677 69.7881 21.2459C69.793 21.3108 69.8546 21.3596 69.875 21.4021Z" fill="white" fill-rule="evenodd"/>
<path clip-rule="evenodd" d="M70.9434 26.1482L71.0209 26.321C71.0985 26.8805 71.4367 27.3957 71.2514 28.0086C71.4059 28.1212 71.4527 28.309 71.55 28.4595H71.5759C71.6936 27.9925 71.6116 27.5083 71.55 27.0402C71.5962 26.6157 71.1848 26.3682 70.9434 26.1482Z" fill="white" fill-rule="evenodd"/>
<path clip-rule="evenodd" d="M71.0317 20.644C71.299 20.8594 71.7258 20.8807 72.0333 20.7733C71.8386 20.6607 71.623 20.5372 71.4629 20.3861L71.0317 20.644Z" fill="white" fill-rule="evenodd"/>
<path clip-rule="evenodd" d="M72.2988 22.2948C72.2724 22.5211 72.417 22.7089 72.571 22.8215C72.6277 22.6871 72.7201 22.5745 72.73 22.424C72.6843 22.1925 72.5606 21.9834 72.3604 21.8278C72.3241 21.9777 72.2834 22.1218 72.2988 22.2948Z" fill="white" fill-rule="evenodd"/>
<path clip-rule="evenodd" d="M72.3159 24.7451C72.2796 24.9972 72.5469 25.0305 72.6596 25.1701C72.7526 25.2878 72.598 25.3688 72.598 25.4814C72.7933 25.7445 72.9066 26.046 72.9066 26.3958C72.9836 26.0684 73.1018 25.7554 73.1442 25.4171C73.1233 25.181 72.7641 25.2292 72.8202 24.9662C72.922 24.6974 72.7993 24.4337 72.7322 24.1925C72.7113 24.154 72.6651 24.0788 72.625 24.1006C72.5309 24.3212 72.2999 24.4763 72.3159 24.7451Z" fill="white" fill-rule="evenodd"/>
<path clip-rule="evenodd" d="M73.0195 23.4659L73.2863 24.0086C73.4051 23.9937 73.4804 23.8742 73.5734 23.7892C73.646 23.5629 73.4557 23.4176 73.3996 23.235C73.3523 23.1057 73.3996 22.934 73.3116 22.8209C73.245 22.7783 73.1669 22.7083 73.0905 22.7289L73.0195 23.4659Z" fill="white" fill-rule="evenodd"/>
<path clip-rule="evenodd" d="M73.3623 22.0369C73.573 22.1707 73.8144 22.3643 73.9266 22.6004C74.1076 23.1488 74.3952 23.6434 74.6053 24.1753C74.6829 24.5463 74.7445 24.8772 74.8424 25.243C74.8787 25.3384 74.8578 25.5268 75.0019 25.5113C75.0426 25.1029 75.1201 24.7106 75.1251 24.2856C74.9969 24.1087 74.8264 24.0334 74.6675 23.9248V23.8881C74.6884 23.7962 74.7604 23.6888 74.8688 23.706C74.9144 23.6509 75.053 23.598 74.992 23.5015C74.7247 23.2224 74.7401 22.7405 74.3127 22.6538C74.1648 22.5894 74.1279 22.4286 74.1136 22.2781C73.9123 22.1018 73.6137 22.0409 73.3623 22.0369Z" fill="white" fill-rule="evenodd"/>
<path clip-rule="evenodd" d="M73.6105 24.95C73.8729 25.2017 73.7815 25.5675 73.7601 25.9064C73.7194 26.1109 73.9658 25.9925 74.0433 26.1C74.2017 26.3475 74.1099 26.7076 74.0527 26.9765C74.1919 26.7554 74.3514 26.5617 74.4592 26.3205C74.4537 26.2286 74.5658 26.1861 74.562 26.0735C74.6076 25.9173 74.4339 25.9874 74.3618 25.9702C74.3002 25.9541 74.2331 25.911 74.2529 25.8254C74.3871 25.556 74.2639 25.2338 74.2122 24.9656C74.1506 24.7444 74.2386 24.4498 74.1407 24.2562C73.9762 24.4929 73.4873 24.5468 73.6105 24.95Z" fill="white" fill-rule="evenodd"/>
<path clip-rule="evenodd" d="M74.0889 21.1328C74.5465 21.617 74.8803 22.1029 75.3737 22.571C75.3847 22.3625 75.3583 22.1678 75.3478 21.9633C75.2752 21.8191 75.1421 21.7112 75.0288 21.6038C74.6647 21.5659 74.4739 21.0524 74.0889 21.1328Z" fill="white" fill-rule="evenodd"/>
<path clip-rule="evenodd" d="M75.2852 23.6951C75.2956 23.7434 75.3165 23.7858 75.3363 23.8347C75.5371 24.1793 75.7268 24.5331 75.8665 24.9042C75.8253 24.5073 76.0827 24.0116 75.7428 23.706C75.6966 23.5768 75.5426 23.6199 75.4447 23.6302L75.2852 23.6951Z" fill="white" fill-rule="evenodd"/>
<path clip-rule="evenodd" d="M76.5186 27.622C76.6627 27.6904 76.8475 27.5669 76.9861 27.4819C77.1148 27.4491 77.2231 27.5243 77.3205 27.5944C77.3612 27.68 77.3205 27.7604 77.3348 27.8414C77.6439 27.9327 77.9469 28.0511 78.2197 28.2389L78.3061 28.1481C78.327 27.9167 78.1526 27.7512 77.9882 27.622C77.8804 27.5559 77.7198 27.5944 77.6439 27.4916C77.695 27.4066 77.695 27.2774 77.6895 27.1803C77.5196 27.1803 77.4118 27.1263 77.2726 27.0402C77.1868 27.0138 77.1087 26.9385 77.0367 27.0402C76.7804 27.2234 76.765 27.4916 76.5186 27.622Z" fill="white" fill-rule="evenodd"/>
<path clip-rule="evenodd" d="M76.8802 20.8571C77.0084 20.8203 77.1426 20.7812 77.2504 20.6853C77.5936 20.3573 78.093 20.5773 78.4934 20.5721C78.4169 20.4268 78.308 20.2827 78.2107 20.158C78.0671 20.0989 77.9329 20.0288 77.769 20.0288C77.4187 19.8146 77.1833 20.1741 76.9154 20.351C76.8439 20.4974 76.8082 20.7117 76.8802 20.8571Z" fill="white" fill-rule="evenodd"/>
<path clip-rule="evenodd" d="M76.8878 21.9633C76.8878 21.9484 76.8878 21.9312 76.9032 21.9266C76.9494 21.9696 76.8977 22.0713 76.9753 22.0926C77.1084 22.0237 77.2321 21.9266 77.3553 21.8359C77.7002 21.8359 77.9053 21.4866 78.2436 21.4866C78.809 21.5935 79.37 21.7118 79.8628 22.0018C79.8276 21.6526 79.5394 21.3355 79.2473 21.1788C79.0818 21.1196 78.9531 21.2121 78.8354 21.308C78.4905 21.5348 78.6709 20.9806 78.4295 20.9691C78.116 21.0725 77.792 21.1845 77.4433 21.1529C77.2371 21.2327 77.0924 21.4309 76.862 21.4102C76.8515 21.5877 76.8257 21.8031 76.8878 21.9633Z" fill="white" fill-rule="evenodd"/>
<path clip-rule="evenodd" d="M77.1245 23.1632C77.2312 23.2809 77.411 23.2591 77.5667 23.2809L78.0127 23.0989C78.0182 23.0127 77.8796 22.9903 77.9099 22.895C78.0331 22.7496 78.2036 22.8513 78.3565 22.7916C78.5737 22.76 78.7943 22.5343 79.0093 22.7009C79.0044 22.7273 79.0203 22.7657 79 22.7916C78.9318 22.9587 79.0462 23.0604 79.1688 23.1247C79.4213 23.1741 79.6572 23.4159 79.9091 23.3074C79.8838 23.0874 79.8272 22.8835 79.7755 22.6733C79.5648 22.6353 79.4163 22.4527 79.2205 22.3769C79.1325 22.463 79.0203 22.5279 78.912 22.517C78.516 22.4206 78.043 22.1626 77.6426 22.4263C77.4985 22.6084 77.2411 22.555 77.0464 22.6348C77.0574 22.8192 77.0772 22.9961 77.1245 23.1632Z" fill="white" fill-rule="evenodd"/>
<path clip-rule="evenodd" d="M77.2935 26.3579C77.2621 26.4492 77.1758 26.6003 77.3342 26.6428C77.6636 26.6543 78.0849 26.4768 78.3423 26.745C78.4292 26.8157 78.388 26.9599 78.383 27.0517L78.8142 27.4285C78.856 27.2023 78.9325 26.9978 78.938 26.7554C78.9028 26.5836 78.8197 26.4165 78.6767 26.3039C78.3929 26.3039 78.2285 25.9575 77.9254 26.0018C77.7665 25.9633 77.6279 26.1109 77.4678 26.1109C77.3958 26.1862 77.3551 26.278 77.2935 26.3579Z" fill="white" fill-rule="evenodd"/>
<path clip-rule="evenodd" d="M77.4179 23.8243C77.4845 23.9684 77.5626 24.2057 77.6907 24.2217C77.9938 24.0821 78.4354 23.9954 78.7753 24.1465C78.8881 24.1678 78.8881 24.3022 78.8633 24.3889C79.0371 24.4963 79.2483 24.5813 79.4331 24.7002L79.382 24.3779C79.371 24.0282 78.9497 23.9954 78.9238 23.6508C78.5795 23.533 78.194 23.4957 77.8293 23.5871C77.7105 23.7002 77.5417 23.6841 77.3976 23.7168C77.3882 23.7594 77.413 23.7858 77.4179 23.8243Z" fill="white" fill-rule="evenodd"/>
<path clip-rule="evenodd" d="M77.5072 25.5659C77.7074 25.5067 77.835 25.2753 78.0517 25.2545C78.3806 25.2603 78.6737 25.3987 78.8783 25.6951C79.0032 25.7807 78.9768 26.0018 79.1357 26.0018C79.0895 25.7376 79.1715 25.4958 79.1621 25.227C78.9449 24.8513 78.4125 25.1409 78.2112 24.7003L77.8311 24.7267C77.5589 24.7968 77.6315 25.1305 77.5941 25.3562C77.5633 25.4263 77.5017 25.4797 77.5072 25.5659Z" fill="white" fill-rule="evenodd"/>
<path clip-rule="evenodd" d="M79.3926 27.9168C79.5521 28.25 79.9024 28.5032 79.9376 28.8852C80.0201 28.7824 80.0768 28.6647 80.1334 28.5521C80.1279 28.4441 80.0091 28.4441 79.9624 28.3585C79.9162 28.2189 79.9888 28.0955 80.0091 27.9708C79.9426 27.7715 79.7831 27.5837 79.6032 27.4659L79.3926 27.9168Z" fill="white" fill-rule="evenodd"/>
<path clip-rule="evenodd" d="M80.0239 27.0678L80.3935 27.5946C80.5525 27.3309 80.5525 26.9443 80.4909 26.6261C80.4557 26.567 80.388 26.4705 80.2956 26.5136C80.1565 26.6646 80.1367 26.8949 80.0239 27.0678Z" fill="white" fill-rule="evenodd"/>
<path clip-rule="evenodd" d="M78.5161 12.3539C78.6503 12.424 78.779 12.4883 78.9374 12.4987C79.0463 12.4401 79.1855 12.397 79.3186 12.4344C79.5089 12.5636 79.7399 12.4074 79.9599 12.4183C79.7657 12.2253 79.5441 12.107 79.3186 11.9944C79.0304 12.0581 78.7999 12.2724 78.5161 12.3539Z" fill="white" fill-rule="evenodd"/>
<path clip-rule="evenodd" d="M80.5278 12.8594C80.799 12.8858 80.9942 13.138 81.1796 13.3494C81.4111 13.3861 81.586 13.5579 81.7241 13.7359L81.6372 13.4505C81.5756 13.165 81.4056 12.9444 81.2318 12.7198C80.9849 12.7359 80.7423 12.7572 80.5278 12.8594Z" fill="white" fill-rule="evenodd"/>
<path clip-rule="evenodd" d="M61.3471 10.5005L61.4956 10.5166C61.8971 10.7262 62.5445 10.8336 62.5802 11.4407C62.1754 11.6079 61.7849 11.8342 61.461 12.1771C61.2146 11.9135 60.7152 12.0588 60.6338 11.597C60.7108 11.1616 60.8593 10.6142 61.3471 10.5005Z" fill="#FF6600" fill-rule="evenodd"/>
<path clip-rule="evenodd" d="M61.7332 13.2264C62.2002 13.1839 62.6523 13.2523 63.1363 13.2103C63.2546 13.2637 63.3772 13.3717 63.4339 13.4952C63.4185 14.0753 63.249 14.6296 63.2232 15.2258C63.0125 15.3183 62.8069 15.5004 62.7557 15.7422C62.5654 15.8008 62.3955 15.9203 62.2107 16.0104C62.1282 15.8283 62.1436 15.5538 62.2882 15.4039C62.4884 15.1075 63.0076 15.1776 62.9653 14.71C63.0995 14.4837 62.9708 14.1937 62.9763 13.957C62.9251 13.7801 62.874 14.0162 62.7915 14.0104C62.627 14.0472 62.4576 14.0587 62.314 13.9737C62.2057 13.8542 62.0721 13.7583 62.0413 13.5969C61.8972 13.5216 61.7283 13.4033 61.6562 13.2471L61.7332 13.2264Z" fill="#FF6600" fill-rule="evenodd"/>
<path clip-rule="evenodd" d="M62.2999 16.7314C62.5194 16.7629 62.7515 16.6612 62.9418 16.7738C62.9005 16.8491 62.7927 16.8813 62.7058 16.9031L62.361 17.0703C62.2328 17.0369 62.3049 16.8221 62.2999 16.7314Z" fill="#FF6600" fill-rule="evenodd"/>
<path clip-rule="evenodd" d="M63.1995 12.2419C63.42 12.1667 63.6571 12.0116 63.893 12.0868C63.7236 12.2643 63.59 12.4952 63.4624 12.7095L62.7578 12.694C62.8337 12.501 63.029 12.3396 63.1995 12.2419Z" fill="#FF6600" fill-rule="evenodd"/>
<path clip-rule="evenodd" d="M65.26 12.0651C65.5521 12.0117 65.5367 12.4091 65.8045 12.4258C65.8513 12.4901 65.9178 12.5487 65.8914 12.6452C65.7374 12.7095 65.5114 12.678 65.3359 12.7205C65.1049 12.586 65.2545 12.1668 64.8888 12.1938C64.869 12.1622 64.8272 12.0973 64.8789 12.0754C64.9927 12.0335 65.1401 12.049 65.26 12.0651Z" fill="#FF6600" fill-rule="evenodd"/>
<path clip-rule="evenodd" d="M65.0747 13.5062C65.2029 13.3172 65.3987 13.3023 65.5829 13.2638L66.9145 13.2908C66.9711 13.3442 66.8633 13.3925 66.8633 13.4574C66.7808 13.5378 66.6626 13.5596 66.5905 13.6354C66.4162 13.6412 66.4305 13.8548 66.3078 13.9467C66.117 14.1455 65.8403 14.0547 65.6187 14.0219C65.5417 13.9628 65.4548 13.8818 65.4185 13.7905L65.3569 13.8548C65.4344 14.1564 65.4135 14.4901 65.4696 14.7956L65.7881 15.0168C65.7936 15.5113 66.3485 15.3769 66.5905 15.6515C66.5339 15.8284 66.4206 15.9789 66.2985 16.1299C66.1027 15.9306 65.8816 15.8009 65.6451 15.7158C65.6247 15.4252 65.3217 15.254 65.1517 15.1081C65.1055 14.5814 65.0951 14.0438 65.0137 13.5332L65.0747 13.5062Z" fill="#FF6600" fill-rule="evenodd"/>
<path clip-rule="evenodd" d="M65.5574 16.822H66.1745L66.0969 17.1609L65.4798 16.8863C65.4655 16.8329 65.5211 16.8168 65.5574 16.822Z" fill="#FF6600" fill-rule="evenodd"/>
<path clip-rule="evenodd" d="M66.667 10.7325L67.1246 10.5814C67.3869 10.7101 67.6333 10.8721 67.8748 11.0541C68.0651 11.4206 68.0332 11.914 67.9468 12.3224C67.8077 12.4843 67.5046 12.3224 67.3919 12.5803H67.371C67.201 12.0754 66.7187 11.6245 66.271 11.3924C66.343 11.1351 66.4206 10.883 66.667 10.7325Z" fill="#FF6600" fill-rule="evenodd"/>
<path clip-rule="evenodd" d="M77.386 31.2119H80.1283C80.5342 31.1476 80.9654 31.1579 81.2888 30.8454C82.6622 31.0666 84.0542 30.7117 85.1333 29.9218C85.7026 29.4405 86.2146 28.8845 86.6282 28.2774C86.9929 27.7421 87.2811 27.2418 87.4675 26.6427C87.6056 26.2723 87.7156 25.888 87.7986 25.4923C88.1902 23.6295 87.9845 21.5463 87.4059 19.7726C87.2981 19.4435 87.1777 19.1264 87.0457 18.822C86.3219 17.2574 85.3374 15.5698 83.8199 14.5796C82.9647 14.0219 82.1787 13.1592 81.6958 12.2678C81.4335 12.0196 81.1816 11.6922 80.8428 11.6331C80.9352 11.7945 81.0375 11.9501 81.0639 12.1379L81.043 12.1649C80.6838 12.1759 80.4006 11.9771 80.1542 11.7342L80.427 11.4768C80.3236 11.4234 80.2053 11.401 80.0926 11.3752C79.0542 11.2517 78.2011 11.7508 77.2815 11.9932L77.2661 12.0466C77.831 12.3097 77.9492 12.9599 78.2787 13.4016C78.3606 13.2988 78.4998 13.374 78.6125 13.3631C78.7764 13.374 78.931 13.4975 79.0894 13.4544C79.0949 13.3097 79.019 13.1971 78.9926 13.0684C79.0894 13.019 79.2087 13.0627 79.3165 13.0684C79.6141 13.2505 80.0926 13.0351 80.2774 13.4544C79.938 13.4768 79.6196 13.5509 79.3011 13.6319C79.3215 13.7663 79.4496 13.8743 79.4397 14.0087C79.1669 13.8892 78.8798 13.8157 78.5762 13.7772L78.5619 13.8249C78.9475 14.2982 79.4755 14.5779 80.0156 14.7451C80.7916 14.9329 81.4747 14.5463 82.2244 14.6807C84.0658 15.5624 85.6377 17.579 86.3219 19.4929C86.3554 19.5848 86.3873 19.6778 86.4176 19.7714C86.9907 21.5193 87.099 23.6692 86.5254 25.4911C86.2201 26.2504 85.8841 26.965 85.3451 27.5824C85.1416 27.8438 84.9161 28.0775 84.6708 28.2763C83.8991 28.9046 82.9482 29.1809 81.9686 28.8989C81.9076 28.857 81.7827 28.8455 81.8031 28.7329C81.8377 28.5836 81.8696 28.4308 81.8977 28.2763C82.0605 27.4015 82.1347 26.4825 82.0918 25.5646C82.0896 25.525 82.0891 25.4853 82.0874 25.4463C82.0335 24.1126 81.7794 22.9127 81.3103 21.7594C81.0105 21.0971 80.653 20.3751 80.2031 19.7266C79.6669 18.9535 79.0003 18.2855 78.1445 17.9524C77.6198 17.8071 76.9719 17.7806 76.577 18.2378C76.2937 18.4958 76.176 18.8449 76.2167 19.2264C75.7745 19.5205 75.2779 19.679 74.7367 19.7266C74.6047 19.7387 74.4683 19.7887 74.3313 19.7881C74.2004 19.7944 74.0723 19.7881 73.9485 19.7714C73.2962 19.6876 72.6384 19.3217 72.1379 18.9007C72.1275 18.6227 72.1115 18.3579 72.1016 18.0633C71.8145 17.907 71.5786 17.6106 71.5577 17.262L71.5841 17.235C71.748 17.2884 71.8921 17.3746 72.0406 17.4664C71.9735 17.0472 71.897 16.633 71.6968 16.2677C71.5115 16.1867 71.3256 16.123 71.1512 16.0253C70.951 15.8858 70.8223 15.633 70.7926 15.4016C70.9719 15.5853 71.2854 15.5204 71.424 15.7141C71.1831 14.9668 71.1776 14.1121 70.7816 13.4291C70.5814 12.9237 70.0567 12.6928 69.697 12.3212C69.5579 12.1443 69.5023 11.8973 69.2499 11.8697C69.0447 11.8163 69.0288 11.5739 68.993 11.4188C69.1217 11.4343 69.229 11.5262 69.3379 11.5475C69.0392 10.7192 68.7774 9.8008 67.9706 9.27409L67.8314 9.36485C67.5185 9.41424 67.1841 9.43492 66.8706 9.44583C67.0092 9.23044 67.2561 9.13969 67.4514 9.04204C67.2248 8.86513 67.0389 8.82206 66.7556 8.77324C66.5917 8.94613 66.2947 9.03113 66.0841 9.07938L66.0588 9.0587C66.0533 8.86571 66.0104 8.62792 66.2881 8.58024C66.0214 8.44584 65.5792 8.49926 65.3064 8.58024C65.2288 8.78989 65.0099 8.97772 65.0242 9.2247C64.8658 9.39758 64.7531 9.62791 64.5875 9.75198C64.5831 9.33785 64.7509 8.95589 64.8229 8.60724C64.5919 8.69799 64.3571 8.82665 64.131 8.94038C63.7658 8.71982 63.3814 8.49926 62.9914 8.33326C62.9551 8.3166 62.8781 8.30052 62.8935 8.37002C63.2274 8.62275 63.0981 9.09546 63.1339 9.45617L62.9232 9.27409C62.8204 8.99954 62.5234 8.8008 62.4728 8.49926C62.123 8.56933 61.8991 8.6664 61.5752 8.81172L61.5301 8.83814C61.7715 8.83814 61.9767 9.03687 62.0955 9.23561C61.7308 9.25743 61.4069 9.10637 61.0477 9.06961C61.0114 9.03171 60.9812 8.98863 60.9234 8.99437C60.743 9.06445 60.5901 9.19885 60.4301 9.32808C60.0759 9.69282 59.7156 10.0972 59.5468 10.5802C59.665 10.6021 59.8141 10.5969 59.9015 10.6721C59.7068 10.7956 59.5369 11.0053 59.346 11.1236C59.2795 11.4033 59.2894 11.7204 59.274 12.0271C59.1255 12.2632 58.9247 12.4728 58.8274 12.7359C58.5089 13.8163 58.4264 15.015 58.4732 16.2407C58.3698 16.3424 58.2356 16.4084 58.1393 16.4883L58.1498 17.5848H58.1745C58.2218 17.3533 58.4842 17.2247 58.6426 17.069H58.6943C58.669 17.316 58.6376 17.5629 58.6327 17.8162L58.3346 18.0741C58.0376 18.3481 58.2889 18.7611 58.2625 19.1051C58.284 19.1971 58.2983 19.3315 58.3615 19.3533C58.3967 19.2189 58.51 19.1218 58.581 19.0041C58.7097 18.9707 58.8224 18.8639 58.9401 18.8478C58.8752 19.1161 58.7872 19.3797 58.6833 19.6376C58.6343 19.6715 58.576 19.718 58.5271 19.772C58.4748 19.8312 58.433 19.8989 58.4231 19.9719C58.6536 21.2459 59.0171 22.5032 59.434 23.7019C59.1508 24.2011 58.9907 24.7904 58.7553 25.3067C58.7218 25.3791 58.6915 25.452 58.6629 25.5273C58.427 26.1528 58.3549 26.8507 58.0612 27.452C57.943 27.3653 57.8148 27.301 57.6817 27.2418C57.1251 27.0488 56.4833 27.1723 56.0779 27.618C55.7177 27.548 55.3475 27.6123 55.0643 27.811C54.8621 27.9707 54.7051 28.1625 54.6156 28.3871C54.5551 28.5428 54.526 28.7122 54.5359 28.8978C54.3042 29.0643 54.1806 29.3222 54.1043 29.5801C53.9961 30.1614 54.191 30.7651 54.5096 31.2114L77.386 31.2119Z" fill="white" fill-rule="evenodd"/>
<path clip-rule="evenodd" d="M87.4059 19.7732C87.2981 19.4441 87.1777 19.127 87.0457 18.8226C86.3219 17.258 85.3374 15.5705 83.8199 14.5802C82.9647 14.0225 82.1787 13.1598 81.6958 12.2684C81.4335 12.0202 81.1816 11.6928 80.8428 11.6337C80.9352 11.7951 81.0375 11.9507 81.0639 12.1386L81.043 12.1655C80.6838 12.1765 80.4006 11.9777 80.1542 11.7348L80.427 11.4774C80.3236 11.424 80.2053 11.4016 80.0926 11.3758C79.0542 11.2523 78.2011 11.7514 77.2815 11.9938L77.2661 12.0472C77.831 12.3103 77.9492 12.9605 78.2787 13.4022C78.3606 13.2994 78.4998 13.3746 78.6125 13.3637C78.7764 13.3746 78.931 13.4981 79.0894 13.455C79.0949 13.3103 79.019 13.1977 78.9926 13.069C79.0894 13.0197 79.2087 13.0633 79.3165 13.069C79.6141 13.2511 80.0926 13.0357 80.2774 13.455C79.938 13.4774 79.6196 13.5515 79.3011 13.6325C79.3215 13.7669 79.4496 13.8749 79.4397 14.0093C79.1669 13.8899 78.8798 13.8163 78.5762 13.7778L78.5619 13.8255C78.9475 14.2988 79.4755 14.5785 80.0156 14.7457C80.7916 14.9335 81.4747 14.5469 82.2244 14.6813C84.0658 15.563 85.6377 17.5797 86.3219 19.4935C86.3554 19.5854 86.3873 19.6784 86.4176 19.772C86.9907 21.5199 87.099 23.6698 86.5254 25.4917C86.2201 26.251 85.8841 26.9656 85.3451 27.583C85.1416 27.8444 84.9161 28.0782 84.6708 28.2769C83.8991 28.9053 82.9482 29.1815 81.9686 28.8995C81.9076 28.8575 81.7827 28.8461 81.8031 28.7335C81.8377 28.5842 81.8696 28.4314 81.8977 28.2769C82.0605 27.4021 82.1347 26.4831 82.0918 25.5652C82.0896 25.5256 82.0891 25.486 82.0874 25.4469C82.0335 24.1132 81.7794 22.9133 81.3103 21.76C81.0105 21.0977 80.653 20.3757 80.2031 19.7272C79.6669 18.9541 79.0003 18.2861 78.1445 17.953C77.6198 17.8077 76.9719 17.7813 76.577 18.2384C76.2937 18.4964 76.176 18.8456 76.2167 19.227C75.7745 19.521 75.2779 19.6796 74.7367 19.7272C74.6047 19.7393 74.4683 19.7893 74.3313 19.7887C74.2004 19.795 74.0723 19.7887 73.9485 19.772C73.2962 19.6882 72.6384 19.3223 72.1379 18.9013C72.1275 18.6233 72.1115 18.3585 72.1022 18.0639C71.8145 17.9076 71.5786 17.6113 71.5577 17.2626L71.5841 17.2356C71.748 17.289 71.8921 17.3752 72.0406 17.4671C71.9735 17.0478 71.897 16.6336 71.6968 16.2683C71.5115 16.1873 71.3256 16.1236 71.1512 16.026C70.951 15.8864 70.8223 15.6337 70.7926 15.4022C70.9719 15.586 71.2854 15.5211 71.424 15.7146C71.1831 14.9673 71.1776 14.1127 70.7816 13.4298C70.5814 12.9243 70.0567 12.6934 69.697 12.3218C69.5579 12.1449 69.5023 11.8979 69.2499 11.8703C69.0447 11.8169 69.0288 11.5745 68.993 11.4194C69.1217 11.4349 69.229 11.5268 69.3379 11.5481C69.0392 10.7198 68.7774 9.80141 67.9706 9.2747L67.8314 9.36546C67.5185 9.41485 67.1841 9.43553 66.8706 9.44644C67.0092 9.23105 67.2561 9.1403 67.4514 9.04266C67.2248 8.86574 67.0389 8.82267 66.7556 8.77385C66.5917 8.94674 66.2947 9.03174 66.0841 9.07999L66.0588 9.05931C66.0533 8.86632 66.0104 8.62853 66.2881 8.58085C66.0214 8.44645 65.5792 8.49987 65.3064 8.58085C65.2288 8.7905 65.0099 8.97833 65.0242 9.22531C64.8658 9.3982 64.7531 9.62852 64.5875 9.75259C64.5831 9.33846 64.7509 8.9565 64.8229 8.60785C64.5919 8.6986 64.3571 8.82727 64.131 8.94099C63.7658 8.72043 63.3814 8.49987 62.9914 8.33387C62.9551 8.31722 62.8781 8.30113 62.8935 8.37063C63.2274 8.62336 63.0981 9.09607 63.1339 9.45678L62.9232 9.2747C62.8204 9.00015 62.5234 8.80142 62.4728 8.49987C62.123 8.56994 61.8991 8.66701 61.5752 8.81233L61.5301 8.83875C61.7715 8.83875 61.9767 9.03748 62.0955 9.23622C61.7308 9.25805 61.4069 9.10698 61.0477 9.07022C61.0114 9.03232 60.9812 8.98924 60.9234 8.99498C60.743 9.06506 60.5901 9.19946 60.4301 9.32869C60.0759 9.69343 59.7156 10.0978 59.5468 10.5808C59.665 10.6027 59.8141 10.5975 59.9015 10.6727C59.7068 10.7962 59.5369 11.0059 59.346 11.1242C59.2795 11.4039 59.2894 11.721 59.274 12.0277C59.1255 12.2638 58.9247 12.4734 58.8274 12.7365C58.5089 13.8169 58.4264 15.0156 58.4732 16.2414C58.3698 16.343 58.2356 16.4091 58.1393 16.4889L58.1498 17.5854H58.1745C58.2218 17.3539 58.4842 17.2252 58.6426 17.0696H58.6943C58.669 17.3166 58.6376 17.5635 58.6327 17.8169L58.3346 18.0747C58.0376 18.3487 58.2889 18.7617 58.2625 19.1058C58.284 19.1977 58.2983 19.3321 58.3615 19.3539C58.3967 19.2195 58.51 19.1224 58.581 19.0047C58.7097 18.9714 58.8224 18.8645 58.9401 18.8484C58.8752 19.1167 58.7872 19.3803 58.6833 19.6382C58.6343 19.6721 58.576 19.7186 58.5271 19.7726C58.4748 19.8318 58.433 19.8996 58.4231 19.9725C58.6536 21.2465 59.0171 22.5038 59.434 23.7025C59.1508 24.2017 58.9907 24.7909 58.7553 25.3073C58.7218 25.3797 58.6915 25.4527 58.6629 25.5279C58.427 26.1534 58.3549 26.8513 58.0612 27.4526C57.943 27.3659 57.8148 27.3016 57.6817 27.2424C57.1251 27.0495 56.4833 27.1729 56.0779 27.6186C55.7177 27.5485 55.3475 27.6129 55.0643 27.8116C54.8621 27.9713 54.7051 28.1632 54.6156 28.3877C54.5551 28.5434 54.526 28.7128 54.5359 28.8983C54.3042 29.0649 54.1806 29.3228 54.1043 29.5807C53.9961 30.162 54.191 30.7657 54.5096 31.2119H63.5915C63.4578 31.046 63.3341 30.8145 63.2411 30.6157C63.0464 30.3084 63.1801 29.8736 63.1592 29.5187C63.344 29.1281 63.5321 28.7352 63.7433 28.3533C63.7862 28.2763 63.8291 28.2011 63.8731 28.1264L64.29 27.9598C64.5105 27.9598 64.6964 27.7932 64.9065 27.8518C65.1892 28.1482 65.1892 27.5566 65.4626 27.5296C66.0995 27.4434 66.7314 27.5078 67.0906 28.0724C67.0906 28.1476 67.205 28.1476 67.1786 28.2177C67.0961 28.2435 67.0185 28.1901 66.9322 28.1901C66.5417 28.0885 66.0835 27.8295 65.6985 28.0609C65.6837 28.1574 65.6639 28.2556 65.6452 28.3521C65.6259 28.4549 65.6083 28.5554 65.6001 28.6519C65.852 28.7272 66.0626 28.9156 66.2524 29.1195C66.3811 28.8564 66.6533 28.7381 66.8953 28.6519C67.106 28.7002 67.337 28.706 67.5124 28.8455C67.8364 29.158 67.6769 29.6898 67.6466 30.0873C67.9387 30.259 68.2626 30.3567 68.5602 30.5227C68.4216 30.6531 68.2373 30.7059 68.0674 30.7708L67.5746 30.668C67.5179 30.6255 67.4195 30.6255 67.3991 30.5503C67.2352 30.7323 67.0345 30.9747 66.9322 31.2108H73.9722C73.8798 30.9902 73.772 30.8185 73.6433 30.6146C73.4992 30.2918 73.5569 29.8506 73.541 29.5066L74.1988 28.4584C74.5579 28.4532 74.9649 28.3131 75.3549 28.3831C75.3747 28.3739 75.3934 28.3636 75.411 28.3515C75.5732 28.2344 75.6227 27.9621 75.8636 27.996C76.2948 27.8731 76.6243 28.0775 76.9482 28.2815C76.9372 28.3084 76.9268 28.332 76.9152 28.3515C76.7799 28.5784 76.5258 28.3251 76.341 28.3934C76.2635 28.4796 76.3773 28.5813 76.3922 28.6789C76.4593 28.7749 76.3251 28.7639 76.2794 28.7806C76.1716 28.7967 76.0539 28.7697 75.9709 28.6789C75.9505 28.6514 75.9659 28.6198 75.9252 28.6146C75.8317 28.7749 75.6986 28.9207 75.6629 29.1034C75.78 29.2223 75.9395 29.3401 75.9967 29.4911C76.115 29.6686 75.9038 29.8024 75.8631 29.9586C75.8477 29.9902 75.8004 29.9902 75.7855 29.9586C75.6772 29.8943 75.5853 29.7324 75.4665 29.7748C75.3637 30.2539 75.5023 30.7323 75.4407 31.2108C75.6414 31.2602 75.8774 31.1999 76.0935 31.2108L76.181 30.1999C76.2728 29.5445 76.6441 28.996 77.0808 28.4951C77.5527 28.158 77.8568 28.8243 78.2055 29.0551C78.2627 29.0661 78.2424 29.1304 78.2671 29.1678C78.2622 29.2757 78.1544 29.3182 78.0823 29.3509C77.8662 29.4308 77.7067 29.1838 77.5736 29.0385C77.4454 29.1838 77.3882 29.3768 77.2392 29.4905L77.2903 29.506C77.4614 29.6841 77.6242 29.8719 77.6616 30.1086C77.6407 30.3228 77.5384 30.5325 77.3525 30.641C77.215 30.3929 77.1011 30.1189 77.0093 29.8662C77.0142 29.8777 77.0032 29.8822 76.9933 29.8937C76.7101 29.9736 76.6347 30.3067 76.5874 30.5761C76.6028 30.8397 76.4131 30.9472 76.4637 31.2102H80.1289C80.5348 31.1459 80.966 31.1562 81.2894 30.8438C82.6627 31.0649 84.0548 30.71 85.1339 29.9202C85.7031 29.4388 86.2152 28.8828 86.6288 28.2757C86.9934 27.7404 87.2816 27.2401 87.4681 26.6411C87.6061 26.2706 87.7161 25.8863 87.7992 25.4906C88.1902 23.6296 87.9845 21.5463 87.4059 19.7732Z" fill="#FF6600" fill-rule="evenodd"/>
<path clip-rule="evenodd" d="M63.8216 29.7501C64.0218 29.6157 64.3457 29.583 64.3914 29.2717C64.31 29.2067 64.2374 29.1258 64.145 29.1045L63.9338 29.1688C63.9492 29.0396 64.0163 28.8949 64.0586 28.7553L64.7362 28.5244C64.6427 28.8466 64.6075 29.2498 64.5762 29.6209C64.6378 30.1694 64.7153 30.7553 64.9826 31.2119H64.2522C64.1708 30.707 63.6659 30.3406 63.8216 29.7501Z" fill="#FF6600" fill-rule="evenodd"/>
<path clip-rule="evenodd" d="M65.4014 29.1045H65.4421L65.9344 29.5726L66.0064 29.5565C65.9663 30.1051 65.9399 30.6427 65.9344 31.2119H65.4009C65.292 30.68 65.1121 30.1206 65.133 29.5462C65.2254 29.4009 65.287 29.2176 65.4014 29.1045Z" fill="#FF6600" fill-rule="evenodd"/>
<path clip-rule="evenodd" d="M66.4988 29.6214C66.5972 29.4876 66.6374 29.2608 66.8326 29.2349C66.9712 29.2389 67.0999 29.2608 67.2039 29.3636C67.3832 29.5996 67.2077 29.9017 67.1423 30.1378C67.0697 30.4979 66.9459 30.8736 66.8332 31.2125H66.314L66.4988 29.6214Z" fill="#FF6600" fill-rule="evenodd"/>
<path clip-rule="evenodd" d="M74.296 29.4543C74.4088 29.6054 74.4445 29.8093 74.6145 29.9437C74.7635 29.7289 74.7993 29.3952 74.7272 29.1212L74.5787 28.965C74.769 28.9173 74.9692 28.9006 75.1595 28.8633C75.077 29.1482 74.9219 29.4061 74.9489 29.7392C74.9538 30.2234 75.0308 30.7077 75.0715 31.2119H74.5067C74.3015 30.7386 74.0953 30.2878 74.1107 29.7392C74.1723 29.6422 74.2135 29.529 74.296 29.4543Z" fill="#FF6600" fill-rule="evenodd"/>
<path clip-rule="evenodd" d="M76.7277 19.1264C76.7222 19.2659 76.6248 19.421 76.7117 19.5405C76.8366 19.3952 77.0412 19.4003 77.2062 19.336C77.6632 19.2924 78.0999 19.4434 78.5262 19.5514C78.4184 19.3734 78.3463 19.1746 78.2281 19.0138C77.991 18.9489 77.6313 19.1212 77.5906 18.7547C77.4471 18.6261 77.221 18.718 77.072 18.7283C76.9273 18.8357 76.8102 18.9701 76.7277 19.1264Z" fill="white" fill-rule="evenodd"/>
<path clip-rule="evenodd" d="M61.0182 14.4847C61.0158 14.4835 61.0134 14.4811 61.0098 14.4786C61.0098 14.4811 61.011 14.4823 61.011 14.4847H61.0182Z" fill="white" fill-rule="evenodd"/>
<path clip-rule="evenodd" d="M62.8869 19.2632L63.196 18.9519C63.2218 18.9519 63.2422 18.9571 63.257 18.9778L63.2317 19.5745C63.3808 19.7199 63.565 19.7675 63.7603 19.779C63.7762 19.6182 63.8945 19.5044 63.961 19.3649C64.0177 19.2523 63.9819 19.0857 64.0947 19.0059L64.131 19.0427C64.1662 19.2207 64.1563 19.4194 64.2443 19.5745C64.2547 19.6607 64.269 19.7675 64.2789 19.8433C64.5055 19.8543 64.7112 19.7899 64.8856 19.7032C64.8751 19.4993 64.9428 19.3327 64.9725 19.1455C65.0198 19.0806 64.9158 18.9617 65.0445 18.9674C65.1166 19.1288 65.2447 19.2948 65.3173 19.4677C65.6149 19.1506 65.7397 18.7371 65.8096 18.3063C65.7232 18.1834 65.5896 18.1834 65.4856 18.1024C64.6128 17.8072 63.493 17.748 62.6498 18.2046C62.5932 18.5688 62.6652 18.972 62.8869 19.2632Z" fill="white" fill-rule="evenodd"/>
<path clip-rule="evenodd" d="M54.7197 29.3504C54.6883 29.7646 54.7197 30.1528 54.7449 30.5617C54.8273 30.6961 54.9773 30.8524 55.1263 30.8622L55.1511 30.5876C55.2127 30.2062 55.018 29.8013 55.2237 29.4785C55.3678 29.5262 55.5113 29.602 55.6351 29.6715C55.6967 29.3171 55.6087 28.9024 55.2847 28.687L54.7197 29.3504Z" fill="white" fill-rule="evenodd"/>
<path clip-rule="evenodd" d="M55.9894 28.7692C55.7886 29.3987 55.6396 30.1735 55.8816 30.8364C56.0202 30.7388 56.1637 30.6474 56.2869 30.5136C56.2616 30.0076 56.1945 29.4688 56.4822 29.0483C56.7335 29.1293 56.904 29.3821 57.0008 29.6285C57.1713 29.4033 57.2274 29.0909 57.1609 28.791C57.1713 28.5538 56.9145 28.6084 56.7907 28.5113C56.8314 28.312 56.8259 28.0823 57.0272 27.9685L56.4107 28.0329C56.2517 28.2701 56.0768 28.4998 55.9894 28.7692Z" fill="white" fill-rule="evenodd"/>
<path clip-rule="evenodd" d="M57.2578 30.6267C57.2837 30.6743 57.2578 30.7611 57.3101 30.7719C57.3865 30.3199 57.7358 30.0276 57.9272 29.6289C58.0185 29.4963 58.0141 29.3067 58.1631 29.205C58.3628 29.205 58.5074 29.3556 58.7032 29.3716C58.7643 29.4205 58.6713 29.4635 58.6664 29.5169C58.6257 29.8834 58.492 30.1855 58.5173 30.5623H58.5531C58.8253 30.2607 59.0107 29.9362 59.2109 29.5922L59.2461 29.2866C59.2934 28.9207 58.9133 28.6847 58.6653 28.5336L58.8864 28.2372L58.5778 28.1246C58.2181 28.162 57.8942 28.3182 57.6423 28.6146C57.3293 29.2154 57.2782 29.8954 57.2578 30.6267Z" fill="white" fill-rule="evenodd"/>
<path clip-rule="evenodd" d="M58.6406 27.4366C58.7583 27.4733 58.8667 27.3722 58.9838 27.4251C59.4574 27.6083 59.9507 27.7961 60.3055 28.2097L60.7268 29.3338L60.938 28.6393L60.7988 28.2642C60.6806 27.9954 60.3566 28.0173 60.1355 28.0063C60.0431 27.8984 60.1405 27.7749 60.1718 27.6732C60.2796 27.2912 59.8325 27.3125 59.6526 27.1568C59.6631 26.9265 59.3958 27.0058 59.2462 26.9851L59.1956 26.9207C59.1648 26.8714 59.0878 26.8714 59.046 26.9093C59.0366 26.8932 59.0157 26.8823 59.0262 26.8558L58.9134 26.8823C58.7534 27.0276 58.6456 27.2154 58.6406 27.4366Z" fill="white" fill-rule="evenodd"/>
<path clip-rule="evenodd" d="M58.939 26.1999C58.9549 26.2688 58.9956 26.3389 59.0468 26.3826C59.2783 26.3182 59.5005 26.1505 59.7667 26.2533C60.1116 26.5704 60.4707 26.9035 60.8876 27.0752L61.0367 27.0488C61.1285 27.0804 61.2314 27.0856 61.293 27.1942C61.3502 27.3395 61.2061 27.4245 61.1604 27.5428C61.3909 27.7208 61.2996 28.0374 61.4426 28.2522L61.8122 27.737C61.7264 27.5106 61.8177 27.1241 61.4794 27.1023C61.365 27.0431 61.2891 26.9254 61.2935 26.7909C61.073 26.5813 60.8007 26.49 60.5802 26.2746C60.3987 26.1247 60.2914 25.8938 60.061 25.8398C59.9009 25.7479 59.7266 25.6997 59.5418 25.6577C59.1964 25.6025 59.1656 26.0327 58.939 26.1999Z" fill="white" fill-rule="evenodd"/>
<path clip-rule="evenodd" d="M59.4336 25.1408L59.4946 25.2442C59.752 25.2275 59.9825 25.1098 60.2344 25.1144C60.4038 25.2217 60.6249 25.216 60.7998 25.3079C60.9384 25.5072 61.088 25.7318 61.292 25.8662C61.7089 25.9305 61.9399 26.3998 62.0835 26.7427V26.5767C62.1451 26.3452 62.078 26.0759 61.9977 25.8662C61.8943 25.7588 61.7441 25.6893 61.6374 25.5934C61.6165 25.5233 61.6319 25.49 61.6523 25.4262C61.4928 25.2488 61.2568 25.1517 61.061 25.0116C60.7888 24.5974 60.2652 24.7117 59.8483 24.5974L59.4336 25.1408Z" fill="white" fill-rule="evenodd"/>
<path clip-rule="evenodd" d="M59.4233 21.1977C59.4684 21.3648 59.524 21.5739 59.5553 21.752C59.6989 21.4188 59.9827 21.2678 60.234 20.9943C60.0899 20.8921 59.9101 20.8433 59.7517 20.8117V20.8008C59.6378 20.9179 59.4629 21.0369 59.4233 21.1977Z" fill="white" fill-rule="evenodd"/>
<path clip-rule="evenodd" d="M60.3579 22.9667L60.5889 22.7198C60.8205 22.4716 61.0113 22.1862 61.046 21.8697C60.8821 21.768 60.6659 21.8381 60.5075 21.8972C60.4509 22.2454 60.3629 22.5894 60.3579 22.9667Z" fill="white" fill-rule="evenodd"/>
<path clip-rule="evenodd" d="M60.5259 23.7249C60.8806 23.7456 61.2255 23.8209 61.5137 23.6112L61.8019 22.644C61.7084 22.6382 61.6154 22.5946 61.5291 22.6279C61.3388 23.0678 60.9587 23.5038 60.5259 23.7249Z" fill="white" fill-rule="evenodd"/>
<path clip-rule="evenodd" d="M60.6314 20.2953C60.8624 20.6498 61.2485 21.0466 61.6434 21.1603C61.5978 20.7083 61.2276 20.3964 61.0373 20.0105L61.0269 19.8812C60.8778 19.7307 60.698 19.6279 60.5434 19.5481C60.5187 19.806 60.5858 20.0524 60.6314 20.2953Z" fill="white" fill-rule="evenodd"/>
<path clip-rule="evenodd" d="M61.8838 23.7675C62.156 23.8158 62.4492 23.7675 62.7005 23.6865C63.0652 23.5946 63.2665 23.1759 63.3897 22.8485H62.9321L62.4393 23.3533C62.2446 23.4602 62.0592 23.6216 61.8838 23.7675Z" fill="white" fill-rule="evenodd"/>
<path clip-rule="evenodd" d="M61.8286 19.8059C61.9062 20.2258 62.0761 20.6072 62.3071 20.9673L62.3682 20.166L61.8286 19.8059Z" fill="white" fill-rule="evenodd"/>
<path clip-rule="evenodd" d="M63.5128 21.8966C63.5436 21.6278 63.4364 21.3154 63.4061 21.0425C63.2516 20.9346 63.0365 20.9449 62.8765 20.8386C62.8869 21.2619 63.2043 21.6226 63.5128 21.8966Z" fill="white" fill-rule="evenodd"/>
<path clip-rule="evenodd" d="M63.0464 24.6273C63.3698 24.5199 63.6838 24.4016 63.9825 24.2298C64.1722 23.9443 64.4599 23.687 64.5011 23.3539C64.2635 23.4234 64.0595 23.3424 63.8378 23.4561C63.7047 23.7083 63.6217 23.9943 63.3654 24.1764C63.3241 24.3579 63.1338 24.482 63.0464 24.6273Z" fill="white" fill-rule="evenodd"/>
<path clip-rule="evenodd" d="M63.5483 25.2884L63.9333 25.8151C64.1396 25.8846 64.3964 25.864 64.5763 25.7405L64.4382 25.2626C64.1654 25.3688 63.8415 25.3378 63.5483 25.2884Z" fill="white" fill-rule="evenodd"/>
<path clip-rule="evenodd" d="M64.1909 21.4831L64.34 22.1919C64.6997 21.8863 64.7739 21.44 64.7635 20.9673C64.5578 21.2143 64.439 21.3648 64.1909 21.4831Z" fill="white" fill-rule="evenodd"/>
<path clip-rule="evenodd" d="M65.2031 22.7347C65.2081 22.8376 65.2334 22.9341 65.2895 23.0145C65.6904 23.1655 65.7317 23.675 66.1024 23.8685C66.3427 23.9823 66.621 23.8421 66.8311 23.7393C66.6722 23.5515 66.4929 23.4223 66.3383 23.2241C66.2305 23.1758 66.1216 23.1058 66.1277 22.9662L65.2031 22.7347Z" fill="white" fill-rule="evenodd"/>
<path clip-rule="evenodd" d="M65.5233 25.2729C65.6971 25.4814 65.9336 25.5899 66.18 25.648C66.1393 25.5894 66.2064 25.648 66.2163 25.6112L65.9078 24.9012C65.7532 24.907 65.5937 24.9398 65.4502 24.9288C65.4617 25.0471 65.4865 25.1649 65.5233 25.2729Z" fill="white" fill-rule="evenodd"/>
<path clip-rule="evenodd" d="M66.0675 21.9616C65.9229 21.6124 65.8635 21.1867 65.8217 20.8008C65.6682 20.9943 65.5082 21.1184 65.3641 21.316C65.297 21.7135 65.8415 21.8105 66.0675 21.9616Z" fill="white" fill-rule="evenodd"/>
<path clip-rule="evenodd" d="M66.6936 21.5952C66.8801 21.849 67.2854 21.7629 67.5115 21.687C67.4031 21.4935 67.055 21.3797 66.9934 21.1718C66.9587 20.8008 66.8861 20.4395 66.7723 20.1023C66.593 20.5584 66.3752 21.1018 66.6936 21.5952Z" fill="white" fill-rule="evenodd"/>
<path clip-rule="evenodd" d="M67.0176 22.7346C67.5313 23.1269 68.0356 23.5841 68.7539 23.417C68.8056 23.3803 68.8931 23.3843 68.903 23.3153C68.6923 23.1758 68.4668 23.0672 68.2507 22.9385L68.0048 22.5629H67.8915C67.6138 22.6588 67.3162 22.6979 67.0176 22.7346Z" fill="white" fill-rule="evenodd"/>
<path clip-rule="evenodd" d="M67.0283 27.0942H67.0652C67.3732 26.8363 67.7378 26.7496 68.1025 26.6427C68.2004 26.6806 68.1388 26.7938 68.2262 26.8363C68.4473 26.7404 68.7146 26.7611 68.9401 26.6806C69.2129 26.691 69.434 26.6961 69.6546 26.8197C69.8306 27.0621 70.1584 27.0345 70.385 27.1965L70.3487 26.8197C69.8713 26.2338 69.126 26.1913 68.4374 26.2022L68.422 26.127C68.2576 26.127 68.0728 26.1637 67.9182 26.2395C67.6982 26.2505 67.4865 26.363 67.2758 26.4325C67.1774 26.637 67.0998 26.8857 67.0283 27.0942Z" fill="white" fill-rule="evenodd"/>
<path clip-rule="evenodd" d="M67.4417 20.4883C67.6419 20.7629 67.94 20.9731 68.2794 20.903C68.105 20.7244 67.9037 20.5365 67.8938 20.2844C67.9455 19.8059 67.4417 19.7675 67.1953 19.5205C67.2778 19.8433 67.2668 20.2034 67.4417 20.4883Z" fill="white" fill-rule="evenodd"/>
<path clip-rule="evenodd" d="M67.3882 28.0454H67.4498C67.722 27.8684 68.1175 28.0034 68.3853 27.815C68.5338 27.734 68.5443 27.9494 68.6471 28.0086C68.899 28.1688 68.9304 28.6531 69.2846 28.5405C69.7103 28.7714 69.603 29.3141 69.6184 29.7116L70.0144 29.4543C69.9781 29.2446 70.092 28.9919 69.9627 28.8093C69.8654 28.5784 69.5975 28.5571 69.4694 28.3693C69.6239 28.0948 69.2741 27.9649 69.2015 27.7662L69.223 27.7398L69.768 27.815C69.9528 27.9328 70.0199 28.1482 70.0766 28.3475C70.5023 28.4227 70.6051 28.9276 70.7542 29.2498C70.8422 29.0298 70.8779 28.7926 70.9654 28.5778C70.9709 28.4003 70.7443 28.4003 70.6315 28.3199C70.6013 28.0454 70.4825 27.788 70.2515 27.622C69.7785 27.4968 69.3627 27.224 68.8435 27.224L68.4123 27.363C68.1747 27.4227 67.9233 27.3475 67.7429 27.5186C67.4751 27.5405 67.4553 27.8472 67.3882 28.0454Z" fill="white" fill-rule="evenodd"/>
<path clip-rule="evenodd" d="M67.6611 25.8312L67.759 25.88C67.9702 25.7778 68.1803 25.6595 68.402 25.5733C68.7452 25.4717 69.0125 25.88 69.3012 25.6216C69.4085 25.5418 69.502 25.6595 69.5828 25.7244C69.7082 25.9605 69.9948 25.9444 70.2115 26.0081C70.1031 25.7026 69.9689 25.2833 69.5938 25.2344C69.4453 25.165 69.2699 25.1707 69.1269 25.0788C68.7309 24.6222 68.474 25.4556 68.0406 25.2517C67.8877 25.428 67.6969 25.5957 67.6611 25.8312Z" fill="white" fill-rule="evenodd"/>
<path clip-rule="evenodd" d="M67.7578 28.4492C67.9217 28.5945 68.0917 28.842 68.3491 28.8093C68.667 28.965 68.5339 29.4061 68.7077 29.6376L68.893 29.4653L68.8776 29.4538L68.9035 29.4274L68.9145 29.4423C68.9656 29.282 68.8936 28.9971 68.8056 28.8082C68.6879 28.7226 68.5498 28.8139 68.436 28.7329C68.4206 28.5601 68.3177 28.475 68.2 28.3682C68.1175 28.3027 68.0092 28.3889 67.9162 28.3831L67.7578 28.4492Z" fill="white" fill-rule="evenodd"/>
<path clip-rule="evenodd" d="M68.4004 21.8967C68.5698 22.192 68.8987 22.3752 69.161 22.5791C69.3777 22.6814 69.6593 22.7083 69.8909 22.6538C69.6698 22.466 69.4685 22.2506 69.2848 22.0254C69.2122 21.9174 69.1968 21.7824 69.0994 21.6865C68.858 21.7354 68.5852 21.7296 68.4004 21.8967Z" fill="white" fill-rule="evenodd"/>
<path clip-rule="evenodd" d="M68.6836 19.9731C68.9201 20.2792 69.2853 20.1557 69.6191 20.1666V20.1287L69.1049 19.6772C68.9613 19.7249 68.8073 19.8593 68.6836 19.9731Z" fill="white" fill-rule="evenodd"/>
<path clip-rule="evenodd" d="M59.2236 14.9036L59.5212 15.8714C59.5157 15.3229 59.7588 14.8651 59.7071 14.3068L59.9271 13.9622L59.4596 14.1132C59.3364 14.3602 59.2335 14.6078 59.2236 14.9036Z" fill="white" fill-rule="evenodd"/>
<path clip-rule="evenodd" d="M59.4233 13.2265L59.8292 12.9795V12.35C59.6582 12.4574 59.5669 12.6412 59.4332 12.7848L59.4233 13.2265Z" fill="white" fill-rule="evenodd"/>
<path clip-rule="evenodd" d="M67.759 14.2046C67.6611 14.3384 67.5126 14.3718 67.3888 14.3976C67.6055 13.9846 67.7078 13.4091 67.5384 12.941C67.6506 12.8985 67.7744 12.8766 67.8822 12.8123L67.8717 12.8008L68.1544 12.5429C68.5295 12.2741 68.3849 11.7641 68.524 11.3821C68.3398 11.0817 68.2831 10.7158 68.0153 10.4631L68.0307 10.4522C67.82 10.1725 67.44 10.2052 67.1523 10.0656C66.7712 9.93122 66.4786 10.2052 66.2052 10.3879C66.0875 10.4097 66.1596 10.5705 66.0314 10.5648C65.9594 10.7635 65.8714 10.9789 65.8197 11.1994C65.3115 11.1242 64.7615 11.1834 64.3556 11.4843C64.1389 11.3172 63.8782 11.2856 63.6257 11.2104C63.4409 11.1719 63.2303 11.242 63.0972 11.1345C62.9019 10.9042 62.8596 10.4843 62.5252 10.4258C62.4075 10.3821 62.3827 10.2477 62.3827 10.1294C62.1611 10.0909 61.9653 9.98407 61.7502 9.93582C61.4213 9.77959 61.1595 10.0277 60.9131 10.1937C60.8042 10.2414 60.681 10.258 60.5787 10.3224C60.3939 10.6239 60.2201 10.9301 60.1002 11.2632C60.1371 11.5372 60.2498 11.7784 60.3835 12.0105C60.5017 12.3597 60.8719 12.6342 61.1848 12.7744C61.0358 13.3063 61.0358 13.9398 61.1848 14.4774C61.1848 14.4774 61.1766 14.4849 61.1766 14.4832C61.1766 14.4849 61.1601 14.4992 61.1601 14.4992C61.1117 14.4992 61.0578 14.509 61.0176 14.4832H61.0116C61.0847 14.9966 61.3157 15.447 61.6892 15.8324C61.8228 15.8806 61.7915 16.0478 61.8476 16.1546C61.8839 16.2035 61.8894 16.3051 61.874 16.3482C61.0715 16.3218 60.3571 16.5314 59.7147 16.9128C59.5502 16.999 59.6223 17.235 59.6069 17.4022C60.0595 17.0897 60.5474 16.8594 61.0869 16.7566C61.3185 16.7416 61.5797 16.6813 61.8014 16.7456L61.8267 17.2092C61.2162 17.5429 60.5474 17.7359 60.0238 18.2844C60.0337 18.4504 60.0029 18.6434 60.0491 18.7836L60.5177 18.3861C60.9698 18.0254 61.4422 17.7192 61.9609 17.5205C62.1006 17.6922 62.2441 17.876 62.4295 17.9829C62.7424 17.7727 63.0823 17.617 63.442 17.5205C63.6318 17.4022 63.9359 17.5096 64.0586 17.2735L64.1455 16.7841C64.1312 16.7732 64.1202 16.7514 64.0943 16.7566C63.8534 16.6112 63.6934 16.3591 63.7143 16.0639C63.6318 16.1064 63.5405 16.1339 63.442 16.138C63.3606 16.1173 63.2825 16.0955 63.2468 16.0087C63.2418 15.9019 63.1901 15.7405 63.2935 15.6607C63.6268 15.4453 64.0591 15.4343 64.4804 15.4665C64.7934 15.5102 65.246 15.4935 65.3549 15.8806C65.3395 15.9938 65.3494 16.1178 65.2411 16.1925C65.1278 16.2569 65.0002 16.1868 64.8968 16.138C64.8148 16.4022 64.6762 16.6974 64.3935 16.7836L64.4287 17.0949C64.4639 17.235 64.4749 17.4659 64.6856 17.4171C65.174 17.5418 65.6063 17.8048 66.0325 18.0891C66.1766 17.9392 66.2894 17.7669 66.3917 17.6106C67.1534 17.8806 67.8101 18.4768 68.4382 19.0311L68.463 18.5791C67.8668 18.0248 67.2046 17.6331 66.5149 17.3269C66.5413 17.1816 66.5721 17.0414 66.5776 16.8852C67.3943 16.9341 68.1704 17.1977 68.843 17.6106L68.8326 17.2241C68.1236 16.8261 67.3476 16.563 66.5006 16.5527C66.4687 16.5044 66.4588 16.4344 66.4643 16.3861C66.8757 16.3166 67.1677 15.8709 67.2656 15.4826C67.4774 15.2304 67.7804 14.9559 67.7084 14.5802C67.7172 14.5486 67.7276 14.5159 67.7386 14.4832C67.7656 14.3907 67.7887 14.2919 67.759 14.2046Z" fill="white" fill-rule="evenodd"/>
<path clip-rule="evenodd" d="M68.4722 15.5866L68.8935 15.4465L68.9408 15.2C69.059 14.8393 68.8066 14.5705 68.6834 14.2856L68.4722 15.5866Z" fill="white" fill-rule="evenodd"/>
<path clip-rule="evenodd" d="M69.5378 17.2896C69.7386 17.521 69.9338 17.8915 70.2886 17.7789C70.2627 17.6227 70.1802 17.4935 70.1296 17.3539C70.0372 17.2413 70.0053 16.9185 69.8211 17.0317C69.6819 16.9352 69.6467 16.7737 69.5582 16.6445C69.5186 16.8438 69.5433 17.0908 69.5378 17.2896Z" fill="white" fill-rule="evenodd"/>
<path clip-rule="evenodd" d="M69.6104 18.8645C69.6879 18.9771 69.7094 19.123 69.7853 19.2252C69.9244 19.3211 70.1301 19.305 70.3006 19.2895C70.4535 19.2516 70.5519 19.4285 70.6949 19.3268C70.5156 19.2085 70.4079 18.9938 70.239 18.8369C70.0377 18.6715 69.8221 18.8168 69.6104 18.8645Z" fill="white" fill-rule="evenodd"/>
<path clip-rule="evenodd" d="M69.8829 21.3648C70.2377 21.5848 70.6876 21.8001 71.1611 21.7249C71.2123 21.6985 71.3003 21.7036 71.3102 21.6393C71.017 21.5313 70.709 21.2252 70.4016 21.1609C70.2322 20.8869 70.0105 21.231 69.7949 21.2091C69.7999 21.2729 69.8615 21.3212 69.8829 21.3648Z" fill="white" fill-rule="evenodd"/>
<path clip-rule="evenodd" d="M70.9487 26.1108L71.0263 26.2826C71.1044 26.8421 71.4421 27.3573 71.2573 27.9701C71.4118 28.0839 71.458 28.2717 71.5559 28.4222H71.5812C71.6995 27.9552 71.6175 27.471 71.5559 27.0029C71.6021 26.5784 71.1902 26.3314 70.9487 26.1108Z" fill="white" fill-rule="evenodd"/>
<path clip-rule="evenodd" d="M71.0381 20.6067C71.3048 20.8221 71.7316 20.8428 72.0396 20.7359C71.8444 20.6233 71.6288 20.4987 71.4687 20.3488L71.0381 20.6067Z" fill="white" fill-rule="evenodd"/>
<path clip-rule="evenodd" d="M72.3057 22.2562C72.2804 22.4826 72.424 22.6704 72.578 22.7841C72.6346 22.6503 72.7265 22.536 72.7369 22.3861C72.6907 22.1552 72.567 21.9449 72.3668 21.7887C72.3316 21.9392 72.2898 22.0845 72.3057 22.2562Z" fill="white" fill-rule="evenodd"/>
<path clip-rule="evenodd" d="M72.3228 24.7082C72.2859 24.9604 72.5532 24.9931 72.666 25.1327C72.7589 25.251 72.6044 25.332 72.6044 25.4445C72.8002 25.7076 72.9135 26.0074 72.9135 26.3578C72.9899 26.0304 73.1082 25.7185 73.15 25.3803C73.1291 25.143 72.7699 25.1924 72.826 24.9288C72.9289 24.66 72.8057 24.3969 72.7386 24.1539C72.7188 24.1172 72.6715 24.0413 72.6313 24.0638C72.5378 24.2832 72.3074 24.4394 72.3228 24.7082Z" fill="white" fill-rule="evenodd"/>
<path clip-rule="evenodd" d="M73.0264 23.4285L73.2937 23.9713C73.4114 23.9552 73.4884 23.8369 73.5808 23.7507C73.6528 23.525 73.462 23.3797 73.4064 23.1964C73.3597 23.0672 73.4064 22.8961 73.319 22.7835C73.2519 22.7398 73.1754 22.6698 73.0984 22.6916L73.0264 23.4285Z" fill="white" fill-rule="evenodd"/>
<path clip-rule="evenodd" d="M73.3682 21.9984C73.5794 22.1328 73.8208 22.3258 73.9341 22.563C74.114 23.1115 74.4016 23.6049 74.6123 24.1374C74.6893 24.5084 74.7509 24.8398 74.8482 25.2046C74.8851 25.3017 74.8642 25.4895 75.0088 25.4734C75.0484 25.065 75.126 24.6721 75.1315 24.2477C75.0033 24.0702 74.8339 23.9955 74.6739 23.8881V23.8502C74.6948 23.7595 74.7674 23.6509 74.8746 23.6681C74.9203 23.6141 75.0594 23.5607 74.9984 23.4636C74.7305 23.1845 74.7459 22.7037 74.3202 22.617C74.1712 22.5526 74.1354 22.3907 74.12 22.2414C73.9187 22.0627 73.6212 22.0042 73.3682 21.9984Z" fill="white" fill-rule="evenodd"/>
<path clip-rule="evenodd" d="M73.6178 24.9122C73.8791 25.1643 73.7872 25.5302 73.7663 25.8691C73.7256 26.0736 73.972 25.9541 74.049 26.0626C74.2091 26.3096 74.1161 26.6703 74.06 26.9386C74.1992 26.7175 74.3581 26.5245 74.4654 26.2821C74.461 26.1913 74.5737 26.1477 74.5688 26.0345C74.6144 25.8789 74.4401 25.949 74.368 25.9329C74.3064 25.9167 74.2399 25.8737 74.2608 25.7875C74.3928 25.5187 74.2707 25.1965 74.219 24.9277C74.1574 24.7071 74.2454 24.4113 74.1464 24.2178C73.9819 24.4555 73.493 24.509 73.6178 24.9122Z" fill="white" fill-rule="evenodd"/>
<path clip-rule="evenodd" d="M74.0938 21.096C74.5519 21.5802 74.8857 22.0661 75.3785 22.5343C75.389 22.3241 75.3631 22.1311 75.3532 21.9266C75.2817 21.7813 75.1475 21.6744 75.0337 21.5659C74.669 21.5291 74.4793 21.0151 74.0938 21.096Z" fill="white" fill-rule="evenodd"/>
<path clip-rule="evenodd" d="M75.2915 23.6572C75.3025 23.7066 75.3234 23.7491 75.3443 23.7968C75.544 24.1414 75.7348 24.4964 75.8734 24.8668C75.8322 24.4688 76.089 23.9748 75.7491 23.6681C75.7035 23.5383 75.55 23.582 75.4516 23.5923L75.2915 23.6572Z" fill="white" fill-rule="evenodd"/>
<path clip-rule="evenodd" d="M76.5254 27.5836C76.6695 27.6537 76.8543 27.5302 76.9934 27.444C77.1221 27.4119 77.2294 27.4877 77.3278 27.5572C77.3685 27.6428 77.3278 27.7238 77.3432 27.8047C77.6512 27.8955 77.9537 28.0144 78.2265 28.2022L78.3129 28.1109C78.3338 27.88 78.16 27.7128 77.9944 27.5836C77.8872 27.5193 77.7271 27.5572 77.6507 27.455C77.7024 27.3688 77.7024 27.2396 77.6969 27.1431C77.5269 27.1431 77.4191 27.0885 77.2811 27.0035C77.1931 26.9765 77.1161 26.9007 77.044 27.0035C76.7872 27.1855 76.7723 27.455 76.5254 27.5836Z" fill="white" fill-rule="evenodd"/>
<path clip-rule="evenodd" d="M76.8866 20.8196C77.0142 20.7812 77.1484 20.7438 77.2562 20.6468C77.6011 20.3188 78.0988 20.5394 78.5003 20.5342C78.4233 20.3889 78.3144 20.2436 78.2171 20.1201C78.0724 20.0609 77.9393 19.9914 77.7749 19.9914C77.4251 19.776 77.1897 20.1367 76.9218 20.3136C76.8492 20.459 76.814 20.6738 76.8866 20.8196Z" fill="white" fill-rule="evenodd"/>
<path clip-rule="evenodd" d="M76.8961 21.9266C76.8961 21.91 76.8961 21.8933 76.9115 21.8893C76.9588 21.9318 76.9065 22.0352 76.984 22.0559C77.1177 21.9858 77.2409 21.8893 77.3641 21.7979C77.7084 21.7979 77.9141 21.4481 78.2529 21.4481C78.8188 21.5561 79.3787 21.675 79.8715 21.9639C79.8363 21.6159 79.5476 21.2977 79.2555 21.142C79.09 21.0828 78.9618 21.1742 78.8441 21.2713C78.5004 21.4975 78.6797 20.9433 78.4388 20.9324C78.1247 21.034 77.8008 21.1478 77.4515 21.1144C77.2458 21.196 77.1018 21.3942 76.8702 21.3724C76.8609 21.551 76.8356 21.7663 76.8961 21.9266Z" fill="white" fill-rule="evenodd"/>
<path clip-rule="evenodd" d="M77.1319 23.1248C77.2397 23.2442 77.419 23.2224 77.5741 23.2442L78.0212 23.0604C78.0262 22.976 77.8876 22.9531 77.9184 22.8566C78.0416 22.7112 78.2104 22.814 78.3655 22.7549C78.5806 22.7222 78.8017 22.4976 79.0178 22.663C79.0112 22.6906 79.0272 22.7273 79.0068 22.7549C78.9403 22.9215 79.053 23.0237 79.1762 23.088C79.4287 23.1362 79.6641 23.3786 79.916 23.2701C79.8907 23.0495 79.8351 22.8468 79.7834 22.636C79.5722 22.5986 79.4232 22.416 79.2279 22.3402C79.141 22.4263 79.0272 22.4906 78.9194 22.4798C78.5234 22.3827 78.0498 22.1248 77.65 22.3884C77.5059 22.5716 77.249 22.5177 77.0532 22.5981C77.0648 22.7807 77.0851 22.9588 77.1319 23.1248Z" fill="white" fill-rule="evenodd"/>
<path clip-rule="evenodd" d="M77.3014 26.3205C77.2706 26.4118 77.1837 26.5617 77.3432 26.6054C77.6716 26.6158 78.0934 26.4383 78.3503 26.7071C78.4377 26.7771 78.3959 26.9224 78.3904 27.0138L78.8222 27.39C78.8634 27.1631 78.9415 26.9592 78.947 26.7174C78.9107 26.5451 78.8282 26.3791 78.6847 26.2665C78.4009 26.2665 78.2375 25.9201 77.9334 25.9627C77.7744 25.9259 77.6353 26.0735 77.4758 26.0735C77.4048 26.1482 77.363 26.2401 77.3014 26.3205Z" fill="white" fill-rule="evenodd"/>
<path clip-rule="evenodd" d="M77.4247 23.7858C77.4912 23.9311 77.5693 24.1678 77.6969 24.1832C78 24.0448 78.4427 23.9581 78.7815 24.1092C78.8943 24.1298 78.8943 24.2642 78.8695 24.3504C79.0439 24.4578 79.2545 24.5439 79.4399 24.6617L79.3882 24.3389C79.3777 23.9897 78.957 23.9581 78.9306 23.6135C78.5863 23.4957 78.2007 23.4573 77.8361 23.5491C77.7178 23.6617 77.5479 23.6468 77.4049 23.6784C77.3944 23.7215 77.4192 23.749 77.4247 23.7858Z" fill="white" fill-rule="evenodd"/>
<path clip-rule="evenodd" d="M77.5129 25.528C77.7131 25.4682 77.8424 25.2379 78.058 25.2161C78.3863 25.2218 78.6795 25.362 78.8857 25.6584C79.0084 25.7427 78.9831 25.9633 79.1426 25.9633C79.0953 25.7003 79.1778 25.459 79.1673 25.1891C78.9528 24.8134 78.4177 25.1041 78.2175 24.6624L77.8374 24.6894C77.5641 24.76 77.6367 25.0931 77.6009 25.3195C77.5696 25.3884 77.5085 25.4424 77.5129 25.528Z" fill="white" fill-rule="evenodd"/>
<path clip-rule="evenodd" d="M79.3984 27.8794C79.5568 28.2126 79.9072 28.4653 79.9424 28.8467C80.0243 28.745 80.0815 28.6267 80.1376 28.5135C80.1321 28.4061 80.0139 28.4061 79.9682 28.3199C79.9209 28.1804 79.993 28.0569 80.0139 27.9328C79.9468 27.7341 79.7873 27.5463 79.608 27.4274L79.3984 27.8794Z" fill="white" fill-rule="evenodd"/>
<path clip-rule="evenodd" d="M80.0322 27.0299L80.4018 27.5572C80.5602 27.2941 80.5602 26.9065 80.4992 26.5894C80.464 26.5297 80.3963 26.4332 80.3045 26.4768C80.1659 26.6267 80.145 26.8582 80.0322 27.0299Z" fill="white" fill-rule="evenodd"/>
<path clip-rule="evenodd" d="M78.5244 12.3167C78.6581 12.3868 78.7862 12.4511 78.9468 12.462C79.0541 12.4028 79.1932 12.3592 79.3269 12.3977C79.5166 12.5269 79.7482 12.3707 79.9693 12.3816C79.774 12.188 79.5518 12.0691 79.3269 11.9565C79.0387 12.0203 78.8077 12.2357 78.5244 12.3167Z" fill="white" fill-rule="evenodd"/>
<path clip-rule="evenodd" d="M80.5342 12.8209C80.8064 12.8479 81.0028 13.1007 81.1865 13.3103C81.4175 13.3471 81.5924 13.52 81.731 13.6969L81.6446 13.4125C81.583 13.1271 81.412 12.9065 81.2382 12.6808C80.9918 12.6974 80.7492 12.7198 80.5342 12.8209Z" fill="white" fill-rule="evenodd"/>
<path clip-rule="evenodd" d="M61.3561 10.4636L61.5057 10.4803C61.9056 10.6899 62.5529 10.7973 62.5903 11.4045C62.1833 11.5716 61.7928 11.7968 61.4689 12.1408C61.223 11.8777 60.7242 12.0225 60.6411 11.5607C60.7192 11.1242 60.8677 10.5756 61.3561 10.4636Z" fill="#FF6600" fill-rule="evenodd"/>
<path clip-rule="evenodd" d="M61.742 13.1896C62.2101 13.146 62.6622 13.2155 63.1456 13.173C63.2628 13.2264 63.386 13.3332 63.4432 13.4573C63.4272 14.038 63.2578 14.5923 63.2325 15.1885C63.0219 15.2792 62.8162 15.463 62.7645 15.7042C62.5742 15.7634 62.4042 15.8812 62.2189 15.9725C62.138 15.7904 62.1523 15.5159 62.297 15.3648C62.4972 15.0696 63.0169 15.1385 62.9757 14.671C63.1093 14.4458 62.9812 14.1552 62.985 13.9191C62.9339 13.741 62.8822 13.9783 62.8008 13.9725C62.6363 14.0093 62.4669 14.0202 62.3228 13.934C62.2145 13.8157 62.0825 13.7187 62.0506 13.5584C61.9059 13.4831 61.7371 13.3654 61.665 13.2092L61.742 13.1896Z" fill="#FF6600" fill-rule="evenodd"/>
<path clip-rule="evenodd" d="M62.3075 16.6927C62.5275 16.7261 62.7596 16.6227 62.9499 16.7364C62.9098 16.8122 62.8009 16.8438 62.7134 16.8657L62.3686 17.0316C62.241 17.0001 62.3125 16.7847 62.3075 16.6927Z" fill="#FF6600" fill-rule="evenodd"/>
<path clip-rule="evenodd" d="M63.2058 12.2052C63.4258 12.13 63.6634 11.9749 63.8994 12.049C63.7305 12.227 63.5969 12.4574 63.4682 12.6727L62.7642 12.6567C62.8417 12.4625 63.0364 12.3023 63.2058 12.2052Z" fill="#FF6600" fill-rule="evenodd"/>
<path clip-rule="evenodd" d="M65.2673 12.0282C65.5599 11.9748 65.5439 12.3723 65.8112 12.3872C65.8585 12.4515 65.9256 12.5107 65.8992 12.6078C65.7447 12.6721 65.5186 12.6411 65.3443 12.683C65.1122 12.5486 65.2623 12.1293 64.8971 12.1563C64.8768 12.1236 64.8361 12.0592 64.8867 12.038C65 11.9955 65.1496 12.0116 65.2673 12.0282Z" fill="#FF6600" fill-rule="evenodd"/>
<path clip-rule="evenodd" d="M65.082 13.4677C65.2101 13.2793 65.4059 13.2638 65.5907 13.2264L66.9223 13.2523C66.9784 13.3069 66.8706 13.3551 66.8706 13.4194C66.7886 13.5004 66.6698 13.5222 66.5978 13.5969C66.4234 13.6021 66.4388 13.8175 66.3156 13.9094C66.1253 14.1081 65.847 14.0162 65.6265 13.9846C65.5495 13.9249 65.4626 13.8445 65.4257 13.7531L65.3641 13.8175C65.4417 14.119 65.4213 14.4521 65.478 14.7583L65.797 14.9789C65.8019 15.4728 66.3569 15.3384 66.5978 15.613C66.5417 15.7911 66.4284 15.941 66.3052 16.0915C66.1105 15.8927 65.8883 15.7641 65.6529 15.6773C65.632 15.3884 65.3289 15.2155 65.1601 15.0708C65.1128 14.5435 65.1029 14.0059 65.0215 13.4953L65.082 13.4677Z" fill="#FF6600" fill-rule="evenodd"/>
<path clip-rule="evenodd" d="M65.5657 16.7847H66.1833L66.1058 17.1231L65.4881 16.8491C65.4738 16.7957 65.5294 16.7796 65.5657 16.7847Z" fill="#FF6600" fill-rule="evenodd"/>
<path clip-rule="evenodd" d="M66.6743 10.6952L67.1319 10.5447C67.3943 10.6733 67.6407 10.8342 67.8821 11.0174C68.0719 11.3827 68.0422 11.8772 67.9542 12.2856C67.815 12.4464 67.512 12.2856 67.3992 12.5435H67.3778C67.2089 12.0386 66.7255 11.586 66.2783 11.3563C66.3504 11.0978 66.4279 10.8451 66.6743 10.6952Z" fill="#FF6600" fill-rule="evenodd"/>
</g>
<defs>
<clipPath id="clip0_10362_3554">
<rect fill="white" height="24" transform="translate(0 8)" width="88"/>
</clipPath>
</defs>
</svg>