<?xml version="1.0" encoding="utf-8"?>
<svg xmlns="http://www.w3.org/2000/svg" fill="none" height="40" viewBox="0 0 126 40" width="126">
<g clip-path="url(#clip0_10362_3487)">
<mask height="24" id="mask0_10362_3487" maskUnits="userSpaceOnUse" style="mask-type:luminance" width="126" x="0" y="8">
<path d="M126 8H0V31.7788H126V8Z" fill="white"/>
</mask>
<g mask="url(#mask0_10362_3487)">
<path d="M99.5002 20.0525L99.3932 20.0146C100.264 19.5486 100.808 18.5442 100.808 17.305C100.808 15.196 99.2643 13.7635 97.0857 13.7635H90.8282C90.6948 13.7635 90.585 13.8775 90.585 14.0224V27.056C90.585 27.1976 90.6919 27.3149 90.8282 27.3149H96.8132C99.8079 27.3149 101.387 25.9412 101.387 23.2489C101.387 21.7163 100.659 20.5358 99.5002 20.0525ZM92.9292 15.7207H96.6417C97.9787 15.7207 98.7068 16.128 98.7068 17.2774C98.7068 18.589 98.0146 19.2449 96.6417 19.269H92.9292C92.7958 19.269 92.6859 19.1551 92.6859 19.0102V15.9761C92.6896 15.8346 92.7958 15.7207 92.9292 15.7207ZM96.6901 25.3475H92.9255C92.7929 25.3475 92.683 25.2336 92.683 25.0886V21.4884C92.683 21.3469 92.79 21.2296 92.9255 21.2296H96.726C98.5193 21.2538 99.2863 21.7922 99.2863 23.3076C99.2863 24.6226 98.5032 25.3475 96.6901 25.3475Z" fill="#004481"/>
<path d="M112.704 13.8981L108.528 22.372C108.437 22.555 108.191 22.555 108.101 22.372L103.922 13.8981C103.88 13.8118 103.799 13.76 103.708 13.76H101.688C101.552 13.76 101.465 13.9153 101.529 14.0465L108.108 27.1733C108.198 27.3563 108.444 27.3563 108.535 27.1733L115.113 14.0465C115.178 13.9188 115.09 13.76 114.954 13.76H112.921C112.827 13.76 112.746 13.8152 112.704 13.8981Z" fill="#004481"/>
<path d="M86.3576 20.0525L86.2507 20.0146C87.1217 19.5486 87.6652 18.5442 87.6652 17.305C87.6652 15.196 86.121 13.7635 83.9424 13.7635H77.6849C77.5523 13.7635 77.4424 13.8775 77.4424 14.0224V27.056C77.4424 27.1976 77.5493 27.3149 77.6849 27.3149H83.6706C86.6653 27.3149 88.2447 25.9412 88.2447 23.2489C88.2447 21.7163 87.5195 20.5358 86.3576 20.0525ZM79.7895 15.7207H83.5021C84.839 15.7207 85.5672 16.128 85.5672 17.2774C85.5672 18.589 84.8749 19.2449 83.5021 19.269H79.7895C79.6562 19.269 79.5463 19.1551 79.5463 19.0102V15.9761C79.5463 15.8346 79.6532 15.7207 79.7895 15.7207ZM83.5505 25.3475H79.7858C79.6532 25.3475 79.5434 25.2336 79.5434 25.0886V21.4884C79.5434 21.3469 79.6503 21.2296 79.7858 21.2296H83.5863C85.3797 21.2538 86.1466 21.7922 86.1466 23.3076C86.1466 24.6226 85.3606 25.3475 83.5505 25.3475Z" fill="#004481"/>
<path d="M114.802 25.2094L118.977 16.7354C119.068 16.5525 119.314 16.5525 119.405 16.7354L123.585 25.2094C123.626 25.2956 123.708 25.3474 123.798 25.3474H125.818C125.954 25.3474 126.042 25.1921 125.976 25.0609L119.399 11.9341C119.308 11.7511 119.062 11.7511 118.972 11.9341L112.393 25.0609C112.329 25.1886 112.416 25.3474 112.552 25.3474H114.585C114.679 25.3474 114.76 25.2922 114.802 25.2094Z" fill="#004481"/>
<path d="M72.0331 15.0717C72.0331 14.692 71.9166 14.3848 71.677 14.1501C71.4408 13.8774 71.1526 13.7704 70.8127 13.7704C70.4566 13.7704 70.1685 13.8981 69.9484 14.1501C69.7898 14.3054 69.6862 14.4952 69.6312 14.7161C69.6053 14.8266 69.5923 14.944 69.5923 15.0717C69.5923 15.4341 69.7121 15.7413 69.9484 15.9933C70.1685 16.2453 70.4566 16.373 70.8127 16.373C71.1526 16.373 71.4408 16.266 71.677 15.9933C71.9133 15.7413 72.0331 15.4341 72.0331 15.0717Z" fill="#121212"/>
<path d="M72.1306 27.3288C71.9817 27.0216 71.9558 26.0378 71.9558 24.8021V19.4243C71.9558 18.299 72.0594 17.2877 71.0559 17.2877C70.7322 17.2877 70.1041 17.5328 69.3628 17.9504C69.7513 18.2232 69.897 18.7719 69.897 19.9594V24.8263C69.897 26.2276 69.8905 27.0043 69.7222 27.3322H72.1306V27.3288Z" fill="#121212"/>
<path d="M66.2739 27.5324C65.3222 27.5324 64.6489 27.2183 64.2151 26.6108C63.9205 26.1863 63.7651 25.4131 63.7651 24.3085V18.8341H62.3311V17.6364L63.7651 17.45L63.9205 15.0718L65.8207 14.9233V17.4672H68.1709V18.8306H65.8207V21.233V21.9269V22.2306V24.3776C65.8207 25.4268 66.2351 25.9446 67.0314 25.9446C67.5332 25.9446 68.035 25.8169 68.5691 25.5201L68.7406 26.811C67.8828 27.2943 67.0509 27.5324 66.2739 27.5324Z" fill="#121212"/>
<path d="M35.5053 25.2646C34.9874 25.7065 34.3659 26.0033 33.6893 26.0033C32.757 26.0033 32.1678 25.5787 32.1678 24.5294C32.1678 22.9796 33.5339 21.9475 35.5053 22.4998V25.2646ZM37.7519 27.3287C37.6127 26.7765 37.5803 25.8341 37.5803 25.061V20.843C37.5803 18.0955 36.4214 17.2118 33.932 17.2118C32.9479 17.2118 32.1516 17.4327 31.2517 17.8573L31.0089 19.2379C31.8571 18.7582 32.8573 18.5546 33.8252 18.5546C35.5895 18.5546 35.5021 20.0284 35.5021 21.447C33.0807 20.6566 30.0054 21.6507 30.0734 24.8021C30.109 26.5901 31.3359 27.5289 32.8735 27.5669C33.9288 27.5842 34.8094 27.1424 35.5344 26.3519L35.6898 27.3287H37.7519Z" fill="#121212"/>
<path d="M59.0197 27.3287C59.0942 27.1285 59.0974 26.6625 59.1039 26.1344C59.1104 25.7271 59.1104 25.2335 59.1104 24.6571V20.7877C59.1104 19.4622 58.7284 18.8513 57.8122 18.8513C57.1033 18.8513 56.2746 19.3863 55.6175 20.0145V24.8814C55.6175 25.4371 55.6272 25.9549 55.6466 26.3795C55.6661 26.7971 55.6951 27.1319 55.7405 27.3321H53.4745C53.5619 26.9248 53.5781 26.1171 53.5781 24.9539V19.9213C53.5781 18.6856 53.3903 18.1886 53.0439 17.9504C53.85 17.5189 54.342 17.3049 54.7111 17.3049C55.3812 17.3049 55.5333 17.9331 55.5495 18.7236C56.3458 17.8572 57.4691 17.1945 58.5244 17.1945C59.5603 17.1945 60.3243 17.5811 60.7905 18.3749C60.894 18.5614 60.9782 18.7961 61.0364 19.086C61.1271 19.5175 61.1692 20.0628 61.1692 20.7359V24.8469C61.1692 26.4727 61.2339 27.1527 61.3084 27.3356H59.0197V27.3287Z" fill="#121212"/>
<path d="M44.1095 18.9445C43.9542 18.9273 43.7988 18.9273 43.5916 18.9273C42.9345 18.9273 42.2773 19.2965 41.6396 20.0697V25.0264C41.6396 26.483 41.6914 27.163 41.7594 27.3321H39.4934C39.5258 27.1802 39.5484 26.9939 39.5646 26.7764C39.597 26.3069 39.597 25.7029 39.597 25.0471V19.9213C39.597 18.7961 39.4222 18.1747 39.0596 17.9504C39.707 17.588 40.3254 17.3049 40.7235 17.3049C41.413 17.3049 41.5489 17.9884 41.5489 18.7443C42.1899 17.7122 42.983 17.1945 43.8991 17.1945C44.0707 17.1945 44.2455 17.2117 44.4009 17.2497L44.1095 18.9445Z" fill="#121212"/>
<path d="M51.7623 27.3287C51.6102 26.9698 51.5908 25.8341 51.5908 25.061V20.843C51.5908 18.0955 50.4415 17.2118 47.9522 17.2118C46.9681 17.2118 46.162 17.4224 45.2621 17.8469L45.0193 19.2414C45.3366 19.062 45.6797 18.9204 46.0326 18.8134C46.6152 18.6374 47.2335 18.558 47.8389 18.558C49.6031 18.558 49.5157 20.0319 49.5157 21.4505C47.0943 20.6601 44.0191 21.6542 44.087 24.8055C44.1226 26.5935 45.3495 27.5324 46.8872 27.5703C47.9425 27.5876 48.8327 27.1458 49.5611 26.3554C49.5611 26.3554 49.6064 26.9801 49.7067 27.3322C50.1664 27.3287 51.7623 27.3287 51.7623 27.3287ZM49.5157 25.2646C48.9978 25.7065 48.3762 26.0033 47.6997 26.0033C46.7674 26.0033 46.1782 25.5787 46.1782 24.5294C46.1782 22.9796 47.5443 21.9475 49.5157 22.4998V25.2646Z" fill="#121212"/>
<path d="M28.0339 15.2926C26.998 14.8508 25.9071 14.6299 24.8 14.6299C23.3821 14.6299 22.2718 15.1649 21.3394 16.1969C20.4071 17.2497 19.941 18.5924 19.941 20.2147C19.941 21.9855 20.3553 23.4041 21.2035 24.4362C22.0322 25.4682 23.1264 26.0032 24.6122 26.0032C25.3891 26.0032 26.0301 25.8927 26.5642 25.6719V22.1891C26.5642 21.9509 26.561 21.73 26.5545 21.5264H25.4733H24.8097C24.787 20.9085 24.7093 20.263 24.6187 19.8868L28.8626 20.0422C28.7072 20.5771 28.691 21.233 28.691 22.3548V24.1428C28.691 25.3957 28.759 26.2448 28.8626 26.6694C27.3929 27.3149 25.9233 27.6462 24.4374 27.6462C22.2426 27.6462 20.5464 27.0008 19.3195 25.7098C18.1088 24.4189 17.4062 22.693 17.4062 20.4805C17.4062 18.2507 18.1606 16.4213 19.5105 14.9992C20.8409 13.5978 22.6051 12.8971 24.8 12.8971C26.6807 12.8971 27.3605 13.1525 28.3641 13.5219L28.0339 15.2926Z" fill="#121212"/>
<path clip-rule="evenodd" d="M0 14.2133C0 14.9759 0.28334 15.7968 0.821835 16.5299C1.41743 17.3218 2.23963 17.9375 3.23168 18.4067C4.50744 18.9637 5.55624 19.1397 6.37844 19.1397C7.54073 19.1397 8.22128 18.7879 8.47643 18.6414C6.54866 13.7733 2.86305 11.5444 2.29637 11.2222C0.850383 11.8379 0.0281875 12.894 0 14.2133Z" fill="url(#paint0_linear_10362_3487)" fill-rule="evenodd"/>
<path clip-rule="evenodd" d="M13.4869 14.9743C12.9658 16.0827 12.061 17.7006 10.5532 19.0786C10.7179 19.1084 10.8821 19.1386 11.1016 19.1386C11.8967 19.1386 13.0479 18.7494 14.1173 16.9814C14.7478 15.9627 14.967 15.0041 14.8027 14.1653C14.6926 13.5661 14.3914 13.1765 14.1719 12.9668C14.0625 13.356 13.843 14.1054 13.4869 14.9743Z" fill="url(#paint1_linear_10362_3487)" fill-rule="evenodd"/>
<path clip-rule="evenodd" d="M4.05398 8.26375C3.33401 8.74432 2.95952 9.79543 2.84424 10.2159C5.32061 11.8077 6.90483 13.9107 7.76907 15.4125C8.34516 16.4036 8.71927 17.2448 8.89179 17.7552C9.06511 17.0043 9.03574 16.3135 9.03574 16.3135C8.97845 11.7778 7.56718 8.62408 5.34962 8.05353C5.27561 8.03762 5.20123 8.0225 5.12685 8.01086C5.06587 8.00349 5.00525 8 4.945 8C4.63374 8 4.33661 8.09503 4.05398 8.26375Z" fill="url(#paint2_linear_10362_3487)" fill-rule="evenodd"/>
<path clip-rule="evenodd" d="M6.92485 25.0106C6.49235 25.6374 6.06692 26.182 5.67942 26.645C5.55334 26.7975 5.42988 26.9415 5.31013 27.0768C4.24469 28.2411 3.3808 28.9397 3.06396 29.143C3.20788 29.638 3.84119 31.4717 5.2815 31.4717C6.95162 31.4717 7.95978 29.1141 7.95978 29.1141V29.0852C8.01223 28.9788 8.7352 27.3782 9.09327 25.3157C9.11005 25.2149 9.12565 25.1135 9.14052 25.0106C9.16132 24.882 9.1803 24.7516 9.19707 24.6201C9.26249 24.0917 9.29861 23.5422 9.29077 22.9875C9.28037 22.3666 9.21451 21.7363 9.07584 21.1181C9.0691 21.0862 9.06206 21.055 9.05386 21.0231C8.43616 22.6015 7.67086 23.9285 6.92485 25.0106Z" fill="url(#paint3_linear_10362_3487)" fill-rule="evenodd"/>
<path clip-rule="evenodd" d="M10.2549 21.901V22.2236C10.2549 22.8011 10.2482 23.861 10.3765 24.9216C10.5091 26.0163 10.7855 27.1122 11.3631 27.678C11.6545 27.9714 11.9754 28.1179 12.3541 28.1179H12.3835H12.3873H12.4712C12.6576 28.1179 13.1237 28.0585 13.4619 27.5295C13.597 27.314 13.7123 27.0213 13.7835 26.6226C13.7251 26.417 13.55 25.7426 13.2292 24.9216C13.1418 24.6725 13.0424 24.4082 12.931 24.1366C12.3635 22.7871 11.5148 21.2205 10.3716 20.2882C10.3133 20.6108 10.2549 21.1974 10.2549 21.901Z" fill="url(#paint4_linear_10362_3487)" fill-rule="evenodd"/>
<path clip-rule="evenodd" d="M12.496 10.4294C12.1423 10.4294 11.8479 10.5468 11.5828 10.7816C10.3163 11.8956 10.1692 15.0628 10.1102 16.2651L10.0805 16.4995C10.0512 17.233 10.1102 18.1126 10.1692 18.5523C12.9083 16.2943 13.8508 12.9514 13.9686 12.5114C13.8215 10.6055 12.6432 10.4294 12.6136 10.4294H12.496Z" fill="url(#paint5_linear_10362_3487)" fill-rule="evenodd"/>
<path clip-rule="evenodd" d="M10.9189 19.882C11.2975 20.2518 11.8721 20.904 12.4602 21.9138L12.4648 21.9216C12.926 22.7096 13.3981 23.7151 13.7942 24.9751C13.9043 25.3245 14.0082 25.6944 14.1048 26.0839C14.23 25.8854 14.4144 25.5953 14.5713 25.2394C14.6069 25.1551 14.641 25.0668 14.6717 24.9751C14.6943 24.8761 14.7351 24.7972 14.7637 24.7055L14.7797 24.6455C15.0768 23.4772 14.7797 22.4287 13.8887 21.4399C12.7008 20.1218 11.6475 19.882 10.9998 19.882H10.9189Z" fill="url(#paint6_linear_10362_3487)" fill-rule="evenodd"/>
<path clip-rule="evenodd" d="M0.197987 24.9218C0.169434 25.0683 0.169434 25.2444 0.169434 25.4204C0.254728 26.5637 1.07692 27.678 2.43761 28.382C2.76562 28.156 4.28884 27.093 5.92225 24.9218C6.35349 24.3488 6.79168 23.6994 7.21815 22.9675L7.31186 22.8042C7.72369 22.0791 8.12344 21.2759 8.4939 20.3917L8.56093 20.2301C8.34306 20.1668 7.951 20.0831 7.37045 20.0831C6.32128 20.0831 4.64906 20.4057 2.5511 21.8132C1.16186 22.7519 0.340024 23.8369 0.197987 24.9218Z" fill="url(#paint7_linear_10362_3487)" fill-rule="evenodd"/>
</g>
</g>
<defs>
<linearGradient gradientUnits="userSpaceOnUse" id="paint0_linear_10362_3487" x1="1.13611" x2="7.52837" y1="13.0282" y2="18.2354">
<stop stop-color="#002808"/>
<stop offset="0.665853" stop-color="#1D6C31"/>
<stop offset="0.88768" stop-color="#217536"/>
<stop offset="0.888741" stop-color="#217536"/>
<stop offset="0.889962" stop-color="#217536"/>
<stop offset="1" stop-color="#237939"/>
</linearGradient>
<linearGradient gradientUnits="userSpaceOnUse" id="paint1_linear_10362_3487" x1="13.8521" x2="10.5275" y1="13.976" y2="18.09">
<stop stop-color="#0A3D1D"/>
<stop offset="1" stop-color="#2A823B"/>
</linearGradient>
<linearGradient gradientUnits="userSpaceOnUse" id="paint2_linear_10362_3487" x1="5.26977" x2="9.5443" y1="8.56063" y2="15.738">
<stop stop-color="#001600"/>
<stop offset="0.451757" stop-color="#11461A"/>
<stop offset="0.452781" stop-color="#11461A"/>
<stop offset="1" stop-color="#26803A"/>
</linearGradient>
<linearGradient gradientUnits="userSpaceOnUse" id="paint3_linear_10362_3487" x1="7.393" x2="3.50307" y1="21.6632" y2="30.4318">
<stop stop-color="#48B652"/>
<stop offset="0.619602" stop-color="#1E642A"/>
<stop offset="1" stop-color="#043212"/>
</linearGradient>
<linearGradient gradientUnits="userSpaceOnUse" id="paint4_linear_10362_3487" x1="11.6256" x2="14.7635" y1="20.2882" y2="25.89">
<stop stop-color="#48B652"/>
<stop offset="1" stop-color="#1E6D33"/>
</linearGradient>
<linearGradient gradientUnits="userSpaceOnUse" id="paint5_linear_10362_3487" x1="12.0207" x2="9.98804" y1="10.4294" y2="18.1465">
<stop stop-color="#063B1A"/>
<stop offset="0.624996" stop-color="#1D692F"/>
<stop offset="0.635422" stop-color="#1E6930"/>
<stop offset="1" stop-color="#2B843C"/>
</linearGradient>
<linearGradient gradientUnits="userSpaceOnUse" id="paint6_linear_10362_3487" x1="12.0102" x2="15.3749" y1="19.882" y2="24.1083">
<stop stop-color="#48B652"/>
<stop offset="1" stop-color="#1E6D33"/>
</linearGradient>
<linearGradient gradientUnits="userSpaceOnUse" id="paint7_linear_10362_3487" x1="7.73819" x2="1.30153" y1="21.0938" y2="25.754">
<stop stop-color="#359943"/>
<stop offset="1" stop-color="#023110"/>
</linearGradient>
<clipPath id="clip0_10362_3487">
<rect fill="white" height="24" transform="translate(0 8)" width="126"/>
</clipPath>
</defs>
</svg>