<?xml version="1.0" encoding="utf-8"?>
<svg xmlns="http://www.w3.org/2000/svg" fill="none" height="40" viewBox="0 0 83 40" width="83">
<g clip-path="url(#clip0_10362_3255)">
<path clip-rule="evenodd" d="M10.4812 27.2827L6.78591 31.0761L6.48704 30.9297C5.69229 30.5322 4.95188 29.9952 4.27262 29.4235L3.87864 29.0887L10.6986 22.0877C11.0789 21.6973 11.5884 21.4881 12.1182 21.4881C12.6549 21.4881 13.1643 21.7042 13.5379 22.0877L20.3578 29.0887L19.9638 29.4235C19.2845 29.9952 18.5441 30.5392 17.7494 30.9297L17.4505 31.0761L13.7552 27.2827V32.2197L13.3681 32.2894C12.9537 32.3591 12.5326 32.401 12.1114 32.401C11.6903 32.401 11.2691 32.3661 10.8548 32.2894L10.4676 32.2197V27.2827H10.4812ZM19.2709 21.6415L22.9662 25.4349L22.8236 25.7417C22.4363 26.5575 21.9133 27.3176 21.3563 28.0149L21.0303 28.4193L14.2104 21.4113C13.83 21.0209 13.6262 20.4979 13.6262 19.954C13.6262 19.4031 13.8368 18.8801 14.2104 18.4966L21.0303 11.4886L21.3563 11.8931C21.9133 12.5904 22.4432 13.3504 22.8236 14.1663L22.9662 14.4731L19.2709 18.2665H24.0802L24.1481 18.6639C24.216 19.0893 24.2568 19.5216 24.2568 19.954C24.2568 20.3863 24.2228 20.8187 24.1481 21.244L24.0802 21.6415H19.2709ZM13.7756 12.6183L17.4709 8.82489L17.7697 8.97133C18.5645 9.36879 19.3049 9.90572 19.9842 10.4775L20.3781 10.8122L13.5514 17.8132C13.1711 18.2037 12.6616 18.4129 12.1318 18.4129C11.5952 18.4129 11.0857 18.1968 10.7121 17.8132L3.88543 10.8122L4.27941 10.4775C4.9587 9.90572 5.69907 9.36182 6.49382 8.97133L6.79273 8.82489L10.4879 12.6183V7.6813L10.8752 7.61157C11.2895 7.54184 11.7106 7.5 12.1318 7.5C12.553 7.5 12.9741 7.53487 13.3884 7.61157L13.7756 7.6813V12.6183ZM4.98584 18.2595L1.29062 14.4662L1.43327 14.1593C1.82045 13.3435 2.34349 12.5834 2.90049 11.8861L3.22654 11.4816L10.0464 18.4826C10.4268 18.8731 10.6306 19.3961 10.6306 19.94C10.6306 20.4909 10.42 21.0139 10.0464 21.3974L3.22654 28.4124L2.90049 28.0079C2.34349 27.3106 1.81366 26.5505 1.43327 25.7347L1.29062 25.4279L4.98584 21.6345H0.176611L0.108683 21.237C0.0407563 20.8117 0 20.3793 0 19.947C0 19.5147 0.0339636 19.0824 0.108683 18.657L0.176611 18.2595H4.98584Z" fill="#878786" fill-rule="evenodd"/>
<mask height="16" id="mask0_10362_3255" maskUnits="userSpaceOnUse" style="mask-type:luminance" width="11" x="0" y="12">
<path d="M0.469238 19.9539C0.469238 19.5565 0.496411 19.159 0.571129 18.7406H6.10721L1.85495 14.3755C2.19459 13.6433 2.67687 12.9181 3.26105 12.1929L9.72094 18.8243C10.0198 19.1311 10.176 19.5425 10.176 19.947C10.176 20.3514 10.0266 20.7628 9.72094 21.0696L3.26105 27.7011C2.67687 26.9759 2.19459 26.2507 1.84816 25.5255L6.10039 21.1603H0.571129C0.503204 20.7489 0.469238 20.3445 0.469238 19.9539Z" fill="white"/>
</mask>
<g mask="url(#mask0_10362_3255)">
<path d="M10.176 12.1929H0.469238V27.7081H10.176V12.1929Z" fill="url(#paint0_linear_10362_3255)"/>
</g>
<mask height="11" id="mask1_10362_3255" maskUnits="userSpaceOnUse" style="mask-type:luminance" width="16" x="4" y="7">
<path d="M12.1321 7.98108C12.5192 7.98108 12.9065 8.00897 13.314 8.08568V13.7688L17.5662 9.40359C18.2727 9.75922 18.9791 10.2543 19.6856 10.854L13.2257 17.4785C12.9268 17.7853 12.5261 17.9457 12.1321 17.9457C11.7381 17.9457 11.3373 17.7923 11.0385 17.4785L4.57178 10.847C5.27824 10.2473 5.98464 9.75225 6.69109 9.39662L10.9433 13.7618V8.08568C11.3509 8.01594 11.7449 7.98108 12.1321 7.98108Z" fill="white"/>
</mask>
<g mask="url(#mask1_10362_3255)">
<path d="M19.6856 7.98108H4.57178V17.9457H19.6856V7.98108Z" fill="url(#paint1_linear_10362_3255)"/>
</g>
<mask height="16" id="mask2_10362_3255" maskUnits="userSpaceOnUse" style="mask-type:luminance" width="10" x="14" y="12">
<path d="M23.7873 19.9539C23.7873 20.3514 23.7601 20.7489 23.6854 21.1672H18.1494L22.4016 25.5324C22.0552 26.2576 21.5729 26.9828 20.9887 27.7081L14.5288 21.0766C14.23 20.7698 14.0737 20.3584 14.0737 19.9539C14.0737 19.5495 14.2232 19.1381 14.5288 18.8313L20.9955 12.1929C21.5797 12.9181 22.062 13.6433 22.4084 14.3685L18.1562 18.7336H23.6922C23.7534 19.1521 23.7873 19.5565 23.7873 19.9539Z" fill="white"/>
</mask>
<g mask="url(#mask2_10362_3255)">
<path d="M23.7874 12.1929H14.0806V27.708H23.7874V12.1929Z" fill="url(#paint2_linear_10362_3255)"/>
</g>
<mask height="11" id="mask3_10362_3255" maskUnits="userSpaceOnUse" style="mask-type:luminance" width="16" x="4" y="21">
<path d="M12.1321 31.9198C11.7449 31.9198 11.3577 31.8919 10.9502 31.8152V26.1321L6.69792 30.4973C5.98464 30.1486 5.27824 29.6535 4.57178 29.0539L11.0316 22.4224C11.3305 22.1156 11.7313 21.9552 12.1253 21.9552C12.5192 21.9552 12.92 22.1086 13.2189 22.4224L19.6788 29.0539C18.9723 29.6535 18.2659 30.1486 17.5595 30.5042L13.3072 26.1391V31.8222C12.9065 31.8849 12.5125 31.9198 12.1321 31.9198Z" fill="white"/>
</mask>
<g mask="url(#mask3_10362_3255)">
<path d="M19.6856 21.9552H4.57178V31.9198H19.6856V21.9552Z" fill="url(#paint3_linear_10362_3255)"/>
</g>
<path clip-rule="evenodd" d="M70.6722 13.3774H77.0479C78.2325 13.3774 79.2066 14.3826 79.2066 15.606V15.8146C79.2066 17.1518 78.1409 18.2518 76.8455 18.2518H71.6641C71.6641 19.8165 72.399 20.8502 73.5658 20.8502H77.0841C78.3521 20.8502 80.0241 21.7891 80.0241 23.0788V23.2874C80.0241 24.6246 78.9585 25.7246 77.6631 25.7246H70.6722V21.846V20.8502V18.2613V13.3774ZM49.8551 10.8928H51.6006C52.4641 10.8928 53.2266 11.4334 53.6033 11.8222L62.239 23.4392V10.8928H64.9487V28.323H63.2398C62.3765 28.323 62.1099 27.8678 61.7428 27.479L52.6111 15.3594V28.323H49.8551V10.8928ZM38.1421 22.434L41.2932 25.7531C40.549 26.1514 39.6947 26.36 38.7576 26.36C35.3586 26.36 33.0435 23.4961 33.0435 19.6459C33.0435 15.7672 35.331 12.9317 38.7576 12.9317C42.1843 12.9317 44.4718 15.7672 44.4718 19.6459C44.4718 21.3339 44.0216 22.8322 43.2407 23.9797L41.8719 22.5477C41.8719 22.5477 40.2826 20.7554 38.1421 22.434ZM38.7576 10.4661C44.0492 10.4661 47.5033 14.5723 47.5033 19.6364C47.5033 22.1115 46.6674 24.359 45.1975 26.0091L47.4207 28.3325C47.4207 28.3325 46.6031 29.1101 45.5466 29.1101C44.4901 29.1101 43.792 28.3705 43.792 28.3705L43.1489 27.6877C41.8995 28.4084 40.4205 28.8162 38.776 28.8162C33.5488 28.8162 30.0303 24.7099 30.0303 19.6459C30.0211 14.5723 33.4661 10.4661 38.7576 10.4661ZM77.1026 10.8928H67.806V19.3993V28.323H77.6357C83.3223 28.323 84.9116 21.1347 80.3365 19.5889C79.9688 19.4657 79.519 19.4562 80.0973 19.2096C80.5477 19.02 80.8786 18.688 81.2368 18.2518C83.699 15.2361 81.163 10.8928 77.1026 10.8928Z" fill="#00193E" fill-rule="evenodd"/>
</g>
<defs>
<linearGradient gradientUnits="userSpaceOnUse" id="paint0_linear_10362_3255" x1="0.469333" x2="10.1746" y1="19.9506" y2="19.9506">
<stop stop-color="#003A73"/>
<stop offset="0.35" stop-color="#003A73"/>
<stop offset="0.73" stop-color="#0062AF"/>
<stop offset="1" stop-color="#0062AF"/>
</linearGradient>
<linearGradient gradientUnits="userSpaceOnUse" id="paint1_linear_10362_3255" x1="4.5723" x2="19.6852" y1="12.9627" y2="12.9627">
<stop stop-color="#AB004C"/>
<stop offset="0.35" stop-color="#AB004C"/>
<stop offset="0.61" stop-color="#760030"/>
<stop offset="1"/>
</linearGradient>
<linearGradient gradientUnits="userSpaceOnUse" id="paint2_linear_10362_3255" x1="14.0822" x2="23.7874" y1="19.9506" y2="19.9506">
<stop stop-color="#0062AF"/>
<stop offset="0.27" stop-color="#0062AF"/>
<stop offset="0.65" stop-color="#003A73"/>
<stop offset="1" stop-color="#003A73"/>
</linearGradient>
<linearGradient gradientUnits="userSpaceOnUse" id="paint3_linear_10362_3255" x1="12.1287" x2="12.1287" y1="31.9199" y2="21.9568">
<stop stop-color="#003A73"/>
<stop offset="0.35" stop-color="#003A73"/>
<stop offset="0.73" stop-color="#0062AF"/>
<stop offset="1" stop-color="#0062AF"/>
</linearGradient>
<clipPath id="clip0_10362_3255">
<rect fill="white" height="25" transform="translate(0 7.5)" width="83"/>
</clipPath>
</defs>
</svg>