<svg width="150" height="40" viewBox="0 0 150 40" fill="none" xmlns="http://www.w3.org/2000/svg">
<g clip-path="url(#clip0_10362_3233)">
<path fill-rule="evenodd" clip-rule="evenodd" d="M97.1453 25.885H92.872V14.0008H96.9938V18.1794H98.6188L103.44 14H109.483L102.627 20.0072L110 25.8842H103.846L98.5766 21.6151H97.1453V25.885ZM19.0949 25.884L12.5669 14.0007H6.70917L0 25.884H4.73798L5.89327 23.8686H13.4209L14.5533 25.884H19.0949ZM11.6402 20.8604L9.62167 17.3957L9.60728 17.3675L7.60311 20.8605L11.6402 20.8604ZM24.0034 25.8823H19.7149H19.714V14.0006H23.835V18.1792H25.4744L30.2962 14.0006H36.3375L29.4684 20.0071L36.8581 25.884H30.7041L25.4329 21.6149H24.0034V25.8823ZM45.0575 14.0008H49.935C50.6645 14.0008 52.0374 14.6499 52.5003 16.0461C52.8787 17.2207 52.612 19.1539 51.5888 19.8603C52.3319 20.164 52.8364 21.3113 52.9066 22.4991V22.969C52.8918 23.1763 52.8652 23.3823 52.8221 23.5757C52.5545 24.8889 51.5042 25.8833 50.6638 25.8833H45.0566H37.6687C37.6634 24.1051 37.6604 22.3248 37.6575 20.5434V20.542V20.5412V20.5404C37.654 18.3615 37.6504 16.1805 37.6424 14C40.1104 14.0008 42.5912 14.0008 45.0575 14.0008ZM48.0983 22.5805H45.0573H41.5254V21.3229H48.0983C48.4622 21.3229 48.7704 21.6018 48.7704 21.9455C48.7704 22.29 48.4631 22.5805 48.0983 22.5805ZM45.0573 18.3112H47.9308C48.2973 18.3112 48.591 18.0197 48.591 17.6745C48.591 17.3292 48.2973 17.0395 47.9308 17.0395H41.5263V18.3104H45.0573V18.3112ZM73.2044 25.884V14.0006H79.821L86.1006 22.3031V14.0006H90.3752V25.8823H83.6985L77.534 17.9028V25.884H73.2044ZM65.9271 14.0006L72.4548 25.884H67.9276L66.802 23.9092H59.2732L58.1357 25.884H53.3994L60.1077 14.0006H65.9271ZM63.0274 17.3957L65.0605 20.8604H61.0085L63.0127 17.3675L63.0274 17.3957Z" fill="#DF392E"/>
</g>
<defs>
<clipPath id="clip0_10362_3233">
<rect width="110" height="12" fill="white" transform="translate(0 14)"/>
</clipPath>
</defs>
</svg>
