<?xml version="1.0" encoding="utf-8"?>
<svg xmlns="http://www.w3.org/2000/svg" fill="none" height="40" viewBox="0 0 64 40" width="64">
<g clip-path="url(#clip0_10362_3392)">
<path d="M51.6716 29.3515H12.3172C5.54667 29.3515 0 23.9254 0 17.302V17.0494C0 10.4261 5.54667 5 12.3172 5H51.6827C58.4533 5 64 10.4261 64 17.0494V17.302C64 23.9254 58.4533 29.3515 51.6827 29.3515" fill="#00FF00"/>
<path d="M28.2606 7.50427H12.4403C6.98341 7.50427 2.54834 11.843 2.54834 17.1812C2.54834 22.5194 6.98341 26.858 12.4403 26.858C12.6648 26.858 18.0431 26.858 18.2676 26.8361H27.5982C27.8227 26.847 28.0361 26.858 28.2606 26.858C33.7175 26.858 38.1526 22.5194 38.1526 17.1812C38.1526 11.843 33.7175 7.50427 28.2606 7.50427Z" fill="white"/>
<path d="M45.3495 10.2284L49.6837 16.5881C49.8068 16.7639 50.0877 16.676 50.0877 16.4673V10.6568C50.0877 10.2174 50.4468 9.86597 50.8962 9.86597H54.2646C54.7135 9.86597 55.073 10.2174 55.073 10.6568V23.6838C55.073 24.1231 54.7135 24.4747 54.2646 24.4747H50.5255C50.2562 24.4747 50.009 24.3428 49.8517 24.1231L45.5179 17.7634C45.3944 17.5877 45.1135 17.6756 45.1135 17.8843V23.6838C45.1135 24.1231 44.7544 24.4747 44.3053 24.4747H40.9368C40.4877 24.4747 40.1284 24.1231 40.1284 23.6838V10.6568C40.1284 10.2174 40.4877 9.86597 40.9368 9.86597H44.6757C44.945 9.86597 45.1922 9.99775 45.3495 10.2174" fill="#2C2927"/>
<path d="M28.261 9.44849C23.8933 9.44849 20.3564 12.9084 20.3564 17.1812C20.3564 21.454 23.8933 24.9139 28.261 24.9139C32.6287 24.9139 36.1656 21.454 36.1656 17.1812C36.1656 12.9084 32.6287 9.44849 28.261 9.44849Z" fill="#2C2927"/>
<path d="M10.9355 31.6801H12.4401C12.7994 31.6801 13.1138 31.7459 13.3945 31.8777C13.6752 32.0095 13.8885 32.1963 14.0345 32.4489C14.1917 32.6906 14.2591 32.9761 14.2591 33.3057C14.2591 33.6352 14.1804 33.9098 14.0345 34.1624C13.8773 34.4041 13.6639 34.5908 13.3945 34.7336C13.1138 34.8654 12.7994 34.9313 12.4401 34.9313H10.9355V31.691V31.6801ZM12.4064 34.3052C12.732 34.3052 13.0015 34.2173 13.2036 34.0306C13.4057 33.8549 13.4955 33.6022 13.4955 33.2947C13.4955 32.9871 13.3945 32.7455 13.2036 32.5587C13.0015 32.383 12.7433 32.2841 12.4064 32.2841H11.7103V34.2942H12.4064V34.3052Z" fill="#2C2927"/>
<path d="M14.4732 31.2737C14.3945 31.1968 14.3608 31.1089 14.3608 30.9881C14.3608 30.8672 14.3945 30.7794 14.4732 30.7135C14.5517 30.6366 14.6416 30.6036 14.7538 30.6036C14.8661 30.6036 14.9672 30.6366 15.0345 30.7135C15.1132 30.7904 15.1468 30.8782 15.1468 30.9881C15.1468 31.0979 15.1132 31.1968 15.0345 31.2737C14.956 31.3506 14.8661 31.3835 14.7538 31.3835C14.6416 31.3835 14.5405 31.3506 14.4732 31.2737ZM14.3721 31.6691H15.1356V34.9094H14.3721V31.6691Z" fill="#2C2927"/>
<path d="M15.8758 34.8544C15.685 34.7775 15.539 34.6567 15.4155 34.5029L15.8422 33.9977C16.0218 34.2393 16.2239 34.3492 16.4597 34.3492C16.7741 34.3492 16.9313 34.1734 16.9313 33.8109V32.2732H15.7636V31.6691H17.6948V33.767C17.6948 34.1624 17.5937 34.459 17.3917 34.6677C17.1895 34.8654 16.8976 34.9642 16.5046 34.9642C16.2801 34.9642 16.078 34.9203 15.8871 34.8434L15.8758 34.8544Z" fill="#2C2927"/>
<path d="M18.144 31.2737C18.0654 31.1968 18.0317 31.1089 18.0317 30.9881C18.0317 30.8672 18.0654 30.7794 18.144 30.7135C18.2226 30.6366 18.3124 30.6036 18.4247 30.6036C18.537 30.6036 18.638 30.6366 18.7054 30.7135C18.784 30.7904 18.8177 30.8782 18.8177 30.9881C18.8177 31.0979 18.784 31.1968 18.7054 31.2737C18.6268 31.3506 18.537 31.3835 18.4247 31.3835C18.3124 31.3835 18.2114 31.3506 18.144 31.2737ZM18.0429 31.6691H18.8064V34.9094H18.0429V31.6691Z" fill="#2C2927"/>
<path d="M20.2332 32.2842H19.1777V31.6691H22.0633V32.2842H21.0079V34.9093H20.2444V32.2842H20.2332Z" fill="#2C2927"/>
<path d="M23.9823 34.2173H22.4441L22.1522 34.9093H21.3662L22.8371 31.6691H23.5894L25.0715 34.9093H24.2631L23.9711 34.2173H23.9823ZM23.7466 33.6462L23.2188 32.405L22.6911 33.6462H23.7466Z" fill="#2C2927"/>
<path d="M25.353 31.6801H26.1165V34.3052H27.7783V34.9203H25.353V31.6801Z" fill="#2C2927"/>
<path d="M30.1026 31.8887C30.2935 32.0315 30.3833 32.2292 30.3833 32.4819C30.3833 32.6686 30.3271 32.8334 30.2261 32.9652C30.1138 33.097 29.9678 33.1738 29.7769 33.2178C30.0127 33.2508 30.2036 33.3386 30.3383 33.4814C30.4731 33.6242 30.5404 33.8109 30.5404 34.0306C30.5404 34.3052 30.4394 34.5249 30.2261 34.6787C30.0127 34.8325 29.7208 34.9093 29.3503 34.9093H27.9355V31.6691H29.3278C29.6647 31.6691 29.9229 31.7459 30.1138 31.8887H30.1026ZM28.3061 33.075H29.3054C29.5299 33.075 29.6983 33.0311 29.8219 32.9432C29.9454 32.8553 30.0015 32.7235 30.0015 32.5478C30.0015 32.372 29.9454 32.2622 29.8219 32.1633C29.6983 32.0755 29.5299 32.0315 29.3054 32.0315H28.3061V33.075ZM28.3061 34.5688H29.3054C29.5748 34.5688 29.7882 34.5139 29.9341 34.4151C30.0801 34.3162 30.1587 34.1734 30.1587 33.9867C30.1587 33.7999 30.0801 33.6682 29.9341 33.5803C29.7882 33.4814 29.5748 33.4375 29.3054 33.4375H28.3061V34.5688Z" fill="#2C2927"/>
<path d="M31.4042 34.0965L31.0336 34.9093H30.6294L32.1115 31.6691H32.5045L33.9866 34.9093H33.5712L33.2006 34.0965H31.3929H31.4042ZM32.3024 32.0974L31.5614 33.745H33.0434L32.2912 32.0974H32.3024Z" fill="#2C2927"/>
<path d="M36.6929 34.9203L34.7055 32.3171V34.9203H34.3237V31.6801H34.7167L36.7041 34.2832V31.6801H37.0746V34.9203H36.6816H36.6929Z" fill="#2C2927"/>
<path d="M38.4451 33.3825L37.8051 34.0745V34.9203H37.4233V31.6801H37.8051V33.5473L39.5792 31.6801H40.0283L38.7146 33.086L40.1293 34.9203H39.669L38.4451 33.3825Z" fill="#2C2927"/>
<path d="M41.1839 34.0965L40.8134 34.9093H40.4092L41.8913 31.6691H42.2843L43.7664 34.9093H43.351L42.9804 34.0965H41.1727H41.1839ZM42.0822 32.0974L41.3411 33.745H42.8232L42.071 32.0974H42.0822Z" fill="#2C2927"/>
<path d="M45.9336 31.7899C46.1469 31.8777 46.3265 31.9876 46.4949 32.1414L46.2705 32.4269C46.1358 32.2951 45.9896 32.1963 45.8211 32.1304C45.6527 32.0645 45.4731 32.0205 45.2936 32.0205C45.0465 32.0205 44.822 32.0754 44.6198 32.1963C44.4178 32.3061 44.2494 32.4599 44.1259 32.6576C44.0024 32.8553 43.9462 33.064 43.9462 33.3057C43.9462 33.5473 44.0024 33.756 44.1259 33.9427C44.2494 34.1404 44.4066 34.2942 44.6198 34.4041C44.822 34.5139 45.058 34.5798 45.2936 34.5798C45.4731 34.5798 45.6527 34.5468 45.8211 34.481C45.9896 34.4151 46.1469 34.3162 46.2705 34.1954L46.506 34.448C46.338 34.6018 46.1469 34.7226 45.9336 34.8104C45.7202 34.8984 45.4958 34.9423 45.2713 34.9423C44.9567 34.9423 44.6762 34.8654 44.4065 34.7226C44.1483 34.5798 43.935 34.3821 43.789 34.1294C43.6431 33.8768 43.5645 33.6022 43.5645 33.3057C43.5645 33.0091 43.6431 32.7345 43.8002 32.4928C43.9574 32.2402 44.1596 32.0535 44.429 31.8997C44.6873 31.7569 44.9793 31.6801 45.2936 31.6801C45.518 31.6801 45.7313 31.724 45.9447 31.8008L45.9336 31.7899Z" fill="#2C2927"/>
<path d="M46.7983 34.9203V31.6801H47.1801V34.9203H46.7983Z" fill="#2C2927"/>
<path d="M49.3468 34.5688V34.9203H47.5166V31.6801H47.8984V34.5688H49.3468Z" fill="#2C2927"/>
<path d="M49.7744 34.9203V31.6801H50.1562V34.9203H49.7744Z" fill="#2C2927"/>
<path d="M51.514 33.3825L50.874 34.0745V34.9203H50.4922V31.6801H50.874V33.5473L52.6482 31.6801H53.0971L51.7837 33.086L53.1984 34.9203H52.738L51.514 33.3825Z" fill="#2C2927"/>
</g>
<defs>
<clipPath id="clip0_10362_3392">
<rect fill="white" height="30" transform="translate(0 5)" width="64"/>
</clipPath>
</defs>
</svg>