<?xml version="1.0" encoding="utf-8"?>
<svg xmlns="http://www.w3.org/2000/svg" fill="none" height="40" viewBox="0 0 108 40" width="108">
<g clip-path="url(#clip0_10362_3526)">
<path d="M36.3381 16.2336C34.2973 10.3623 28.6413 10.0028 28.0582 10.0028C25.4926 9.94289 22.6938 10.8416 20.5364 13.0583C19.6618 13.8371 19.0786 14.7957 18.379 15.8142C17.7376 14.7957 17.0961 13.897 16.2215 13.0583C14.1224 10.8416 11.2653 9.94289 8.75798 10.0028C8.17491 10.0028 2.40233 10.3623 0.419824 16.2336C-0.279883 18.3305 -0.104956 21.0864 0.944604 23.1234C1.99416 25.4599 4.50145 27.3171 7.12536 27.1374C9.04952 27.0775 11.1487 25.8194 11.9067 23.7824C12.5481 21.985 12.3732 20.0079 10.8571 18.4503C10.9154 18.8697 10.9154 19.4088 10.5655 19.8881C9.98246 20.7269 8.99125 20.9665 7.99997 20.6071C7.12536 20.1877 6.77549 19.5286 6.8921 18.6899C6.95043 17.971 7.5335 17.3719 8.11658 17.1322C9.28279 16.593 10.3323 16.8926 11.3819 17.9111C13.0728 19.8881 13.3061 22.8837 14.1224 25.1004C14.7055 26.9577 15.5801 28.5752 17.621 29.0545C17.8542 29.1744 18.0874 29.1744 18.379 29.1744C18.6122 29.1744 18.9037 29.1744 19.137 29.1145C21.1195 28.6352 22.0524 27.0175 22.6355 25.1603C23.4518 22.8837 23.6268 19.8881 25.376 17.971C26.4256 16.9525 27.4751 16.6529 28.6413 17.1921C29.2244 17.4917 29.8075 18.0309 29.8658 18.7498C29.9241 19.5886 29.6326 20.2476 28.758 20.667C27.7667 21.0265 26.8337 20.8467 26.1923 19.9481C25.7842 19.4088 25.8425 18.8697 25.9008 18.5102C24.3848 20.0679 24.2098 22.045 24.8512 23.8423C25.6092 25.8792 27.7083 27.1374 29.6326 27.1973C32.3148 27.377 34.822 25.5198 35.8133 23.1832C36.8628 21.0864 37.0378 18.3305 36.3381 16.2336ZM32.3148 23.3031C31.0903 24.3815 29.516 24.741 28.1748 24.0819C27.4168 23.6625 26.7755 23.0035 26.6588 22.2846C27.7667 23.4229 29.7492 24.022 31.5568 21.985C31.5568 21.985 33.2477 20.3674 32.3148 17.2521C31.8483 15.7543 30.0407 14.4961 28.5247 14.3164C26.309 13.9569 24.1516 14.7358 22.6938 16.8326C21.0029 19.5886 20.7696 22.6441 19.5451 25.6995C19.3119 26.1788 18.9037 26.4185 18.4372 26.4185C17.9708 26.4185 17.5626 26.2387 17.3294 25.6995C16.1049 22.6441 15.8717 19.5886 14.1224 16.8326C12.6647 14.7957 10.5073 14.0168 8.29151 14.3763C6.77549 14.556 4.96791 15.8142 4.50145 17.3119C3.51019 20.3674 5.20115 21.985 5.20115 21.985C7.0087 23.9621 8.99125 23.4229 10.0991 22.2846C9.9242 23.0035 9.34106 23.7225 8.58305 24.0819C7.3003 24.681 5.66762 24.3815 4.44313 23.3031C2.63556 21.5057 2.40233 19.1093 3.10203 16.9525C3.97667 14.3164 6.54223 12.9984 8.58305 12.8785C11.032 12.6389 14.3556 14.1966 15.6967 16.7728C15.9883 17.3719 16.688 18.9295 16.688 18.9295H18.379H20.0699C20.0699 18.9295 20.7113 17.3719 21.0612 16.7728C22.4023 14.1367 25.7259 12.6389 28.1748 12.8785C30.2156 13.0583 32.7813 14.3763 33.6559 16.9525C34.3556 19.1093 34.1223 21.4458 32.3148 23.3031Z" fill="#A6A8AB"/>
<path d="M104.91 12.9984V10.4222H108V12.9984H104.91Z" fill="#044A78"/>
<path d="M44.035 19.5886V26.5382H40.5364V19.5886L37.5044 10.4821H41.1778L42.2857 14.9754L43.4519 10.4821H47.1254L44.035 19.5886Z" fill="#044A74"/>
<path d="M50.8566 26.5383L50.7399 25.9392C50.2152 26.5383 49.6321 26.8378 48.4076 26.8378C47.1248 26.8378 46.1919 25.6396 46.2501 24.2017V22.1048C46.3085 18.7498 50.7399 19.7683 50.7399 17.2521C50.7399 16.7128 50.7399 16.2935 50.1569 16.2935C49.5738 16.2935 49.4572 16.7128 49.4572 17.2521V18.2705H46.3085V17.2521C46.3085 15.0353 48.116 14.0168 50.2152 14.0168C52.8391 14.0168 54.0636 15.5146 54.0636 17.1921V26.4784L50.8566 26.5383ZM50.7399 20.3674C49.9819 20.8467 49.4572 21.0864 49.4572 22.1048V23.6027C49.4572 24.3216 49.6321 24.6211 50.0986 24.6211C50.5651 24.6211 50.7399 24.3815 50.7399 23.6625V20.3674Z" fill="#044A74"/>
<path d="M63.2766 23.2432C63.2766 25.1604 62.9852 26.7779 60.8859 26.7779C59.7197 26.7779 59.0783 26.3586 58.6119 25.6995V29.4739H55.5215V14.3164H58.6119V15.5746C59.195 14.4362 59.8947 14.0768 61.0609 14.0768C62.7518 14.0768 63.335 15.6944 63.335 17.312L63.2766 23.2432ZM59.953 17.5517C59.953 17.0124 59.6615 16.7129 59.2533 16.7129C58.8451 16.7129 58.5536 17.0124 58.5536 17.6115V23.363C58.5536 23.9022 58.8451 24.2018 59.2533 24.2018C59.6615 24.2018 59.953 23.9022 59.953 23.3031V17.5517Z" fill="#044A74"/>
<path d="M64.7339 26.5383V14.3164H67.8238V26.4784L64.7339 26.5383Z" fill="#044A74"/>
<path d="M75.4046 26.4784L73.4223 20.8468L72.9557 21.7455V26.4784H69.457V10.4222H72.9557V15.3949L75.1716 10.4222H78.6119L75.4046 17.1922L78.8449 26.4784H75.4046Z" fill="#044A74"/>
<path d="M85.6082 17.6714C84.8503 17.3719 82.7512 17.3719 82.7512 19.289V26.5383H79.6606V14.3164H82.5176V15.6345C83.5675 14.0768 84.7335 14.0168 85.5498 14.0168L85.6082 17.6714Z" fill="#044A74"/>
<path d="M94.2384 23.4229C94.2384 25.8793 92.6058 26.7779 90.3899 26.7779C88.3492 26.7779 86.5415 25.7595 86.5415 23.363V17.6715C86.5415 15.3349 87.9411 14.0768 90.3899 14.0768C92.4306 14.0768 94.2384 14.9155 94.2384 17.7313V20.9666H89.6905V23.9022C89.6905 24.3815 89.9234 24.6811 90.3899 24.6811C90.8565 24.6811 91.0894 24.3815 91.0894 23.9022V22.1049H94.2968L94.2384 23.4229ZM91.0317 17.0724C91.0317 16.5931 90.7981 16.2935 90.3899 16.2935C89.9234 16.2935 89.6905 16.5931 89.6905 17.0724V18.6899H91.0317V17.0724Z" fill="#044A74"/>
<path d="M100.302 26.5382V25.2801C100.011 26.3585 99.0202 26.7779 97.912 26.7779C95.9881 26.7779 95.6377 25.1603 95.6377 23.5427V17.6115C95.6377 15.6943 96.1042 14.0168 98.0288 14.0168C99.1364 14.0168 100.011 14.4961 100.361 15.0952V10.4821H103.451V26.5382H100.302ZM100.302 17.4317C100.302 16.8926 100.011 16.593 99.6029 16.593C99.1948 16.593 98.9034 16.8926 98.9034 17.4317V23.2431C98.9034 23.7823 99.1948 24.0819 99.6029 24.0819C100.011 24.0819 100.302 23.7823 100.302 23.1832V17.4317Z" fill="#044A74"/>
<path d="M104.91 26.5383V14.3763H108V26.5383H104.91Z" fill="#044A74"/>
</g>
<defs>
<clipPath id="clip0_10362_3526">
<rect fill="white" height="20" transform="translate(0 10)" width="108"/>
</clipPath>
</defs>
</svg>