<?xml version="1.0" encoding="utf-8"?>
<svg xmlns="http://www.w3.org/2000/svg" fill="none" height="40" viewBox="0 0 122 40" width="122">
<path d="M25.3971 17.3509C25.3971 14.7156 23.2046 12.9817 20.0114 12.9817C16.8181 12.9817 13.8018 15.1341 13.8018 19.9356C13.8018 24.7371 16.0408 26.3146 19.9276 26.3146C23.8144 26.3146 24.508 25.0866 25.1178 24.245C25.1178 24.245 24.7035 22.6675 23.5724 22.6675C22.4412 22.6675 22.539 22.8974 22.0502 23.0998C21.5382 23.3022 20.9424 23.4861 20.1603 23.4861C19.3783 23.4861 17.2138 23.0538 17.2138 20.7542C17.2138 20.7542 18.0889 21.0072 20.0905 21.0072C24.3637 20.9934 25.4017 19.2135 25.4017 17.3509H25.3971ZM20.1464 15.847C21.622 15.847 22.3249 16.6426 22.3249 17.3647C22.3249 18.0867 21.5475 18.772 20.1324 18.772C18.0843 18.772 17.3069 18.4823 17.3069 18.4823C17.3069 17.2543 18.2798 15.847 20.1464 15.847Z" fill="#6439BE"/>
<path d="M33.3709 23.5C31.8953 23.5 31.1319 22.272 30.9969 21.7431C30.8526 21.2142 30.7549 20.4691 30.7549 19.6965L30.7781 15.7504H31.8488C32.7146 15.7504 33.3849 15.4975 33.8457 15.0054C34.3205 14.4995 34.5533 13.8372 34.5533 12.9955H30.7781L30.7549 11.2387C30.7549 10.6868 30.7549 10.2269 30.7688 9.89113C30.7828 9.54159 30.7921 9.27944 30.8061 9.07248C30.82 8.85632 30.8433 8.67695 30.8666 8.54358C29.7215 8.54358 28.8464 8.78273 28.2505 9.26564C27.6547 9.74855 27.3475 10.5396 27.3475 11.6618L27.3242 20.4232C27.3242 24.0105 29.0512 26.356 32.3562 26.356C35.6611 26.356 35.1817 25.4914 35.1817 24.176C35.1817 22.8607 35.1212 23.4678 35.07 23.3206C34.7907 23.3804 34.2554 23.5 33.3756 23.5H33.3709Z" fill="#6439BE"/>
<path d="M41.6564 23.6701C40.9256 23.6701 40.4508 23.1412 40.4508 22.2858V15.9666C40.4508 15.4147 40.4508 14.9548 40.4647 14.619C40.4787 14.2695 40.488 14.0073 40.502 13.8004C40.5253 13.5842 40.5392 13.4049 40.5625 13.2715C39.3941 13.2715 38.5143 13.5106 37.9185 13.9935C37.3227 14.4765 37.0155 15.2675 37.0155 16.3897L36.9922 22.8285C36.9922 25.1281 38.4911 26.402 40.3763 26.3284C41.5679 26.2778 42.592 25.7259 42.592 24.4888C42.592 23.2516 42.5082 23.5598 42.5082 23.5598C42.2289 23.6195 42.0334 23.6701 41.6564 23.6701Z" fill="#6439BE"/>
<path d="M37.8537 12.0067C38.1237 12.1401 38.4123 12.2091 38.7195 12.2091C39.427 12.2091 39.9856 11.8733 40.3999 11.2111C40.5721 10.9121 40.6559 10.5856 40.6559 10.236C40.6559 9.88652 40.5814 9.61057 40.4232 9.32082C40.2649 9.03108 40.0322 8.81492 39.7296 8.65855C39.4596 8.50218 39.1803 8.42859 38.8917 8.42859C38.6031 8.42859 38.2447 8.52517 37.9421 8.70454C37.6395 8.8839 37.3928 9.13686 37.2253 9.4634C37.053 9.75314 36.9692 10.0751 36.9692 10.4384C36.9692 10.8017 37.0437 11.0639 37.202 11.3398C37.3463 11.6066 37.5651 11.832 37.8583 12.0021L37.8537 12.0067Z" fill="#6439BE"/>
<path d="M50.1194 13.2944C49.4025 13.2944 48.681 13.3772 47.9641 13.5336C47.2473 13.69 46.5863 13.9889 46.0044 14.435C45.4179 14.8811 44.9431 15.4928 44.58 16.2885C44.217 17.0841 44.0308 18.0959 44.0308 19.3331V22.9572C44.0308 24.0748 44.1751 25.1096 44.8593 25.6155C45.6041 26.1674 46.4653 26.195 47.6104 26.195C47.5871 26.0846 47.5731 25.7627 47.5499 25.5465C47.5266 25.3442 47.5126 25.0636 47.5126 24.7279C47.4987 24.3784 47.4987 23.9322 47.4987 23.3803V18.7352C47.4987 17.6406 47.6802 16.2333 49.6306 16.0769C50.7245 15.9803 51.702 15.571 51.702 14.3936C51.702 13.2162 51.6415 13.598 51.5065 13.299H50.1194V13.2944Z" fill="#6439BE"/>
<path d="M6.0886 12.9817C2.0947 12.9817 0 15.7504 0 19.1169C0 22.4835 1.92247 25.1464 5.41829 25.1464C8.91412 25.1464 8.28105 24.3875 8.55104 24.1576V25.7213C8.55104 27.515 7.84349 28.7061 6.01877 28.7061C4.19406 28.7061 4.48266 28.467 3.87753 28.1864C3.34221 27.9335 2.93724 27.6345 2.40192 27.6345C1.03804 27.6345 0.660995 29.2948 0.674959 29.3086C1.69904 30.6102 4.03579 31.5714 5.9955 31.5714C9.85441 31.5714 11.9863 29.3454 11.9863 24.9302V19.77C11.9724 15.7366 10.1709 12.9817 6.09325 12.9817H6.0886ZM6.06532 22.1662C4.56645 22.1662 3.42134 21.2279 3.42134 19.1721C3.42134 17.1163 4.58972 15.8378 6.06532 15.8378C7.54092 15.8378 8.57431 16.7024 8.57431 19.002C8.57431 21.3015 7.42921 22.1662 6.06532 22.1662Z" fill="#6439BE"/>
<path d="M61.4074 11.763H61.3096C61.0489 11.6848 60.7696 11.6158 60.4717 11.5606C60.1738 11.5054 59.82 11.4778 59.4151 11.4778C59.0101 11.4778 58.7634 11.51 58.4794 11.5744C58.1955 11.6388 57.9534 11.7538 57.7486 11.924C57.5438 12.0941 57.3855 12.3149 57.2645 12.5954C57.1435 12.876 57.083 13.2301 57.083 13.6624V14.8168H60.8255V15.7044C60.8255 15.9942 60.7557 16.2471 60.6207 16.4725C60.4857 16.6979 60.2995 16.8864 60.0714 17.0474C59.8433 17.2084 59.592 17.3279 59.3173 17.4061C59.0427 17.4843 58.768 17.5257 58.4934 17.5257H57.083V26.1629H55.7703C55.2536 26.1629 54.7928 25.9835 54.3971 25.6202C54.0014 25.2615 53.8013 24.8015 53.8013 24.2404V13.3957C53.8013 12.9312 53.8851 12.4253 54.0573 11.8734C54.2249 11.3215 54.5135 10.8064 54.9184 10.3235C55.3234 9.84515 55.8494 9.44502 56.4965 9.12309C57.1435 8.80115 57.9441 8.64478 58.8984 8.64478C59.8526 8.64478 60.2064 8.82414 60.6812 9.18747C61.1607 9.54621 61.3981 10.0475 61.3981 10.6868V11.7676L61.4074 11.763Z" fill="#6439BE"/>
<path d="M95.467 21.7477C95.467 22.433 95.346 23.063 95.1039 23.6333C94.8619 24.199 94.5221 24.6911 94.0845 25.0959C93.647 25.5052 93.1256 25.8179 92.5158 26.0433C91.9107 26.2686 91.2404 26.379 90.5142 26.379H89.8579C89.0805 26.379 88.373 26.2732 87.7352 26.0663C87.0929 25.8593 86.5436 25.5742 86.0828 25.2154C85.6219 24.8567 85.2635 24.4244 85.0028 23.9185C84.7422 23.4126 84.6118 22.8653 84.6118 22.2766C84.6118 21.6879 84.7235 21.1636 84.9516 20.6669C85.1797 20.1702 85.5474 19.7425 86.0595 19.3837C86.5715 19.025 87.2418 18.7399 88.0751 18.5329C88.9083 18.3259 89.923 18.2202 91.124 18.2202H92.2645V18.05C92.2645 17.1394 92.0364 16.5139 91.5848 16.1781C91.1333 15.8424 90.4211 15.6722 89.4482 15.6722C88.4754 15.6722 88.345 15.7182 87.8842 15.8148C87.4234 15.9114 87.0231 16.0356 86.6832 16.1873C86.3434 16.3391 86.0595 16.5047 85.8314 16.6794C85.6033 16.8542 85.4264 17.0152 85.2961 17.1578H85.1751V16.1275C85.1751 15.7596 85.2588 15.3917 85.4311 15.0238C85.6033 14.6558 85.8779 14.3155 86.2596 14.0027C86.6367 13.69 87.1348 13.437 87.7399 13.2485C88.345 13.0553 89.0805 12.9587 89.937 12.9587C90.7935 12.9587 91.3661 13.0507 92.0364 13.2347C92.7067 13.4187 93.2978 13.736 93.8099 14.1821C94.3219 14.6282 94.7222 15.2261 95.0248 15.9712C95.3227 16.7162 95.4763 17.6453 95.4763 18.7674V21.7431L95.467 21.7477ZM92.2877 21.7707V20.5243H91.1194C90.5049 20.5243 89.9882 20.5611 89.5786 20.6347C89.1643 20.7083 88.8385 20.8095 88.5964 20.9474C88.3543 21.0808 88.1821 21.251 88.0844 21.4533C87.9866 21.6511 87.9401 21.8903 87.9401 22.1616C87.9401 22.6721 88.1356 23.0676 88.5219 23.3482C88.9129 23.6287 89.4669 23.7667 90.1977 23.7667C91.5895 23.7667 92.2877 23.1044 92.2877 21.7753V21.7707Z" fill="#6439BE"/>
<path d="M109.581 26.1629H108.706C107.975 26.1629 107.398 25.9605 106.97 25.5604C106.541 25.1603 106.327 24.659 106.327 24.0473V18.91C106.327 17.8062 106.094 17.006 105.634 16.5093C105.173 16.0126 104.521 15.7642 103.679 15.7642C102.836 15.7642 102.394 16.0172 101.956 16.5185C101.519 17.0244 101.3 17.7373 101.3 18.6663V26.1537H100.327C99.6288 26.1537 99.0749 25.9513 98.6606 25.5512C98.2463 25.1511 98.0415 24.6498 98.0415 24.0381V18.4455C98.0415 17.7603 98.1579 17.0842 98.3953 16.4173C98.628 15.755 98.9864 15.1617 99.4659 14.642C99.9453 14.1223 100.555 13.7038 101.3 13.3819C102.045 13.0599 102.929 12.9036 103.949 12.9036C104.968 12.9036 105.457 13.0277 106.136 13.2761C106.816 13.5244 107.412 13.8924 107.919 14.3799C108.431 14.8674 108.836 15.4653 109.134 16.1782C109.437 16.891 109.586 17.7005 109.586 18.6157V26.1491L109.581 26.1629Z" fill="#6439BE"/>
<path d="M82.1681 26.1629H81.293C80.5622 26.1629 79.985 25.9605 79.5567 25.5604C79.1285 25.1603 78.9143 24.659 78.9143 24.0473V18.91C78.9143 17.8062 78.6816 17.006 78.2208 16.5093C77.7599 16.0126 77.1083 15.7642 76.2657 15.7642C75.4232 15.7642 74.9763 16.0172 74.5434 16.5185C74.1105 17.0198 73.8871 17.7373 73.8871 18.6663V26.1537H72.9142C72.216 26.1537 71.662 25.9513 71.2524 25.5512C70.8381 25.1511 70.6333 24.6498 70.6333 24.0381V18.4455C70.6333 17.7603 70.7497 17.0842 70.9871 16.4173C71.2198 15.755 71.5782 15.1617 72.0577 14.642C72.5372 14.1223 73.1469 13.7038 73.8917 13.3819C74.6365 13.0599 75.5209 12.9036 76.5404 12.9036C77.5598 12.9036 78.0485 13.0277 78.7282 13.2761C79.4078 13.5244 80.0036 13.8924 80.511 14.3799C81.023 14.8674 81.4233 15.4653 81.7259 16.1782C82.0238 16.891 82.1774 17.7005 82.1774 18.6157V26.1491L82.1681 26.1629Z" fill="#6439BE"/>
<path d="M67.6915 23.6701C66.9607 23.6701 66.4859 23.1412 66.4859 22.2858V15.9666C66.4859 15.4147 66.4859 14.9548 66.4999 14.619C66.5139 14.2695 66.5232 14.0073 66.5371 13.8004C66.5604 13.5842 66.5744 13.4049 66.5976 13.2715C65.4293 13.2715 64.5495 13.5106 63.9537 13.9935C63.3578 14.4765 63.0506 15.2675 63.0506 16.3897L63.0273 22.8285C63.0273 25.1281 64.5262 26.402 66.4114 26.3284C67.6031 26.2778 68.6272 25.7259 68.6272 24.4888C68.6272 23.2516 68.5434 23.5598 68.5434 23.5598C68.2641 23.6195 68.0686 23.6701 67.6915 23.6701Z" fill="#6439BE"/>
<path d="M63.8932 12.0067C64.1632 12.1401 64.4518 12.2091 64.759 12.2091C65.4666 12.2091 66.0252 11.8733 66.4394 11.2111C66.6117 10.9121 66.6955 10.5856 66.6955 10.236C66.6955 9.88652 66.621 9.61057 66.4627 9.32082C66.3044 9.03108 66.0717 8.81492 65.7691 8.65855C65.4992 8.50218 65.2199 8.42859 64.9313 8.42859C64.6427 8.42859 64.2842 8.52517 63.9817 8.70454C63.6791 8.8839 63.4324 9.13686 63.2648 9.4634C63.0926 9.75314 63.0088 10.0751 63.0088 10.4384C63.0088 10.8017 63.0833 11.0639 63.2415 11.3398C63.3858 11.6066 63.6046 11.832 63.8979 12.0021L63.8932 12.0067Z" fill="#6439BE"/>
<path d="M121.991 22.0834C121.991 23.4586 121.52 24.5302 120.58 25.2982C119.64 26.0663 118.29 26.4526 116.526 26.4526C114.762 26.4526 115.371 26.379 114.859 26.2365C114.347 26.0939 113.905 25.9053 113.523 25.6708C113.142 25.4408 112.848 25.1695 112.639 24.8659C112.429 24.5624 112.322 24.2404 112.322 23.9047V22.4422H112.443C112.62 22.6031 112.853 22.7595 113.137 22.9113C113.421 23.0631 113.742 23.1964 114.096 23.3068C114.45 23.4172 114.827 23.5092 115.213 23.569C115.604 23.6333 115.99 23.6655 116.381 23.6655C117.969 23.6655 118.76 23.1918 118.76 22.249C118.76 21.3062 118.723 21.8949 118.648 21.7569C118.574 21.6189 118.444 21.4947 118.248 21.3844C118.053 21.274 117.778 21.1728 117.424 21.0854C117.07 20.998 116.605 20.9153 116.042 20.8325C114.65 20.6393 113.616 20.2668 112.946 19.7149C112.276 19.163 111.936 18.3903 111.936 17.4015C111.936 16.4127 112.071 16.2195 112.336 15.6722C112.602 15.1295 112.979 14.6512 113.467 14.2465C113.952 13.8372 114.538 13.5152 115.218 13.2761C115.897 13.0369 116.661 12.9174 117.499 12.9174C118.337 12.9174 118.876 13.0001 119.407 13.1703C119.933 13.3405 120.366 13.5566 120.706 13.8326C121.046 14.1039 121.292 14.3983 121.446 14.7202C121.6 15.0422 121.679 15.3595 121.679 15.6814V16.9048H121.558C121.218 16.5691 120.706 16.2839 120.017 16.054C119.328 15.824 118.597 15.7044 117.82 15.7044C117.042 15.7044 116.125 15.8424 115.758 16.1138C115.385 16.3851 115.199 16.73 115.199 17.144C115.199 17.5579 115.232 17.4429 115.297 17.5625C115.362 17.6821 115.488 17.7924 115.674 17.889C115.86 17.9856 116.125 18.073 116.475 18.1512C116.824 18.2294 117.271 18.3213 117.824 18.4133C119.202 18.6387 120.24 19.0434 120.943 19.6367C121.646 20.23 122 21.044 122 22.0834H121.991Z" fill="#6439BE"/>
</svg>