<?xml version="1.0" encoding="utf-8"?>
<svg xmlns="http://www.w3.org/2000/svg" fill="none" height="40" viewBox="0 0 98 40" width="98">
<g clip-path="url(#clip0_10362_3468)">
<path clip-rule="evenodd" d="M49.3126 7.45344C48.3847 7.45344 47.6316 6.67949 47.6316 5.72673C47.6316 4.7732 48.3847 4 49.3126 4C50.242 4 50.9958 4.7732 50.9958 5.72673C50.9958 6.67949 50.242 7.45344 49.3126 7.45344ZM46.7233 30.5796C46.7233 30.5796 45.8015 30.253 45.6175 30.2089L45.5574 30.1896C44.7508 30.0007 44.4237 30.1849 44.1961 30.3274C44.1522 30.3546 44.1169 30.3832 44.0693 30.4242C43.8898 30.5743 43.6818 30.8855 43.6818 30.8855H43.3358V25.5405H43.7437C43.7437 25.5405 43.8303 25.8941 43.9058 26.1132C44.3859 27.5202 45.3591 28.5682 45.3591 28.5682C48.1798 31.2818 51.2914 30.2887 51.2914 30.2887C53.9064 29.3229 54.3344 27.1201 53.6779 25.5846C53.0243 24.049 51.3268 23.2007 51.3268 23.2007L50.763 22.8757L50.7645 26.6109C50.7673 26.6398 50.768 26.6777 50.769 26.7221C50.7749 27.023 50.787 27.6254 51.4859 27.8082L51.8921 27.9187V28.3406H46.737V27.9187L47.1629 27.8011C47.8413 27.6149 47.8546 27.0235 47.8613 26.7247C47.8623 26.6795 47.8632 26.641 47.8662 26.6115V21.2162L47.386 20.9421C47.2367 20.8581 47.0986 20.7814 46.9684 20.7091C46.3365 20.3582 45.8948 20.1129 45.2935 19.6488C43.8968 18.5723 43.0208 17.3873 43.0208 15.4942C43.0208 12.9517 44.9113 10.8481 47.5051 10.4719C47.6144 10.4507 47.737 10.4418 47.8534 10.4333L47.8654 10.4324V9.8628C47.8623 9.83349 47.8615 9.79491 47.8605 9.74949C47.8536 9.4491 47.8398 8.84999 47.1426 8.66857L46.737 8.55857V8.1352H51.8921V8.55857L51.467 8.67324C50.7885 8.86018 50.7748 9.45321 50.7679 9.75023C50.7668 9.79503 50.766 9.83314 50.763 9.86206V18.3973L47.8654 16.7558V11.2358C47.7216 11.2446 47.6204 11.2563 47.6204 11.2563C46.1438 11.5109 44.8766 12.5178 44.8766 13.959C44.8766 14.8862 45.2701 15.6168 45.8822 16.1539C45.8822 16.1539 46.2591 16.5572 47.0574 17.0697C47.8564 17.5821 51.0268 19.3506 51.0268 19.3506C51.0268 19.3506 52.9143 20.3838 53.503 20.8544C53.7887 21.0695 54.1347 21.4125 54.1347 21.4125C55.2563 22.4465 56.1164 23.9479 56.1164 25.6151C56.1164 26.1189 56.05 26.6081 55.9309 27.0725C55.9309 27.0725 55.2404 29.8162 52.2132 30.8711C52.2132 30.8711 51.3298 31.2449 50.377 31.3022C50.377 31.3022 50.3537 31.3078 50.2534 31.311C50.6906 31.6159 50.9807 32.1314 50.9807 32.7165C50.9807 33.143 50.8128 33.441 50.6054 33.7537C50.5282 33.8606 50.4248 34.0347 50.3195 34.2119C50.2138 34.3898 50.1061 34.5711 50.0212 34.6909C49.6337 35.2412 49.3571 35.5918 49.3571 35.5918H48.9304C48.9304 35.5918 49.1224 34.8296 49.0638 34.6406C48.9945 34.4193 48.9651 34.3303 48.7238 34.2095C48.1147 33.9874 47.6821 33.4309 47.6821 32.7158C47.6821 32.0509 48.0559 31.476 48.5979 31.1995C47.9677 31.0827 47.4024 30.8729 46.7233 30.5796ZM7.20505 15.8487C7.20505 15.4106 7.55107 15.0546 7.97771 15.0546C8.40282 15.0546 8.74958 15.4106 8.74958 15.8487C8.74958 16.2852 8.40282 16.6405 7.97771 16.6405C7.55107 16.641 7.20505 16.286 7.20505 15.8487ZM26.4243 15.8595C26.4243 15.4222 26.7703 15.067 27.1977 15.067C27.6236 15.067 27.9695 15.4222 27.9695 15.8595C27.9695 16.2968 27.6236 16.6521 27.1977 16.6521C26.7703 16.6526 26.4243 16.2976 26.4243 15.8595ZM95.5557 21.3385C95.5557 20.0002 94.3427 19.6651 93.2464 19.436C92.153 19.2061 91.8568 19.0831 91.8568 18.6953C91.8568 18.423 92.1023 18.1412 92.8436 18.1412C93.4749 18.1412 93.9666 18.3702 94.411 18.7743L95.4064 17.9129C94.7557 17.3045 93.9666 16.9423 92.8915 16.9423C91.5297 16.9423 90.4261 17.6296 90.4261 18.7495C90.4261 19.9639 91.3138 20.3253 92.5855 20.5892C93.8891 20.8539 94.1256 21.0289 94.1256 21.4251C94.1256 21.891 93.741 22.0946 92.9211 22.0946C92.2602 22.0946 91.6391 21.8901 91.156 21.3903L90.1594 22.1821C90.683 22.8686 91.6887 23.3005 92.8436 23.3005C94.7261 23.3017 95.5557 22.5094 95.5557 21.3385ZM63.8157 21.2146C63.8157 20.5374 63.402 20.0877 62.8488 19.8679C63.304 19.6219 63.5792 19.1976 63.5792 18.669C63.5792 17.6133 62.7314 17.0398 61.3902 17.0398H58.2228V23.2052H61.36C62.8396 23.2052 63.8157 22.5094 63.8157 21.2146ZM61.3993 19.3478C61.9708 19.3478 62.1781 19.1102 62.1781 18.7665C62.1781 18.3795 61.932 18.1768 61.3286 18.1768H59.5754V19.3478H61.3993ZM61.4101 22.0335C62.0801 22.0335 62.3952 21.7177 62.3952 21.2309C62.3952 20.7045 62.0801 20.4389 61.4101 20.4383H59.5754V22.0335H61.4101ZM66.5374 20.6612H68.1174L67.673 19.5413C67.534 19.1814 67.3978 18.8115 67.3266 18.5815C67.2576 18.8114 67.1209 19.1814 66.9824 19.5413L66.5374 20.6612ZM70.6534 23.2052L68.0285 17.0398H66.6873L64.0447 23.2052H65.5227L66.0662 21.8314H68.5915L69.1333 23.2052H70.6534ZM76.8371 17.0398V23.2052L76.836 23.2045H75.6019L73.067 19.8408C72.8989 19.6125 72.6721 19.3035 72.5838 19.145C72.5838 19.2479 72.5878 19.4609 72.5924 19.6955V19.6963C72.5975 19.984 72.6038 20.3041 72.6038 20.4933V23.2052H71.2431V17.0398H72.5639L75.0105 20.299L75.0674 20.3773C75.2258 20.5942 75.415 20.8545 75.4948 20.9955C75.4948 20.8922 75.4908 20.6787 75.4868 20.4439V20.443L75.4862 20.4407V20.4399C75.4811 20.1534 75.4748 19.8359 75.4748 19.6481V17.0398H76.8371ZM96.6189 17.0406H98V23.2053H96.6189V17.0406ZM87.22 19.5413C87.0815 19.1814 86.9437 18.8114 86.8742 18.5815C86.8046 18.8115 86.6667 19.1814 86.5294 19.5413L86.085 20.6612H87.6633L87.22 19.5413ZM83.59 23.2052H84.1843H85.068L85.6104 21.8314H88.1356L88.6792 23.2052H90.1987L87.5755 17.0398H86.2343L83.8316 22.6434L81.6494 19.1713L83.6709 17.0398H82.0049L80.0706 19.1458C79.8837 19.3486 79.6278 19.6294 79.5287 19.7719C79.5372 19.5769 79.5486 19.0219 79.5486 18.7929V17.0398H78.1675V23.2052H79.5486V21.391L80.6529 20.2293L82.5268 23.2052H83.59ZM11.8248 17.0398V20.4839C11.8248 22.271 10.7786 23.3025 9.02449 23.3012C7.35712 23.3012 6.23326 22.2974 6.23326 20.5018V17.0398H7.61266V20.4839C7.61266 21.4707 8.14636 22.0954 9.02375 22.0954C9.90039 22.0954 10.4432 21.487 10.4432 20.5018V17.0398H11.8248ZM10.1029 15.0546C9.67551 15.0546 9.33108 15.4106 9.33108 15.8487C9.33108 16.286 9.67551 16.641 10.1029 16.6405C10.5288 16.6405 10.8741 16.2852 10.8741 15.8487C10.8741 15.4106 10.5288 15.0546 10.1029 15.0546ZM40.5601 23.2045V21.9986H36.9992V20.5111H38.9832V19.3129H36.9992V18.2465H40.4131V17.0398H35.6198V23.2045H40.5601ZM33.5388 17.0406H35.1067L32.4941 20.7657V23.2053H31.1131V20.7928L28.499 17.0406H30.0865L31.0626 18.5034C31.3107 18.8726 31.6845 19.4802 31.8127 19.7093C31.9416 19.4801 32.3055 18.8903 32.5619 18.5034L33.5388 17.0406ZM25.7204 23.2053L23.1862 19.1714L25.2079 17.0406H23.5405L21.6078 19.145C21.4209 19.3486 21.1638 19.6303 21.0651 19.7719C21.0736 19.5768 21.085 19.0219 21.085 18.7937V17.0406H19.7035V23.2053H21.0852V21.3911L22.1902 20.2293L24.0634 23.2053H25.7204ZM16.2413 19.823C16.882 19.823 17.2273 19.5583 17.2273 19.0212C17.2273 18.4662 16.8526 18.2371 16.2413 18.2371H14.4352V19.823H16.2413ZM18.6479 23.2053L17.3265 20.809C18.2038 20.5026 18.6479 19.9205 18.6479 18.9957C18.6479 17.6838 17.5722 17.0406 16.2711 17.0406H13.0555V23.2053H14.4364V20.9863H15.8272L17.0604 23.2053H18.6479ZM5.34736 17.0406V18.2565H3.36414V23.2053H1.98319V18.2565H0V17.0406H5.34736ZM27.8873 17.0406H26.5063V23.2053H27.8873V17.0406ZM54.4118 10.9673V10.7204H54.0378L53.8404 11.0284C53.6609 11.2636 53.4989 11.3473 53.153 11.3852C52.7527 11.4317 52.2386 11.2079 52.2386 11.2079L51.4803 10.8968V11.6831C51.7178 11.8202 51.8605 11.9382 51.9819 12.0387C52.0285 12.0773 52.072 12.1133 52.1165 12.1468C52.3156 12.2986 52.6291 12.6127 52.997 13.1204C53.3648 13.6289 53.6347 14.2744 53.7229 14.5491C53.7878 14.7489 53.8744 15.1714 53.9157 15.416L53.967 15.7442H54.4117L54.4118 10.9673Z" fill="#00559F" fill-rule="evenodd"/>
</g>
<defs>
<clipPath id="clip0_10362_3468">
<rect fill="white" height="32" transform="translate(0 4)" width="98"/>
</clipPath>
</defs>
</svg>