<?xml version="1.0" encoding="utf-8"?>
<svg xmlns="http://www.w3.org/2000/svg" fill="none" height="40" viewBox="0 0 100 40" width="100">
<g clip-path="url(#clip0_10362_3300)">
<path d="M33.3506 20.6574C35.2869 20.6574 37.1733 20.5128 39.0288 20.6984C40.9627 20.8914 42.0234 23.2356 41.0909 24.9816C40.8512 25.4302 40.4075 25.7678 40.0326 26.1875C41.0885 26.6698 41.7268 27.5236 41.7577 28.7801C41.8027 30.6226 40.8987 31.8911 39.0977 32.0455C37.216 32.2095 35.3082 32.0817 33.3506 32.0817V20.6574ZM35.9062 30.1644C36.5919 30.1644 37.1923 30.1981 37.7879 30.1571C38.6587 30.0968 39.0834 29.6314 39.1285 28.7704C39.1712 27.9745 38.7275 27.3427 37.9184 27.2365C37.2706 27.1522 36.6038 27.2197 35.9038 27.2197V30.1644H35.9062ZM35.9062 25.1891C36.6109 25.1505 37.2349 25.1601 37.8448 25.066C38.5116 24.9623 38.7204 24.4294 38.7156 23.8168C38.7086 23.1849 38.4119 22.6978 37.7688 22.6205C37.1638 22.5482 36.5468 22.6061 35.9086 22.6061V25.1866L35.9062 25.1891Z" fill="#78113F"/>
<path d="M-6.85331e-05 18.8559C0.631115 17.2305 1.22196 15.7039 1.81281 14.1797C2.65043 12.0139 3.49992 9.85304 4.31144 7.67769C4.47992 7.22429 4.70297 7.08441 5.17042 7.08682C7.04971 7.09888 7.05686 7.07959 7.73785 8.83531C8.93378 11.9199 10.1226 15.0069 11.3114 18.0938C11.3945 18.3085 11.4656 18.5303 11.5819 18.8559C10.7799 18.8559 10.0467 18.8897 9.32059 18.8294C9.15686 18.8174 8.96227 18.5062 8.87925 18.294C7.95855 15.9595 7.05925 13.6153 6.15279 11.2759C6.06024 11.0372 5.9582 10.8057 5.79449 10.4126C4.99483 12.4746 4.24975 14.3991 3.47619 16.3984H7.42942C7.12332 17.1895 6.85989 17.9009 6.56564 18.6003C6.51582 18.7184 6.33076 18.8487 6.20739 18.8511C4.17144 18.8656 2.13552 18.8631 -0.00244141 18.8631L-6.85331e-05 18.8559Z" fill="#78113F"/>
<path d="M80.1504 19.0851C82.519 17.8213 86.0376 18.7498 87.8649 21.0482C89.908 23.6167 89.8888 27.2704 87.8603 29.781C85.7173 32.4362 82.1318 32.7522 80.2242 31.7609C83.7742 30.8108 85.7103 28.7439 85.8359 25.8161C85.9074 24.1135 85.4423 22.6086 84.3556 21.3135C83.2731 20.0232 81.8684 19.319 80.1504 19.0851Z" fill="#78113F"/>
<path d="M95.0553 20.2813C92.6041 21.5209 89.2367 20.6333 87.3361 18.3085C85.3762 15.9136 85.2931 12.3829 87.1367 9.85546C88.9471 7.37382 92.2716 6.38984 95.1047 7.61258C93.2303 7.89716 91.7495 8.65444 90.6582 10.0894C89.5663 11.5268 89.1727 13.1571 89.4221 14.9393C89.8111 17.7225 91.9157 19.7217 95.0529 20.2764L95.0553 20.2813Z" fill="#78113F"/>
<path d="M84.4459 26.0066C81.9424 27.2607 78.5093 26.3153 76.6535 23.9519C74.7099 21.4774 74.7198 17.8623 76.675 15.383C78.5349 13.0268 81.957 12.1007 84.4459 13.3572C82.8203 13.5863 81.4703 14.2158 80.4023 15.3879C79.3326 16.56 78.7703 17.9588 78.7366 19.5433C78.7035 21.1808 79.2349 22.6423 80.3145 23.8747C81.3872 25.0974 82.761 25.763 84.4459 26.0066Z" fill="#78113F"/>
<path d="M90.7505 13.3501C93.3604 12.096 96.7464 13.0558 98.6139 15.4965C100.52 17.9878 100.453 21.6318 98.4621 24.0628C96.59 26.3443 93.1848 27.2439 90.7883 26.0115C92.8906 25.6762 94.5162 24.7092 95.5865 22.9004C96.3313 21.6439 96.5685 20.2837 96.4075 18.8319C96.0987 16.0487 93.911 13.8903 90.7528 13.3501H90.7505Z" fill="#78113F"/>
<path d="M67.1669 24.1809C66.1465 25.1046 65.1262 26.0283 64.0889 26.9664C65.1855 28.768 66.2012 30.4393 67.2878 32.224C66.4192 32.224 65.6645 32.2529 64.9151 32.2022C64.7227 32.1902 64.4948 31.9539 64.3762 31.7633C63.7762 30.7914 63.2064 29.7978 62.6273 28.8186C61.1017 29.5615 61.7209 30.9747 61.5384 32.1733H59.2866V20.971C59.9889 20.8118 60.7244 20.6454 61.5599 20.4573V26.9737C61.6116 26.9954 61.6639 27.0171 61.7163 27.0388C62.2238 26.4769 62.8244 25.9752 63.2209 25.341C64.1482 23.8554 65.4773 23.689 67.1645 24.1785L67.1669 24.1809Z" fill="#78113F"/>
<path d="M52.1514 18.8391C51.3446 18.8101 50.5592 19.0151 49.845 18.7137C49.0643 18.8126 48.2599 19.0706 47.4935 18.9814C45.6426 18.7668 44.4657 17.2329 44.4301 15.2215C44.3921 13.0365 45.6189 11.2832 47.4792 10.9094C47.9063 10.8226 48.3643 10.7527 48.7843 10.8178C49.8853 10.9938 50.9531 11.4858 52.149 10.9239V18.8391H52.1514ZM49.8616 14.8911C49.8616 14.4908 49.8331 14.0904 49.8687 13.6949C49.9114 13.2271 49.7121 13.0269 49.2826 12.9135C48.286 12.6531 47.4033 13.0028 46.9952 13.8638C46.5372 14.8308 46.7769 16.1452 47.5267 16.6927C48.1508 17.1461 48.8223 17.1195 49.5009 16.8278C50.1108 16.5673 49.7904 16.0174 49.8545 15.5954C49.8901 15.3663 49.8616 15.1275 49.8616 14.8911Z" fill="#78113F"/>
<path d="M50.3002 24.3112V32.2264C49.4816 32.1492 48.6867 32.4049 47.7921 31.9925C46.5131 32.6581 45.0894 32.6436 43.8436 31.5101C42.4579 30.2464 42.3179 28.6064 42.8233 26.9013C43.286 25.3386 44.6528 24.2895 46.2117 24.1954C46.6247 24.1713 47.085 24.1158 47.448 24.263C48.3734 24.644 49.2823 24.6247 50.3002 24.3112ZM48.0009 28.3098C48.0009 27.8877 47.9748 27.4633 48.008 27.0436C48.0436 26.5854 47.8609 26.3732 47.4243 26.2719C46.3969 26.0332 45.5521 26.3756 45.1487 27.2414C44.705 28.2013 44.947 29.5156 45.6969 30.0655C46.3185 30.5213 46.9853 30.4996 47.6663 30.1885C48.2358 29.928 47.9321 29.4144 47.9962 29.0116C48.0317 28.7825 48.0033 28.5437 48.0009 28.3098Z" fill="#78113F"/>
<path d="M29.2694 15.5567H24.3101C24.7017 17.2883 26.2037 17.5367 28.9633 16.3598C28.9633 16.9434 28.9823 17.4981 28.9515 18.0456C28.9419 18.1951 28.8162 18.4025 28.6857 18.4676C27.1196 19.2683 24.3813 19.4154 22.8579 17.7513C21.7023 16.4876 21.4769 14.3243 22.3857 12.7495C23.2803 11.1963 25.105 10.4511 26.8254 10.9335C28.6548 11.4472 29.6894 13.35 29.2694 15.5543V15.5567ZM27.141 13.9746C26.9748 13.092 26.5264 12.6892 25.7481 12.6868C24.9698 12.6868 24.4501 13.1498 24.3148 13.9746H27.141Z" fill="#78113F"/>
<path d="M53.3276 24.3594C53.3821 24.5765 53.4249 24.7501 53.4771 24.9503C53.553 24.9213 53.6242 24.9141 53.6669 24.8755C54.5117 24.1183 55.5154 24.0483 56.5475 24.2364C57.5536 24.4221 58.2777 25.259 58.3271 26.4793C58.4056 28.3532 58.3486 30.2343 58.3486 32.1685H56.1275C56.1275 31.5414 56.1347 30.8951 56.1275 30.2488C56.1134 29.3564 56.1228 28.4593 56.054 27.5694C55.9852 26.6891 55.5628 26.2791 54.8652 26.2912C54.094 26.3033 53.5364 26.8531 53.5103 27.6948C53.4818 28.5896 53.5032 29.4842 53.5032 30.379C53.5032 30.9626 53.5032 31.5487 53.5032 32.1806H51.1943C51.1825 31.9563 51.1635 31.7296 51.1635 31.5029C51.1612 29.5012 51.1825 27.4994 51.1493 25.5002C51.1398 24.9623 51.313 24.7404 51.8184 24.673C52.2978 24.6103 52.7699 24.48 53.3323 24.3618L53.3276 24.3594Z" fill="#78113F"/>
<path d="M43.4636 18.8222H41.2521C41.2521 17.4958 41.2545 16.2055 41.2521 14.9176C41.2521 14.6138 41.2569 14.3003 41.1952 14.006C41.0338 13.2223 40.6826 12.9449 39.9518 12.969C39.2471 12.9907 38.7416 13.3983 38.706 14.1266C38.6443 15.3952 38.6633 16.6686 38.6515 17.9395C38.6443 18.8608 38.6467 18.8608 37.7403 18.8656C36.7817 18.8688 36.3023 18.3857 36.3023 17.4162C36.3023 15.6508 36.3213 13.8831 36.2904 12.1177C36.281 11.616 36.4423 11.3942 36.9216 11.3242C37.4437 11.2495 37.9586 11.1144 38.5138 10.9986C38.5518 11.2278 38.5803 11.4038 38.6135 11.604C38.6775 11.5871 38.7511 11.5895 38.7915 11.5533C39.4084 10.9818 40.1464 10.7599 40.9626 10.7768C42.384 10.8057 43.3355 11.5027 43.4328 12.9304C43.5657 14.867 43.466 16.8181 43.466 18.8246L43.4636 18.8222Z" fill="#78113F"/>
<path d="M65.7284 10.9697H67.6336V12.9642H65.8068C65.8068 13.4393 65.8068 13.8517 65.8068 14.2641C65.8068 15.605 65.7946 16.9483 65.8115 18.2892C65.8161 18.7113 65.6737 18.8873 65.2487 18.868C64.701 18.8439 64.1504 18.8632 63.526 18.8632V13.0414C63.1441 13.01 62.8313 12.9835 62.4702 12.9545V11.0348C62.7906 10.989 63.1231 10.9432 63.4598 10.8949C63.5074 10.3017 63.4952 9.73009 63.6068 9.18504C63.9534 7.51132 65.8731 6.53458 67.4132 7.23157C67.5365 7.28704 67.6598 7.49444 67.6691 7.63914C67.6999 8.15284 67.6813 8.66894 67.6813 9.06446C67.0784 9.20193 66.4353 9.18022 66.051 9.49133C65.7731 9.71562 65.84 10.3813 65.7307 10.9745L65.7284 10.9697Z" fill="#78113F"/>
<path d="M54.1277 10.9021C54.1277 10.386 54.1467 9.91814 54.1206 9.45509C54.1016 9.08851 54.2179 8.8811 54.5904 8.82322C55.1813 8.73399 55.7697 8.63029 56.4555 8.51453V10.9503H58.4205V12.9834H56.5053C56.5053 14.0856 56.465 15.1178 56.5196 16.1428C56.5551 16.8108 56.9894 17.0785 57.6372 16.9459C57.8816 16.8952 58.1189 16.8059 58.4629 16.7022C58.4629 17.2787 58.4891 17.8092 58.4461 18.3326C58.4321 18.4917 58.2542 18.7064 58.0999 18.7691C56.605 19.3792 54.2558 19.126 54.1467 16.4659C54.0992 15.3421 54.1396 14.2134 54.1396 13.034C53.7575 13.0051 53.4467 12.9786 53.0718 12.9497V11.0227C53.385 10.9865 53.6958 10.9503 54.1229 10.8997L54.1277 10.9021Z" fill="#78113F"/>
<path d="M19.0017 10.9842H20.9664V12.9473H19.1084C19.1084 14.1387 19.061 15.2553 19.1298 16.3647C19.1583 16.847 19.602 17.0399 20.0766 16.9676C20.3684 16.9218 20.6508 16.8229 21.0091 16.7288C21.0091 17.2859 21.0423 17.802 20.9901 18.3085C20.9735 18.4845 20.7813 18.7257 20.6129 18.7933C18.9661 19.4396 16.6834 18.9524 16.7166 16.2586C16.7284 15.2022 16.7166 14.1483 16.7166 13.0414C16.3464 13.01 16.0332 12.9859 15.6606 12.9545V11.0179C16.0023 10.9793 16.318 10.9432 16.7166 10.8974C16.7166 10.3644 16.681 9.85067 16.7356 9.34421C16.7569 9.16092 16.9681 8.89322 17.139 8.84982C17.7156 8.70029 18.3136 8.63276 18.9993 8.51941V10.9842H19.0017Z" fill="#78113F"/>
<path d="M14.7018 18.815H12.4595V7.13269H14.7018V18.815Z" fill="#78113F"/>
<path d="M32.4466 11.001C32.5035 11.2422 32.5391 11.3965 32.5913 11.616C33.4313 10.8298 34.3757 10.6272 35.4696 10.8708V12.969C35.0282 12.969 34.5964 12.9521 34.1669 12.9714C33.2225 13.0124 32.5557 13.6756 32.5343 14.6403C32.5059 15.8413 32.5106 17.0447 32.5296 18.2458C32.5367 18.6943 32.3943 18.8584 31.9364 18.8728C30.1757 18.9283 30.1757 18.9427 30.1757 17.175C30.1757 15.4771 30.1924 13.7817 30.1663 12.0839C30.1591 11.616 30.3063 11.3965 30.7618 11.3314C31.31 11.2518 31.8486 11.1216 32.4466 11.0034V11.001Z" fill="#78113F"/>
<path d="M61.5123 18.7739C61.453 18.8004 61.4338 18.8173 61.4123 18.8197C59.9605 19.0062 59.2344 18.3695 59.2344 16.9096C59.2344 15.2118 59.2344 13.5164 59.2344 11.8185C59.2344 11.5653 59.2344 11.3121 59.2344 11.0106H61.5123V18.7739Z" fill="#78113F"/>
<path d="M71.2122 19.6518C71.2122 15.716 71.2122 11.78 71.2122 7.84415C71.2122 7.65604 71.1982 7.4631 71.2337 7.28223C71.2506 7.20505 71.3831 7.10376 71.4593 7.10376C71.5372 7.10376 71.6587 7.21229 71.6773 7.29187C71.7157 7.44863 71.6965 7.61987 71.6988 7.78386C71.6988 15.7497 71.6988 23.718 71.6988 31.6838C71.6988 31.8478 71.7157 32.019 71.6773 32.1758C71.6564 32.2554 71.5279 32.3615 71.4523 32.3591C71.3738 32.3591 71.2506 32.2458 71.2337 32.1662C71.1982 31.9853 71.2122 31.7924 71.2122 31.6019C71.2122 27.6177 71.2122 23.636 71.2122 19.6518Z" fill="#78113F"/>
<path d="M60.4063 9.89883C59.6377 9.89159 59.068 9.29591 59.0773 8.50487C59.0871 7.74035 59.7087 7.10367 60.4418 7.1109C61.1656 7.11572 61.7685 7.7693 61.7639 8.54104C61.7563 9.33931 61.1918 9.90607 60.4087 9.89883H60.4063Z" fill="#78113F"/>
</g>
<defs>
<clipPath id="clip0_10362_3300">
<rect fill="white" height="26" transform="translate(0 7)" width="100"/>
</clipPath>
</defs>
</svg>