<?xml version="1.0" encoding="utf-8"?>
<svg xmlns="http://www.w3.org/2000/svg" fill="none" height="40" viewBox="0 0 76 40" width="76">
<g clip-path="url(#clip0_10362_3322)">
<mask height="24" id="mask0_10362_3322" maskUnits="userSpaceOnUse" style="mask-type:luminance" width="24" x="0" y="8">
<path clip-rule="evenodd" d="M20.2927 31.6214C19.8797 31.6218 19.4712 31.5401 19.0939 31.3817C18.7167 31.2233 18.3792 30.9918 18.1034 30.7023L8.78588 20.9069L5.68244 28.8064C5.41129 29.4915 4.86303 30.0476 4.15756 30.353C3.45209 30.6584 2.64688 30.6882 1.91812 30.4359C1.55747 30.3124 1.22627 30.123 0.943549 29.8787C0.660829 29.6343 0.432149 29.3398 0.27064 29.012C0.109131 28.6842 0.0179732 28.3295 0.00240039 27.9684C-0.0131724 27.6074 0.0471464 27.247 0.179894 26.9079L4.97096 14.7104C5.14701 14.2643 5.44267 13.8689 5.82915 13.5623C6.2156 13.2557 6.67975 13.0486 7.17644 12.961C7.67345 12.8722 8.18631 12.9057 8.66553 13.0582C9.14475 13.2108 9.57401 13.4772 9.91188 13.8317L17.4609 21.7684L17.6178 10.7112C17.6306 9.98102 17.9506 9.28543 18.5075 8.77716C19.0644 8.26889 19.8128 7.98949 20.5883 8.0003C21.3637 8.00834 22.104 8.30605 22.6464 8.82797C23.1889 9.34988 23.4889 10.0533 23.4806 10.7835L23.2217 28.9098C23.2129 29.4644 23.0263 30.0035 22.6862 30.4564C22.346 30.9093 21.8684 31.2546 21.316 31.4471C20.9879 31.562 20.6406 31.6208 20.2906 31.6208" fill="white" fill-rule="evenodd"/>
</mask>
<g mask="url(#mask0_10362_3322)">
<mask height="26" id="mask1_10362_3322" maskUnits="userSpaceOnUse" style="mask-type:luminance" width="78" x="-1" y="7">
<path d="M-0.00195312 32.0727H76.0601V7.9519H-0.00195312V32.0727Z" fill="white"/>
</mask>
<g mask="url(#mask1_10362_3322)">
<path d="M-1.94238 33.4483H25.421V6.17261H-1.94238V33.4483Z" fill="#1378E8"/>
</g>
</g>
<mask height="12" id="mask2_10362_3322" maskUnits="userSpaceOnUse" style="mask-type:luminance" width="10" x="27" y="14">
<path clip-rule="evenodd" d="M27.5569 15.6587C27.5534 15.5106 27.5811 15.3633 27.6386 15.2254C27.6962 15.0875 27.7823 14.9618 27.8919 14.8555C28.0071 14.7447 28.1458 14.6579 28.2989 14.6008C28.452 14.5437 28.6162 14.5176 28.7807 14.5242C29.1016 14.5149 29.4141 14.6216 29.6541 14.8224C29.7735 14.929 29.8667 15.0588 29.9275 15.2027C29.9883 15.3467 30.015 15.5013 30.006 15.656V18.9594L34.0173 14.9523C34.1264 14.8436 34.2499 14.7485 34.3846 14.6693C34.5583 14.5684 34.7598 14.5179 34.9638 14.5242C35.2748 14.5225 35.5749 14.6317 35.8041 14.8297C35.9239 14.9284 36.019 15.0509 36.0826 15.1884C36.1461 15.326 36.1764 15.475 36.1714 15.6249C36.1709 15.8303 36.1028 16.0306 35.9764 16.1981C35.7957 16.4309 35.5937 16.6484 35.3727 16.8481L32.2889 19.6943L36.0588 23.38C36.2391 23.5462 36.4026 23.7279 36.5472 23.9227C36.6795 24.1049 36.7482 24.3215 36.7435 24.5423C36.7551 24.6943 36.7262 24.8468 36.6593 24.9856C36.5925 25.1245 36.4898 25.2454 36.3607 25.3374C36.1015 25.5117 35.7896 25.603 35.4712 25.5979C35.2463 25.602 35.026 25.5373 34.8434 25.4136C34.6209 25.2548 34.4156 25.0757 34.2305 24.8789L30.0081 20.5968V24.4965C30.0096 24.6398 29.9807 24.782 29.9232 24.9146C29.8657 25.0473 29.7806 25.1678 29.6731 25.2692C29.558 25.3801 29.4193 25.467 29.2662 25.524C29.113 25.5811 28.9488 25.6072 28.7843 25.6005C28.4634 25.6099 28.1509 25.5032 27.9109 25.3023C27.7936 25.2008 27.7012 25.0762 27.6405 24.9375C27.5797 24.7988 27.5518 24.6491 27.5591 24.4992L27.5569 15.6587Z" fill="white" fill-rule="evenodd"/>
</mask>
<g mask="url(#mask2_10362_3322)">
<mask height="26" id="mask3_10362_3322" maskUnits="userSpaceOnUse" style="mask-type:luminance" width="78" x="-1" y="7">
<path d="M-0.00195312 32.0721H76.0601V7.95129H-0.00195312V32.0721Z" fill="white"/>
</mask>
<g mask="url(#mask3_10362_3322)">
<path d="M25.6162 27.4241H38.6832V12.6979H25.6162V27.4241Z" fill="#171C1F"/>
</g>
</g>
<mask height="12" id="mask4_10362_3322" maskUnits="userSpaceOnUse" style="mask-type:luminance" width="13" x="36" y="14">
<path clip-rule="evenodd" d="M42.622 23.8034C43.1131 23.8154 43.5999 23.7141 44.04 23.5085C44.4299 23.319 44.7711 23.0517 45.04 22.7252C45.3146 22.3873 45.5177 22.0028 45.6382 21.5927C45.7717 21.1514 45.8382 20.6945 45.8359 20.2356C45.8369 19.7787 45.7677 19.324 45.6305 18.8858C45.5052 18.4737 45.2994 18.0871 45.0238 17.746C44.755 17.4195 44.4137 17.1522 44.0238 16.9627C43.5893 16.7584 43.1083 16.6572 42.6227 16.6679C42.1371 16.6571 41.6561 16.7584 41.2215 16.9627C40.8313 17.1517 40.4899 17.4191 40.2215 17.746C39.9451 18.0867 39.7393 18.4734 39.6149 18.8858C39.4777 19.324 39.4085 19.7787 39.4094 20.2356C39.4067 20.6944 39.4728 21.1513 39.6057 21.5927C39.7271 22.0025 39.9301 22.3868 40.2039 22.7252C40.4726 23.0519 40.8139 23.3192 41.204 23.5085C41.6443 23.7141 42.1306 23.8153 42.622 23.8034ZM42.6227 25.9437C41.8041 25.9526 40.9924 25.8021 40.2384 25.5017C39.5366 25.2218 38.9028 24.8101 38.3756 24.2917C37.85 23.7705 37.44 23.156 37.1694 22.484C36.8801 21.7658 36.7355 21.003 36.743 20.2349C36.7355 19.4666 36.8801 18.7037 37.1694 17.9852C37.44 17.3135 37.8498 16.6993 38.3749 16.1781C38.9001 15.6615 39.5305 15.2499 40.2286 14.9681C40.985 14.6663 41.7998 14.5157 42.6213 14.5261C43.4349 14.5185 44.2412 14.6718 44.9879 14.9761C45.6904 15.2621 46.324 15.6791 46.8506 16.202C47.3752 16.7279 47.7872 17.3442 48.0638 18.017C48.3577 18.7238 48.5059 19.4767 48.5008 20.2356C48.5083 21.0035 48.3632 21.766 48.074 22.484C47.8039 23.1541 47.3975 23.7679 46.8775 24.291C46.3548 24.8102 45.7236 25.2222 45.0238 25.5011C44.2644 25.8026 43.4468 25.9531 42.6227 25.9431" fill="white" fill-rule="evenodd"/>
</mask>
<g mask="url(#mask4_10362_3322)">
<mask height="26" id="mask5_10362_3322" maskUnits="userSpaceOnUse" style="mask-type:luminance" width="78" x="-1" y="7">
<path d="M-0.00195312 32.072H76.0601V7.95129H-0.00195312V32.072Z" fill="white"/>
</mask>
<g mask="url(#mask5_10362_3322)">
<path d="M34.8032 27.7701H50.4423V12.6979H34.8032V27.7701Z" fill="#171C1F"/>
</g>
</g>
<mask height="12" id="mask6_10362_3322" maskUnits="userSpaceOnUse" style="mask-type:luminance" width="7" x="49" y="14">
<path clip-rule="evenodd" d="M49.2365 15.7282C49.224 15.5641 49.249 15.3994 49.3098 15.2451C49.3705 15.0909 49.4655 14.9506 49.5883 14.8336C49.8297 14.6267 50.1467 14.5162 50.4729 14.5255C50.7992 14.5159 51.1171 14.6264 51.358 14.8336C51.4818 14.9503 51.5772 15.0905 51.6384 15.2447C51.6996 15.399 51.7255 15.5638 51.7135 15.7282V23.4694H54.6566C54.8443 23.4653 55.0306 23.4994 55.2025 23.5694C55.3467 23.6299 55.4741 23.7205 55.5751 23.8345C55.6669 23.9394 55.7369 24.0597 55.7813 24.189C55.8263 24.3157 55.8499 24.4483 55.8518 24.582C55.8258 24.8453 55.7063 25.0926 55.5126 25.2837C55.4032 25.3912 55.2707 25.4752 55.1233 25.5297C54.9764 25.5843 54.8188 25.6082 54.6608 25.5998H50.5262C50.3515 25.6096 50.1763 25.5845 50.0128 25.526C49.8492 25.4675 49.7004 25.3771 49.5762 25.2605C49.339 25.005 49.2171 24.6718 49.2379 24.3328L49.2365 15.7282Z" fill="white" fill-rule="evenodd"/>
</mask>
<g mask="url(#mask6_10362_3322)">
<mask height="26" id="mask7_10362_3322" maskUnits="userSpaceOnUse" style="mask-type:luminance" width="78" x="-1" y="7">
<path d="M-0.00146484 32.0721H76.0606V7.95129H-0.00146484V32.0721Z" fill="white"/>
</mask>
<g mask="url(#mask7_10362_3322)">
<path d="M47.2964 27.4241H57.7909V12.6979H47.2964V27.4241Z" fill="#171C1F"/>
</g>
</g>
<mask height="12" id="mask8_10362_3322" maskUnits="userSpaceOnUse" style="mask-type:luminance" width="12" x="56" y="14">
<path clip-rule="evenodd" d="M60.3143 21.2912H63.5517L61.9687 16.8925H61.9344L60.3143 21.2912ZM60.1271 15.7852C60.2721 15.4347 60.5126 15.1263 60.8241 14.8906C61.142 14.648 61.5405 14.5191 61.9497 14.5268C62.3631 14.5138 62.7676 14.6402 63.0906 14.8833C63.3983 15.1224 63.6333 15.4338 63.7718 15.7858L67.1084 24.0366C67.1599 24.1422 67.1969 24.2535 67.2187 24.3679C67.2326 24.4431 67.2414 24.519 67.2442 24.5952C67.2474 24.7326 67.2173 24.8689 67.1566 24.9937C67.0954 25.1185 67.0051 25.2286 66.892 25.3155C66.6635 25.5016 66.3697 25.6017 66.0676 25.5965C65.7733 25.6158 65.4814 25.538 65.2418 25.3765C65.0513 25.2256 64.9072 25.0292 64.8247 24.8079L64.3136 23.3819H59.5816L59.071 24.7927C58.9875 25.0156 58.8439 25.2142 58.6543 25.3692C58.4222 25.5343 58.1349 25.615 57.8448 25.5965C57.5199 25.6018 57.2043 25.4937 56.9587 25.293C56.8401 25.2012 56.7446 25.0853 56.6797 24.9539C56.6153 24.8225 56.5829 24.679 56.5852 24.5343C56.5829 24.4291 56.5972 24.3243 56.6288 24.2235C56.6482 24.1583 56.6737 24.0948 56.7048 24.034L60.1271 15.7852Z" fill="white" fill-rule="evenodd"/>
</mask>
<g mask="url(#mask8_10362_3322)">
<mask height="26" id="mask9_10362_3322" maskUnits="userSpaceOnUse" style="mask-type:luminance" width="78" x="-1" y="7">
<path d="M-0.00195312 32.0721H76.0601V7.95129H-0.00195312V32.0721Z" fill="white"/>
</mask>
<g mask="url(#mask9_10362_3322)">
<path d="M54.645 27.4241H69.1814V12.6979H54.645V27.4241Z" fill="#171C1F"/>
</g>
</g>
<mask height="12" id="mask10_10362_3322" maskUnits="userSpaceOnUse" style="mask-type:luminance" width="10" x="66" y="14">
<path clip-rule="evenodd" d="M70.2265 20.3933L67.13 16.3392C66.9789 16.1389 66.8992 15.8989 66.9015 15.6533C66.8964 15.3612 67.0137 15.079 67.2287 14.8681C67.3376 14.7597 67.4701 14.6745 67.617 14.618C67.7635 14.5616 67.9215 14.5352 68.08 14.5407C68.2765 14.53 68.4725 14.5663 68.6495 14.6462C68.827 14.7262 68.9799 14.8472 69.0939 14.998L71.4504 18.1834L73.8078 14.998C73.9218 14.8471 74.0747 14.726 74.2522 14.646C74.4297 14.566 74.6257 14.5298 74.8217 14.5407C74.9802 14.5353 75.1383 14.5617 75.2847 14.6182C75.4316 14.6746 75.5637 14.7598 75.6726 14.8681C75.8876 15.0788 76.0053 15.3611 75.9997 15.6533C76.0025 15.899 75.9228 16.1391 75.7713 16.3392L72.6785 20.3933V24.4594C72.6803 24.7395 72.5788 25.0115 72.3921 25.2294C72.2744 25.3517 72.1279 25.4464 71.9643 25.506C71.8007 25.5656 71.6247 25.5884 71.4504 25.5727C71.2762 25.5882 71.1005 25.5652 70.9369 25.5057C70.7738 25.4461 70.6278 25.3515 70.5101 25.2294C70.3238 25.0112 70.2237 24.7392 70.2265 24.4594V20.3933Z" fill="white" fill-rule="evenodd"/>
</mask>
<g mask="url(#mask10_10362_3322)">
<mask height="26" id="mask11_10362_3322" maskUnits="userSpaceOnUse" style="mask-type:luminance" width="78" x="-1" y="7">
<path d="M-0.00146484 32.0727H76.0606V7.9519H-0.00146484V32.0727Z" fill="white"/>
</mask>
<g mask="url(#mask11_10362_3322)">
<path d="M64.9609 27.4036H77.9407V12.7145H64.9609V27.4036Z" fill="#171C1F"/>
</g>
</g>
</g>
<defs>
<clipPath id="clip0_10362_3322">
<rect fill="white" height="24" transform="translate(0 8)" width="76"/>
</clipPath>
</defs>
</svg>