<?xml version="1.0" encoding="utf-8"?>
<svg xmlns="http://www.w3.org/2000/svg" fill="none" height="40" viewBox="0 0 131 40" width="131">
<g clip-path="url(#clip0_10362_3471)">
<path d="M101.91 14.9135L103.355 13.4981L101.91 12.0828L100.464 13.4981L101.91 14.9135Z" fill="#016B4E"/>
<path d="M103.896 13.4981L105.342 12.0828L106.788 13.4981L105.342 14.9135L103.896 13.4981Z" fill="#016B4E"/>
<path d="M98.4308 13.498H88.9897V15.8423H92.3325V26.0154H95.088V15.8423H98.4308V13.498Z" fill="#016B4E"/>
<path d="M117.448 23.052H119.21V15.8424H110.266V26.0155H113.021V23.0078H114.196L116.409 26.0155H119.616L117.448 23.0078V23.052ZM116.409 20.7078H113.021V18.2309H116.409V20.7078Z" fill="#016B4E"/>
<path d="M121.379 26.0597H124.134V22.0789H126.258C127.432 22.0789 128.064 22.0789 128.064 23.2289V26.0597H130.865V23.1847C130.865 21.1501 130.549 20.1328 128.155 19.8231L131.046 15.8866H127.793L124.993 19.7347H124.18V15.8866H121.424V26.0597H121.379Z" fill="#016B4E"/>
<path d="M105.342 22.477V15.8424H108.143V22.6539C108.143 25.352 106.833 26.1482 103.806 26.1482C100.78 26.1482 99.1987 25.1309 99.1987 22.6539V15.8424H101.954V22.5655C101.954 23.7155 102.632 23.7155 103.806 23.7155C104.981 23.7155 105.387 23.627 105.387 22.4328L105.342 22.477Z" fill="#016B4E"/>
<path d="M74.2184 19.7789C73.0439 19.7789 72.3664 19.7789 72.3664 18.6289V15.8866H69.6108V18.6731C69.6108 20.7962 69.927 21.8578 72.6826 22.0789V26.0597H75.4381V22.0789C77.6064 21.8578 78.555 20.9731 78.555 18.6731V15.8866H75.7995V18.4962C75.7995 19.6904 75.3929 19.7789 74.2184 19.7789Z" fill="#016B4E"/>
<path d="M67.8946 18.0982H63.1515V19.8232H67.5784V22.0347H63.1515V23.8039H67.985V26.0155H60.396V15.8424H67.8946V18.0539V18.0982Z" fill="#016B4E"/>
<path d="M44.3139 23.8481H40.8808V15.8866H38.0801V26.0597H47.0694V15.8866H44.2687V23.8481H44.3139Z" fill="#016B4E"/>
<path d="M88.3119 18.2308H85.6468V26.0597H82.8912V18.2308H80.2261V15.8866H88.3119V18.2308Z" fill="#016B4E"/>
<path d="M26.4712 26.148H29.2267V20.973H31.3498C32.5243 20.973 33.2019 20.973 33.2019 22.123V26.148H35.9574V22.0787C35.9574 20.0441 35.6412 18.9826 33.1567 18.673L36.1381 13.5864H32.9308L30.0398 18.5845H29.2719V13.5864H26.5164V26.148H26.4712Z" fill="#016B4E"/>
<path d="M52.039 15.8424V20.0001C52.039 21.4155 52.4003 22.3001 53.349 23.3174L53.7555 23.7155L54.1621 23.3174C55.1107 22.3443 55.4269 21.4155 55.4269 20.0001V15.8424H58.1824V20.0001C58.1824 23.5828 56.2852 24.9539 55.2462 26.0597H52.1745C51.0904 24.9539 49.2383 23.5828 49.2383 20.0001V15.8424H51.9938H52.039Z" fill="#016B4E"/>
<path d="M11.0673 29.5538L9.93802 30.2173L9.21526 28.4923L11.0673 29.5538ZM9.3056 24.7769L11.0673 25.8384L10.0284 26.5461L9.3056 24.7769ZM9.26043 21.0173L11.1125 22.1231L10.0284 22.9192L9.26043 21.0173ZM12.1966 24.0692L14.0035 22.9634L13.2808 24.7769L12.1515 24.0692H12.1966ZM9.26043 26.6346L12.6935 28.6692L11.6546 29.3327L9.89284 28.3596L9.26043 26.6346ZM10.6156 26.7673L14.0035 24.7769L13.4615 26.3692L11.6997 27.5192L10.6156 26.7231V26.7673ZM9.26043 22.9634L12.6935 24.9096L11.5642 25.6615L9.84767 24.6442L9.26043 22.9634ZM10.5704 23.0961L14.0035 21.0615L13.3711 22.7865L11.6997 23.7596L10.5704 23.0519V23.0961ZM10.4801 21.15H12.7839L11.6997 21.9904L10.4801 21.15ZM12.1966 27.6519L14.0035 26.5461L13.2808 28.3596L12.1515 27.6519H12.1966ZM11.6094 19.8673C11.6094 19.8673 9.75733 14.6481 9.39595 13.5865C9.26043 13.1442 9.17008 12.7904 9.48629 12.4365L11.6094 9.69421L13.7325 12.4365C14.0035 12.7904 13.9584 13.1442 13.8228 13.5865C13.4615 14.6481 11.6094 19.8673 11.6094 19.8673ZM22.0442 20.4865H12.2418L16.7139 18.2308C19.1984 16.9923 20.0115 18.0096 20.9601 19.1154L22.0894 20.4423L22.0442 20.4865ZM12.0159 20L15.0877 14.6038C15.4942 13.8961 16.488 13.5423 17.3915 14.0731L20.8697 16.1077H19.1532C18.3853 16.1077 17.798 16.4173 17.2108 16.7269L12.0159 20ZM1.12939 20.4865L2.2587 19.1596C3.16215 18.0538 3.97526 16.9923 6.50491 18.275L10.977 20.5308H1.12939V20.4865ZM11.1577 20L5.96284 16.7269C5.42077 16.3731 4.78836 16.1077 4.02043 16.1077H2.30388L5.78215 14.0731C6.6856 13.5423 7.67939 13.8961 8.08595 14.6038L11.1577 20ZM10.4349 30.6154L14.0035 28.5365L13.3259 30.5711C12.7839 30.6596 12.1966 30.7038 11.6546 30.7038C11.1125 30.7038 10.8415 30.7038 10.4349 30.6596V30.6154Z" fill="#016B4E"/>
<path d="M11.6098 8.5C5.19532 8.5 0.000488281 13.5865 0.000488281 19.8673C0.000488281 26.1481 5.19532 31.2346 11.6098 31.2346C18.0243 31.2346 23.2191 26.1481 23.2191 19.8673C23.2191 13.5865 18.0243 8.5 11.6098 8.5ZM11.6098 30.6596C5.51152 30.6596 0.58773 25.8385 0.58773 19.8231C0.58773 13.8077 5.51152 9.03077 11.6098 9.03077C17.7081 9.03077 22.677 13.8962 22.677 19.8673C22.677 25.8385 17.7081 30.7038 11.6098 30.7038V30.6596Z" fill="#016B4E"/>
</g>
<defs>
<clipPath id="clip0_10362_3471">
<rect fill="white" height="23" transform="translate(0 8.5)" width="131"/>
</clipPath>
</defs>
</svg>