<?xml version="1.0" encoding="utf-8"?>
<!-- Generator: Adobe Illustrator 27.6.1, SVG Export Plug-In . SVG Version: 6.00 Build 0)  -->
<svg version="1.1" baseProfile="tiny" id="Layer_1" xmlns="http://www.w3.org/2000/svg" xmlns:xlink="http://www.w3.org/1999/xlink"
	 x="0px" y="0px" viewBox="0 0 1024 263" overflow="visible" xml:space="preserve">
<g>
	<path fill="#E31D93" d="M193,113.6l-29.5-29.5c-2.8-2.8-2.8-7.4,0-10.2L193,44.4c2.8-2.8,7.3-2.8,10.2,0l29.5,29.5
		c2.8,2.8,2.8,7.4,0,10.2l-29.5,29.5C200.3,116.4,195.8,116.4,193,113.6L193,113.6z M185.5,77.1c-1,1-1,2.7,0,3.7l10.7,10.7
		c1,1,2.7,1,3.7,0l10.7-10.7c1-1,1-2.7,0-3.7l-10.7-10.7c-1-1-2.7-1-3.7,0L185.5,77.1L185.5,77.1z"/>
	<path fill="#194F90" d="M196.2,146.3c1-1,2.7-1,3.7,0l10.7,10.7c1,1,1,2.7,0,3.7l-10.7,10.7c-1,1-2.7,1-3.7,0l-10.7-10.7
		c-1-1-1-2.7,0-3.7L196.2,146.3L196.2,146.3z M158,133.4c1-1,1-2.7,0-3.7l-10.7-10.7c-1-1-2.7-1-3.7,0l-10.7,10.7c-1,1-1,2.7,0,3.7
		l10.7,10.7c1,1,2.7,1,3.7,0L158,133.4L158,133.4z M238.1,129.8c-1,1-1,2.7,0,3.7l10.7,10.7c1,1,2.7,1,3.7,0l10.7-10.7
		c1-1,1-2.7,0-3.7l-10.7-10.7c-1-1-2.7-1-3.7,0L238.1,129.8L238.1,129.8z M203.1,218.8c-2.8,2.8-7.4,2.8-10.2,0l-29.5-29.5
		L137,162.8l-26.1-26.1c-2.8-2.8-2.8-7.4,0-10.2L140.4,97c2.8-2.8,7.4-2.8,10.2,0l29.5,29.5c2.8,2.8,2.8,7.3,0,10.2l-17.9,17.9
		c-1.7,2.7-1.3,6.3,1,8.6l8.1,8.1l22,22c2.6,2.6,6.9,2.6,9.5,0l6.2-6.2l24.2-24.2c2.1-2.2,2.4-5.6,0.9-8.1l-18.1-18.1
		c-2.8-2.8-2.8-7.4,0-10.2L245.5,97c2.8-2.8,7.4-2.8,10.2,0l29.5,29.5c2.8,2.8,2.8,7.4,0,10.2l-29.5,29.5l-23.1,23.1L203.1,218.8
		L203.1,218.8z M669.7,154.6c-0.4-1.2-1.5-2.1-2.8-2.1h-15.1c-1.2,0-2.3,0.8-2.7,1.9l-3.3,11.1c-0.3,1-1.1,1.8-2.1,2l-11,0.1
		c-1.5-0.2-2.6-1.4-2.6-2.9c0-0.3,0.1-0.6,0.1-0.9l20.9-65.1c0.4-1.2,1.5-2,2.8-2h2.1h7.2h1.6c1.3,0,2.4,0.8,2.7,2l20.9,65.1
		c0.1,0.3,0.2,0.6,0.2,0.9c0,1.6-1.3,2.9-2.9,2.9h-10.1c-1.3,0-2.5-0.9-2.8-2.1L669.7,154.6L669.7,154.6z M653.6,139.3h11.7
		l-5.8-19.9L653.6,139.3L653.6,139.3z M326.9,165.6L306,100.9c-0.1-0.3-0.1-0.6-0.1-0.9c0-1.6,1.3-2.9,2.9-2.9l10,0
		c1.4,0,2.5,0.9,2.9,2.1l13.3,45.7l13.7-45.7c0.4-1.2,1.5-2.1,2.8-2.1h10c1.6,0,2.9,1.3,2.9,2.9c0,0.3,0,0.6-0.1,0.9l-20.9,64.7
		c-0.4,1.1-1.5,2-2.7,2h-10.9C328.4,167.6,327.3,166.7,326.9,165.6L326.9,165.6z M493.9,96.7c1.3,0,2.3,1.4,2.3,3.1v64.7
		c0,1.7-1,3.1-2.3,3.1h-10.1c-1.3,0-2.3-1.4-2.3-3.1V99.8c0-1.7,1-3.1,2.3-3.1H493.9L493.9,96.7z M451.4,134.1l24.2,30.1
		c0.7,0.8,0.9,1.7,0.6,2.4c-0.3,0.6-0.8,0.9-1.5,0.9h-12.3c-1.8,0-2.9-1.2-4.1-2.7l-7.1-8.6l-12-14.7l-4.5,6v16.9
		c0,1.7-1,3.1-2.3,3.1h-10.1c-1.3,0-2.3-1.4-2.3-3.1V99.8c0-1.7,1-3.1,2.3-3.1h10.1c1.3,0,2.3,1.4,2.3,3.1v23.4c0,0,0.1,0.9,0.6,0.9
		c0.2,0,0.8-0.2,2.1-1.6l15-17.9l4.2-5.2c1.2-1.4,2.3-2.7,4.1-2.7H473c0.8,0,1.6,0.5,2,1.2c0.2,0.4,0.4,1.2-0.4,2.2l-23.4,27.5
		C448.6,130.2,451,133.6,451.4,134.1L451.4,134.1z M525.1,139.1l-1.5,0c-1.3,0-2.3,1.4-2.3,3.1v2.1c0,0,0,0,0,17.1v3
		c0,1.7-1,3.1-2.3,3.1h-9.6c-1.3,0-2.3-1.4-2.3-3.1V117v-0.7V99.8c0-1.7,1-3.1,2.3-3.1h4.2h3.4l18,0l13.5,0c1.7,0,3.1,1,3.1,2.3v8.7
		c0,1.3-1.4,2.3-3.1,2.3l-19.2,0h-5.7c-1.3,0-2.3,1.4-2.3,3.1v2v2.7v5.3c0,1.2,1.1,2.1,2.6,2.3l19.5,0c1.7,0,3.1,1,3.1,2.3v8.9
		c0,1.3-1.4,2.3-3.1,2.3H525.1L525.1,139.1z M759.2,96.7c1.3,0,2.3,1.4,2.3,3.1v64.7c0,1.7-1,3.1-2.3,3.1h-10.1
		c-1.3,0-2.3-1.4-2.3-3.1V99.8c0-1.7,1-3.1,2.3-3.1H759.2L759.2,96.7z M836.7,96.7c1.3,0,2.3,1.4,2.3,3.1v64.7c0,1.7-1,3.1-2.3,3.1
		h-10.1c-1.3,0-2.3-1.4-2.3-3.1V99.8c0-1.7,1-3.1,2.3-3.1H836.7L836.7,96.7z M604.7,134.1l24.2,30.1c0.7,0.8,0.9,1.7,0.6,2.4
		c-0.3,0.6-0.8,0.9-1.5,0.9h-12.3c-1.8,0-2.9-1.2-4.1-2.7l-7.1-8.6l-12-14.7l-4.5,6v16.9c0,1.7-1,3.1-2.3,3.1h-10.1
		c-1.3,0-2.3-1.4-2.3-3.1V99.8c0-1.7,1-3.1,2.3-3.1h10.1c1.3,0,2.3,1.4,2.3,3.1v23.4c0,0,0.1,0.9,0.6,0.9c0.2,0,0.8-0.2,2.1-1.6
		l15-17.9l4.2-5.2c1.2-1.4,2.3-2.7,4.1-2.7h12.3c0.8,0,1.6,0.5,2,1.2c0.2,0.4,0.4,1.2-0.4,2.2l-23.4,27.5
		C601.9,130.2,604.4,133.6,604.7,134.1L604.7,134.1z M813.8,154.2c1.7,0,3.1,1,3.1,2.3v8.7c0,1.3-1.4,2.3-3.1,2.3l-13.5,0h-18h-3.4
		h-4.2c-1.3,0-2.3-1.4-2.3-3.1V148v-0.7V99.8c0-1.7,1-3.1,2.3-3.1h9.6c1.3,0,2.3,1.4,2.3,3.1v3l0,17.1v5.2V141v5.3v2.7v2
		c0,1.7,1,3.1,2.3,3.1h5.7L813.8,154.2L813.8,154.2z M912.8,96.7c1.3,0,2.3,1.4,2.3,3.1v64.7c0,1.7-1,3.1-2.3,3.1h-10.1
		c-1.3,0-2.3-1.4-2.3-3.1v-36.8l-15.7,25.6c-0.7,1.2-3.2,1.2-4,0L865,127.6v36.8c0,1.7-1,3.1-2.3,3.1h-10.1c-1.3,0-2.3-1.4-2.3-3.1
		V99.8c0-1.7,1-3.1,2.3-3.1l7.3,0c1,0,2.5,0.9,3.2,2.4l19.4,34.7L902,99.6c0.5-1.8,2.2-2.9,3.4-2.9L912.8,96.7L912.8,96.7
		L912.8,96.7z M736.2,96.7c1.7,0,3.1,1,3.1,2.3v10.1c0,1.3-1.4,2.3-3.1,2.3h-16.2c-1.6,0-2.8,1.3-2.8,2.8l0,50.2
		c0,1.7-1,3.1-2.3,3.1h-10.1c-1.3,0-2.3-1.4-2.3-3.1l0-50.2c0-1.6-1.3-2.8-2.8-2.8h-16.2c-1.7,0-3.1-1-3.1-2.3V99
		c0-1.3,1.4-2.3,3.1-2.3l21.4,0h10.1H736.2L736.2,96.7z M379.9,139.3h11.7l-5.8-19.9L379.9,139.3L379.9,139.3z M396,154.6
		c-0.4-1.2-1.5-2.1-2.8-2.1h-15.1c-1.2,0-2.3,0.8-2.7,1.9l-3.3,11.1c-0.3,1-1.1,1.8-2.1,2l-11,0.1c-1.4-0.2-2.6-1.4-2.6-2.9
		c0-0.3,0-0.6,0.1-0.9l20.9-65.1c0.4-1.2,1.5-2,2.8-2h2.1h7.2h1.6c1.3,0,2.4,0.8,2.7,2l20.9,65.1c0.1,0.3,0.2,0.6,0.2,0.9
		c0,1.6-1.3,2.9-2.9,2.9h-10.1c-1.3,0-2.5-0.9-2.8-2.1L396,154.6L396,154.6z"/>
</g>
</svg>
