<?xml version="1.0" encoding="utf-8"?>
<!-- Generator: Adobe Illustrator 27.1.1, SVG Export Plug-In . SVG Version: 6.00 Build 0)  -->
<svg version="1.1" id="Layer_1" xmlns="http://www.w3.org/2000/svg" xmlns:xlink="http://www.w3.org/1999/xlink" x="0px" y="0px"
	 viewBox="0 0 3840 1280" style="enable-background:new 0 0 3840 1280;" xml:space="preserve">
<style type="text/css">
	.st0{fill-rule:evenodd;clip-rule:evenodd;fill:#005699;}
	.st1{fill:#FFFFFF;}
	.st2{fill-rule:evenodd;clip-rule:evenodd;fill:#CE2145;}
</style>
<g>
	<path class="st0" d="M688.9,802.4c6.3-133.3-66.1-215.1-157.9-215.1c-82.2,0-148.2,73.7-148.2,191.7
		c0,122.6,74.3,180.3,155.5,180.3c59.3,0,128.8-39.5,145.3-125.3h-122c-2.4,16.8-12.1,29.5-25.3,29.5c-26.2,0-29.7-32.1-29.7-61
		 M506.7,728.7c0-24.8,9.2-46.3,28.2-46.3c18,0,30.6,22.1,30.6,46.3H506.7z"/>
	<path class="st0" d="M853.1,595.3H730.6v355.8H856V777.6c0-20.8,0-50.3,20.9-50.3c21.4,0,21.4,29.5,21.4,50.3v173.6h125.4V732.1
		c0-78.4-25.3-144.8-89.4-144.8c-40.3,0-58.8,26.1-83.1,65h-2.9"/>
	<polyline class="st0" points="1499.3,615.5 1499.3,595.3 1233.5,595.3 1233.5,707.5 1294.2,707.5 1322.9,702.8 1322.9,705.5 
		1220.9,927.1 1220.9,951.2 1492.9,951.2 1492.9,838 1421.5,838 1395.8,842 1395.8,838 1422.5,772.3 	"/>
	<path class="st0" d="M2395.9,595.3h-132.5v355.8h135.4V777.6c0-20.8,0-50.3,20.9-50.3c21.4,0,21.4,29.5,21.4,50.3v173.6h125.4
		V732.1c0-78.4-25.3-144.8-89.4-144.8c-40.3,0-58.8,26.1-83.1,65h-2.9"/>
	<polyline class="st0" points="2603.4,951.2 2731.4,951.2 2731.6,772.6 2791.7,951.2 2943.1,951.2 2848.3,753.4 2941,595.3 
		2794.2,595.3 2736.9,745.7 2728.7,727.4 2728.7,449.2 2603.4,449.2 	"/>
	<path class="st0" d="M1673.7,639.6v-71.7h9.2c19.5,0,44.2-2.7,44.2,34.2c0,34.8-21.9,37.6-41.3,37.6 M1538.9,951.2h208.9
		c64.1,0,134.1-35.5,134.1-139.4c0-61-24.6-94.3-72.7-119.9c53.5-30.8,61.1-57,61.1-101.2c0-104.8-99.3-144.8-148.7-144.8h-182.7
		V951.2z M1673.7,746.2h13.1c21.4,0,55.4-0.7,55.4,41.5c0,42.2-31.6,42.9-53.4,42.9h-15.1V746.2z"/>
	<path class="st0" d="M2091.2,951.2h134.4V595.4h-134.4l3.9,42.2h-2.9c-18.4-34.8-44.2-50.3-75.3-50.3
		c-81.7,0-112.2,97.8-112.2,187.6c0,86.4,38.9,184.3,108.8,184.3c35.5,0,55.9-21.5,78.7-55h2.9 M2029,771.6
		c0-26.1,12.6-69.3,32.5-69.3c19.9,0,33.5,40.4,33.5,67.9c0,27.5-6.3,75.4-30.1,75.4C2042.2,845.7,2029,799.8,2029,771.6"/>
	<path class="st0" d="M14.1,951.2h168.6c107.4,0,184.2-95.2,184.2-245.3c0-185.6-94.3-260-217.2-260H14.1 M147.3,568.9h8.2
		c48.6,0,78.3,65.3,78.3,136.4c0,66.3-34,121.2-78.3,121.2h-8.2V568.9z"/>
	<path class="st0" d="M1075.3,563H1187V453.6h-111.8V563z M1068.5,951.2h125.4V595.3h-125.4V951.2z"/>
	<path class="st1" d="M3093.4,584.6c8.2-46.9,26.2-90.3,52-128l-34-34.3c-22.6-22.7-22.8-59.4-0.4-82c22.3-22.5,58.8-22.3,81.3,0.5
		l33.5,33.7c37.8-27,81.6-45.9,128.9-54.6v-45.1c0-32.1,25.7-58.2,57.3-58.2c31.6,0,57.2,26.1,57.2,58.2v44.7
		c48.1,8.5,92.5,27.6,130.8,54.9l30.4-30.6c22.6-22.7,59-22.9,81.4-0.5c22.4,22.5,22.1,59.2-0.4,81.9l-30.9,31.1
		c25.8,37.7,43.8,81.1,52,128h35.7c31.9,0,57.8,25.8,57.8,57.6s-25.9,57.6-57.8,57.6h-36c-8.6,47.7-27.5,91.8-54.2,129.9l27.3,27.5
		c22.6,22.8,22.8,59.4,0.4,82c-22.3,22.5-58.8,22.3-81.3-0.5l-27.8-28c-37.5,25.9-80.6,44.1-127.2,52.3v42.2
		c0,32.2-25.6,58.3-57.2,58.3c-31.6,0-57.3-26.1-57.3-58.3v-42.5c-45.8-8.3-88.3-26.4-125.3-52l-31,31.1
		c-22.6,22.8-59,22.9-81.4,0.4c-22.3-22.5-22.1-59.2,0.5-81.9l30.4-30.6c-26.8-38.1-45.7-82.2-54.2-129.9l-3.1,0.1h-47.9
		c-31.9,0-57.8-25.8-57.8-57.6s25.9-57.6,57.8-57.6h47.9"/>
	<path class="st2" d="M3221.8,619.4c4-36.1,18-69.3,39-96.6l68.7,69c-5,8.5-8.7,17.8-11,27.7 M3293.2,489.7c26-20.8,57.5-35,91.8-40
		l0.1,98.2c-8.3,2.5-16.2,6.1-23.4,10.7L3293.2,489.7z M3431.4,448.6c38.8,3.7,74.2,19,102.8,42.5l-68.4,68.7
		c-10.2-6.7-21.8-11.6-34.3-14L3431.4,448.6z M3566.2,524.4c20.4,27.1,34,59.9,37.8,95.5l-96.8-0.1c-2.1-9.3-5.5-18.1-10-26.2
		L3566.2,524.4z M3603.6,666.2c-4.5,35.7-18.8,68.3-39.9,95.1l-68.6-68.8c5-8.1,8.8-17,11.3-26.4L3603.6,666.2z M3530.9,794.1
		c-27.9,21.9-62,36.2-99.1,39.9l-0.1-97.1c10.9-2.2,21.2-6.2,30.5-11.8L3530.9,794.1z M3385.5,832.9c-33.2-4.8-63.7-18-89.1-37.6
		l68.9-69.2c6.3,3.6,13,6.4,20.1,8.6L3385.5,832.9z M3263.3,763c-21.9-27.3-36.7-60.7-41.2-97.3l97.2,0.2
		c2.6,10.2,6.9,19.8,12.5,28.4L3263.3,763z M3120.2,674.4h-68.7c-21.3,0-38.6-14.4-38.6-32.2c0-17.8,17.3-32.2,38.6-32.2h68.5
		c6-57.3,28.2-109.8,61.9-152.6l-46.5-46.7c-15.1-15.1-17.1-37.7-4.6-50.3c12.5-12.6,34.9-10.5,49.9,4.7l46.1,46.5
		c42.8-35.2,95.6-58.4,153.4-64.9l-0.2-62.9c0-21.4,14.3-38.8,32-38.8c17.7,0,32,17.4,32,38.8v62.7c58.5,6.2,111.9,29.6,155.2,65.2
		l42.9-43.5c15-15.1,37.4-17.2,49.9-4.7c12.5,12.6,10.4,35.1-4.6,50.3l-43.4,43.7c33.7,42.8,55.8,95.3,61.8,152.5h56.7
		c21.3,0,38.5,14.4,38.5,32.2c0,17.8-17.3,32.2-38.5,32.2h-56.9c-6.4,58.1-29.5,111.1-64.3,154.1l42.1,42.6
		c15.1,15.2,17.1,37.7,4.6,50.2c-12.5,12.6-34.8,10.6-49.9-4.6l-42.5-42.8c-42.5,33.9-94.5,56.2-151.4,62.3l-0.2,63.3
		c0,21.5-14.3,38.8-32,38.8c-17.7,0-32-17.4-32-38.8v-63.5c-56.2-6.3-107.5-28.5-149.6-61.9l-45.8,45.9c-15,15.1-37.4,17.2-49.9,4.6
		c-12.5-12.6-10.5-35.1,4.6-50.3l45.3-45.6C3149.7,785.6,3126.6,732.6,3120.2,674.4"/>
</g>
</svg>
