<?xml version="1.0" encoding="UTF-8"?>
<svg id="Layer_1" xmlns="http://www.w3.org/2000/svg" version="1.1" viewBox="0 0 492 186">
  <!-- Generator: Adobe Illustrator 29.5.1, SVG Export Plug-In . SVG Version: 2.1.0 Build 141)  -->
  <defs>
    <style>
      .st0 {
        fill: #1e1e1b;
      }
    </style>
  </defs>
  <path class="st0" d="M124,114.1c0,20.1-9.9,30.2-22.8,30.2s-22.8-10.3-22.8-30.6c0-20.3,11.5-29,23.2-29s22.4,10.3,22.4,29.4M151.1,112.8c0-34-18.7-49.5-47.6-49.5-31,0-52.2,22.2-52.2,53.1,0,35.2,18.7,49.7,47.6,49.7s52.2-22.3,52.2-53.3M223.7,112.7c0,16.8-8.2,32.3-21.9,32.3s-17.5-9.5-17.5-28c0-24.4,10.7-33.5,25.6-33.5,4.5,0,9,.6,13.7,1.6v27.6h0ZM226.6,164.1h23.4V19h-26.3v45c-4.5-.6-8.6-.8-12.9-.8-33.8,0-53.9,23-53.9,56.3,0,28.2,12.3,46.4,37.1,46.4,15.6,0,26.9-7.7,32.2-18.7h.4v16.7ZM323.1,101.5h-37.5c1.4-11.9,9-19.6,19.9-19.6s18,7.3,17.6,19.6ZM348.3,118.8c.6-4.2.8-8.2.8-11.5,0-24.4-13.1-44-42.8-44-30.5,0-47.8,22.2-47.8,52.4,0,34.7,18.1,50.4,50.4,50.4,12.7,0,25.6-2.2,36.4-6.4l-2.4-19.7c-8.8,4-19.7,6.2-29.7,6.2-18.9,0-28.3-8.9-28.1-27.4h63.1ZM415.1,122.7c0,11.9-8.8,23.8-21.7,23.8-7.6,0-12.1-4.2-12.1-10.5s6.2-15.7,33.8-15.7v2.4h0ZM418.2,164h23.2c0-2,0-19.4,0-19.4v-47.1c0-21.6-9.2-34.3-42-34.3s-26.2,2.5-36.5,6.1l2.2,21.3c8.6-4.8,20.9-7.8,30.1-7.8,14.8,0,19.9,5.4,19.9,15.7v5.3c-34.6,0-58.8,12.5-58.8,36.1,0,15.9,10.7,26,29.1,26s27.7-7.8,32.6-18.9h.3v16.9h0Z"/>
</svg>