<?xml version="1.0" encoding="utf-8"?>
<!-- Generator: Adobe Illustrator 28.1.0, SVG Export Plug-In . SVG Version: 6.00 Build 0)  -->
<svg version="1.1" id="Layer_1" xmlns="http://www.w3.org/2000/svg" xmlns:xlink="http://www.w3.org/1999/xlink" x="0px" y="0px"
	 viewBox="0 0 3664.5 1840.2" style="enable-background:new 0 0 3664.5 1840.2;" xml:space="preserve">
<style type="text/css">
	.st0{fill:#00FF00;}
	.st1{fill:#FFFFFF;}
	.st2{fill:#2C2927;}
</style>
<g id="Clip-13">
</g>
<g>
	<g id="Clip-13_00000089576496151007040490000000326800567879164806_">
	</g>
	<path class="st0" d="M2944.3,1461.2H716.2c-383.3,0-697.3-314.1-697.3-697.3v-14.6C18.9,366.1,332.9,52,716.2,52h2228.8
		c383.3,0,697.3,314.1,697.3,697.3v14.6c0,383.3-314.1,697.3-697.3,697.3"/>
	<path class="st1" d="M1618.9,196.7H723.2c-308.9,0-560,251.1-560,560s251,560.2,560,560.2c12.7,0,317.2,0,329.9-1.3h528.3
		c12.7,0.6,24.7,1.3,37.5,1.3c308.9,0,560-251.1,560-560S1927.8,196.7,1618.9,196.7"/>
	<path class="st2" d="M2586.4,354.5l245.4,368.1c7,10.2,22.9,5.1,22.9-7V379.2c0-25.5,20.3-45.8,45.8-45.8h190.8
		c25.5,0,45.8,20.3,45.8,45.8v754c0,25.5-20.3,45.8-45.8,45.8h-211.7c-15.3,0-29.2-7.6-38.2-20.3L2596,790.5
		c-7-10.2-22.9-5.1-22.9,7v335.6c0,25.5-20.3,45.8-45.8,45.8h-190.8c-25.5,0-45.8-20.3-45.8-45.8v-754c0-25.5,20.3-45.8,45.8-45.8
		h211.7c15.3,0,29.2,7.6,38.2,20.3"/>
	<path class="st2" d="M1618.9,309.3c-247.3,0-447.5,200.2-447.5,447.5s200.2,447.5,447.5,447.5s447.5-200.2,447.5-447.5
		S1866.2,309.3,1618.9,309.3"/>
	<path class="st2" d="M638,1596h85.2c20.3,0,38.2,3.9,54.1,11.4s28,18.4,36.2,33c8.9,14,12.7,30.5,12.7,49.6
		c0,19-4.4,34.9-12.7,49.6c-8.9,14-21,24.7-36.2,33c-15.9,7.6-33.8,11.4-54.1,11.4H638v-187.5V1596z M721.2,1747.8
		c18.4,0,33.8-5.1,45.2-15.9c11.4-10.2,16.6-24.7,16.6-42.6c0-17.7-5.7-31.7-16.6-42.6c-11.4-10.2-26-15.9-45.2-15.9h-39.5v116.3
		h39.5V1747.8z"/>
	<path class="st2" d="M838.2,1572.5c-4.4-4.4-6.3-9.6-6.3-16.6c0-7,1.9-12,6.3-15.9c4.4-4.4,9.6-6.3,15.9-6.3s12,1.9,15.9,6.3
		c4.4,4.4,6.3,9.6,6.3,15.9c0,6.3-1.9,12-6.3,16.6c-4.4,4.4-9.6,6.3-15.9,6.3S842.1,1576.9,838.2,1572.5z M832.5,1595.4h43.2v187.5
		h-43.2V1595.4z"/>
	<path class="st2" d="M917.7,1779.7c-10.9-4.4-19-11.4-26-20.3l24.2-29.2c10.2,14,21.6,20.3,34.9,20.3c17.7,0,26.7-10.2,26.7-31.2
		v-89.1h-66.1v-34.9h109.4v121.4c0,22.9-5.7,40-17.2,52.2c-11.4,11.4-28,17.2-50.2,17.2c-12.7,0-24.2-2.6-34.9-7L917.7,1779.7z"/>
	<path class="st2" d="M1046.1,1572.5c-4.4-4.4-6.3-9.6-6.3-16.6c0-7,1.9-12,6.3-15.9c4.4-4.4,9.6-6.3,15.9-6.3
		c6.3,0,12,1.9,15.9,6.3c4.4,4.4,6.3,9.6,6.3,15.9c0,6.3-1.9,12-6.3,16.6c-4.4,4.4-9.6,6.3-15.9,6.3
		C1055.6,1578.8,1049.9,1576.9,1046.1,1572.5z M1040.4,1595.4h43.2v187.5h-43.2V1595.4z"/>
	<path class="st2" d="M1164.3,1631h-59.8v-35.6H1268v35.6h-59.8v151.9H1165V1631H1164.3z"/>
	<path class="st2" d="M1376.6,1742.8h-87.1l-16.6,40h-44.5l83.2-187.5h42.6l83.9,187.5h-45.8l-16.6-40H1376.6z M1363.3,1709.8
		l-29.9-71.8l-29.9,71.8C1303.6,1709.8,1363.3,1709.8,1363.3,1709.8z"/>
	<path class="st2" d="M1454.2,1596h43.2v151.9h94.1v35.6h-137.3V1596z"/>
	<path class="st2" d="M1723.2,1608.1c10.9,8.3,15.9,19.7,15.9,34.3c0,10.9-3.1,20.3-8.9,28c-6.3,7.6-14.6,12-25.5,14.6
		c13.3,1.9,24.2,7,31.7,15.3c7.6,8.3,11.4,19,11.4,31.7c0,15.9-5.7,28.6-17.7,37.5c-12,8.9-28.6,13.3-49.6,13.3h-80.1v-187.5h78.8
		c19,0,33.8,4.4,44.5,12.7L1723.2,1608.1L1723.2,1608.1z M1621.5,1676.8h56.6c12.7,0,22.3-2.6,29.2-7.6c7-5.1,10.2-12.7,10.2-22.9
		s-3.1-16.6-10.2-22.3c-7-5.1-16.6-7.6-29.2-7.6h-56.6C1621.5,1616.3,1621.5,1676.8,1621.5,1676.8z M1621.5,1763.1h56.6
		c15.3,0,27.3-3.1,35.6-8.9c8.3-5.7,12.7-14,12.7-24.7c0-10.7-4.4-18.4-12.7-23.5c-8.3-5.7-20.3-8.3-35.6-8.3h-56.6V1763.1z"/>
	<path class="st2" d="M1796.8,1735.8l-21,47.1h-22.9l83.9-187.5h22.3l83.9,187.5h-23.5l-21-47.1h-102.4H1796.8z M1847.7,1620.1
		l-41.9,95.4h83.9l-42.6-95.4H1847.7z"/>
	<path class="st2" d="M2096.3,1783.5l-112.6-150.6v150.6h-21.6V1596h22.3l112.6,150.6V1596h21v187.5h-22.3H2096.3z"/>
	<path class="st2" d="M2195.4,1694.5l-36.2,40v48.9h-21.6V1596h21.6v108.1l100.4-108.1h25.5l-74.4,81.4l80.1,106.1h-26
		C2264.8,1783.5,2195.5,1694.5,2195.4,1694.5z"/>
	<path class="st2" d="M2350.6,1735.8l-21,47.1h-22.9l83.9-187.5h22.3l83.9,187.5h-23.5l-21-47.1H2350H2350.6z M2401.5,1620.1
		l-41.9,95.4h83.9l-42.6-95.4H2401.5z"/>
	<path class="st2" d="M2619.4,1602.4c12,5.1,22.3,11.4,31.7,20.3l-12.7,16.6c-7.6-7.6-15.9-13.3-25.5-17.2s-19.7-6.3-29.9-6.3
		c-14,0-26.7,3.1-38.2,10.2c-11.4,6.3-21,15.3-28,26.7s-10.2,23.5-10.2,37.5c0,14,3.1,26,10.2,36.9c7,11.4,15.9,20.3,28,26.7
		c11.4,6.3,24.7,10.2,38.2,10.2c10.2,0,20.3-1.9,29.9-5.7c9.6-3.9,18.4-9.6,25.5-16.6l13.3,14.6c-9.6,8.9-20.3,15.9-32.5,21
		c-12,5.1-24.7,7.6-37.5,7.6c-17.7,0-33.8-4.4-48.9-12.7c-14.6-8.3-26.7-19.7-34.9-34.3c-8.3-14.6-12.7-30.5-12.7-47.6
		c0-17.2,4.4-33,13.3-47.1c8.9-14.6,20.3-25.5,35.6-34.3c14.6-8.3,31.2-12.7,48.9-12.7c12.7,0,24.7,2.6,36.9,7L2619.4,1602.4z"/>
	<path class="st2" d="M2668.5,1783.5V1596h21.6v187.5H2668.5z"/>
	<path class="st2" d="M2812.8,1763.1v20.3h-103.7V1596h21.6v167.2H2812.8z"/>
	<path class="st2" d="M2836.9,1783.5V1596h21.6v187.5H2836.9z"/>
	<path class="st2" d="M2935.5,1694.5l-36.2,40v48.9h-21.6V1596h21.6v108.1l100.4-108.1h25.5l-74.4,81.4l80.1,106.1h-26
		C3004.7,1783.5,2935.5,1694.5,2935.5,1694.5z"/>
</g>
</svg>
