<?xml version="1.0" encoding="UTF-8"?>
<svg id="Layer_1" xmlns="http://www.w3.org/2000/svg" xmlns:xlink="http://www.w3.org/1999/xlink" version="1.1" viewBox="0 0 3840 1280">
  <!-- Generator: Adobe Illustrator 29.4.0, SVG Export Plug-In . SVG Version: 2.1.0 Build 152)  -->
  <defs>
    <style>
      .st0 {
        fill: none;
      }

      .st1 {
        fill: #121212;
      }

      .st2 {
        fill: url(#linear-gradient);
      }

      .st2, .st3, .st4, .st5, .st6, .st7, .st8, .st9 {
        fill-rule: evenodd;
      }

      .st3 {
        fill: url(#linear-gradient1);
      }

      .st4 {
        fill: url(#linear-gradient2);
      }

      .st5 {
        fill: url(#linear-gradient7);
      }

      .st6 {
        fill: url(#linear-gradient4);
      }

      .st7 {
        fill: url(#linear-gradient5);
      }

      .st8 {
        fill: url(#linear-gradient3);
      }

      .st9 {
        fill: url(#linear-gradient6);
      }

      .st10 {
        fill: #004481;
      }

      .st11 {
        clip-path: url(#clippath);
      }
    </style>
    <clipPath id="clippath">
      <rect class="st0" x="166.4" y="326.9" width="3507.2" height="626.3"/>
    </clipPath>
    <linearGradient id="linear-gradient" x1="193.5" y1="813.8" x2="363.5" y2="667.5" gradientTransform="translate(0 1278.4) scale(1 -1)" gradientUnits="userSpaceOnUse">
      <stop offset="0" stop-color="#002808"/>
      <stop offset=".7" stop-color="#1d6c31"/>
      <stop offset=".9" stop-color="#217536"/>
      <stop offset=".9" stop-color="#217536"/>
      <stop offset=".9" stop-color="#217536"/>
      <stop offset="1" stop-color="#237939"/>
    </linearGradient>
    <linearGradient id="linear-gradient1" x1="570.1" y1="780.3" x2="483.6" y2="667.3" gradientTransform="translate(0 1278.4) scale(1 -1)" gradientUnits="userSpaceOnUse">
      <stop offset="0" stop-color="#0a3d1d"/>
      <stop offset="1" stop-color="#2a823b"/>
    </linearGradient>
    <linearGradient id="linear-gradient2" x1="295.1" y1="926.7" x2="404.7" y2="732.3" gradientTransform="translate(0 1278.4) scale(1 -1)" gradientUnits="userSpaceOnUse">
      <stop offset="0" stop-color="#001600"/>
      <stop offset=".5" stop-color="#11461a"/>
      <stop offset=".5" stop-color="#11461a"/>
      <stop offset="1" stop-color="#26803a"/>
    </linearGradient>
    <linearGradient id="linear-gradient3" x1="397.9" y1="580.9" x2="299.2" y2="345.9" gradientTransform="translate(0 1278.4) scale(1 -1)" gradientUnits="userSpaceOnUse">
      <stop offset="0" stop-color="#48b652"/>
      <stop offset=".6" stop-color="#1e642a"/>
      <stop offset="1" stop-color="#043212"/>
    </linearGradient>
    <linearGradient id="linear-gradient4" x1="439.2" y1="601" x2="519.4" y2="449.6" gradientTransform="translate(0 1278.4) scale(1 -1)" gradientUnits="userSpaceOnUse">
      <stop offset="0" stop-color="#48b652"/>
      <stop offset="1" stop-color="#1e6d33"/>
    </linearGradient>
    <linearGradient id="linear-gradient5" x1="520.9" y1="882.6" x2="469.9" y2="677.9" gradientTransform="translate(0 1278.4) scale(1 -1)" gradientUnits="userSpaceOnUse">
      <stop offset="0" stop-color="#063b1a"/>
      <stop offset=".6" stop-color="#1d692f"/>
      <stop offset=".6" stop-color="#1e6930"/>
      <stop offset="1" stop-color="#2b843c"/>
    </linearGradient>
    <linearGradient id="linear-gradient6" x1="487.2" y1="628.4" x2="574.6" y2="512.4" xlink:href="#linear-gradient4"/>
    <linearGradient id="linear-gradient7" x1="378.8" y1="610.6" x2="206.6" y2="478.8" gradientTransform="translate(0 1278.4) scale(1 -1)" gradientUnits="userSpaceOnUse">
      <stop offset="0" stop-color="#359943"/>
      <stop offset="1" stop-color="#023110"/>
    </linearGradient>
  </defs>
  <g class="st11">
    <g>
      <path class="st10" d="M2936,644.3l-3-1c24.2-12.3,39.4-38.7,39.4-71.4,0-55.5-43-93.3-103.6-93.3h-174.2c-3.7,0-6.8,3-6.8,6.8v343.3c0,3.7,3,6.8,6.8,6.8h166.6c83.3,0,127.3-36.2,127.3-107.1s-20.3-71.5-52.5-84.2ZM2753.1,530.2h103.3c37.2,0,57.5,10.7,57.5,41s-19.3,51.8-57.5,52.5h-103.3c-3.7,0-6.8-3-6.8-6.8v-79.9c0-3.7,3.1-6.7,6.8-6.7ZM2857.8,783.8h-104.8c-3.7,0-6.8-3-6.8-6.8v-94.8c0-3.7,3-6.8,6.8-6.8h105.8c49.9.6,71.3,14.8,71.3,54.7s-21.8,53.7-72.3,53.7Z"/>
      <path class="st10" d="M3303.5,482.2l-116.2,223.2c-2.5,4.8-9.4,4.8-11.9,0l-116.3-223.2c-1.2-2.3-3.4-3.6-5.9-3.6h-56.2c-3.8,0-6.2,4.1-4.4,7.5l183.1,345.7c2.5,4.8,9.4,4.8,11.9,0l183.1-345.7c1.8-3.4-.6-7.5-4.4-7.5h-56.6c-2.6,0-4.9,1.5-6,3.6Z"/>
      <path class="st10" d="M2570.2,644.3l-3-1c24.2-12.3,39.4-38.7,39.4-71.4,0-55.5-43-93.3-103.6-93.3h-174.2c-3.7,0-6.8,3-6.8,6.8v343.3c0,3.7,3,6.8,6.8,6.8h166.6c83.3,0,127.3-36.2,127.3-107.1s-20.2-71.5-52.5-84.2ZM2387.4,530.2h103.4c37.2,0,57.5,10.7,57.5,41s-19.3,51.8-57.5,52.5h-103.4c-3.7,0-6.8-3-6.8-6.8v-79.9c0-3.7,3-6.7,6.8-6.7ZM2492.1,783.8h-104.8c-3.7,0-6.8-3-6.8-6.8v-94.8c0-3.7,3-6.8,6.8-6.8h105.8c49.9.6,71.3,14.8,71.3,54.7s-21.9,53.7-72.3,53.7Z"/>
      <path class="st10" d="M3361.9,780.1l116.2-223.2c2.5-4.8,9.4-4.8,11.9,0l116.3,223.2c1.2,2.3,3.4,3.6,5.9,3.6h56.2c3.8,0,6.2-4.1,4.4-7.5l-183.1-345.7c-2.5-4.8-9.4-4.8-11.9,0l-183.1,345.7c-1.8,3.4.6,7.5,4.4,7.5h56.6c2.6,0,4.9-1.5,6-3.6Z"/>
      <path class="st1" d="M2171.4,513.1c0-10-3.2-18.1-9.9-24.3-6.6-7.2-14.6-10-24.1-10s-17.9,3.4-24.1,10c-4.4,4.1-7.3,9.1-8.8,14.9-.7,2.9-1.1,6-1.1,9.4,0,9.5,3.3,17.6,9.9,24.3,6.1,6.6,14.1,10,24.1,10s17.5-2.8,24.1-10c6.6-6.6,9.9-14.7,9.9-24.3Z"/>
      <path class="st1" d="M2174.2,835.9c-4.1-8.1-4.9-34-4.9-66.5v-141.6c0-29.6,2.9-56.3-25-56.3s-26.5,6.5-47.1,17.5c10.8,7.2,14.9,21.6,14.9,52.9v128.2c0,36.9-.2,57.4-4.9,66h67Z"/>
      <path class="st1" d="M2011.2,841.3c-26.5,0-45.2-8.3-57.3-24.3-8.2-11.2-12.5-31.5-12.5-60.6v-144.2h-39.9v-31.5l39.9-4.9,4.3-62.6,52.9-3.9v67h65.4v35.9h-65.4v146.1c0,27.6,11.5,41.3,33.7,41.3s27.9-3.4,42.8-11.2l4.8,34c-23.9,12.7-47,19-68.7,19Z"/>
      <path class="st1" d="M1154.8,781.6c-14.4,11.6-31.7,19.5-50.5,19.5s-42.3-11.2-42.3-38.8c0-40.8,38-68,92.9-53.5v72.8ZM1217.3,835.9c-3.9-14.5-4.8-39.4-4.8-59.7v-111.1c0-72.4-32.3-95.6-101.5-95.6s-49.6,5.8-74.6,17l-6.8,36.4c23.6-12.6,51.5-18,78.4-18,49.1,0,46.7,38.8,46.7,76.2-67.4-20.8-153,5.4-151.1,88.4,1,47.1,35.1,71.8,77.9,72.8,29.4.5,53.9-11.2,74.1-32l4.3,25.7h57.4Z"/>
      <path class="st1" d="M1809.2,835.9c2.1-5.3,2.2-17.5,2.3-31.5.2-10.7.2-23.7.2-38.9v-101.9c0-34.9-10.6-51-36.1-51s-42.8,14.1-61.1,30.6v128.2c0,14.6.3,28.3.8,39.5.5,11,1.4,19.8,2.6,25.1h-63.1c2.4-10.7,2.9-32,2.9-62.6v-132.5c0-32.5-5.2-45.6-14.9-51.9,22.4-11.4,36.1-17,46.4-17,18.7,0,22.9,16.5,23.3,37.4,22.2-22.8,53.4-40.3,82.8-40.3s50.1,10.2,63.1,31.1c2.9,4.9,5.2,11.1,6.8,18.7,2.5,11.4,3.7,25.7,3.7,43.5v108.3c0,42.8,1.8,60.7,3.9,65.5h-63.7v-.2Z"/>
      <path class="st1" d="M1394.3,615.1c-4.3-.5-8.7-.5-14.4-.5-18.3,0-36.6,9.7-54.3,30.1v130.6c0,38.4,1.4,56.3,3.3,60.7h-63.1c.9-4,1.5-8.9,2-14.6.9-12.4.9-28.3.9-45.5v-135c0-29.6-4.9-46-15-51.9,18-9.5,35.2-17,46.3-17,19.2,0,23,18,23,37.9,17.8-27.2,39.9-40.8,65.4-40.8s9.6.5,14,1.5l-8.1,44.6Z"/>
      <path class="st1" d="M1607.2,835.9c-4.2-9.5-4.8-39.4-4.8-59.7v-111.1c0-72.4-32-95.6-101.3-95.6s-49.8,5.5-74.9,16.7l-6.8,36.7c8.8-4.7,18.4-8.5,28.2-11.3,16.2-4.6,33.4-6.7,50.3-6.7,49.1,0,46.7,38.8,46.7,76.2-67.4-20.8-153,5.4-151.1,88.4,1,47.1,35.1,71.8,77.9,72.8,29.4.5,54.2-11.2,74.4-32,0,0,1.3,16.5,4.1,25.7,12.8,0,57.2,0,57.2,0ZM1544.7,781.6c-14.4,11.6-31.7,19.5-50.5,19.5s-42.3-11.2-42.3-38.8c0-40.8,38-68,92.9-53.5v72.8Z"/>
      <path class="st1" d="M946.8,518.9c-28.8-11.6-59.2-17.5-90-17.5s-70.4,14.1-96.3,41.3c-26,27.7-38.9,63.1-38.9,105.8s11.5,84,35.1,111.2c23.1,27.2,53.5,41.3,94.9,41.3s39.5-2.9,54.3-8.7v-91.7c0-6.3,0-12.1-.3-17.5h-48.6c-.6-16.3-2.8-33.3-5.3-43.2l118.1,4.1c-4.3,14.1-4.8,31.4-4.8,60.9v47.1c0,33,1.9,55.4,4.8,66.5-40.9,17-81.8,25.7-123.2,25.7-61.1,0-108.3-17-142.5-51-33.7-34-53.3-79.5-53.3-137.7s21-106.9,58.6-144.4c37-36.9,86.1-55.4,147.2-55.4s71.3,6.7,99.2,16.5l-9.2,46.6Z"/>
      <path class="st2" d="M166.4,490.5c0,20.1,7.9,41.7,22.9,61,16.6,20.9,39.5,37.1,67.1,49.4,35.5,14.7,64.7,19.3,87.6,19.3s51.3-9.3,58.4-13.1c-53.7-128.2-156.2-186.9-172-195.4-40.2,16.2-63.1,44-63.9,78.8Z"/>
      <path class="st3" d="M541.8,510.5c-14.5,29.2-39.7,71.8-81.7,108.1,4.6.8,9.2,1.6,15.3,1.6,22.1,0,54.2-10.3,83.9-56.8,17.5-26.8,23.6-52.1,19.1-74.2-3.1-15.8-11.5-26-17.6-31.6-3,10.3-9.2,30-19.1,52.9Z"/>
      <path class="st4" d="M279.2,333.8c-20,12.7-30.5,40.3-33.7,51.4,68.9,41.9,113,97.3,137.1,136.9,16,26.1,26.4,48.3,31.3,61.7,4.8-19.8,4-38,4-38-1.6-119.5-40.9-202.5-102.6-217.5-2.1-.4-4.1-.8-6.2-1.1-1.7-.2-3.4-.3-5.1-.3-8.7,0-16.9,2.5-24.8,6.9Z"/>
      <path class="st8" d="M359.2,774.9c-12,16.5-23.9,30.9-34.7,43.1-3.5,4-6.9,7.8-10.3,11.4-29.7,30.7-53.7,49.1-62.5,54.4,4,13,21.6,61.3,61.7,61.3s74.5-62.1,74.5-62.1v-.8c1.5-2.8,21.6-45,31.6-99.3.5-2.7.9-5.3,1.3-8,.6-3.4,1.1-6.8,1.6-10.3,1.8-13.9,2.8-28.4,2.6-43-.3-16.4-2.1-33-6-49.2-.2-.8-.4-1.7-.6-2.5-17.2,41.6-38.5,76.5-59.3,105Z"/>
      <path class="st6" d="M451.8,693v8.5c0,15.2-.2,43.1,3.4,71.1,3.7,28.8,11.4,57.7,27.5,72.6,8.1,7.7,17,11.6,27.6,11.6h3.3c5.2,0,18.2-1.6,27.6-15.5,3.8-5.7,7-13.4,9-23.9-1.6-5.4-6.5-23.2-15.4-44.8-2.4-6.6-5.2-13.5-8.3-20.7-15.8-35.5-39.4-76.8-71.2-101.4-1.6,8.5-3.2,23.9-3.2,42.5Z"/>
      <path class="st7" d="M514.2,390.8c-9.8,0-18,3.1-25.4,9.3-35.3,29.3-39.4,112.8-41,144.4l-.8,6.2c-.8,19.3.8,42.5,2.5,54.1,76.2-59.5,102.5-147.5,105.8-159.1-4.1-50.2-36.9-54.8-37.7-54.8h-3.3Z"/>
      <path class="st9" d="M470.3,639.8c10.5,9.7,26.5,26.9,42.9,53.5v.2c.1,0,.1,0,.1,0,12.8,20.8,26,47.2,37,80.4,3.1,9.2,6,18.9,8.6,29.2,3.5-5.2,8.6-12.9,13-22.2,1-2.2,1.9-4.5,2.8-7,.6-2.6,1.8-4.7,2.6-7.1l.4-1.6c8.3-30.8,0-58.4-24.8-84.4-33.1-34.7-62.4-41-80.4-41h-2.3Z"/>
      <path class="st5" d="M171.9,772.5c-.8,3.9-.8,8.5-.8,13.1,2.4,30.1,25.3,59.5,63.1,78,9.1-6,51.5-33.9,97-91.1,12-15.1,24.2-32.2,36.1-51.5l2.6-4.3c11.5-19.1,22.6-40.2,32.9-63.5l1.9-4.3c-6.1-1.7-17-3.9-33.1-3.9-29.2,0-75.7,8.5-134.1,45.6-38.7,24.7-61.5,53.3-65.5,81.9Z"/>
    </g>
  </g>
</svg>