<svg width="20" height="20" viewBox="0 0 20 20" fill="none" xmlns="http://www.w3.org/2000/svg">
<path d="M5.2 5.2L6.8 3.6M6.8 3.6L5.2 2M6.8 3.6H5.2C3.43269 3.6 2 5.03269 2 6.8M14.8 14.8L13.2 16.4M13.2 16.4L14.8 18M13.2 16.4H14.8C16.5673 16.4 18 14.9673 18 13.2M11.1337 11.1337C11.7595 11.4326 12.4602 11.6 13.2 11.6C15.851 11.6 18 9.45097 18 6.8C18 4.14903 15.851 2 13.2 2C10.549 2 8.4 4.14903 8.4 6.8C8.4 7.53977 8.56735 8.24046 8.86626 8.86626M11.6 13.2C11.6 15.851 9.45097 18 6.8 18C4.14903 18 2 15.851 2 13.2C2 10.549 4.14903 8.4 6.8 8.4C9.45097 8.4 11.6 10.549 11.6 13.2Z" stroke="#1D1E21" stroke-width="1.5" stroke-linecap="round" stroke-linejoin="round"/>
</svg>
