<svg width="23" height="16" viewBox="0 0 23 16" fill="none" xmlns="http://www.w3.org/2000/svg">
<path d="M14.534 3.61732C14.6176 3.65258 14.7056 3.63495 14.7716 3.56885L16.1269 2.21143C16.2369 2.10125 16.2061 1.91174 16.0697 1.84564C14.5868 1.12284 12.9279 0.717407 11.1768 0.717407C5.1659 0.717407 0.246478 5.49022 0.000265442 11.4489C-0.00853505 11.7045 0.202675 11.9204 0.457891 11.9204H1.79995C2.03756 11.9204 2.22676 11.7309 2.24 11.4885C2.46441 6.74634 6.38498 2.9563 11.1769 2.9563C12.3649 2.9563 13.4958 3.19428 14.5343 3.61736L14.534 3.61732Z" fill="#5D5BEA"/>
<path d="M19.8276 4.83824L20.9145 3.74966L19.4932 2.32172C19.4052 2.23358 19.2644 2.23358 19.1764 2.32172L12.6155 8.89728C11.9291 8.56674 11.1326 8.44333 10.2702 8.69015C9.03811 9.04712 8.06126 10.1093 7.86325 11.3785C7.50683 13.657 9.44734 15.6005 11.7178 15.2391C12.9851 15.0408 14.0456 14.0624 14.402 12.8284C14.6484 11.9691 14.5252 11.167 14.1952 10.4794L18.2303 6.43796C19.326 7.84824 20.0213 9.58906 20.1136 11.4884C20.1268 11.7264 20.3116 11.9203 20.5537 11.9203H21.8957C22.151 11.9203 22.3622 11.7044 22.3534 11.4531C22.2478 8.94549 21.3149 6.65816 19.8276 4.83809L19.8276 4.83824ZM11.1767 13.0401C10.5607 13.0401 10.0591 12.5376 10.0591 11.9206C10.0591 11.3037 10.5607 10.8012 11.1767 10.8012C11.7928 10.8012 12.2944 11.3037 12.2944 11.9206C12.2944 12.5376 11.7928 13.0401 11.1767 13.0401Z" fill="#5D5BEA"/>
</svg>
