<svg width="3840" height="1280" viewBox="0 0 3840 1280" fill="none" xmlns="http://www.w3.org/2000/svg">
<rect width="3840" height="1280" fill="white"/>
<path fill-rule="evenodd" clip-rule="evenodd" d="M2500.26 693.746C2500.26 667.943 2484.02 650.838 2462.4 642.432C2480.21 633.049 2490.97 616.922 2490.97 596.787C2490.97 556.518 2457.81 534.721 2405.28 534.721H2281.35V769.496H2404.11C2462.01 769.496 2500.16 743.008 2500.16 693.649L2500.26 693.746ZM2436.19 600.501C2436.19 613.599 2428.07 622.591 2405.67 622.591H2334.26V578.021H2402.93C2426.51 578.021 2436.09 585.742 2436.09 600.501H2436.19ZM2444.7 694.431C2444.7 712.904 2432.37 724.926 2406.06 724.926H2334.26V664.229H2406.06C2432.28 664.229 2444.7 674.296 2444.7 694.431ZM2767.79 769.594L2665.08 534.819H2612.55L2509.16 769.594H2567.07L2588.29 717.302H2687.09L2708.32 769.594H2767.79ZM2668.6 672.634H2606.88L2624.29 630.019C2629.67 616.238 2635.05 602.163 2637.79 593.464C2640.53 602.163 2645.91 616.238 2651.29 630.019L2668.7 672.634H2668.6ZM3009.88 769.594V534.819H2956.57V634.124C2956.57 647.222 2957.36 676.739 2957.36 685.438C2953.84 679.378 2945.03 667.649 2938.48 658.951L2842.72 534.819H2790.97V769.594H2844.28V666.281C2844.28 653.184 2843.5 623.666 2843.5 614.967C2847.02 621.027 2855.82 632.756 2862.38 641.455L2961.56 769.594H3009.79H3009.88ZM3742.34 698.438C3742.34 647.417 3694.89 634.711 3652.05 626.012C3609.21 617.313 3597.66 612.621 3597.66 597.862C3597.66 587.502 3607.35 576.75 3636.3 576.75C3661.05 576.75 3680.32 585.449 3697.63 600.892L3736.66 568.051C3711.23 544.886 3680.32 531.203 3638.26 531.203C3584.95 531.203 3541.71 557.397 3541.71 599.915C3541.71 646.244 3576.44 659.928 3626.23 669.995C3677.19 680.063 3686.48 686.709 3686.48 701.859C3686.48 719.648 3671.42 727.369 3639.33 727.369C3613.51 727.369 3589.15 719.648 3570.28 700.491L3531.34 730.693C3551.79 756.887 3591.21 773.308 3636.3 773.308C3710.06 773.308 3742.43 743.106 3742.43 698.536L3742.34 698.438ZM3838 769.594V534.819H3784.01V769.594H3838ZM3297.37 769.594H3232.51L3159.15 656.214L3115.92 700.491V769.594H3061.92V534.819H3115.92V601.576C3115.92 610.275 3115.53 631.387 3115.13 638.816C3118.95 633.44 3129.02 622.688 3136.36 614.967L3211.97 534.819H3277.22L3198.08 615.944L3283.48 748.188L3377.48 534.819H3430.01L3532.71 769.594H3473.24L3452.02 717.302H3353.22L3331.99 769.594H3297.37ZM3433.53 672.634H3371.81L3389.22 630.019C3394.6 616.238 3399.98 602.163 3402.72 593.464C3405.45 602.163 3410.83 616.238 3416.21 630.019L3433.63 672.634H3433.53ZM1094.34 769.594V534.819H1040.35V769.594H1094.34ZM212.23 581.051V534.721H3V581.051H80.5686V769.594H134.563V581.051H212.132H212.23ZM732.81 769.594L681.065 678.401C715.399 666.672 732.81 644.485 732.81 609.298C732.81 559.352 690.749 534.819 639.786 534.819H513.994V769.594H568.087V685.047H622.473L670.697 769.594H732.81ZM677.25 610.275C677.25 630.703 663.752 640.771 638.613 640.771H567.989V580.367H638.613C662.578 580.367 677.25 589.066 677.25 610.178V610.275ZM1009.53 769.594L910.347 615.944L989.481 534.819H924.237L848.625 614.967C841.289 622.688 831.214 633.44 827.399 638.816C827.79 631.485 828.181 610.275 828.181 601.576V534.819H774.186V769.594H828.181V700.491L871.416 656.214L944.779 769.594H1009.63H1009.53ZM1376.83 534.819H1315.41L1277.16 590.532C1267.08 605.291 1252.8 627.771 1247.81 636.47C1242.83 627.771 1228.15 604.606 1218.47 590.532L1180.22 534.819H1118.11L1220.43 677.717V769.594H1274.52V676.642L1376.83 534.819ZM1590.27 769.594V723.655H1450.98V666.965H1528.55V621.32H1450.98V580.757H1584.5V534.819H1396.89V769.594H1590.27ZM368.15 489.369C368.15 472.656 381.648 459.167 398.375 459.167C415.102 459.167 428.6 472.656 428.6 489.369C428.6 506.083 415.102 519.571 398.375 519.571C381.648 519.571 368.15 506.083 368.15 489.369ZM285.005 489.369C285.005 472.656 298.504 459.167 315.231 459.167C331.957 459.167 345.456 472.656 345.456 489.369C345.456 506.083 331.957 519.571 315.231 519.571C298.504 519.571 285.005 506.083 285.005 489.369ZM465.771 665.89V534.721H411.678V666.574C411.678 704.107 390.452 727.272 356.118 727.272C321.784 727.272 300.95 703.423 300.95 665.89V534.721H246.955V666.574C246.955 734.993 290.972 773.21 356.216 773.21C424.883 773.21 465.868 733.918 465.868 665.89H465.771ZM1037.12 489.76C1037.12 473.047 1050.62 459.558 1067.34 459.558C1084.07 459.558 1097.57 473.047 1097.57 489.76C1097.57 506.474 1084.07 519.962 1067.34 519.962C1050.62 519.962 1037.12 506.474 1037.12 489.76ZM1785.71 1035.55C1754.21 1028.31 1741.3 1035.45 1732.4 1040.83C1730.74 1041.8 1729.27 1042.98 1727.51 1044.44C1720.46 1050.11 1712.35 1062.04 1712.35 1062.04H1698.75V858.538H1714.69C1714.69 858.538 1718.12 872.027 1721.05 880.335C1739.83 933.995 1777.98 973.873 1777.98 973.873C1888.32 1077.19 2010.1 1039.36 2010.1 1039.36C2112.42 1002.51 2129.24 918.649 2103.51 860.2C2077.89 801.751 2011.47 769.398 2011.47 769.398L1989.36 756.985V899.296C1990.34 907.8 1986.23 936.829 2017.73 944.844L2033.58 949.047V965.174H1831.88V949.047L1848.51 944.551C1879.03 936.34 1875.11 907.702 1875.99 899.296V693.746L1857.21 683.386C1822.98 664.62 1803.71 655.432 1775.24 634.124C1720.66 593.073 1686.33 548.014 1686.33 475.881C1686.33 379.019 1760.28 298.872 1861.81 284.601C1866.31 283.819 1871.2 283.331 1875.99 283.135V261.437C1875.11 252.933 1879.12 223.904 1847.72 215.889L1831.88 211.686V195.559H2033.58V211.686L2016.85 216.085C1986.33 224.295 1990.24 252.933 1989.27 261.339V586.329L1875.9 523.774V313.533C1870.22 313.826 1866.31 314.315 1866.31 314.315C1808.5 323.991 1759 362.403 1759 417.236C1759 452.521 1774.36 480.377 1798.33 500.805C1798.33 500.805 1813 516.15 1844.3 535.699C1875.5 555.247 1999.63 622.591 1999.63 622.591C1999.63 622.591 2073.49 661.98 2096.47 679.867C2107.62 687.98 2121.22 701.077 2121.22 701.077C2165.14 740.467 2198.69 797.548 2198.69 861.177C2198.69 880.335 2196.15 898.905 2191.45 916.597C2191.45 916.597 2164.45 1021.08 2046 1061.25C2046 1061.25 2011.47 1075.43 1974.2 1077.67C1974.2 1077.67 1973.32 1077.87 1969.31 1078.07C1986.53 1089.6 1997.78 1109.24 1997.78 1131.53C1997.78 1147.75 1991.22 1159.09 1983.1 1171.02C1977.04 1179.23 1966.87 1197.6 1960.21 1206.69C1945.05 1227.61 1934.19 1241 1934.19 1241H1917.57C1917.57 1241 1925.1 1212.07 1922.75 1204.74C1920.11 1196.33 1918.93 1193.01 1909.45 1188.32C1885.58 1179.81 1868.75 1158.6 1868.75 1131.43C1868.75 1106.12 1883.33 1084.22 1904.56 1073.67C1879.91 1069.27 1857.8 1061.25 1831.19 1050.01C1831.19 1050.01 1795.1 1037.6 1787.96 1035.94L1785.61 1035.35L1785.71 1035.55ZM2132.27 485.264H2114.86L2112.91 472.753C2111.24 463.468 2107.82 447.341 2105.37 439.717C2101.95 429.258 2091.39 404.725 2076.91 385.373C2062.53 366.02 2050.2 354.095 2042.48 348.329C2036.22 343.735 2030.45 337.87 2017.63 330.637V300.729L2047.37 312.555C2047.37 312.555 2067.42 321.059 2083.17 319.397C2096.67 317.931 2103.03 314.803 2110.07 305.713L2117.8 293.984H2132.47V485.362L2132.27 485.264ZM1866.99 103.78C1866.99 67.4201 1896.44 38 1932.82 38C1969.21 38 1998.66 67.4201 1998.66 103.78C1998.66 140.14 1969.21 169.56 1932.82 169.56C1896.44 169.56 1866.99 140.14 1866.99 103.78Z" fill="#004892"/>
</svg>
