<?xml version="1.0" encoding="UTF-8"?>
<svg xmlns="http://www.w3.org/2000/svg" version="1.1" viewBox="0 0 3018.5 728.1">
  <defs>
    <style>
      .cls-1 {
        fill: #6439be;
      }

      .cls-2 {
        fill: #fff;
      }
    </style>
  </defs>
  <!-- Generator: Adobe Illustrator 28.6.0, SVG Export Plug-In . SVG Version: 1.2.0 Build 709)  -->
  <g>
    <g id="Layer_1">
      <path class="cls-1" d="M2931.2,0H87.3C39.1,0,0,39.1,0,87.3v553.5c0,48.2,39.1,87.3,87.3,87.3h2843.9c48.2,0,87.3-39.1,87.3-87.3V87.3c0-48.2-39.1-87.3-87.3-87.3Z"/>
      <path class="cls-2" d="M744.5,306.6c0-57.3-47.1-95-115.7-95s-133.4,46.8-133.4,151.2,48.1,138.7,131.6,138.7,98.4-26.7,111.5-45c0,0-8.9-34.3-33.2-34.3s-22.2,5-32.7,9.4c-11,4.4-23.8,8.4-40.6,8.4s-63.3-9.4-63.3-59.4c0,0,18.8,5.5,61.8,5.5,91.8-.3,114.1-39,114.1-79.5ZM631.7,273.9c31.7,0,46.8,17.3,46.8,33s-16.7,30.6-47.1,30.6c-44,0-60.7-6.3-60.7-6.3,0-26.7,20.9-57.3,61-57.3Z"/>
      <path class="cls-2" d="M915.8,440.3c-31.7,0-48.1-26.7-51-38.2-3.1-11.5-5.2-27.7-5.2-44.5l.5-85.8h23c18.6,0,33-5.5,42.9-16.2,10.2-11,15.2-25.4,15.2-43.7h-81.1l-.5-38.2c0-12,0-22,.3-29.3.3-7.6.5-13.3.8-17.8.3-4.7.8-8.6,1.3-11.5-24.6,0-43.4,5.2-56.2,15.7-12.8,10.5-19.4,27.7-19.4,52.1l-.5,190.5c0,78,37.1,129,108.1,129s60.7-18.8,60.7-47.4-1.3-15.4-2.4-18.6c-6,1.3-17.5,3.9-36.4,3.9h0Z"/>
      <path class="cls-2" d="M1093.8,444c-15.7,0-25.9-11.5-25.9-30.1v-137.4c0-12,0-22,.3-29.3.3-7.6.5-13.3.8-17.8.5-4.7.8-8.6,1.3-11.5-25.1,0-44,5.2-56.8,15.7-12.8,10.5-19.4,27.7-19.4,52.1l-.5,140c0,50,32.2,77.7,72.7,76.1,25.6-1.1,47.6-13.1,47.6-40s-1.8-20.2-1.8-20.2c-6,1.3-10.2,2.4-18.3,2.4h0Z"/>
      <path class="cls-2" d="M1012.1,190.4c5.8,2.9,12,4.4,18.6,4.4,15.2,0,27.2-7.3,36.1-21.7,3.7-6.5,5.5-13.6,5.5-21.2s-1.6-13.6-5-19.9c-3.4-6.3-8.4-11-14.9-14.4-5.8-3.4-11.8-5-18-5s-13.9,2.1-20.4,6c-6.5,3.9-11.8,9.4-15.4,16.5-3.7,6.3-5.5,13.3-5.5,21.2s1.6,13.6,5,19.6c3.1,5.8,7.8,10.7,14.1,14.4h0Z"/>
      <path class="cls-2" d="M1275.6,218.4c-15.4,0-30.9,1.8-46.3,5.2-15.4,3.4-29.6,9.9-42.1,19.6-12.6,9.7-22.8,23-30.6,40.3-7.8,17.3-11.8,39.3-11.8,66.2v78.8c0,24.3,3.1,46.8,17.8,57.8,16,12,34.5,12.6,59.1,12.6-.5-2.4-.8-9.4-1.3-14.1-.5-4.4-.8-10.5-.8-17.8-.3-7.6-.3-17.3-.3-29.3v-101c0-23.8,3.9-54.4,45.8-57.8,23.5-2.1,44.5-11,44.5-36.6s-1.3-17.3-4.2-23.8h-29.8Z"/>
      <path class="cls-2" d="M329.7,211.6c-85.8,0-130.8,60.2-130.8,133.4s41.3,131.1,116.4,131.1,61.5-16.5,67.3-21.5v34c0,39-15.2,64.9-54.4,64.9s-33-5.2-46-11.3c-11.5-5.5-20.2-12-31.7-12-29.3,0-37.4,36.1-37.1,36.4,22,28.3,72.2,49.2,114.3,49.2,82.9,0,128.7-48.4,128.7-144.4v-112.2c-.3-87.7-39-147.6-126.6-147.6h0ZM329.2,411.3c-32.2,0-56.8-20.4-56.8-65.1s25.1-72.5,56.8-72.5,53.9,18.8,53.9,68.8-24.6,68.8-53.9,68.8Z"/>
      <path class="cls-2" d="M1518.1,185.1h-2.1c-5.6-1.7-11.6-3.2-18-4.4-6.4-1.2-14-1.8-22.7-1.8s-14,.7-20.1,2.1c-6.1,1.4-11.3,3.9-15.7,7.6-4.4,3.7-7.8,8.5-10.4,14.6-2.6,6.1-3.9,13.8-3.9,23.2v25.1h80.4v19.3c0,6.3-1.5,11.8-4.4,16.7s-6.9,9-11.8,12.5c-4.9,3.5-10.3,6.1-16.2,7.8-5.9,1.7-11.8,2.6-17.7,2.6h-30.3v187.8h-28.2c-11.1,0-21-3.9-29.5-11.8-8.5-7.8-12.8-17.8-12.8-30v-235.8c0-10.1,1.8-21.1,5.5-33.1,3.6-12,9.8-23.2,18.5-33.7,8.7-10.4,20-19.1,33.9-26.1,13.9-7,31.1-10.4,51.6-10.4s28.1,3.9,38.3,11.8c10.3,7.8,15.4,18.7,15.4,32.6v23.5Z"/>
      <path class="cls-2" d="M2249.8,402.2c0,14.9-2.6,28.6-7.8,41-5.2,12.3-12.5,23-21.9,31.8-9.4,8.9-20.6,15.7-33.7,20.6-13,4.9-27.4,7.3-43,7.3h-14.1c-16.7,0-31.9-2.3-45.6-6.8-13.8-4.5-25.6-10.7-35.5-18.5-9.9-7.8-17.6-17.2-23.2-28.2-5.6-11-8.4-22.9-8.4-35.7s2.4-24.2,7.3-35c4.9-10.8,12.8-20.1,23.8-27.9,11-7.8,25.4-14,43.3-18.5,17.9-4.5,39.7-6.8,65.5-6.8h24.5v-3.7c0-19.8-4.9-33.4-14.6-40.7-9.7-7.3-25-11-45.9-11s-23.7,1-33.6,3.1c-9.9,2.1-18.5,4.8-25.8,8.1-7.3,3.3-13.4,6.9-18.3,10.7-4.9,3.8-8.7,7.3-11.5,10.4h-2.6v-22.4c0-8,1.8-16,5.5-24,3.7-8,9.6-15.4,17.8-22.2,8.1-6.8,18.8-12.3,31.8-16.4,13-4.2,28.8-6.3,47.2-6.3s30.7,2,45.1,6c14.4,4,27.1,10.9,38.1,20.6,11,9.7,19.6,22.7,26.1,38.9,6.4,16.2,9.7,36.4,9.7,60.8v64.7h0ZM2181.5,402.7v-27.1h-25.1c-13.2,0-24.3.8-33.1,2.4-8.9,1.6-15.9,3.8-21.1,6.8-5.2,2.9-8.9,6.6-11,11-2.1,4.3-3.1,9.5-3.1,15.4,0,11.1,4.2,19.7,12.5,25.8,8.4,6.1,20.3,9.1,36,9.1,29.9,0,44.9-14.4,44.9-43.3h0Z"/>
      <path class="cls-2" d="M2553,498.2h-18.8c-15.7,0-28.1-4.4-37.3-13.1-9.2-8.7-13.8-19.6-13.8-32.9v-111.7c0-24-5-41.4-14.9-52.2-9.9-10.8-23.9-16.2-42-16.2s-27.6,5.5-37,16.4c-9.4,11-14.1,26.5-14.1,46.7v162.8h-20.9c-15,0-26.9-4.4-35.8-13.1-8.9-8.7-13.3-19.6-13.3-32.9v-121.6c0-14.9,2.5-29.6,7.6-44.1,5-14.4,12.7-27.3,23-38.6,10.3-11.3,23.4-20.4,39.4-27.4,16-7,35-10.4,56.9-10.4s32.4,2.7,47,8.1c14.6,5.4,27.4,13.4,38.3,24,11,10.6,19.7,23.6,26.1,39.1,6.5,15.5,9.7,33.1,9.7,53v163.8h0Z"/>
      <path class="cls-2" d="M1964.1,498.2h-18.8c-15.7,0-28.1-4.4-37.3-13.1-9.2-8.7-13.8-19.6-13.8-32.9v-111.7c0-24-5-41.4-14.9-52.2-9.9-10.8-23.9-16.2-42-16.2s-27.7,5.5-37,16.4-14.1,26.5-14.1,46.7v162.8h-20.9c-15,0-26.9-4.4-35.7-13.1-8.9-8.7-13.3-19.6-13.3-32.9v-121.6c0-14.9,2.5-29.6,7.6-44.1,5-14.4,12.7-27.3,23-38.6,10.3-11.3,23.4-20.4,39.4-27.4,16-7,35-10.4,56.9-10.4s32.4,2.7,47,8.1c14.6,5.4,27.4,13.4,38.3,24,11,10.6,19.6,23.6,26.1,39.1,6.4,15.5,9.7,33.1,9.7,53v163.8h0Z"/>
      <path class="cls-2" d="M1653.1,444c-15.7,0-25.9-11.5-25.9-30.1v-137.4c0-12,0-22,.3-29.3.3-7.6.5-13.3.8-17.8.5-4.7.8-8.6,1.3-11.5-25.1,0-44,5.2-56.8,15.7-12.8,10.5-19.4,27.7-19.4,52.1l-.5,140c0,50,32.2,77.7,72.7,76.1,25.6-1.1,47.6-13.1,47.6-40s-1.8-20.2-1.8-20.2c-6,1.3-10.2,2.4-18.3,2.4h0Z"/>
      <path class="cls-2" d="M1571.5,190.4c5.8,2.9,12,4.4,18.6,4.4,15.2,0,27.2-7.3,36.1-21.7,3.7-6.5,5.5-13.6,5.5-21.2s-1.6-13.6-5-19.9c-3.4-6.3-8.4-11-14.9-14.4-5.8-3.4-11.8-5-18-5s-13.9,2.1-20.4,6c-6.5,3.9-11.8,9.4-15.4,16.5-3.7,6.3-5.5,13.3-5.5,21.2s1.6,13.6,5,19.6c3.1,5.8,7.8,10.7,14.1,14.4h0Z"/>
      <path class="cls-2" d="M2819.6,409.5c0,29.9-10.1,53.2-30.3,69.9-20.2,16.7-49.2,25.1-87.1,25.1s-24.8-1.6-35.8-4.7c-11-3.1-20.5-7.2-28.7-12.3-8.2-5-14.5-10.9-19-17.5-4.5-6.6-6.8-13.6-6.8-20.9v-31.8h2.6c3.8,3.5,8.8,6.9,14.9,10.2,6.1,3.3,13,6.2,20.6,8.6,7.6,2.4,15.7,4.4,24,5.7,8.4,1.4,16.7,2.1,25.1,2.1,34.1,0,51.1-10.3,51.1-30.8s-.8-7.7-2.4-10.7c-1.6-3-4.4-5.7-8.6-8.1-4.2-2.4-10.1-4.6-17.7-6.5-7.6-1.9-17.6-3.7-29.7-5.5-29.9-4.2-52.1-12.3-66.5-24.3-14.4-12-21.7-28.8-21.7-50.3s2.9-25.7,8.6-37.6c5.7-11.8,13.8-22.2,24.3-31,10.4-8.9,23-15.9,37.6-21.1,14.6-5.2,31-7.8,49-7.8s29.6,1.8,41,5.5c11.3,3.7,20.6,8.4,27.9,14.4,7.3,5.9,12.6,12.3,15.9,19.3,3.3,7,5,13.9,5,20.9v26.6h-2.6c-7.3-7.3-18.3-13.5-33.1-18.5-14.8-5-30.5-7.6-47.2-7.6s-36.4,3-44.3,8.9c-8,5.9-12,13.4-12,22.4s.7,6.5,2.1,9.1c1.4,2.6,4.1,5,8.1,7.1,4,2.1,9.7,4,17.2,5.7,7.5,1.7,17.1,3.7,29,5.7,29.6,4.9,51.9,13.7,67,26.6,15.1,12.9,22.7,30.6,22.7,53.2h0Z"/>
    </g>
  </g>
</svg>