<?xml version="1.0" encoding="UTF-8"?>
<svg id="Layer_1" data-name="Layer 1" xmlns="http://www.w3.org/2000/svg" viewBox="0 0 295.57 51.65">
  <defs>
    <style>
      .cls-1 {
        fill: #20376b;
      }

      .cls-2 {
        fill: #b2b1b3;
      }
    </style>
  </defs>
  <g>
    <rect class="cls-1" x="287.14" y="1.16" width="8.43" height="6.82"/>
    <path class="cls-1" d="M120.57,25.4v18.48h-9.54v-18.48L102.67,1.2h10.12l3.01,11.88,3.08-11.88h10.12l-8.43,24.2h0Z"/>
    <path class="cls-1" d="M139.32,43.88l-.37-1.62c-1.47,1.62-3.08,2.42-6.38,2.42-3.52.07-6.02-3.16-5.94-7.04l.07-5.5c.15-8.94,12.32-6.23,12.32-12.91,0-1.4-.07-2.57-1.69-2.57s-1.98,1.17-1.98,2.57v2.71h-8.66v-2.71c0-5.8,4.99-8.51,10.63-8.51,7.19,0,10.49,4.03,10.49,8.43v24.72h-8.51ZM138.88,27.6c-2.06,1.32-3.52,1.98-3.52,4.69v3.97c0,1.9.52,2.64,1.76,2.64s1.76-.74,1.76-2.64v-8.66h0Z"/>
    <path class="cls-1" d="M173.18,35.17c0,5.13-.88,9.44-6.6,9.44-3.23,0-4.92-1.02-6.23-2.93v9.98h-8.43V11.46h8.43l-.07,3.3c1.69-3.01,3.44-3.96,6.74-3.96,4.62,0,6.16,4.4,6.16,8.58v15.78h-.01ZM164.16,20.04c0-1.47-.8-2.27-1.9-2.27-1.17,0-1.98.88-1.98,2.42v15.33c0,1.47.8,2.27,1.9,2.27,1.17,0,1.98-.81,1.98-2.35v-15.4h0Z"/>
    <path class="cls-1" d="M177.23,43.88V11.54h8.43v32.34h-8.43Z"/>
    <path class="cls-1" d="M206.34,43.83l-5.51-14.97-1.31,2.35v12.61h-9.53V1.13h9.53v13.27l6.09-13.27h9.46l-8.72,17.97,9.46,24.72h-9.47Z"/>
    <path class="cls-1" d="M234.33,20.33c-2.12-.8-7.77-.88-7.77,4.33v19.22h-8.43V11.54h7.85l-.07,3.44c2.93-4.18,6.09-4.25,8.36-4.25v9.61h.07Z"/>
    <path class="cls-1" d="M258.06,35.73c0,6.45-4.47,8.96-10.55,8.96-5.57,0-10.57-2.72-10.57-9.09v-15.11c0-6.16,3.74-9.61,10.57-9.61,5.57,0,10.56,2.27,10.56,9.69v8.51h-12.39v7.77c0,1.32.58,2.06,1.83,2.06s1.83-.74,1.83-2.06v-4.77h8.73v3.73-.07h0ZM249.19,18.72c0-1.31-.58-2.05-1.76-2.05-1.24,0-1.83.73-1.83,2.05v4.41h3.67l-.08-4.41h0Z"/>
    <path class="cls-1" d="M274.68,43.88v-3.3c-.8,2.86-3.44,3.96-6.6,3.96-5.21,0-6.23-4.41-6.23-8.51v-15.7c0-5.13,1.25-9.61,6.45-9.61,3.01,0,5.36,1.32,6.38,2.93V1.2h8.44v42.69h-8.44,0ZM274.68,19.82c0-1.46-.8-2.27-1.98-2.2-1.17,0-1.98.8-1.98,2.27l.07,15.4c0,1.47.81,2.27,1.91,2.27,1.17,0,1.98-.88,1.98-2.35v-15.4h0Z"/>
    <path class="cls-1" d="M287.14,43.93V11.58h8.43v32.34h-8.43Z"/>
  </g>
  <path class="cls-2" d="M99.43,16.6C93.97.91,78.34.04,76.73,0c-6.98-.14-14.72,2.29-20.6,8.04-2.35,2.13-4.05,4.58-5.82,7.25h0c-1.77-2.67-3.47-5.12-5.82-7.25C38.59,2.3,30.86-.13,23.88,0,22.27.04,6.65.91,1.19,16.6c-1.95,5.61-1.51,12.9,1.4,18.24,2.88,6.17,9.75,11.19,17.01,10.68,5.27-.14,11.02-3.5,13.14-8.87,1.78-4.83,1.23-9.99-2.88-14.13.11,1.06.15,2.51-.89,3.87-1.66,2.3-4.27,2.86-6.98,1.89-2.39-1.09-3.28-2.81-3.05-5.1.18-1.95,1.73-3.44,3.35-4.18,3.18-1.37,6.1-.67,8.97,2.05,4.69,5.24,5.23,13.18,7.46,19.2,1.58,4.96,4.07,9.27,9.54,10.51.66.15,1.34.22,2.02.22h.01c.69,0,1.37-.07,2.02-.22,5.47-1.24,7.98-5.55,9.55-10.51,2.22-6.03,2.77-13.97,7.46-19.2,2.86-2.73,5.79-3.43,8.97-2.05,1.63.73,3.18,2.23,3.35,4.18.24,2.29-.65,4.01-3.05,5.1-2.71.98-5.33.41-6.98-1.89-1.04-1.36-.99-2.81-.89-3.87-4.1,4.15-4.66,9.31-2.88,14.13,2.12,5.37,7.87,8.73,13.14,8.87,7.25.51,14.14-4.52,17.01-10.68,2.91-5.33,3.35-12.63,1.4-18.24ZM88.41,35.32c-3.32,2.91-7.74,3.77-11.33,2.16-2.16-1.02-3.73-2.91-4.21-4.86,3.01,3,8.46,4.53,13.45-.73,0,0,4.67-4.33,2.02-12.48-1.32-4.03-6.26-7.39-10.37-7.81-6.13-.99-11.92,1.1-15.91,6.71-4.72,7.29-5.32,15.4-8.74,23.52-.57,1.33-1.79,1.92-3.01,1.85h-.01c-1.22.07-2.42-.52-3-1.85-3.42-8.11-4.02-16.23-8.74-23.52-4-5.61-9.79-7.7-15.92-6.71-4.1.41-9.06,3.77-10.37,7.81-2.65,8.15,2.02,12.48,2.02,12.48,4.99,5.26,10.43,3.73,13.45.73-.48,1.95-2.06,3.84-4.21,4.86-3.6,1.61-8.01.76-11.33-2.16-4.89-4.86-5.63-11.09-3.69-16.84,2.35-6.98,9.41-10.48,15.02-10.92,6.64-.58,15.82,3.49,19.47,10.44.85,1.61,2.64,5.75,2.64,5.75h9.31s1.79-4.15,2.65-5.75c3.66-6.95,12.83-11.02,19.47-10.44,5.61.44,12.67,3.93,15.02,10.92,1.94,5.75,1.2,11.98-3.7,16.84h0Z"/>
</svg>