<?xml version="1.0" encoding="utf-8"?>
<!-- Generator: Adobe Illustrator 27.7.0, SVG Export Plug-In . SVG Version: 6.00 Build 0)  -->
<svg version="1.1" id="Layer_1" xmlns="http://www.w3.org/2000/svg" xmlns:xlink="http://www.w3.org/1999/xlink" x="0px" y="0px"
	 viewBox="0 0 3840 1280" style="enable-background:new 0 0 3840 1280;" xml:space="preserve">
<style type="text/css">
	.st0{fill-rule:evenodd;clip-rule:evenodd;fill:#EE202C;}
</style>
<g>
	<path class="st0" d="M1230.2,1052.9c-96.8,0-175.2-78.2-175.2-174.8s78.5-174.8,175.2-174.8c96.8,0,175.2,78.2,175.2,174.8
		C1405.4,974.6,1327,1052.9,1230.2,1052.9 M1232.7,489.1c-220,0-392.3,161.9-392.3,390.7c0,228.8,172.4,392.1,392.3,392.1
		c221.4,0,392.3-163.4,392.3-392.1S1454.1,489.2,1232.7,489.1 M1876,1006.1c3,50.5,39.3,99.5,117.9,99.5c58.9,0,87.7-31.2,87.7-63.9
		c0-26.7-18.1-49-74.1-60.9l-86.1-19.3c-160.2-34.2-223.6-123.3-223.6-227.3c0-135.2,120.9-245.1,288.6-245.1
		c217.6,0,293.2,133.7,300.7,219.8l-190.4,34.2c-6-49-37.8-90.6-107.3-90.6c-43.8,0-81.6,25.3-81.6,63.9c0,31.2,25.7,49,58.9,55
		l99.7,19.3c155.6,31.2,231.2,123.3,231.2,231.7c0,126.3-98.2,249.6-299.2,249.6c-235.7,0-311.3-150-317.3-231.7L1876,1006.1
		L1876,1006.1z M83.7,209.6c0-108,87.8-195.7,196.2-195.7c108.3,0,196.2,87.6,196.2,195.7c0,108.1-87.8,195.7-196.2,195.7
		C171.5,405.3,83.7,317.7,83.7,209.6"/>
	<path class="st0" d="M756.3,1021.6c-25.9,13.8-62.1,13.2-62.1,13.2c-51.2,0-92.8-41.6-92.8-92.3v-262h139.9V482.9H601.4V265.5
		h-60.8c-35,125.4-151,217.4-288.8,217.4v197.7h124.9v323.1c0,132.7,108.7,240.3,242.9,240.3c46.6,0.1,92.9-8.1,136.7-24.2
		C756.3,1219.8,756.3,1021.6,756.3,1021.6z M2409.7,1244h224.2V209.6h-224.2V1244z M3162.4,960.9v-32.7l-139.3,22.3
		c-47.4,7.5-83,29.8-83,81.8c0,38.7,25.2,75.9,87.4,75.9C3094.3,1108.2,3162.4,1075.5,3162.4,960.9 M2935.8,824l173.3-26.8
		c40-5.9,53.3-25.3,53.3-50.6c0-43.1-37-80.4-108.1-80.4c-78.5,0-121.5,53.6-125.9,108.6l-195.6-40.2
		c8.9-105.7,106.7-245.5,323-245.5c238.5,0,325.9,133.9,325.9,285.7v361.7c0,58,7.4,107.1,8.9,114.6h-202.9
		c-1.5-6-7.4-32.7-7.4-83.4c-38.5,62.5-109.6,104.2-207.4,104.2c-161.5,0-254.8-107.1-254.8-224.7
		C2718,916.3,2814.3,841.8,2935.8,824"/>
</g>
</svg>
