<svg width="20" height="21" viewBox="0 0 20 21" fill="none" xmlns="http://www.w3.org/2000/svg">
<path d="M14.0833 1.39294H4.9644V2.30366L7.98538 4.73222L6.30705 6.55365L3.28607 11.4108L2.61475 15.9643L4.29307 18.6965L7.64971 19.6072H14.6987L16.7126 17.4822L17.384 13.8393L15.37 8.67864L12.0133 5.03579L13.4679 3.21437L14.0833 1.39294Z" fill="white"/>
<path d="M8.97438 15.7618C8.88905 15.7618 8.80207 15.7448 8.7192 15.7076C8.40987 15.5691 8.27284 15.2089 8.41397 14.9037L10.4653 10.4513C10.6072 10.1462 10.9731 10.0126 11.28 10.1502C11.5894 10.2886 11.7264 10.6489 11.5853 10.9541L9.53397 15.4064C9.4314 15.6299 9.2074 15.7618 8.97438 15.7618Z" fill="#1D1E21"/>
<path d="M8.0754 11.714C7.62247 11.714 7.25488 11.3505 7.25488 10.9045C7.25488 10.4584 7.62247 10.095 8.0754 10.095C8.52832 10.095 8.89591 10.4584 8.89591 10.9045C8.89591 11.3505 8.52832 11.714 8.0754 11.714Z" fill="#1D1E21"/>
<path d="M12.0515 15.762C11.5985 15.762 11.231 15.3985 11.231 14.9525C11.231 14.5064 11.5985 14.1429 12.0515 14.1429C12.5044 14.1429 12.872 14.5064 12.872 14.9525C12.872 15.3985 12.5044 15.762 12.0515 15.762Z" fill="#1D1E21"/>
<path d="M11.5343 5.6429C11.3538 5.6429 11.1749 5.56519 11.0535 5.41542C10.841 5.15314 10.8844 4.77185 11.1495 4.56219L13.9384 2.36029C14.0327 2.28581 14.0262 2.19676 14.0048 2.13524C13.9835 2.07372 13.9335 2.00005 13.8153 2.00005H6.18454C6.06639 2.00005 6.01634 2.07291 5.995 2.13524C5.97367 2.19757 5.9671 2.28581 6.06064 2.35948L8.85039 4.56219C9.11541 4.77185 9.1589 5.15314 8.94639 5.41542C8.73387 5.67771 8.34741 5.7198 8.08075 5.51014L5.29182 3.30824C4.80936 2.92857 4.62803 2.31091 4.83233 1.73453C5.03664 1.15815 5.56751 0.785767 6.18454 0.785767H13.8161C14.4332 0.785767 14.9632 1.15815 15.1675 1.73372C15.3718 2.30929 15.1905 2.92776 14.7072 3.30824L11.9191 5.50933C11.8051 5.59918 11.6697 5.6429 11.5343 5.6429Z" fill="#1D1E21"/>
<path d="M14.3079 5.64287H5.69253C5.35284 5.64287 5.07715 5.37087 5.07715 5.03573C5.07715 4.70059 5.35284 4.42859 5.69253 4.42859H14.3079C14.6476 4.42859 14.9233 4.70059 14.9233 5.03573C14.9233 5.37087 14.6476 5.64287 14.3079 5.64287Z" fill="#1D1E21"/>
<path d="M13.1111 20.2146H7.11111C3.58044 20.2146 2 17.4703 2 14.7503C2 10.9715 4.75022 6.1872 7.88444 4.5123C8.20178 4.3423 8.60978 4.43944 8.79644 4.72925C8.98311 5.01825 8.87644 5.39063 8.55911 5.55982C5.82489 7.02101 3.33333 11.4013 3.33333 14.7503C3.33333 16.711 4.32267 19.0003 7.11111 19.0003H13.1111C16.32 19.0003 16.6667 16.0286 16.6667 14.7503C16.6667 11.4013 14.1751 7.02101 11.44 5.55982C11.1236 5.39063 11.016 5.01825 11.2027 4.72925C11.3884 4.44025 11.7938 4.3423 12.1147 4.5123C15.2498 6.1872 18 10.9715 18 14.7503C18 18.1212 16.1271 20.2146 13.1111 20.2146Z" fill="#1D1E21"/>
</svg>
