<svg width="20" height="20" viewBox="0 0 20 20" fill="none" xmlns="http://www.w3.org/2000/svg">
<path d="M7.7566 7.21412C7.87742 6.87582 8.19786 6.65 8.55708 6.65H11.4429C11.8021 6.65 12.1226 6.87582 12.2434 7.21411L13.672 11.2141C13.8697 11.7677 13.4593 12.35 12.8715 12.35H7.12851C6.54071 12.35 6.13033 11.7677 6.32803 11.2141L7.7566 7.21412Z" fill="white" stroke="#1D1E21" stroke-width="1.3"/>
<path d="M2.98118 13.1892C3.10897 12.8639 3.42283 12.65 3.77232 12.65H7.22768C7.57717 12.65 7.89103 12.8639 8.01882 13.1892L9.59025 17.1892C9.80932 17.7468 9.39822 18.35 8.79911 18.35H2.20089C1.60178 18.35 1.19068 17.7468 1.40975 17.1892L2.98118 13.1892Z" fill="white" stroke="#1D1E21" stroke-width="1.3"/>
<path d="M11.9812 13.1892C12.109 12.8639 12.4228 12.65 12.7723 12.65H16.2277C16.5772 12.65 16.891 12.8639 17.0188 13.1892L18.5903 17.1892C18.8093 17.7468 18.3982 18.35 17.7991 18.35H11.2009C10.6018 18.35 10.1907 17.7468 10.4097 17.1892L11.9812 13.1892Z" fill="white" stroke="#1D1E21" stroke-width="1.3"/>
<line x1="14" y1="5.20185" x2="15.2021" y2="3.99977" stroke="#1D1E21" stroke-width="1.3" stroke-linecap="round"/>
<line x1="4.91924" y1="4" x2="6.12132" y2="5.20208" stroke="#1D1E21" stroke-width="1.3" stroke-linecap="round"/>
<line x1="10.1498" y1="3.35" x2="10.1498" y2="1.65" stroke="#1D1E21" stroke-width="1.3" stroke-linecap="round"/>
</svg>
