<?xml version="1.0" encoding="UTF-8"?>
<svg id="Layer_1" xmlns="http://www.w3.org/2000/svg" version="1.1" viewBox="0 0 1033.1 324.8">
  <!-- Generator: Adobe Illustrator 29.5.1, SVG Export Plug-In . SVG Version: 2.1.0 Build 141)  -->
  <defs>
    <style>
      .st0 {
        fill: #fff;
      }

      .st1 {
        fill: #00c3b3;
      }
    </style>
  </defs>
  <rect class="st1" width="1033.1" height="324.8"/>
  <g>
    <g>
      <path class="st0" d="M856.6,204.2c-.3.2-.5.4-.8.6-.3.2-.5.5-.8.7-.2.2-.5.5-.7.8-.2.3-.5.5-.7.8-1.8,2.4-2.9,5.3-3.3,8.4-.4,3.1-.1,6.5.7,10,.8,3.5,2.2,7.1,4.2,10.6,1.9,3.5,4.4,7,7.4,10.3l22.2,24.2,16.7-12.6c2.5-1.9,4.3-4.6,5.3-7.7,1-3.2,1.2-6.9.6-10.9-.6-4-2.1-8.3-4.3-12.5-2.2-4.2-5.2-8.4-8.9-12.2-.4-.4-.9-.9-1.3-1.3-.4-.4-.9-.8-1.3-1.2-.4-.4-.9-.8-1.3-1.2-.4-.4-.9-.7-1.3-1.1l-13.5,14.2-18.9-20"/>
      <path class="st0" d="M841.4,54.2l-14.5,35.8c-1.8,4.4-2.7,9.2-2.9,14.1-.2,4.8.3,9.7,1.5,14.5,1.1,4.7,2.9,9.4,5.2,13.7,2.3,4.3,5.2,8.3,8.6,11.8.4.4.8.8,1.2,1.2.4.4.8.8,1.2,1.1.4.4.8.7,1.2,1,.4.3.8.7,1.3,1l11.9-21.3,22.2,21.9c.4-.3.7-.7,1.1-1,.4-.4.7-.7,1-1.1.3-.4.7-.8,1-1.2.3-.4.7-.9,1-1.3,2.7-4,4.6-8.7,5.5-13.8,1-5.2,1-10.9.1-16.6-.9-5.8-2.7-11.6-5.5-16.9-2.7-5.4-6.3-10.3-10.7-14.4l-30.5-28.4"/>
      <path class="st0" d="M814.3,143c-1.4,0-2.8.3-4,.7-1.2.4-2.4,1-3.5,1.8-1.1.8-2,1.7-2.8,2.8-.8,1.1-1.5,2.3-2.1,3.8l-7.9,19.5,19.4,21.2c1.4,1.5,2.9,2.9,4.3,4.1,1.5,1.2,3,2.3,4.5,3.2,1.5.9,3,1.7,4.5,2.2,1.5.6,3,1,4.4,1.3,1.4.2,2.7.3,4.1.2,1.3,0,2.6-.4,3.8-.8,1.2-.4,2.3-1.1,3.4-1.9,1.1-.8,2-1.8,2.8-3,.2-.3.4-.6.6-.9.2-.3.4-.6.5-.9.2-.3.3-.7.5-1,.1-.3.3-.7.4-1l-18-19,9.5-17c-.3-.4-.7-.9-1-1.3-.3-.4-.7-.9-1-1.3-.4-.4-.7-.8-1.1-1.2-.4-.4-.7-.8-1.1-1.2-1.7-1.7-3.4-3.3-5.2-4.6-1.7-1.3-3.5-2.4-5.2-3.2-1.7-.8-3.4-1.4-5.1-1.8-1.6-.4-3.2-.6-4.7-.5"/>
      <path class="st0" d="M918.3,143.3c-2.6,0-5.1.3-7.5.9-2.4.5-4.6,1.3-6.8,2.3-2.1,1-4.1,2.2-5.9,3.7-1.8,1.4-3.4,3.1-4.8,4.9-.3.4-.7.9-1,1.3-.3.4-.6.9-.9,1.4-.3.5-.5.9-.8,1.4-.3.5-.5,1-.7,1.4l23.7,23.3-17,17.9c.4.5.7,1,1.1,1.5.4.5.8,1,1.2,1.4.4.5.8.9,1.2,1.4.4.5.9.9,1.3,1.4,2,2,4.1,3.8,6.2,5.5,2.2,1.6,4.4,3.1,6.8,4.3,2.3,1.3,4.8,2.3,7.2,3.2,2.5.9,5,1.5,7.4,2,2.4.4,4.8.6,7.1.6,2.4,0,4.8-.2,7.1-.6,2.3-.4,4.6-1.1,6.8-2.1,2.2-.9,4.3-2.1,6.2-3.6l33-24.8-37.4-34.8c-2.6-2.4-5.3-4.5-8.1-6.2-2.8-1.8-5.7-3.2-8.6-4.4-2.9-1.1-5.8-2-8.7-2.5-2.9-.5-5.7-.8-8.4-.7"/>
    </g>
    <g>
      <path class="st0" d="M104.6,151.3h-21.6l-12.5,63.5h-18.1l12.5-63.5h-21.4l3.3-16.7h61l-3.3,16.7Z"/>
      <path class="st0" d="M94.6,199.4c0-2.5.3-5.2.9-8.1l6.1-29.4h17.9l-5.2,26.7c-.3,1.9-.6,3.6-.6,5,0,5.8,3.5,7.8,7.3,7.8,5.8,0,10.6-4.2,12.5-14l5-25.5h17.7l-10.5,52.9h-17.1l1.6-8.6h-.2c-4.7,7-9.7,10.3-17.6,10.3s-17.8-4.9-17.8-17.1ZM114.4,135.7h14.4l-3.1,15.5h-14.4l3.1-15.5ZM136.3,135.7h14.4l-3.1,15.5h-14.4l3.1-15.5Z"/>
      <path class="st0" d="M167.7,161.8h17.2l-2.2,10.7h.2c3.8-9.7,11.9-12.3,18.9-12.3s1.7.1,2.4.2l-3.5,18.2c-.6,0-1.3-.1-3-.1-10.7,0-16.7,4.2-19.1,16.7l-3.8,19.5h-17.6l10.5-52.9Z"/>
      <path class="st0" d="M239.6,187.3l18.2,27.5h-21.8l-13.6-24.2-4.8,24.2h-17.6l15.8-80.2h17.6l-9.4,48,19.7-20.7h23.2l-27.3,25.4Z"/>
      <path class="st0" d="M269.8,161.8h17.6l-10.5,52.9h-17.6l10.5-52.9ZM289.9,152.1h-18.9l3.5-17.4h18.9l-3.5,17.4Z"/>
      <path class="st0" d="M354.3,161.8l-48.8,75.8h-19l19.3-29.1-14.3-46.7h18.8l7,29,17.9-29h19.1Z"/>
      <path class="st0" d="M404.6,192.4h-38.6c.8,6.2,4.4,9.5,12,9.5s12.6-2.4,16.5-4.7l5.5,13.5c-6.8,3.4-14.3,5.7-23.2,5.7-16.8,0-28-9.6-28-25.4s9.6-30.8,31.9-30.8,25.4,7.7,25.4,21.3-.5,6.8-1.6,10.9ZM389,180.2c0-4.8-3.5-7.7-9-7.7s-11,3.8-13,9.7h21.9c.1-.7.1-1.3.1-2.1Z"/>
      <path class="st0" d="M470.8,151.3l-3.3,16.3h29.4l-3.1,16.2h-29.5l-6.2,31h-18.1l15.8-80.2h52.1l-3.1,16.7h-34Z"/>
      <path class="st0" d="M511.3,161.8h17.6l-10.5,52.9h-17.6l10.5-52.9ZM531.4,152.1h-18.9l3.5-17.4h18.9l-3.5,17.4Z"/>
      <path class="st0" d="M540.1,161.8h17.2l-1.6,8h.2c4.8-6.2,10.6-9.7,18.5-9.7s17.1,5.6,17.1,17.2-.2,6.2-1,10.3l-5.6,27.2h-17.5l5-25.9c.5-2.1.8-4.1.8-6.1,0-5.8-3.1-8.2-8.5-8.2s-10.4,3.1-12.3,13.6l-5.2,26.6h-17.6l10.5-52.9Z"/>
      <path class="st0" d="M594.2,191.6c0-18.6,11.8-31.5,28.5-31.5s15.6,3.9,18.9,10.9h.3l1.7-9.2h17.5l-10.5,52.9h-17.5l1.4-7.1h-.2c-4.3,5.6-10.7,8.8-17.5,8.8-14,0-22.7-9.5-22.7-24.9ZM638.2,187.2c0-6.8-4.9-11.2-12.1-11.2s-13.4,5.7-13.4,13.6,4.8,11.1,12,11.1,13.5-5.7,13.5-13.5Z"/>
      <path class="st0" d="M669.9,161.8h17.2l-1.6,8h.2c4.8-6.2,10.6-9.7,18.5-9.7s17.1,5.6,17.1,17.2-.2,6.2-1,10.3l-5.6,27.2h-17.5l5-25.9c.5-2.1.8-4.1.8-6.1,0-5.8-3.1-8.2-8.5-8.2s-10.4,3.1-12.3,13.6l-5.2,26.6h-17.6l10.5-52.9Z"/>
      <path class="st0" d="M746.8,202.4c2.6,0,3.6-.9,3.6-2.3s-.8-1.9-3.1-3.3l-7.5-4.1c-6.8-3.7-10.4-8.2-10.4-15.5,0-10.3,7.3-17.1,20.6-17.1s15.6,2.1,23.4,5.7l-6.4,12.8c-5.7-3-11.8-4.7-16.1-4.7s-3.8.7-3.8,2.1,1,2.1,3.7,3.6l7.1,3.9c6.6,3.4,10.5,7.2,10.5,15.1,0,11.8-8.4,17.9-22,17.9s-18.1-2.9-26.1-8.6l8.5-12.6c6.8,4.4,13,7.1,17.9,7.1Z"/>
    </g>
  </g>
</svg>