<?xml version="1.0" encoding="utf-8"?>
<!-- Generator: Adobe Illustrator 27.1.1, SVG Export Plug-In . SVG Version: 6.00 Build 0)  -->
<svg version="1.1" id="Layer_1" xmlns="http://www.w3.org/2000/svg" xmlns:xlink="http://www.w3.org/1999/xlink" x="0px" y="0px"
	 viewBox="0 0 122 34" style="enable-background:new 0 0 122 34;" xml:space="preserve">
<style type="text/css">
	.st0{fill:#E03B2E;}
</style>
<g id="layer1" transform="translate(-73.898711,-93.266576)">
	<path id="path765" class="st0" d="M176.9,117h4.7v-4.8h1.6l5.8,4.8h6.8l-8.2-6.6l7.6-6.8h-6.7l-5.3,4.7h-1.8v-4.7h-4.6L176.9,117
		L176.9,117z M87.8,103.5l7.2,13.4h-5l-1.3-2.3h-8.3l-1.3,2.3h-5.3l7.4-13.4L87.8,103.5z M86.8,111.3l-2.2-3.9l0,0l-2.2,4
		L86.8,111.3z M95.8,117h4.8v-4.8h1.6l5.8,4.8h6.8l-8.2-6.6l7.6-6.8h-6.7l-5.3,4.7h-1.8v-4.7h-4.6L95.8,117L95.8,117z M123.9,103.5
		c1.8,0,3.6,0,5.4,0c0.8,0,2.3,0.7,2.8,2.3c0.4,1.3,0.1,3.5-1,4.3c0.8,0.3,1.4,1.6,1.5,3v0.5c0,0.2,0,0.5-0.1,0.7
		c-0.3,1.5-1.5,2.6-2.4,2.6c-2.1,0-4.2,0-6.2,0c-2.7,0-5.5,0-8.2,0c0-4.5,0-9,0-13.4C118.4,103.5,121.1,103.5,123.9,103.5
		L123.9,103.5z M123.9,113.2h3.4c0.4,0,0.7-0.3,0.7-0.7c0-0.4-0.3-0.7-0.7-0.7H120v1.4L123.9,113.2z M123.9,108.4h3.2
		c0.4,0,0.7-0.3,0.7-0.7c0-0.4-0.3-0.7-0.7-0.7H120v1.4L123.9,108.4L123.9,108.4z M155.1,103.5V117h4.8v-9l6.8,9h7.4v-13.4h-4.7v9.4
		l-7-9.4H155.1z M147,103.5l7.2,13.4h-5l-1.2-2.2h-8.3l-1.3,2.2h-5.3l7.4-13.4H147z M146.1,111.3l-2.3-3.9l0,0l-2.2,4L146.1,111.3z"
		/>
</g>
</svg>
