<svg xmlns="http://www.w3.org/2000/svg" viewBox="0 0 115.28 27.8"><defs><style>.cls-1{fill:#759999;}.cls-2{fill:#ed2725;}</style></defs><title>aktifbank</title><g id="Layer_2" data-name="Layer 2"><g id="Layer_1-2" data-name="Layer 1"><path class="cls-1" d="M65.12,11a12.88,12.88,0,0,1,2.74-1.45,4.9,4.9,0,0,1,3.29.16A3.69,3.69,0,0,1,73,11.41a6.64,6.64,0,0,1,.8,2.72,9.5,9.5,0,0,1-.45,4.3,4.6,4.6,0,0,1-3.1,2.89,8.18,8.18,0,0,1-2.86.32,6.72,6.72,0,0,1-3-.83c-.12-.06-.2-.08-.31,0s-.44.4-.65.62a.34.34,0,0,1-.41.09c-.18-.06-.19-.17-.19-.33V6a2.4,2.4,0,0,0-.06-.6A.72.72,0,0,0,62,4.94a4.77,4.77,0,0,0-.66-.05c-.11,0-.17-.06-.18-.2,0-.47,0-.47.45-.47l3.23,0c.21,0,.25.06.25.26V11Zm0,4.62c0,.9,0,1.78,0,2.66A3,3,0,0,0,66,20.05a3.16,3.16,0,0,0,3.49.39A3.31,3.31,0,0,0,71,18.32a10.53,10.53,0,0,0,.14-5.05,3.49,3.49,0,0,0-1.22-2.07,2.84,2.84,0,0,0-2.83-.38,2.57,2.57,0,0,0-1.93,2.34C65.08,14,65.15,14.8,65.11,15.61Z"/><path class="cls-1" d="M107,14.86a3.24,3.24,0,0,0,.48-.62c.66-.86,1.32-1.71,2-2.55.45-.55.9-1.11,1.37-1.66a1.18,1.18,0,0,1,.87-.39c.88,0,1.77,0,2.65,0,.18,0,.24.05.23.23,0,.46,0,.47-.42.53a5.06,5.06,0,0,0-2.5,1,17.42,17.42,0,0,0-2.58,2.5c-.22.26-.21.37,0,.65a33.08,33.08,0,0,0,2.07,2.65c.73.84,1.49,1.66,2.29,2.43a4.34,4.34,0,0,0,1.73,1.1c.14,0,.15.1.15.22,0,.5,0,.47-.47.49a14.81,14.81,0,0,1-1.63-.07,3.14,3.14,0,0,1-1.87-.81,22.38,22.38,0,0,1-2.51-2.73c-.61-.77-1.18-1.56-1.72-2.37,0-.05,0-.12-.11-.12s0,.11,0,.16v4.16c0,.56.18.75.71.84a4.5,4.5,0,0,0,.89.1c.13,0,.17.05.17.18,0,.55,0,.55-.51.55h-5c-.2,0-.29,0-.28-.27,0-.41,0-.41.42-.47l.55-.09c.6-.11.75-.27.81-.89v-.32q0-6.66,0-13.32a4.62,4.62,0,0,0-.07-.65c0-.21-.3-.38-.57-.42s-.61,0-.91-.08c-.09,0-.12,0-.13-.13-.06-.48,0-.5.42-.5h3.28c.21,0,.26,0,.26.25,0,3.36,0,6.71,0,10.07Z"/><path class="cls-2" d="M21.17,15.29c0,1.52-.05,3,0,4.51,0,.47.18.65.64.72a5.88,5.88,0,0,0,.94.1c.13,0,.18,0,.19.18,0,.55,0,.55-.54.55H17.4c-.23,0-.3-.07-.27-.29s-.06-.3,0-.4.25,0,.37-.05.51-.07.77-.14a.7.7,0,0,0,.58-.65c0-.28,0-.57,0-.85,0-4.34,0-8.69,0-13a2.29,2.29,0,0,0-.05-.52.66.66,0,0,0-.61-.5c-.27,0-.55-.07-.83-.09s-.19-.07-.17-.21,0-.26,0-.42h3.69c.19,0,.24,0,.24.23,0,3.36,0,6.72,0,10.07V15l.49-.7c.54-.73,1.09-1.44,1.67-2.14s.89-1.13,1.35-1.68a1.69,1.69,0,0,1,1-.77,6.83,6.83,0,0,1,.78-.06h2c.32,0,.32,0,.32.27a2.09,2.09,0,0,0,0,.25c0,.15-.06.19-.19.21a5.64,5.64,0,0,0-1.79.51,7.18,7.18,0,0,0-1.73,1.23c-.44.41-.85.86-1.29,1.28-.2.19-.34.42-.54.6a.37.37,0,0,0,0,.54c.62.89,1.28,1.74,2,2.57.24.28.51.56.76.84.47.56,1,1.09,1.49,1.6a4.78,4.78,0,0,0,1.94,1.25c.15.05.13.13.13.24,0,.48,0,.48-.47.46s-1.08,0-1.62-.05a3.56,3.56,0,0,1-1.9-.81,12.16,12.16,0,0,1-1.42-1.45c-.57-.67-1.17-1.32-1.68-2s-.84-1.16-1.2-1.77Z"/><path class="cls-1" d="M100.06,16v3.26a3.68,3.68,0,0,0,.08.8.49.49,0,0,0,.37.4,5.32,5.32,0,0,0,1.12.17c.18,0,.24.05.24.24,0,.49,0,.49-.49.49H96.29c-.22,0-.28-.05-.27-.27,0-.42,0-.41.39-.47a8.79,8.79,0,0,0,.87-.15.69.69,0,0,0,.47-.61c.16-1.54,0-3.08.07-4.62a18.12,18.12,0,0,0,0-2,4,4,0,0,0-.4-1.56,2,2,0,0,0-1.33-1,3.05,3.05,0,0,0-2.06.19,3,3,0,0,0-1.67,1.74,3.43,3.43,0,0,0-.13,1.06v5.51a5.31,5.31,0,0,0,.05.68c0,.38.23.55.66.61a5.75,5.75,0,0,0,.92.1c.14,0,.18.05.18.19,0,.54,0,.54-.53.54h-5c-.23,0-.34-.06-.3-.3a.33.33,0,0,0,0-.14c0-.22,0-.3.28-.3a5,5,0,0,0,.94-.14.66.66,0,0,0,.52-.62c0-.21,0-.42,0-.63V11.78a4.76,4.76,0,0,0-.06-.65.72.72,0,0,0-.67-.46l-.84-.1h0c-.12-.17,0-.36,0-.54s0-.12.13-.13l3.22-.54c.17,0,.24,0,.27.21.08.46.17.92.24,1.38,0,.16.07.14.19.07a16,16,0,0,1,2.11-1.24,4.53,4.53,0,0,1,3.89,0,3.06,3.06,0,0,1,1.61,2.2,7.92,7.92,0,0,1,.11,1.82Z"/><path class="cls-2" d="M14,15.23c0,1.31,0,2.38,0,3.45a3,3,0,0,0,.2,1.08,1.16,1.16,0,0,0,1.35.65l0,0c.42-.09.56,0,.59.45,0,.08,0,.1-.08.12a6.15,6.15,0,0,1-1.77.59,5.56,5.56,0,0,1-1.08.09,1.19,1.19,0,0,1-.92-.47,1.66,1.66,0,0,1-.4-.63c-.1-.32-.16-.31-.44-.13a7.71,7.71,0,0,1-1.89,1A5.6,5.6,0,0,1,8,21.64,3.23,3.23,0,0,1,6.07,21a3.08,3.08,0,0,1-1-1.4,3.87,3.87,0,0,1-.22-1.84,2.62,2.62,0,0,1,.68-1.49,3.34,3.34,0,0,1,1.6-.93c1.27-.41,2.57-.72,3.81-1.23a3.71,3.71,0,0,0,.88-.52c.08-.07.06-.13.06-.19a6.7,6.7,0,0,0-.08-1.62,2.43,2.43,0,0,0-.52-1,2.2,2.2,0,0,0-3,.11,4.28,4.28,0,0,0-.83,1.56c-.22.72-.55.91-1.27.71a1.14,1.14,0,0,1-.78-.59,1.32,1.32,0,0,1,.15-1.34,3.39,3.39,0,0,1,1.3-1.1,6.92,6.92,0,0,1,3-.75,7,7,0,0,1,2.45.31A2.4,2.4,0,0,1,14,11.85C14.08,13.05,14,14.26,14,15.23Zm-2.17-.65c-.24.11-.44.22-.66.3-.86.35-1.73.67-2.57,1a2,2,0,0,0-1.35,1.56,2.69,2.69,0,0,0,0,.75,2.05,2.05,0,0,0,2.26,2.12,2.25,2.25,0,0,0,2.3-2.05c.07-.8,0-1.6,0-2.4C11.86,15.47,11.85,15,11.85,14.58Z"/><path class="cls-1" d="M84.62,15.16c0,1.24,0,2.25,0,3.26a3.85,3.85,0,0,0,.17,1.21c.23.7.65.81,1.32.79a1.26,1.26,0,0,1,.27,0c.1,0,.23-.12.29,0a1.19,1.19,0,0,1,.13.49c0,.11-.14.14-.23.18a7.71,7.71,0,0,1-1.65.51,3.43,3.43,0,0,1-1.15.07,1.52,1.52,0,0,1-1.11-.89l-.09-.19c-.16-.33-.17-.34-.48-.12a6.78,6.78,0,0,1-2.57,1.15,3.36,3.36,0,0,1-3.25-1,3,3,0,0,1-.82-1.9,3.54,3.54,0,0,1,.29-1.95,3.07,3.07,0,0,1,1.85-1.38c1.17-.39,2.38-.68,3.53-1.12a3.81,3.81,0,0,0,1.21-.64c.06-.06.13-.11.13-.22a6.9,6.9,0,0,0-.16-1.92,1.69,1.69,0,0,0-1.4-1.26,2.19,2.19,0,0,0-1.89.46,3.2,3.2,0,0,0-.91,1.44,2.32,2.32,0,0,0-.13.37c-.18.75-.81.87-1.44.54a1.09,1.09,0,0,1-.63-.63,1.44,1.44,0,0,1,.24-1.28,4.3,4.3,0,0,1,2-1.37,7.46,7.46,0,0,1,3.57-.36,3.92,3.92,0,0,1,1.87.62,2.28,2.28,0,0,1,1,1.73C84.7,13,84.57,14.17,84.62,15.16Zm-2.16,1.45c0-.69,0-1.25,0-1.81,0-.15,0-.24-.19-.14-.55.28-1.14.49-1.71.72A14.62,14.62,0,0,0,79,16a1.94,1.94,0,0,0-1.11,1.51,3,3,0,0,0,0,1,2,2,0,0,0,1.19,1.64,2.68,2.68,0,0,0,1.25.14,2.21,2.21,0,0,0,2.06-1.84A17.69,17.69,0,0,0,82.46,16.61Z"/><path class="cls-2" d="M36.92,25.71A17.55,17.55,0,0,0,51.19,22.8a17.59,17.59,0,0,0,7.38-12.56A14.47,14.47,0,0,1,36.92,25.71Z"/><path class="cls-2" d="M21.93,2.08A17.52,17.52,0,0,0,7.69,5,17.56,17.56,0,0,0,.34,17.52a14.45,14.45,0,0,1,.11-6.7A14.13,14.13,0,0,1,3.57,4.94,14.13,14.13,0,0,1,12.14.19,14.31,14.31,0,0,1,21.93,2.08Z"/><path class="cls-2" d="M44.39,10.58a8.35,8.35,0,0,0,0-.87c0-.16.06-.17.16-.15a10.16,10.16,0,0,0,1.56,0c.06,0,.1,0,.1-.09,0-.5.06-1,.12-1.51A5.69,5.69,0,0,1,47,5.56a3,3,0,0,1,2.06-1.38,4.75,4.75,0,0,1,2.45.13,2.3,2.3,0,0,1,1.28.92,1,1,0,0,1,0,1.13,1.17,1.17,0,0,1-1,.6.7.7,0,0,1-.78-.51,2.7,2.7,0,0,0-.86-1.22c-.51-.38-1-.44-1.44.1a1.68,1.68,0,0,0-.28.69,9,9,0,0,0-.08,2.32c0,.36,0,.71.06,1.07,0,.16.06.2.21.2h2.47c.19,0,.27,0,.26.24s.07.55,0,.69-.46.05-.7.05h-2c-.15,0-.2,0-.2.2q0,4.41,0,8.84c0,.6.25.85.84.91.42,0,.84.1,1.26.1.12,0,.15,0,.16.15,0,.57,0,.57-.54.57H44.62c-.17,0-.21,0-.18-.2s-.07-.39,0-.49.3-.06.46-.08l.41-.05c.65-.1.75-.21.86-.9a2.69,2.69,0,0,0,0-.49c0-2.77,0-5.55,0-8.32,0-.22-.06-.26-.26-.25Z"/><path class="cls-2" d="M33.05,18.05a4.05,4.05,0,0,0,.26,1.46,1.38,1.38,0,0,0,1.22.87,4.14,4.14,0,0,0,1.63-.27.15.15,0,0,1,.22.06c.15.21.14.42-.08.54a6.31,6.31,0,0,1-2.16.86A3.53,3.53,0,0,1,32,21.38,2,2,0,0,1,30.91,20a5.53,5.53,0,0,1-.12-1.41V4.39c0-.11,0-.19.14-.18h2c.06,0,.12,0,.15.06,0,1.75,0,3.5,0,5.25,0,.14.15.08.22.08h2.62c.18,0,.27,0,.25.24s.1.56,0,.7-.45,0-.68,0H33.33c-.31,0-.34,0-.27.36,0,.92,0,1.84,0,2.76C33,15.15,33.05,16.6,33.05,18.05Z"/><path class="cls-2" d="M41.79,14.7v4.8a2.82,2.82,0,0,0,.09.57.49.49,0,0,0,.42.4,4.56,4.56,0,0,0,1.1.15c.16,0,.21.05.21.21,0,.52,0,.52-.53.52H38c-.18,0-.29,0-.25-.24s0-.32,0-.43.27-.05.41-.07.55-.09.81-.15a.61.61,0,0,0,.49-.53,3.47,3.47,0,0,0,.07-.79V11.34a1.77,1.77,0,0,0-.09-.65c-.12-.29-.42-.3-.67-.36a4.68,4.68,0,0,0-.75-.11c-.12,0-.15-.07-.16-.19,0-.44,0-.44.43-.44h3.28c.19,0,.23.05.23.23C41.79,11.45,41.79,13.07,41.79,14.7Z"/><path class="cls-2" d="M40.62,7.64a1.32,1.32,0,0,1-1.46-1.28,1.41,1.41,0,0,1,1.51-1.63A1.44,1.44,0,0,1,42.1,6.31,1.36,1.36,0,0,1,40.62,7.64Z"/><path class="cls-1" d="M33.05,18.05c0-1.45,0-2.9,0-4.35,0-.92,0-1.84,0-2.76C33.06,13.31,33.05,15.68,33.05,18.05Z"/><path class="cls-1" d="M33.05,9.52c0-1.75,0-3.5,0-5.25C33.06,6,33.05,7.77,33.05,9.52Z"/></g></g></svg>