<svg width="264" height="98" viewBox="0 0 264 98" fill="none" xmlns="http://www.w3.org/2000/svg">
<path fill-rule="evenodd" clip-rule="evenodd" d="M156.897 52.2938H147.19C139.961 52.2938 134.112 46.4382 134.112 39.2V16.3469H156.938C164.167 16.3469 170.016 22.2025 170.016 29.4407V39.1593C169.975 46.4382 164.127 52.2938 156.897 52.2938Z" fill="#0F7AD2"/>
<path fill-rule="evenodd" clip-rule="evenodd" d="M107.103 4.18839H116.81C124.039 4.18839 129.888 10.044 129.888 17.2822V40.0539H107.062C99.8327 40.0539 93.984 34.1983 93.984 26.9602V17.3228C93.984 10.0847 99.8733 4.18839 107.103 4.18839Z" fill="#2B2523"/>
<path d="M24.6129 93.527L22.704 87.834H11.2911L9.34157 93.527H2.80249L14.4591 61.4431H19.3736L31.0708 93.527H24.6129ZM17.1397 70.9178L13.0782 82.5884H21.0388L17.1397 70.9178Z" fill="black"/>
<path d="M48.2105 93.527V79.3353C48.2105 76.8141 46.8295 75.0249 44.352 75.0249C41.8338 75.0249 40.4529 76.7328 40.4529 79.3353V93.527H34.6043V70.0232H40.3311V72.2191C41.8745 70.5925 43.7834 69.8199 46.1797 69.8199C48.7791 69.8199 50.7286 70.6332 52.1502 72.3004C53.4498 73.8456 54.1403 75.9602 54.1403 78.5627V93.527H48.2105Z" fill="black"/>
<path d="M71.605 93.527V91.5344C70.1022 93.039 68.1527 93.771 65.8782 93.771C63.4819 93.771 61.573 93.1203 60.1514 91.9411C58.6487 90.6805 57.9582 88.8506 57.9582 86.4108C57.9582 84.1743 58.7705 82.4664 60.3545 81.2465C61.776 80.1485 63.685 79.6199 65.9594 79.6199H71.5237V78.4813C71.5237 76.0008 70.1022 74.8216 67.1779 74.8216C65.269 74.8216 63.8068 75.4722 62.7102 76.7734L58.9736 73.1137C60.1108 71.8531 61.3699 70.9992 62.832 70.4705C64.0505 70.0639 65.5939 69.8199 67.4622 69.8199C74.1231 69.8199 77.4536 72.5851 77.4536 78.0747V93.527H71.605ZM71.5237 83.605H66.8936C64.7003 83.605 63.6443 84.5403 63.6443 86.2481C63.6443 88.0373 64.7816 88.9319 67.0154 88.9319C69.0056 88.9319 70.3459 88.4033 71.0363 87.4274C71.3613 86.8988 71.5643 86.0448 71.5643 84.7842L71.5237 83.605Z" fill="black"/>
<path d="M96.0554 93.527V91.3311C94.5526 92.9983 92.6031 93.8116 90.2474 93.8116C85.7797 93.8116 83.1803 91.6158 82.4086 87.2241C82.1649 86.0041 82.1243 84.1743 82.1243 81.8158C82.1243 79.4573 82.2462 77.668 82.4086 76.4888C83.1397 72.0564 85.7391 69.9012 90.2068 69.9012C92.6031 69.9012 94.512 70.6332 95.9336 72.2597V61.4431H101.782V93.527H96.0554ZM95.3649 77.3427C94.7963 75.8382 93.5779 75.1062 91.9126 75.1062C90.1256 75.1062 89.0289 75.8382 88.4603 77.3427C88.176 78.1967 87.9323 79.7012 87.9323 81.8158C87.9323 83.9303 88.0948 85.4348 88.4603 86.2888C89.0289 87.834 90.2474 88.566 91.9126 88.566C93.6185 88.566 94.7963 87.834 95.3649 86.3295C95.6899 85.3942 95.8929 83.9303 95.8929 81.8564C95.9336 79.7419 95.6899 78.2373 95.3649 77.3427Z" fill="black"/>
<path d="M122.78 90.9245C120.953 92.8764 118.475 93.8116 115.51 93.8116C112.464 93.8116 110.108 92.8764 108.281 90.9245C106.494 89.0946 105.641 86.0448 105.641 81.8158C105.641 73.8456 108.89 69.8199 115.551 69.8199C122.131 69.8199 125.461 73.8456 125.461 81.8158C125.42 86.0448 124.567 89.0539 122.78 90.9245ZM118.922 77.2614C118.353 75.7568 117.135 75.0656 115.47 75.0656C113.804 75.0656 112.667 75.7975 112.017 77.3021C111.611 78.278 111.367 79.7826 111.367 81.7751C111.367 83.7676 111.53 85.2722 111.936 86.2481C112.586 87.7527 113.723 88.4846 115.388 88.4846C117.094 88.4846 118.272 87.7527 118.841 86.2481C119.247 85.3129 119.491 83.7676 119.491 81.7751C119.572 79.7419 119.328 78.2373 118.922 77.2614Z" fill="black"/>
<path d="M135.899 93.527C131.838 93.527 129.076 90.8838 129.076 86.8174V61.4431H134.924V86.4921C134.924 87.8747 135.615 88.6066 136.996 88.6066H139.23V93.527H135.899Z" fill="black"/>
<path d="M155.638 93.527V91.3311C154.095 92.9577 152.186 93.7303 149.79 93.7303C147.19 93.7303 145.241 92.917 143.819 91.2498C142.519 89.7045 141.829 87.59 141.829 84.9875V70.0232H147.718V84.2149C147.718 86.7361 149.099 88.5253 151.577 88.5253C154.095 88.5253 155.476 86.8174 155.476 84.2149V70.0232H161.324V93.4863H155.638V93.527Z" fill="black"/>
<path d="M186.303 87.1427C185.572 91.5751 182.972 93.7303 178.505 93.7303C176.108 93.7303 174.159 92.917 172.656 91.2498V93.4456H166.97V61.4431H172.818V72.1377C174.199 70.5925 176.068 69.7792 178.505 69.7792C182.972 69.7792 185.49 71.9751 186.303 76.3668C186.546 77.5867 186.587 79.4166 186.587 81.6938C186.587 84.1743 186.546 85.9635 186.303 87.1427ZM180.292 77.3427C179.723 75.8382 178.586 75.1062 176.839 75.1062C175.052 75.1062 173.956 75.8382 173.387 77.3427C173.103 78.1967 172.859 79.7012 172.859 81.8158C172.859 83.9303 173.022 85.4348 173.387 86.2888C173.956 87.834 175.174 88.566 176.839 88.566C178.545 88.566 179.723 87.834 180.292 86.2888C180.576 85.4348 180.82 83.9303 180.82 81.8158C180.738 79.6199 180.576 78.156 180.292 77.3427Z" fill="black"/>
<path d="M203.686 93.527V91.5344C202.183 93.039 200.234 93.771 197.959 93.771C195.563 93.771 193.654 93.1203 192.233 91.9411C190.73 90.6805 190.039 88.8506 190.039 86.4108C190.039 84.1743 190.852 82.4664 192.436 81.2465C193.857 80.1485 195.766 79.6199 198.041 79.6199H203.605V78.4813C203.605 76.0008 202.183 74.8216 199.259 74.8216C197.35 74.8216 195.888 75.4722 194.791 76.7734L191.055 73.1137C192.192 71.8531 193.451 70.9992 194.913 70.4705C196.132 70.0639 197.675 69.8199 199.543 69.8199C206.204 69.8199 209.535 72.5851 209.535 78.0747V93.527H203.686ZM203.564 83.605H198.934C196.741 83.605 195.685 84.5403 195.685 86.2481C195.685 88.0373 196.822 88.9319 199.056 88.9319C201.046 88.9319 202.387 88.4033 203.077 87.4274C203.402 86.8988 203.605 86.0448 203.605 84.7842L203.564 83.605Z" fill="black"/>
<path d="M228.583 93.527V79.3353C228.583 76.8141 227.202 75.0249 224.725 75.0249C222.207 75.0249 220.826 76.7328 220.826 79.3353V93.527H214.977V70.0232H220.704V72.2191C222.247 70.5925 224.156 69.8199 226.553 69.8199C229.152 69.8199 231.102 70.6332 232.523 72.3004C233.823 73.8456 234.513 75.9602 234.513 78.5627V93.527H228.583Z" fill="black"/>
<path d="M253.968 93.527L248.241 83.7676L245.764 86.5734V93.5676H239.915V61.4431H245.764V79.6606L253.562 70.0639H260.629L252.181 79.4979L261.198 93.4863H253.968V93.527Z" fill="black"/>
</svg>
