<svg width="134" height="40" viewBox="0 0 134 40" fill="none" xmlns="http://www.w3.org/2000/svg">
<g clip-path="url(#clip0_741_1017)">
<path d="M128.417 0.277832H5.58322C2.65381 0.277832 0.279053 2.64077 0.279053 5.55561V34.4445C0.279053 37.3594 2.65381 39.7223 5.58322 39.7223H128.417C131.346 39.7223 133.721 37.3594 133.721 34.4445V5.55561C133.721 2.64077 131.346 0.277832 128.417 0.277832Z" fill="black" stroke="#C0C1C1"/>
<path d="M51.0986 16.3614H45.8906L44.6354 19.8754H42.4333L47.366 6.88623H49.6562L54.5889 19.8754H52.3427L51.0875 16.3614H51.0986ZM46.4301 14.7404H50.559L48.5221 9.04062H48.467L46.4301 14.7404Z" fill="white"/>
<path d="M65.2584 15.1374C65.2584 18.0761 63.5957 19.9691 61.0966 19.9691C59.6762 19.9691 58.5528 19.3625 57.9588 18.3167H57.9147V23.002H55.8667V10.3998H57.8482V11.9789H57.8812C58.454 10.9645 59.665 10.3057 61.0525 10.3057C63.5851 10.3057 65.2473 12.2091 65.2473 15.1374H65.2584ZM63.1552 15.1374C63.1552 13.2235 62.1094 11.9581 60.5238 11.9581C58.9387 11.9581 57.9035 13.2444 57.9035 15.1374C57.9035 17.0303 58.9604 18.3271 60.5238 18.3271C62.0877 18.3271 63.1552 17.0722 63.1552 15.1374Z" fill="white"/>
<path d="M76.2238 15.1374C76.2238 18.0761 74.5616 19.9691 72.0619 19.9691C70.6415 19.9691 69.5187 19.3625 68.9241 18.3167H68.88V23.002H66.832V10.3998H68.8141V11.9789H68.8471C69.4193 10.9645 70.6309 10.3057 72.0178 10.3057C74.5504 10.3057 76.2132 12.2091 76.2132 15.1374H76.2238ZM74.1211 15.1374C74.1211 13.2235 73.0748 11.9581 71.4896 11.9581C69.904 11.9581 68.8688 13.2444 68.8688 15.1374C68.8688 17.0303 69.9263 18.3271 71.4896 18.3271C73.053 18.3271 74.1211 17.0722 74.1211 15.1374Z" fill="white"/>
<path d="M83.4798 16.257C83.6339 17.5434 84.9443 18.3905 86.7499 18.3905C88.5556 18.3905 89.7119 17.5434 89.7119 16.3825C89.7119 15.3785 88.9632 14.7719 87.1905 14.3536L85.4177 13.9457C82.9075 13.3705 81.74 12.2515 81.74 10.4422C81.74 8.20414 83.7991 6.66675 86.717 6.66675C89.6348 6.66675 91.5834 8.20414 91.6499 10.4422H89.5796C89.4584 9.14536 88.3244 8.36097 86.6841 8.36097C85.0431 8.36097 83.9091 9.1558 83.9091 10.3062C83.9091 11.2266 84.6249 11.7599 86.3865 12.1782L87.8951 12.5339C90.7029 13.1614 91.8698 14.2385 91.8698 16.1315C91.8698 18.5578 89.833 20.0847 86.5958 20.0847C83.568 20.0847 81.52 18.5996 81.3877 16.2465H83.4798V16.257Z" fill="white"/>
<path d="M96.2962 8.16211V10.4002H98.19V11.9376H96.2962V17.1562C96.2962 17.972 96.6708 18.3485 97.5072 18.3485C97.7166 18.3485 98.0471 18.3171 98.1789 18.3067V19.8336C97.9477 19.8858 97.4966 19.9277 97.0449 19.9277C95.0299 19.9277 94.237 19.2061 94.237 17.3758V11.948H92.7837V10.4107H94.237V8.17255H96.2962V8.16211Z" fill="white"/>
<path d="M99.2805 15.138C99.2805 12.1574 101.13 10.2854 104.004 10.2854C106.878 10.2854 108.728 12.1574 108.728 15.138C108.728 18.1186 106.9 19.9907 104.004 19.9907C101.109 19.9907 99.2805 18.1291 99.2805 15.138ZM106.658 15.138C106.658 13.0987 105.667 11.8855 104.015 11.8855C102.364 11.8855 101.373 13.0987 101.373 15.138C101.373 17.1774 102.352 18.3906 104.015 18.3906C105.677 18.3906 106.658 17.1983 106.658 15.138Z" fill="white"/>
<path d="M110.434 10.3997H112.383V12.0103H112.427C112.735 10.9436 113.649 10.2952 114.827 10.2952C115.124 10.2952 115.367 10.337 115.532 10.3684V12.1881C115.367 12.1253 115.014 12.0731 114.618 12.0731C113.297 12.0731 112.482 12.9202 112.482 14.2484V19.8645H110.434V10.3997Z" fill="white"/>
<path d="M124.957 17.0937C124.681 18.8089 122.92 19.9907 120.662 19.9907C117.767 19.9907 115.961 18.15 115.961 15.1798C115.961 12.2097 117.767 10.2854 120.574 10.2854C123.382 10.2854 125.067 12.0842 125.067 14.9602V15.6296H118.031V15.7446C118.031 17.3656 119.099 18.422 120.718 18.422C121.852 18.422 122.743 17.9095 123.019 17.0937H124.957ZM118.042 14.27H123.03C122.986 12.8163 122.006 11.8646 120.585 11.8646C119.165 11.8646 118.152 12.8372 118.042 14.27Z" fill="white"/>
<path d="M42.4333 33.3334H43.284V30.8851H46.0979V33.3334H46.9447V27.8047H46.0979V30.1419H43.284V27.8047H42.4333V33.3334Z" fill="white"/>
<path d="M48.3193 33.3334H51.7978V32.594H49.17V30.8736H51.6573V30.161H49.17V28.5441H51.7978V27.8047H48.3193V33.3334Z" fill="white"/>
<path d="M53.0283 33.3334H53.803V29.276H53.8638L55.4701 33.3334H56.1003L57.7106 29.276H57.7675V33.3334H58.5419V27.8047H57.5626L55.8156 32.2146H55.7549L54.008 27.8047H53.0283V33.3334Z" fill="white"/>
<path d="M59.917 33.3334H63.3954V32.594H60.7673V30.8736H63.2547V30.161H60.7673V28.5441H63.3954V27.8047H59.917V33.3334Z" fill="white"/>
<path d="M64.6255 33.3334H65.4535V29.3181H65.5144L68.3283 33.3334H69.0955V27.8047H68.2675V31.8277H68.2105L65.3926 27.8047H64.6255V33.3334Z" fill="white"/>
<path d="M73.0256 27.0958C73.2952 27.0958 73.5152 26.8774 73.5152 26.6054C73.5152 26.3333 73.2952 26.1111 73.0256 26.1111C72.752 26.1111 72.532 26.3333 72.532 26.6054C72.532 26.8774 72.752 27.0958 73.0256 27.0958ZM72.6001 33.3333H73.451V27.8046H72.6001V33.3333Z" fill="white"/>
<path d="M74.8257 33.3334H75.6537V29.3181H75.714L78.528 33.3334H79.2951V27.8047H78.4671V31.8277H78.4102L75.5928 27.8047H74.8257V33.3334Z" fill="white"/>
<path d="M80.6736 33.3334H82.6518C84.2849 33.3334 85.2307 32.3142 85.2307 30.5595V30.5518C85.2307 28.8162 84.2771 27.8047 82.6518 27.8047H80.6736V33.3334ZM81.5239 32.594V28.5441H82.5568C83.6925 28.5441 84.3647 29.2912 84.3647 30.5633V30.571C84.3647 31.8545 83.7037 32.594 82.5568 32.594H81.5239Z" fill="white"/>
<path d="M86.8102 27.0958C87.0799 27.0958 87.2999 26.8774 87.2999 26.6054C87.2999 26.3333 87.0799 26.1111 86.8102 26.1111C86.5366 26.1111 86.3167 26.3333 86.3167 26.6054C86.3167 26.8774 86.5366 27.0958 86.8102 27.0958ZM86.3848 33.3333H87.2357V27.8046H86.3848V33.3333Z" fill="white"/>
<path d="M88.6104 33.3334H89.4607V31.207H90.6611L91.7772 33.3334H92.761L91.5304 31.0729C92.1988 30.8468 92.5941 30.2415 92.5941 29.4982V29.4905C92.5941 28.4637 91.895 27.8047 90.7711 27.8047H88.6104V33.3334ZM89.4607 30.5096V28.525H90.6611C91.3177 28.525 91.7203 28.9005 91.7203 29.5135V29.5211C91.7203 30.1495 91.3406 30.5096 90.6874 30.5096H89.4607Z" fill="white"/>
<path d="M94.2306 27.0958C94.5003 27.0958 94.7203 26.8774 94.7203 26.6054C94.7203 26.3333 94.5003 26.1111 94.2306 26.1111C93.957 26.1111 93.7371 26.3333 93.7371 26.6054C93.7371 26.8774 93.957 27.0958 94.2306 27.0958ZM93.8052 33.3333H94.6561V27.8046H93.8052V33.3333Z" fill="white"/>
<path d="M96.0305 33.3334H96.858V29.3181H96.9188L99.7328 33.3334H100.5V27.8047H99.672V31.8277H99.615L96.7977 27.8047H96.0305V33.3334Z" fill="white"/>
<path d="M30.2725 20.8503C30.2337 17.4821 33.1798 15.8408 33.3219 15.7673C31.6551 13.4647 29.0708 13.1463 28.1663 13.1218C25.9956 12.9013 23.8895 14.3465 22.7912 14.3465C21.6929 14.3465 19.9614 13.134 18.1266 13.1708C15.762 13.2075 13.5525 14.5058 12.3508 16.5145C9.85697 20.6176 11.7177 26.6437 14.1081 29.9629C15.3098 31.5919 16.7053 33.4047 18.5401 33.3312C20.3361 33.2577 21.008 32.2533 23.1658 32.2533C25.3237 32.2533 25.931 33.3312 27.8045 33.2944C29.7298 33.2699 30.9444 31.6654 32.0944 30.0242C33.477 28.1624 34.0326 26.3252 34.0584 26.2395C34.0197 26.2273 30.3242 24.8922 30.2854 20.8503H30.2725Z" fill="white"/>
<path d="M26.7459 10.9414C27.715 9.80225 28.374 8.24675 28.1801 6.66675C26.7846 6.72797 25.0403 7.58536 24.0325 8.69991C23.1409 9.6798 22.3527 11.2965 22.5594 12.8153C24.1229 12.9255 25.7381 12.0682 26.7459 10.9414Z" fill="white"/>
</g>
<defs>
<clipPath id="clip0_741_1017">
<rect width="134" height="40" fill="white"/>
</clipPath>
</defs>
</svg>
