<?xml version="1.0" encoding="UTF-8"?>
<svg id="Layer_1" data-name="Layer 1" xmlns="http://www.w3.org/2000/svg" xmlns:xlink="http://www.w3.org/1999/xlink" version="1.1" viewBox="0 0 300 75">
  <defs>
    <style>
      .cls-1 {
        clip-path: url(#clippath);
      }

      .cls-2 {
        fill: none;
      }

      .cls-2, .cls-3, .cls-4, .cls-5 {
        stroke-width: 0px;
      }

      .cls-6 {
        mask: url(#mask);
      }

      .cls-3 {
        fill: url(#linear-gradient);
      }

      .cls-4 {
        fill: #000;
      }

      .cls-5 {
        fill: #fff;
      }
    </style>
    <clipPath id="clippath">
      <rect class="cls-2" x="16.1" y="2.5" width="268.9" height="69.1"/>
    </clipPath>
    <mask id="mask" x="17.7" y="2" width="69" height="69.8" maskUnits="userSpaceOnUse">
      <g id="mask0_804_6690" data-name="mask0 804 6690">
        <path class="cls-5" d="M22.5,2.8c-1.4,0-2.6.5-3.4,1.6-1,1-1.4,2.3-1.1,3.7l6.9,45.6c.1,1.4,1,2.6,2.2,3.3l23,13.7c.7.4,1.5.7,2.3.7s1.6-.3,2.3-.7l23-13.7c1.2-.7,1.9-1.9,2.2-3.3l6.9-45.6c.1-1.4-.1-2.6-1.1-3.7-.8-1.1-2.2-1.6-3.4-1.6H22.5Z"/>
      </g>
    </mask>
    <linearGradient id="linear-gradient" x1="17.9" y1="39.1" x2="86.5" y2="39.1" gradientTransform="translate(0 76) scale(1 -1)" gradientUnits="userSpaceOnUse">
      <stop offset="0" stop-color="#00af4b"/>
      <stop offset="1" stop-color="#00ff4b"/>
    </linearGradient>
  </defs>
  <g class="cls-1">
    <g>
      <path class="cls-4" d="M115.7,24.1c3.7,0,6.5,1.1,8.9,3.4.3.3.3.7,0,1.1l-2.7,2.9c-.3.3-.7.3-1,0-1.4-1.2-3.2-1.9-4.9-1.9-4.1,0-7.3,3.4-7.3,7.6s3.2,7.6,7.3,7.6,3.6-.7,4.9-1.8c.3-.3.7-.3,1,0l2.9,3c.3.3.3.7,0,1-2.5,2.5-5.6,3.6-8.9,3.6-7.4,0-13.3-5.9-13.3-13.2-.1-7.3,5.9-13.2,13.2-13.2Z"/>
      <path class="cls-4" d="M130.8,25.2c0-.4.3-.7.7-.7h15.3c.4,0,.7.3.7.7v4c0,.4-.3.7-.7.7h-10.2v4.5h8.4c.4,0,.7.3.7.7v4c0,.4-.3.7-.7.7h-8.4v4.9h10.2c.4,0,.7.3.7.7v4c0,.4-.3.7-.7.7h-15.3c-.4,0-.7-.3-.7-.7v-24.2Z"/>
      <path class="cls-4" d="M154.1,25.2c0-.4.3-.7.7-.7h8.9c4.5,0,8.2,3.7,8.2,8.1s-3.7,8.2-8.2,8.2h-3.8v8.7c0,.4-.3.7-.7.7h-4.4c-.4,0-.7-.3-.7-.7v-24.3ZM163.3,35.5c1.6,0,2.9-1.2,2.9-2.9s-1.4-2.7-2.9-2.7h-3.6v5.6h3.6Z"/>
      <path class="cls-4" d="M180.7,29.9h-5.2c-.4,0-.7-.3-.7-.7v-4c0-.4.3-.7.7-.7h16.4c.4,0,.7.3.7.7v4c0,.4-.3.7-.7.7h-5.4v19.7c0,.4-.3.7-.7.7h-4.4c-.4,0-.7-.3-.7-.7v-19.7Z"/>
      <path class="cls-4" d="M197.9,25.2c0-.4.3-.7.7-.7h15.3c.4,0,.7.3.7.7v4c0,.4-.3.7-.7.7h-10.2v4.5h8.4c.4,0,.7.3.7.7v4c0,.4-.3.7-.7.7h-8.4v4.9h10.2c.4,0,.7.3.7.7v4c0,.4-.3.7-.7.7h-15.3c-.4,0-.7-.3-.7-.7v-24.2Z"/>
      <path class="cls-4" d="M224.5,29.9h-5.2c-.4,0-.7-.3-.7-.7v-4c0-.4.3-.7.7-.7h16.4c.4,0,.7.3.7.7v4c0,.4-.3.7-.7.7h-5.2v19.7c0,.4-.3.7-.7.7h-4.4c-.4,0-.7-.3-.7-.7v-19.7Z"/>
      <path class="cls-4" d="M241.6,25.2c0-.4.3-.7.7-.7h15.3c.4,0,.7.3.7.7v4c0,.4-.3.7-.7.7h-10.2v4.5h8.4c.4,0,.7.3.7.7v4c0,.4-.3.7-.7.7h-8.4v4.9h10.2c.4,0,.7.3.7.7v4c0,.4-.3.7-.7.7h-15.3c-.4,0-.7-.3-.7-.7v-24.2Z"/>
      <path class="cls-4" d="M264.9,25.2c0-.4.3-.7.7-.7h8.7c4.4,0,8,3,8,6.9s-2.6,4.9-4.3,5.8c1.9.8,4.9,2.6,4.9,6s-3.7,7.1-8.1,7.1h-9.2c-.4,0-.7-.3-.7-.7v-24.5ZM273.5,35c1.4,0,2.6-1.2,2.6-2.6s-1.2-2.5-2.6-2.5h-2.9v5.2h2.9ZM273.9,45c1.4,0,2.6-1.2,2.6-2.7s-1.6-2.6-3-2.6h-3v5.2h3.4Z"/>
      <g class="cls-6">
        <path class="cls-3" d="M86.6,2H17.7v69.8h68.9V2Z"/>
      </g>
      <path class="cls-5" d="M52.2,52.2c-4.9,0-9.5-1.9-12.9-5.4-3.6-3.6-5.5-8.1-5.5-12.9s1.9-9.5,5.5-12.9c3.4-3.4,8.1-5.4,12.9-5.4s9.5,1.9,12.9,5.4l-4.8,4.9c-2.2-2.2-5.1-3.4-8.2-3.4s-6,1.2-8.2,3.4c-2.2,2.2-3.4,5.1-3.4,8.2s1.2,6,3.4,8.2c2.2,2.2,5.1,3.4,8.2,3.4s6-1.2,8.2-3.4l4.9,4.9c-3.6,2.9-8.1,4.8-13.1,4.8Z"/>
    </g>
  </g>
</svg>