<svg width="20" height="20" viewBox="0 0 20 20" fill="none" xmlns="http://www.w3.org/2000/svg">
<path d="M10.1111 18C10.4223 18 10.5778 18 10.6967 17.9394C10.8012 17.886 10.8862 17.8009 10.9394 17.6963C11 17.5772 11 17.4215 11 17.1099V16.6649C11 16.3533 11 16.1975 10.9394 16.0785C10.8862 15.9738 10.8012 15.8887 10.6967 15.8354C10.5778 15.7748 10.4223 15.7748 10.1111 15.7748H1.88889C1.57775 15.7748 1.42218 15.7748 1.30334 15.8354C1.1988 15.8887 1.11381 15.9738 1.06055 16.0785C1 16.1975 1 16.3533 1 16.6649L1 17.1099C1 17.4215 1 17.5772 1.06055 17.6963C1.11381 17.8009 1.1988 17.886 1.30334 17.9394C1.42218 18 1.57775 18 1.88889 18H10.1111Z" fill="white"/>
<path d="M10.1111 11.3243C10.4223 11.3243 10.5778 11.3243 10.6967 11.2637C10.8012 11.2103 10.8862 11.1252 10.9394 11.0205C11 10.9015 11 10.7458 11 10.4342V9.81306C11 9.55829 11 9.4309 10.9549 9.32578C10.9152 9.23306 10.851 9.15292 10.7692 9.09393C10.6765 9.02706 10.5523 8.99943 10.3039 8.94416L6.19283 8.02934C6.12087 8.01333 6.08489 8.00532 6.04853 8.00213C6.01624 7.99929 5.98376 7.99929 5.95147 8.00213C5.91511 8.00532 5.87913 8.01333 5.80717 8.02934L1.69606 8.94416C1.44769 8.99943 1.32351 9.02706 1.23081 9.09393C1.14905 9.15292 1.08485 9.23306 1.04508 9.32578C1 9.4309 1 9.55829 1 9.81306L1 10.4342C1 10.7458 1 10.9015 1.06055 11.0205C1.11381 11.1252 1.1988 11.2103 1.30334 11.2637C1.42218 11.3243 1.57775 11.3243 1.88889 11.3243H10.1111Z" fill="white"/>
<path d="M2.11111 11.3243V15.7748M4.61111 11.3243V15.7748M7.38889 11.3243V15.7748M9.88889 11.3243V15.7748M1 16.6649L1 17.1099C1 17.4215 1 17.5772 1.06055 17.6963C1.11381 17.8009 1.1988 17.886 1.30334 17.9394C1.42218 18 1.57775 18 1.88889 18H10.1111C10.4223 18 10.5778 18 10.6967 17.9394C10.8012 17.886 10.8862 17.8009 10.9394 17.6963C11 17.5772 11 17.4215 11 17.1099V16.6649C11 16.3533 11 16.1975 10.9394 16.0785C10.8862 15.9738 10.8012 15.8887 10.6967 15.8354C10.5778 15.7748 10.4223 15.7748 10.1111 15.7748H1.88889C1.57775 15.7748 1.42218 15.7748 1.30334 15.8354C1.1988 15.8887 1.11381 15.9738 1.06055 16.0785C1 16.1975 1 16.3533 1 16.6649ZM5.80717 8.02934L1.69606 8.94416C1.44769 8.99943 1.32351 9.02706 1.23081 9.09393C1.14905 9.15292 1.08485 9.23306 1.04508 9.32578C1 9.4309 1 9.55829 1 9.81306L1 10.4342C1 10.7458 1 10.9015 1.06055 11.0205C1.11381 11.1252 1.1988 11.2103 1.30334 11.2637C1.42218 11.3243 1.57775 11.3243 1.88889 11.3243H10.1111C10.4223 11.3243 10.5778 11.3243 10.6967 11.2637C10.8012 11.2103 10.8862 11.1252 10.9394 11.0205C11 10.9015 11 10.7458 11 10.4342V9.81306C11 9.55829 11 9.4309 10.9549 9.32578C10.9152 9.23306 10.851 9.15292 10.7692 9.09393C10.6765 9.02706 10.5523 8.99943 10.3039 8.94416L6.19283 8.02934C6.12087 8.01333 6.08489 8.00532 6.04853 8.00213C6.01624 7.99929 5.98376 7.99929 5.95147 8.00213C5.91511 8.00532 5.87913 8.01333 5.80717 8.02934Z" stroke="#1D1E21" stroke-width="1.2" stroke-linecap="round" stroke-linejoin="round"/>
<path d="M8 4.56C8 3.66392 8 3.21587 8.1557 2.87362C8.29267 2.57256 8.51121 2.32779 8.78001 2.17439C9.0856 2 9.48564 2 10.2857 2H15.7143C16.5144 2 16.9144 2 17.22 2.17439C17.4888 2.32779 17.7073 2.57256 17.8443 2.87362C18 3.21587 18 3.66392 18 4.56V15.44C18 16.3361 18 16.7841 17.8443 17.1264C17.7073 17.4274 17.4888 17.6722 17.22 17.8256C16.9144 18 16.5144 18 15.7143 18H10.2857C9.48564 18 9.0856 18 8.78001 17.8256C8.51121 17.6722 8.29267 17.4274 8.1557 17.1264C8 16.7841 8 16.3361 8 15.44V4.56Z" fill="white"/>
<path d="M15.1429 2V3.12C15.1429 3.56804 15.1429 3.79206 15.065 3.96319C14.9965 4.11372 14.8873 4.23611 14.7529 4.31281C14.6001 4.4 14.4 4.4 14 4.4H12C11.6 4.4 11.3999 4.4 11.2471 4.31281C11.1127 4.23611 11.0035 4.11372 10.935 3.96319C10.8571 3.79206 10.8571 3.56804 10.8571 3.12V2M10.2857 18H15.7143C16.5144 18 16.9144 18 17.22 17.8256C17.4888 17.6722 17.7073 17.4274 17.8443 17.1264C18 16.7841 18 16.3361 18 15.44V4.56C18 3.66392 18 3.21587 17.8443 2.87362C17.7073 2.57256 17.4888 2.32779 17.22 2.17439C16.9144 2 16.5144 2 15.7143 2H10.2857C9.48564 2 9.0856 2 8.78001 2.17439C8.51121 2.32779 8.29267 2.57256 8.1557 2.87362C8 3.21587 8 3.66392 8 4.56V15.44C8 16.3361 8 16.7841 8.1557 17.1264C8.29267 17.4274 8.51121 17.6722 8.78001 17.8256C9.0856 18 9.48564 18 10.2857 18Z" stroke="#1D1E21" stroke-width="1.2" stroke-linecap="round" stroke-linejoin="round"/>
<path d="M10.9949 13.2315C11.1774 12.8016 11.6035 12.5 12.1 12.5H13.9C14.3965 12.5 14.8226 12.8016 15.0051 13.2315M14.2 10.25C14.2 10.9127 13.6627 11.45 13 11.45C12.3373 11.45 11.8 10.9127 11.8 10.25C11.8 9.58726 12.3373 9.05 13 9.05C13.6627 9.05 14.2 9.58726 14.2 10.25ZM16 11C16 12.6569 14.6569 14 13 14C11.3431 14 10 12.6569 10 11C10 9.34315 11.3431 8 13 8C14.6569 8 16 9.34315 16 11Z" stroke="#1D1E21" stroke-width="0.8" stroke-linecap="round" stroke-linejoin="round"/>
</svg>
