<svg width="20" height="20" viewBox="0 0 20 20" fill="none" xmlns="http://www.w3.org/2000/svg">
<path d="M13.7556 17C14.1912 17 14.409 17 14.5753 16.9151C14.7217 16.8404 14.8407 16.7213 14.9152 16.5748C15 16.4081 15 16.1901 15 15.7539V15.1308C15 14.6946 15 14.4765 14.9152 14.3099C14.8407 14.1634 14.7217 14.0442 14.5753 13.9696C14.409 13.8847 14.1912 13.8847 13.7556 13.8847H2.24444C1.80885 13.8847 1.59105 13.8847 1.42467 13.9696C1.27833 14.0442 1.15934 14.1634 1.08477 14.3099C1 14.4765 1 14.6946 1 15.1308L1 15.7539C1 16.1901 1 16.4081 1.08477 16.5748C1.15934 16.7213 1.27833 16.8404 1.42467 16.9151C1.59105 17 1.80885 17 2.24444 17H13.7556Z" fill="white"/>
<path d="M13.7556 7.654C14.1912 7.654 14.409 7.654 14.5753 7.56911C14.7217 7.49444 14.8407 7.3753 14.9152 7.22875C15 7.06215 15 6.84406 15 6.40787V5.53828C15 5.1816 15 5.00326 14.9369 4.85609C14.8812 4.72629 14.7913 4.61408 14.6769 4.53151C14.5471 4.43788 14.3732 4.3992 14.0255 4.32182L8.26996 3.04107C8.16922 3.01866 8.11884 3.00745 8.06794 3.00298C8.02273 2.99901 7.97727 2.99901 7.93206 3.00298C7.88116 3.00745 7.83078 3.01866 7.73004 3.04107L1.97449 4.32182C1.62677 4.3992 1.45292 4.43788 1.32314 4.5315C1.20867 4.61408 1.11879 4.72629 1.06312 4.85609C1 5.00326 1 5.1816 1 5.53828L1 6.40787C1 6.84405 1 7.06215 1.08477 7.22875C1.15934 7.3753 1.27833 7.49444 1.42467 7.56911C1.59105 7.654 1.80885 7.654 2.24444 7.654H13.7556Z" fill="white"/>
<path d="M2.55556 7.654V13.8847M6.05556 7.654V13.8847M9.94444 7.654V13.8847M13.4444 7.654V13.8847M1 15.1308L1 15.7539C1 16.1901 1 16.4081 1.08477 16.5748C1.15934 16.7213 1.27833 16.8404 1.42467 16.9151C1.59105 17 1.80885 17 2.24444 17H13.7556C14.1912 17 14.409 17 14.5753 16.9151C14.7217 16.8404 14.8407 16.7213 14.9152 16.5748C15 16.4081 15 16.1901 15 15.7539V15.1308C15 14.6946 15 14.4765 14.9152 14.3099C14.8407 14.1634 14.7217 14.0442 14.5753 13.9696C14.409 13.8847 14.1912 13.8847 13.7556 13.8847H2.24444C1.80885 13.8847 1.59105 13.8847 1.42467 13.9696C1.27833 14.0442 1.15934 14.1634 1.08477 14.3099C1 14.4765 1 14.6946 1 15.1308ZM7.73004 3.04107L1.97449 4.32182C1.62677 4.3992 1.45292 4.43788 1.32314 4.5315C1.20867 4.61408 1.11879 4.72629 1.06312 4.85609C1 5.00326 1 5.1816 1 5.53828L1 6.40787C1 6.84405 1 7.06215 1.08477 7.22875C1.15934 7.3753 1.27833 7.49444 1.42467 7.56911C1.59105 7.654 1.80885 7.654 2.24444 7.654H13.7556C14.1912 7.654 14.409 7.654 14.5753 7.56911C14.7217 7.49444 14.8407 7.3753 14.9152 7.22875C15 7.06215 15 6.84406 15 6.40787V5.53828C15 5.1816 15 5.00326 14.9369 4.85609C14.8812 4.72629 14.7913 4.61408 14.6769 4.53151C14.5471 4.43788 14.3732 4.3992 14.0255 4.32182L8.26996 3.04107C8.16922 3.01866 8.11884 3.00745 8.06794 3.00298C8.02273 2.99901 7.97727 2.99901 7.93206 3.00298C7.88116 3.00745 7.83078 3.01866 7.73004 3.04107Z" stroke="#1D1E21" stroke-width="1.3" stroke-linecap="round" stroke-linejoin="round"/>
<path d="M13.8336 16.8691C13.9498 16.9376 14.0079 16.9719 14.0899 16.9897C14.1536 17.0034 14.2464 17.0034 14.3101 16.9897C14.3921 16.9719 14.4502 16.9376 14.5664 16.8691C15.5892 16.2662 18.4 14.3725 18.4 11.7687V9.23173C18.4 8.80761 18.4 8.59555 18.3314 8.41326C18.2707 8.25223 18.1722 8.10854 18.0442 7.99463C17.8994 7.86567 17.7029 7.79121 17.3099 7.6423L14.4949 6.57568C14.3858 6.53433 14.3312 6.51365 14.2751 6.50545C14.2253 6.49818 14.1747 6.49818 14.1249 6.50545C14.0688 6.51365 14.0142 6.53433 13.9051 6.57568L11.0901 7.6423C10.6971 7.79121 10.5006 7.86567 10.3558 7.99463C10.2278 8.10854 10.1293 8.25223 10.0686 8.41326C10 8.59555 10 8.80761 10 9.23173V11.7687C10 14.3725 12.8108 16.2662 13.8336 16.8691Z" fill="white" stroke="#1D1E21" stroke-width="1.3" stroke-linecap="round" stroke-linejoin="round"/>
<path d="M12.9163 11.5555L13.724 12.3333L15.5413 10.5833" stroke="#1D1E21" stroke-linecap="round" stroke-linejoin="round"/>
</svg>
