<svg width="32" height="32" viewBox="0 0 32 32" fill="none" xmlns="http://www.w3.org/2000/svg">
<path d="M22.6667 12.6666V17.2C22.6667 17.9467 22.6667 18.3201 22.5213 18.6053C22.3935 18.8562 22.1895 19.0601 21.9387 19.188C21.6534 19.3333 21.2801 19.3333 20.5333 19.3333L4 19.3333M17.3333 19.3333V23.8666C17.3333 24.6134 17.3333 24.9867 17.188 25.2719C17.0602 25.5228 16.8562 25.7268 16.6053 25.8546C16.3201 26 15.9467 26 15.2 26H4M4 2.66663L4 29.3333M4 12.6666L25.8667 12.6666C26.6134 12.6666 26.9868 12.6666 27.272 12.5213C27.5229 12.3935 27.7268 12.1895 27.8547 11.9386C28 11.6534 28 11.28 28 10.5333V8.13329C28 7.38656 28 7.01319 27.8547 6.72797C27.7268 6.47709 27.5229 6.27312 27.272 6.14528C26.9868 5.99996 26.6134 5.99996 25.8667 5.99996L4 5.99996L4 12.6666Z" stroke="#252525" stroke-width="2" stroke-linecap="round" stroke-linejoin="round"/>
</svg>
