<?xml version="1.0" encoding="UTF-8"?>
<svg id="Layer_1" xmlns="http://www.w3.org/2000/svg" version="1.1" viewBox="0 0 290 52">
  <!-- Generator: Adobe Illustrator 29.4.0, SVG Export Plug-In . SVG Version: 2.1.0 Build 152)  -->
  <defs>
    <style>
      .st0 {
        fill: #016b4e;
      }
    </style>
  </defs>
  <path class="st0" d="M225.6,14.5l3.2-3.2-3.2-3.2-3.2,3.2,3.2,3.2Z"/>
  <path class="st0" d="M230,11.3l3.2-3.2,3.2,3.2-3.2,3.2-3.2-3.2Z"/>
  <path class="st0" d="M217.9,11.3h-20.9v5.3h7.4v23h6.1v-23h7.4v-5.3Z"/>
  <path class="st0" d="M260,32.9h3.9v-16.3h-19.8v23h6.1v-6.8h2.6l4.9,6.8h7.1l-4.8-6.8h0ZM257.7,27.6h-7.5v-5.6h7.5v5.6Z"/>
  <path class="st0" d="M268.7,39.7h6.1v-9h4.7c2.6,0,4,0,4,2.6v6.4h6.2v-6.5c0-4.6-.7-6.9-6-7.6l6.4-8.9h-7.2l-6.2,8.7h-1.8v-8.7h-6.1v23h0Z"/>
  <path class="st0" d="M233.2,31.6v-15h6.2v15.4c0,6.1-2.9,7.9-9.6,7.9s-10.2-2.3-10.2-7.9v-15.4h6.1v15.2c0,2.6,1.5,2.6,4.1,2.6s3.5-.2,3.5-2.9Z"/>
  <path class="st0" d="M164.3,25.5c-2.6,0-4.1,0-4.1-2.6v-6.2h-6.1v6.3c0,4.8.7,7.2,6.8,7.7v9h6.1v-9c4.8-.5,6.9-2.5,6.9-7.7v-6.3h-6.1v5.9c0,2.7-.9,2.9-3.5,2.9h0Z"/>
  <path class="st0" d="M150.3,21.7h-10.5v3.9h9.8v5h-9.8v4h10.7v5h-16.8v-23h16.6v5Z"/>
  <path class="st0" d="M98.1,34.7h-7.6v-18h-6.2v23h19.9v-23h-6.2v18Z"/>
  <path class="st0" d="M195.5,22h-5.9v17.7h-6.1v-17.7h-5.9v-5.3h17.9v5.3Z"/>
  <path class="st0" d="M58.6,39.9h6.1v-11.7h4.7c2.6,0,4.1,0,4.1,2.6v9.1h6.1v-9.2c0-4.6-.7-7-6.2-7.7l6.6-11.5h-7.1l-6.4,11.3h-1.7v-11.3h-6.1v28.4h0Z"/>
  <path class="st0" d="M115.2,16.6v9.4c0,3.2.8,5.2,2.9,7.5l.9.9.9-.9c2.1-2.2,2.8-4.3,2.8-7.5v-9.4h6.1v9.4c0,8.1-4.2,11.2-6.5,13.7h-6.8c-2.4-2.5-6.5-5.6-6.5-13.7v-9.4h6.1,0Z"/>
  <path class="st0" d="M24.5,47.6l-2.5,1.5-1.6-3.9,4.1,2.4h0ZM20.6,36.8l3.9,2.4-2.3,1.6-1.6-4ZM20.5,28.3l4.1,2.5-2.4,1.8-1.7-4.3ZM27,35.2l4-2.5-1.6,4.1-2.5-1.6ZM20.5,41l7.6,4.6-2.3,1.5-3.9-2.2-1.4-3.9ZM23.5,41.3l7.5-4.5-1.2,3.6-3.9,2.6-2.4-1.8ZM20.5,32.7l7.6,4.4-2.5,1.7-3.8-2.3-1.3-3.8ZM23.4,33l7.6-4.6-1.4,3.9-3.7,2.2-2.5-1.6h0ZM23.2,28.6h5.1l-2.4,1.9-2.7-1.9h0ZM27,43.3l4-2.5-1.6,4.1-2.5-1.6h0ZM25.7,25.7s-4.1-11.8-4.9-14.2c-.3-1-.5-1.8.2-2.6l4.7-6.2,4.7,6.2c.6.8.5,1.6.2,2.6-.8,2.4-4.9,14.2-4.9,14.2ZM48.8,27.1h-21.7s9.9-5.1,9.9-5.1c5.5-2.8,7.3-.5,9.4,2l2.5,3h0ZM26.6,26l6.8-12.2c.9-1.6,3.1-2.4,5.1-1.2l7.7,4.6h-3.8c-1.7,0-3,.7-4.3,1.4l-11.5,7.4ZM2.5,27.1l2.5-3c2-2.5,3.8-4.9,9.4-2l9.9,5.1H2.5s0,0,0,0ZM24.7,26l-11.5-7.4c-1.2-.8-2.6-1.4-4.3-1.4h-3.8s7.7-4.6,7.7-4.6c2-1.2,4.2-.4,5.1,1.2l6.8,12.2ZM23.1,50l7.9-4.7-1.5,4.6c-1.2.2-2.5.3-3.7.3s-1.8,0-2.7-.1h0Z"/>
  <path class="st0" d="M25.7,0C11.5,0,0,11.5,0,25.7s11.5,25.7,25.7,25.7,25.7-11.5,25.7-25.7S39.9,0,25.7,0ZM25.7,50.1c-13.5,0-24.4-10.9-24.4-24.5S12.2,1.2,25.7,1.2s24.5,11,24.5,24.5-11,24.5-24.5,24.5Z"/>
</svg>