<svg width="135" height="40" viewBox="0 0 135 40" fill="none" xmlns="http://www.w3.org/2000/svg">
<g clip-path="url(#clip0_741_1041)">
<path d="M129.375 0.277832H5.625C2.67373 0.277832 0.28125 2.64077 0.28125 5.55561V34.4445C0.28125 37.3594 2.67373 39.7223 5.625 39.7223H129.375C132.326 39.7223 134.719 37.3594 134.719 34.4445V5.55561C134.719 2.64077 132.326 0.277832 129.375 0.277832Z" fill="black" stroke="#C0C1C1"/>
<path d="M21.9441 19.403L10.2324 31.1189C10.2324 31.1189 10.2324 31.1233 10.2324 31.1254C10.591 32.3973 11.8231 33.3334 13.2874 33.3334C13.8735 33.3334 14.4206 33.1839 14.8918 32.9239L14.9286 32.9022L28.1114 25.7323L21.9418 19.4009L21.9441 19.403Z" fill="#EA4435"/>
<path d="M33.7914 17.4071L33.78 17.4006L28.0885 14.2913L21.6775 19.6693L28.1115 25.7319L33.7708 22.6529C34.7638 22.1459 35.4373 21.16 35.4373 20.0246C35.4373 18.8892 34.773 17.9141 33.7891 17.4071" fill="#F9BC15"/>
<path d="M10.2331 8.88086C10.1618 9.12569 10.125 9.38353 10.125 9.64791V30.3516C10.125 30.6181 10.1618 30.8738 10.2331 31.1186L22.3447 19.7018L10.2331 8.88086Z" fill="#547DBF"/>
<path d="M22.0292 20.0012L28.0907 14.2895L14.924 7.09358C14.4459 6.82275 13.8873 6.66675 13.2897 6.66675C11.8277 6.66675 10.5933 7.60497 10.2324 8.87903C10.2324 8.87903 10.2324 8.87903 10.2324 8.88119L22.0315 20.0012H22.0292Z" fill="#33A851"/>
<path d="M69.3563 11.1171C67.0478 11.1171 65.1639 12.8095 65.1639 15.1424C65.1639 17.4754 67.0455 19.1657 69.3563 19.1657C71.667 19.1657 73.5486 17.4576 73.5486 15.1424C73.5486 12.8273 71.667 11.1171 69.3563 11.1171ZM69.3563 17.5801C68.0901 17.5801 66.9983 16.5738 66.9983 15.1424C66.9983 13.711 68.0901 12.7027 69.3563 12.7027C70.6225 12.7027 71.712 13.6932 71.712 15.1424C71.712 16.5916 70.6202 17.5801 69.3563 17.5801ZM60.21 11.1171C57.9009 11.1171 56.0172 12.8095 56.0172 15.1424C56.0172 17.4754 57.8993 19.1657 60.21 19.1657C62.5208 19.1657 64.4023 17.4576 64.4023 15.1424C64.4023 12.8273 62.5185 11.1171 60.21 11.1171ZM60.21 17.5801C58.9455 17.5801 57.8537 16.5738 57.8537 15.1424C57.8537 13.711 58.9455 12.7027 60.21 12.7027C61.4739 12.7027 62.5674 13.6932 62.5674 15.1424C62.5674 16.5916 61.4762 17.5801 60.21 17.5801ZM49.3313 12.3528V14.059H53.571C53.4438 15.0199 53.1134 15.7197 52.6065 16.2081C51.9888 16.8032 51.0243 17.4576 49.3313 17.4576C46.7209 17.4576 44.679 15.4311 44.679 12.9162C44.679 10.4014 46.7189 8.37491 49.3313 8.37491C50.7391 8.37491 51.7672 8.90675 52.5265 9.5928L53.7762 8.38875C52.7153 7.41408 51.3075 6.66675 49.3313 6.66675C45.7564 6.66675 42.75 9.47219 42.75 12.9162C42.75 16.3603 45.7564 19.1657 49.3313 19.1657C51.2603 19.1657 52.7153 18.5549 53.8563 17.4121C55.026 16.2852 55.3913 14.6996 55.3913 13.4184C55.3913 13.021 55.3605 12.6572 55.2969 12.3528H49.3333H49.3313ZM93.8245 13.6774C93.4751 12.7779 92.4165 11.1171 90.2492 11.1171C88.0825 11.1171 86.3111 12.7482 86.3111 15.1424C86.3111 17.3982 88.0825 19.1657 90.4545 19.1657C92.3693 19.1657 93.4751 18.0389 93.9353 17.3825L92.511 16.4671C92.0346 17.1373 91.3883 17.5801 90.4523 17.5801C89.5168 17.5801 88.8536 17.1689 88.4273 16.3623L94.0112 14.1361L93.8222 13.6794L93.8245 13.6774ZM88.1297 15.0199C88.0825 13.4639 89.379 12.6731 90.3128 12.6731C91.0412 12.6731 91.6594 13.023 91.8641 13.5272L88.1314 15.0218L88.1297 15.0199ZM83.5881 18.9206H85.4224V7.0938H83.5881V18.9206ZM80.5815 12.0167H80.518C80.1056 11.5442 79.3153 11.1171 78.3203 11.1171C76.2311 11.1171 74.3186 12.8846 74.3186 15.1562C74.3186 17.4279 76.2328 19.1638 78.3203 19.1638C79.3176 19.1638 80.1073 18.7367 80.518 18.2484H80.5815V18.8277C80.5815 20.3678 79.7276 21.1902 78.3506 21.1902C77.2284 21.1902 76.5304 20.4133 76.2474 19.7589L74.6488 20.3995C75.1067 21.4671 76.3256 22.7779 78.3506 22.7779C80.5016 22.7779 82.3219 21.558 82.3219 18.5865V11.3623H80.5815V12.0187V12.0167ZM78.4783 17.5801C77.2121 17.5801 76.153 16.56 76.153 15.1582C76.153 13.7565 77.2121 12.7047 78.4783 12.7047C79.7445 12.7047 80.7086 13.7407 80.7086 15.1582C80.7086 16.5758 79.7276 17.5801 78.4783 17.5801ZM102.421 7.09575H98.0314V18.9226H99.8618V14.4425H102.421C104.452 14.4425 106.447 13.025 106.447 10.7691C106.447 8.5133 104.45 7.09575 102.421 7.09575ZM102.468 12.7956H99.8618V8.74069H102.468C103.839 8.74069 104.617 9.83402 104.617 10.7672C104.617 11.7004 103.839 12.7937 102.468 12.7937M113.792 11.0954C112.466 11.0954 111.091 11.6589 110.523 12.9044L112.15 13.5588C112.497 12.9044 113.145 12.6909 113.825 12.6909C114.773 12.6909 115.735 13.2385 115.751 14.2112V14.3338C115.419 14.1519 114.709 13.8771 113.841 13.8771C112.088 13.8771 110.303 14.8044 110.303 16.5402C110.303 18.1239 111.742 19.142 113.351 19.142C114.584 19.142 115.261 18.6102 115.688 17.9855H115.751V18.8989H117.52V14.3635C117.52 12.2638 115.895 11.0934 113.794 11.0934M113.572 17.5742C112.971 17.5742 112.134 17.2856 112.134 16.5699C112.134 15.6565 113.176 15.3085 114.077 15.3085C114.882 15.3085 115.261 15.4766 115.751 15.7039C115.61 16.7992 114.631 17.5762 113.572 17.5762M123.964 11.3524L121.863 16.4809H121.799L119.62 11.3524H117.646L120.915 18.5192L119.051 22.505H120.962L126 11.3524H123.962H123.964ZM107.461 18.9186H109.293V7.0918H107.461V18.9186Z" fill="white"/>
<path d="M43.5559 33.3332H42.75V27.6382H43.5559V30.0801H46.6919V27.6382H47.4978V33.3332H46.6919V30.7641H43.5559V33.3332Z" fill="white"/>
<path d="M52.4168 27.6382V28.3381H49.5611V30.1437H52.1364V30.8277H49.5611V32.6333H52.4168V33.3332H48.7551V27.6382H52.4168Z" fill="white"/>
<path d="M54.3091 33.3332H53.5032V27.6382H54.3091L56.4903 31.1061H56.5252L58.7066 27.6382H59.5126V33.3332H58.7066V29.9528L58.7415 28.9983H58.7066L56.7446 32.1242H56.2715L54.3091 28.9983H54.274L54.3091 29.9528V33.3332Z" fill="white"/>
<path d="M64.436 27.6382V28.3381H61.5802V30.1437H64.1554V30.8277H61.5802V32.6333H64.436V33.3332H60.7742V27.6382H64.436Z" fill="white"/>
<path d="M66.3277 33.3332H65.5222V27.6382H66.5032L69.5514 32.0686H69.5868L69.5514 30.9709V27.6382H70.3575V33.3332H69.5165L66.3277 28.6881H66.2928L66.3277 29.7857V33.3332Z" fill="white"/>
<path d="M74.3524 33.3333H73.5463V27.6383H74.3524V33.3333ZM74.4047 26.5247C74.4047 26.636 74.3608 26.7341 74.273 26.819C74.1858 26.8985 74.0778 26.9383 73.949 26.9383C73.8326 26.9383 73.7274 26.8959 73.634 26.811C73.5407 26.7262 73.4934 26.6308 73.4934 26.5247C73.4934 26.408 73.5373 26.3099 73.625 26.2304C73.7184 26.1509 73.8264 26.1111 73.949 26.1111C74.0835 26.1111 74.1915 26.1509 74.273 26.2304C74.3608 26.3046 74.4047 26.4028 74.4047 26.5247Z" fill="white"/>
<path d="M76.4223 33.3332H75.6162V27.6382H76.5972L79.646 32.0686H79.6808L79.646 30.9709V27.6382H80.452V33.3332H79.6111L76.4223 28.6881H76.3874L76.4223 29.7857V33.3332Z" fill="white"/>
<path d="M81.7161 33.3332V27.6382H83.6342C84.5921 27.6382 85.3599 27.9007 85.9382 28.4256C86.5221 28.9506 86.814 29.6373 86.814 30.4857C86.814 31.3395 86.5221 32.0288 85.9382 32.5537C85.3599 33.0734 84.5921 33.3332 83.6342 33.3332H81.7161ZM82.5216 28.3381V32.6333H83.6342C84.3643 32.6333 84.9392 32.445 85.3599 32.0686C85.7801 31.6867 85.9905 31.1591 85.9905 30.4857C85.9905 29.8176 85.7801 29.2926 85.3599 28.9108C84.9392 28.529 84.3643 28.3381 83.6342 28.3381H82.5216Z" fill="white"/>
<path d="M88.5784 33.3333H87.7724V27.6383H88.5784V33.3333ZM88.6307 26.5247C88.6307 26.636 88.5869 26.7341 88.4991 26.819C88.4119 26.8985 88.3039 26.9383 88.1751 26.9383C88.0587 26.9383 87.9535 26.8959 87.8601 26.811C87.7662 26.7262 87.7195 26.6308 87.7195 26.5247C87.7195 26.408 87.7634 26.3099 87.8511 26.2304C87.9445 26.1509 88.0525 26.1111 88.1751 26.1111C88.3095 26.1111 88.4175 26.1509 88.4991 26.2304C88.5869 26.3046 88.6307 26.4028 88.6307 26.5247Z" fill="white"/>
<path d="M90.6486 28.3381V30.3425H91.9451C92.272 30.3425 92.5493 30.2471 92.7771 30.0562C93.0049 29.86 93.1185 29.6187 93.1185 29.3324C93.1185 29.0672 93.0105 28.8366 92.7945 28.6404C92.5847 28.4389 92.3186 28.3381 91.9975 28.3381H90.6486ZM90.6486 33.3332H89.8425V27.6382H91.98C92.5234 27.6382 92.9847 27.8026 93.3643 28.1313C93.7497 28.4548 93.942 28.8551 93.942 29.3324C93.942 29.7248 93.7991 30.0747 93.5128 30.3823C93.2327 30.6846 92.8767 30.8781 92.4441 30.963L92.4266 30.9868L94.1873 33.3014V33.3332H93.2327L91.5418 31.0266H90.6486V33.3332Z" fill="white"/>
<path d="M95.7126 33.3333H94.9066V27.6383H95.7126V33.3333ZM95.7655 26.5247C95.7655 26.636 95.7216 26.7341 95.6339 26.819C95.5461 26.8985 95.4381 26.9383 95.3099 26.9383C95.1929 26.9383 95.0877 26.8959 94.9943 26.811C94.9009 26.7262 94.8542 26.6308 94.8542 26.5247C94.8542 26.408 94.8981 26.3099 94.9859 26.2304C95.0792 26.1509 95.1872 26.1111 95.3099 26.1111C95.4437 26.1111 95.5523 26.1509 95.6339 26.2304C95.7216 26.3046 95.7655 26.4028 95.7655 26.5247Z" fill="white"/>
<path d="M97.7828 33.3332H96.9773V27.6382H97.9583L101.006 32.0686H101.042L101.006 30.9709V27.6382H101.813V33.3332H100.972L97.7828 28.6881H97.7479L97.7828 29.7857V33.3332Z" fill="white"/>
</g>
<defs>
<clipPath id="clip0_741_1041">
<rect width="135" height="40" fill="white"/>
</clipPath>
</defs>
</svg>
