<svg width="264" height="98" viewBox="0 0 264 98" fill="none" xmlns="http://www.w3.org/2000/svg">
<g clip-path="url(#clip0_1_48)">
<path d="M140.769 48.5L108.346 16V81.0765L140.769 48.5Z" fill="#DB0011"/>
<path d="M75.9227 48.5L108.346 16H43.4995L75.9227 48.5Z" fill="#DB0011"/>
<path d="M11 48.5L43.4995 81.0765V16L11 48.5Z" fill="#DB0011"/>
<path d="M75.9227 48.5L43.4995 81.0765H108.346L75.9227 48.5Z" fill="#DB0011"/>
<path d="M169.225 50.4118H157.477V62.0353H151.602V34.8882H157.477V46.0529H169.225V34.8882H175.1V62.1118H169.225V50.4118Z" fill="black"/>
<path d="M189.29 62.6471C183.415 62.6471 178.609 60.2765 178.533 53.7765H184.407C184.483 56.6824 186.162 58.4412 189.366 58.4412C191.731 58.4412 194.477 57.2176 194.477 54.5412C194.477 52.4 192.646 51.7882 189.595 50.8706L187.611 50.3353C183.339 49.1118 179.067 47.4294 179.067 42.5353C179.067 36.4941 184.712 34.4294 189.824 34.4294C195.088 34.4294 199.665 36.2647 199.741 42.3059H193.867C193.638 39.8588 192.189 38.4059 189.442 38.4059C187.23 38.4059 185.094 39.5529 185.094 42C185.094 43.9882 186.925 44.6 190.739 45.8235L193.028 46.5118C197.682 47.9647 200.657 49.5706 200.657 54.1588C200.581 60.2765 194.63 62.6471 189.29 62.6471Z" fill="black"/>
<path d="M203.937 34.9647H213.397C215.152 34.8882 216.983 34.9647 218.738 35.2706C222.018 36.0353 224.536 38.1765 224.536 41.8471C224.536 45.3647 222.323 47.1235 219.119 47.9647C222.781 48.653 225.527 50.4882 225.527 54.5412C225.527 60.7353 219.424 62.1118 214.694 62.1118H204.014L203.937 34.9647ZM213.397 46.2059C215.991 46.2059 218.661 45.6706 218.661 42.5353C218.661 39.7059 216.22 38.9412 213.779 38.9412H209.659V46.2059H213.397ZM213.931 58.0588C216.678 58.0588 219.348 57.4471 219.348 54.0824C219.348 50.7177 217.059 50.1059 214.236 50.1059H209.583V58.0588H213.931Z" fill="black"/>
<path d="M240.785 62.6471C232.012 62.6471 228.121 57.0647 228.121 48.7294C228.121 40.3941 232.47 34.3529 241.091 34.3529C246.507 34.3529 251.771 36.8 251.924 42.9176H245.821C245.515 40.1647 243.684 38.7882 241.091 38.7882C235.75 38.7882 234.148 44.5235 234.148 48.8823C234.148 53.2412 235.75 58.2882 240.862 58.2882C243.532 58.2882 245.515 56.8353 245.897 54.0823H252C251.39 60.3529 246.431 62.6471 240.785 62.6471Z" fill="black"/>
</g>
<defs>
<clipPath id="clip0_1_48">
<rect width="241" height="65" fill="white" transform="translate(11 16)"/>
</clipPath>
</defs>
</svg>
