<svg width="160" height="48" viewBox="0 0 160 48" fill="none" xmlns="http://www.w3.org/2000/svg">
<g clip-path="url(#clip0_717_1158)">
<path d="M153.334 0.333496H6.66683C3.16903 0.333496 0.333496 3.16903 0.333496 6.66683V41.3335C0.333496 44.8313 3.16903 47.6668 6.66683 47.6668H153.334C156.831 47.6668 159.667 44.8313 159.667 41.3335V6.66683C159.667 3.16903 156.831 0.333496 153.334 0.333496Z" fill="black" stroke="#C0C1C1"/>
<path d="M50.6665 21.906L55.9878 8.2417H57.9616L63.6312 21.8996H61.5414L59.9289 17.7648H54.1366L52.6144 21.8996H50.6665V21.906ZM54.6656 16.2952H59.3612L57.9164 12.5102C57.4778 11.3588 57.1489 10.4173 56.936 9.67936C56.7618 10.5572 56.5103 11.4224 56.1878 12.2876L54.6656 16.2952Z" fill="white" stroke="white" stroke-width="0.5"/>
<path d="M64.7798 25.6975V12.0078H66.3279V13.2928C66.6955 12.7902 67.1082 12.4149 67.5662 12.1605C68.0242 11.906 68.5855 11.7852 69.2368 11.7852C70.0948 11.7852 70.8495 12.0014 71.5075 12.4404C72.1655 12.8793 72.6555 13.49 72.9908 14.2788C73.3262 15.0676 73.4942 15.9392 73.4942 16.8806C73.4942 17.8921 73.3068 18.8018 72.9395 19.616C72.5715 20.424 72.0362 21.0474 71.3335 21.48C70.6302 21.9125 69.8948 22.1288 69.1142 22.1288C68.5468 22.1288 68.0368 22.008 67.5855 21.7726C67.1342 21.5372 66.7662 21.2382 66.4762 20.8756V25.6912H64.7734L64.7798 25.6975ZM66.3214 17.0142C66.3214 18.2865 66.5859 19.228 67.1082 19.8387C67.6308 20.4494 68.2628 20.7548 69.0048 20.7548C69.7462 20.7548 70.4108 20.4367 70.9462 19.8069C71.4882 19.1771 71.7522 18.1974 71.7522 16.8743C71.7522 15.5511 71.4882 14.6669 70.9655 14.0434C70.4428 13.42 69.8108 13.102 69.0822 13.102C68.3535 13.102 67.7148 13.4328 67.1602 14.1007C66.5988 14.7686 66.3214 15.742 66.3214 17.0142Z" fill="white" stroke="white" stroke-width="0.5"/>
<path d="M75.4481 25.6975V12.0078H76.9961V13.2928C77.3641 12.7902 77.7767 12.4149 78.2347 12.1605C78.6927 11.906 79.2541 11.7852 79.9054 11.7852C80.7627 11.7852 81.5174 12.0014 82.1754 12.4404C82.8334 12.8793 83.3241 13.49 83.6594 14.2788C83.9947 15.0676 84.1621 15.9392 84.1621 16.8806C84.1621 17.8921 83.9754 18.8018 83.6074 19.616C83.2401 20.424 82.7047 21.0474 82.0014 21.48C81.2987 21.9125 80.5634 22.1288 79.7827 22.1288C79.2147 22.1288 78.7054 22.008 78.2541 21.7726C77.8027 21.5372 77.4347 21.2382 77.1447 20.8756V25.6912H75.4414L75.4481 25.6975ZM76.9901 17.0142C76.9901 18.2865 77.2541 19.228 77.7767 19.8387C78.2994 20.4494 78.9314 20.7548 79.6727 20.7548C80.4147 20.7548 81.0794 20.4367 81.6147 19.8069C82.1561 19.1771 82.4207 18.1974 82.4207 16.8743C82.4207 15.5511 82.1561 14.6669 81.6341 14.0434C81.1114 13.42 80.4794 13.102 79.7501 13.102C79.0214 13.102 78.3827 13.4328 77.8281 14.1007C77.2674 14.7686 76.9901 15.742 76.9901 17.0142Z" fill="white" stroke="white" stroke-width="0.5"/>
<path d="M92.8122 16.5434V14.9403H98.6816V19.9977C97.7789 20.7037 96.8496 21.2381 95.8949 21.5943C94.9402 21.9506 93.9536 22.1287 92.9476 22.1287C91.5863 22.1287 90.3482 21.8425 89.2389 21.2699C88.1296 20.6974 87.2909 19.8641 86.7229 18.7763C86.1556 17.6885 85.8716 16.4734 85.8716 15.1311C85.8716 13.7889 86.1556 12.5611 86.7169 11.4097C87.2776 10.2583 88.0902 9.39953 89.1482 8.83973C90.2062 8.27993 91.4256 8 92.8056 8C93.8056 8 94.7149 8.15907 95.5209 8.47713C96.3276 8.7952 96.9656 9.24047 97.4236 9.813C97.8816 10.3855 98.2303 11.1298 98.4749 12.0522L96.8242 12.4975C96.6176 11.8041 96.3596 11.2571 96.0502 10.8563C95.7402 10.4555 95.3016 10.1375 94.7276 9.90207C94.1536 9.66667 93.5149 9.5458 92.8183 9.5458C91.9803 9.5458 91.2576 9.67307 90.6449 9.92113C90.0322 10.1693 89.5416 10.5064 89.1676 10.9135C88.7936 11.3207 88.5036 11.7723 88.2969 12.2621C87.9423 13.1082 87.7682 14.0243 87.7682 15.0103C87.7682 16.2253 87.9809 17.2495 88.4069 18.0638C88.8322 18.8844 89.4516 19.4951 90.2642 19.8895C91.0769 20.2839 91.9416 20.4875 92.8509 20.4875C93.6442 20.4875 94.4183 20.3348 95.1729 20.0358C95.9276 19.7368 96.5016 19.4124 96.8949 19.0689V16.5243H92.8249L92.8122 16.5434Z" fill="white" stroke="white" stroke-width="0.5"/>
<path d="M107.615 20.6848C106.983 21.2128 106.376 21.5881 105.796 21.8044C105.215 22.0207 104.589 22.1288 103.919 22.1288C102.816 22.1288 101.971 21.8616 101.377 21.3336C100.784 20.8056 100.487 20.125 100.487 19.298C100.487 18.8145 100.597 18.3692 100.823 17.9684C101.049 17.5677 101.339 17.2432 101.7 17.0015C102.061 16.7598 102.467 16.5753 102.925 16.4544C103.261 16.3654 103.764 16.2827 104.435 16.2C105.809 16.041 106.821 15.8437 107.467 15.6211C107.467 15.3921 107.473 15.2458 107.473 15.1822C107.473 14.5015 107.311 14.018 106.989 13.7381C106.557 13.3564 105.912 13.1719 105.054 13.1719C104.254 13.1719 103.661 13.3119 103.28 13.5854C102.899 13.859 102.616 14.3488 102.435 15.0549L100.771 14.8322C100.919 14.1325 101.171 13.5664 101.519 13.1338C101.867 12.7012 102.364 12.3704 103.022 12.135C103.68 11.8996 104.435 11.7852 105.299 11.7852C106.163 11.7852 106.853 11.8869 107.389 12.0841C107.924 12.2814 108.318 12.5358 108.569 12.8348C108.821 13.1338 108.995 13.5154 109.098 13.9735C109.156 14.2598 109.182 14.775 109.182 15.5193V17.7585C109.182 19.317 109.221 20.3031 109.292 20.7166C109.363 21.1301 109.505 21.5245 109.724 21.9062H107.95C107.776 21.5563 107.66 21.1492 107.608 20.6848H107.615ZM107.473 16.9379C106.853 17.186 105.931 17.3959 104.693 17.574C103.996 17.6758 103.499 17.784 103.209 17.9112C102.919 18.0384 102.693 18.2166 102.539 18.4583C102.383 18.7 102.3 18.9608 102.3 19.2534C102.3 19.6988 102.474 20.0741 102.816 20.373C103.157 20.672 103.661 20.8184 104.325 20.8184C104.989 20.8184 105.563 20.6784 106.073 20.3922C106.583 20.1059 106.957 19.7242 107.195 19.2344C107.376 18.8527 107.467 18.2992 107.467 17.555V16.9379H107.473Z" fill="white" stroke="white" stroke-width="0.5"/>
<path d="M111.691 21.906V8.2417H113.394V21.906H111.691Z" fill="white" stroke="white" stroke-width="0.5"/>
<path d="M115.897 21.906V8.2417H117.6V21.906H115.897Z" fill="white" stroke="white" stroke-width="0.5"/>
<path d="M127.004 18.7191L128.758 18.9354C128.481 19.9468 127.965 20.7356 127.217 21.2954C126.468 21.8552 125.508 22.1352 124.346 22.1352C122.876 22.1352 121.715 21.6898 120.857 20.7992C119.999 19.9086 119.567 18.6554 119.567 17.046C119.567 15.4366 119.999 14.088 120.87 13.1719C121.741 12.2558 122.87 11.7915 124.25 11.7915C125.63 11.7915 126.688 12.2432 127.539 13.1401C128.391 14.037 128.816 15.3094 128.816 16.9442C128.816 17.046 128.816 17.1923 128.81 17.3895H121.328C121.392 18.4774 121.702 19.3107 122.263 19.8896C122.824 20.4684 123.521 20.7547 124.36 20.7547C124.985 20.7547 125.514 20.5957 125.959 20.2712C126.404 19.9468 126.752 19.4316 127.01 18.7254L127.004 18.7191ZM121.418 16.0091H127.023C126.946 15.1758 126.733 14.5524 126.378 14.1388C125.836 13.49 125.134 13.1719 124.269 13.1719C123.488 13.1719 122.831 13.4327 122.302 13.948C121.766 14.4633 121.476 15.1503 121.418 16.0154V16.0091Z" fill="white" stroke="white" stroke-width="0.5"/>
<path d="M130.784 21.9062V12.0078H132.313V13.5091C132.706 12.8093 133.068 12.345 133.396 12.1223C133.726 11.8996 134.093 11.7852 134.486 11.7852C135.06 11.7852 135.641 11.9632 136.234 12.3258L135.648 13.8844C135.235 13.6427 134.816 13.5218 134.403 13.5218C134.028 13.5218 133.7 13.63 133.403 13.8526C133.106 14.0752 132.894 14.3806 132.771 14.7686C132.584 15.3666 132.487 16.0155 132.487 16.728V21.9062H130.784Z" fill="white" stroke="white" stroke-width="0.5"/>
<path d="M137.072 25.7166L136.885 24.139C137.259 24.2408 137.582 24.2853 137.859 24.2853C138.24 24.2853 138.536 24.2217 138.768 24.1008C139 23.9799 139.181 23.8019 139.323 23.5792C139.432 23.4138 139.6 22.9939 139.846 22.3323C139.878 22.2369 139.929 22.1033 139.994 21.9252L136.188 12.0078H138.02L140.11 17.7394C140.381 18.4646 140.626 19.228 140.839 20.0295C141.032 19.2598 141.264 18.5091 141.536 17.7776L143.683 12.0078H145.386L141.568 22.0715C141.161 23.1593 140.839 23.91 140.613 24.3171C140.31 24.8705 139.962 25.2777 139.574 25.5321C139.188 25.7866 138.717 25.9202 138.175 25.9202C137.846 25.9202 137.485 25.8502 137.078 25.7166H137.072Z" fill="white" stroke="white" stroke-width="0.5"/>
<path d="M50.6665 31.7052V30.6763H51.5719V31.7052H50.6665ZM50.6665 37.955V32.6833H51.5719V37.955H50.6665Z" fill="white"/>
<path d="M52.6636 37.955V30.6826H53.569V37.955H52.6636Z" fill="white"/>
<path d="M58.3588 36.259L59.2898 36.3734C59.1421 36.9132 58.8725 37.3324 58.4743 37.6309C58.0763 37.9294 57.5689 38.0755 56.9461 38.0755C56.1691 38.0755 55.5463 37.8405 55.0904 37.3642C54.6345 36.8878 54.4033 36.2209 54.4033 35.3698C54.4033 34.5187 54.6345 33.7946 55.0968 33.3056C55.5591 32.8166 56.1563 32.5688 56.8947 32.5688C57.6332 32.5688 58.1918 32.8102 58.6413 33.2866C59.0908 33.7692 59.3155 34.4425 59.3155 35.3126C59.3155 35.3634 59.3155 35.446 59.3155 35.554H55.3408C55.3729 36.132 55.5399 36.5766 55.8353 36.8814C56.1306 37.1863 56.5031 37.3451 56.9461 37.3451C57.28 37.3451 57.5625 37.2562 57.7937 37.0847C58.0249 36.9132 58.2111 36.6401 58.3523 36.259H58.3588ZM55.3922 34.8172H58.3652C58.3267 34.3726 58.211 34.0424 58.0248 33.82C57.7359 33.4771 57.3635 33.3056 56.9076 33.3056C56.4902 33.3056 56.1435 33.4453 55.8609 33.7184C55.5784 33.9916 55.4243 34.3599 55.3922 34.8172Z" fill="white"/>
<path d="M62.8408 37.955V30.6826H63.8169V34.2902L67.4705 30.6826H68.7872L65.7047 33.6297L68.9278 37.955H67.6438L65.024 34.2712L63.8169 35.4335V37.955H62.8408Z" fill="white"/>
<path d="M69.494 37.955V30.6826H74.8106V31.5401H70.4633V33.7694H74.5346V34.6206H70.4633V37.0976H74.9773V37.955H69.4873H69.494Z" fill="white"/>
<path d="M75.7412 35.6172L76.6592 35.541C76.7045 35.9031 76.8072 36.2016 76.9612 36.4366C77.1152 36.6716 77.3659 36.8558 77.6999 37.0019C78.0339 37.148 78.4125 37.2178 78.8299 37.2178C79.2025 37.2178 79.5299 37.1606 79.8125 37.0527C80.0945 36.9447 80.3065 36.7923 80.4479 36.6018C80.5892 36.4112 80.6532 36.2016 80.6532 35.9793C80.6532 35.757 80.5892 35.5538 80.4545 35.3822C80.3199 35.2108 80.1012 35.071 79.7932 34.9504C79.5939 34.8742 79.1572 34.7535 78.4832 34.5947C77.8085 34.4359 77.3339 34.2834 77.0639 34.1438C76.7105 33.9596 76.4539 33.7372 76.2805 33.4641C76.1072 33.1974 76.0239 32.8925 76.0239 32.5559C76.0239 32.1875 76.1265 31.8445 76.3385 31.527C76.5505 31.2094 76.8585 30.968 77.2632 30.8029C77.6679 30.6378 78.1172 30.5552 78.6112 30.5552C79.1572 30.5552 79.6392 30.6441 80.0565 30.8156C80.4739 30.9871 80.7945 31.2475 81.0192 31.5841C81.2439 31.9208 81.3659 32.3018 81.3792 32.7274L80.4479 32.7972C80.3965 32.3399 80.2299 31.9906 79.9405 31.7556C79.6519 31.5206 79.2212 31.4063 78.6565 31.4063C78.0912 31.4063 77.6419 31.5142 77.3725 31.7238C77.1025 31.9334 76.9679 32.1938 76.9679 32.4924C76.9679 32.7528 77.0639 32.9687 77.2565 33.1402C77.4425 33.3117 77.9305 33.4832 78.7272 33.661C79.5172 33.8388 80.0625 33.9913 80.3579 34.1247C80.7885 34.3216 81.1032 34.5693 81.3085 34.8678C81.5139 35.1663 81.6165 35.5093 81.6165 35.9031C81.6165 36.2969 81.5072 36.6526 81.2825 36.9955C81.0579 37.3385 80.7372 37.6052 80.3199 37.7958C79.9019 37.9864 79.4272 38.0816 78.9005 38.0816C78.2325 38.0816 77.6739 37.9864 77.2245 37.7958C76.7752 37.6052 76.4219 37.3131 76.1652 36.932C75.9079 36.5446 75.7732 36.1127 75.7605 35.6236L75.7412 35.6172ZM78.0659 38.666L78.3292 37.7894H79.0032L78.8365 38.323C79.1185 38.3547 79.3372 38.4436 79.4785 38.5834C79.6199 38.7231 79.6965 38.8819 79.6965 39.0534C79.6965 39.3011 79.5745 39.5234 79.3372 39.714C79.0932 39.9045 78.7332 39.9998 78.2452 39.9998C77.9692 39.9998 77.7319 39.9807 77.5265 39.9426L77.5839 39.3646C77.7959 39.3773 77.9565 39.3836 78.0525 39.3836C78.3672 39.3836 78.5859 39.3392 78.7145 39.2566C78.8105 39.1931 78.8619 39.1106 78.8619 39.0153C78.8619 38.9581 78.8425 38.901 78.8039 38.8565C78.7659 38.812 78.6952 38.7676 78.5925 38.7358C78.4892 38.704 78.3159 38.685 78.0785 38.6786L78.0659 38.666Z" fill="white"/>
<path d="M82.7212 37.955V30.6826H87.6845V31.5401H83.6972V33.7948H87.1512V34.6523H83.6972V37.955H82.7212Z" fill="white"/>
<path d="M88.7052 37.955V30.6826H94.0219V31.5401H89.6752V33.7694H93.7459V34.6206H89.6752V37.0976H94.1892V37.955H88.6992H88.7052Z" fill="white"/>
<path d="M95.2812 37.955V30.6826H97.8172C98.3886 30.6826 98.8252 30.7144 99.1272 30.7843C99.5512 30.8796 99.9106 31.051 100.206 31.3051C100.591 31.629 100.887 32.0418 101.079 32.55C101.272 33.0517 101.368 33.6297 101.368 34.2776C101.368 34.8301 101.304 35.3191 101.176 35.7448C101.047 36.1703 100.88 36.526 100.675 36.8054C100.469 37.0849 100.245 37.3072 100.007 37.466C99.7633 37.6248 99.4739 37.7454 99.1272 37.828C98.7872 37.9106 98.3886 37.955 97.9459 37.955H95.2939H95.2812ZM96.2573 37.0976H97.8299C98.3119 37.0976 98.6973 37.0532 98.9733 36.9642C99.2493 36.8753 99.4672 36.7482 99.6346 36.5895C99.8659 36.3608 100.045 36.056 100.174 35.6685C100.303 35.2811 100.367 34.8174 100.367 34.2648C100.367 33.5027 100.238 32.9183 99.9879 32.5118C99.7372 32.1053 99.4293 31.8322 99.0693 31.6925C98.8059 31.5909 98.3886 31.5464 97.8106 31.5464H96.2633V37.104L96.2573 37.0976Z" fill="white"/>
<path d="M102.543 30.2316V29.1201H103.661V30.2316H102.543ZM102.614 37.955V30.6826H103.59V37.955H102.614Z" fill="white"/>
<path d="M105.035 37.955V30.6826H106.03L109.895 36.3926V30.6826H110.827V37.955H109.831L105.966 32.2387V37.955H105.035Z" fill="white"/>
<path fill-rule="evenodd" clip-rule="evenodd" d="M19.6474 8C13.0734 8 10.6665 10.4075 10.6665 16.9759V31.0241C10.6665 37.5994 13.0734 40 19.6474 40H33.6856C40.2596 40 42.6665 37.5925 42.6665 31.0241V16.9759C42.6665 10.4005 40.2596 8 33.6856 8H19.6474Z" fill="#C8102E"/>
<path fill-rule="evenodd" clip-rule="evenodd" d="M24.6285 26.5639H25.9155L25.2685 25.0679L24.6285 26.5639ZM24.3155 27.3223L23.9329 28.1922H23.0633L24.9068 24.0034H25.6581L27.4946 28.1922H26.6042L26.2285 27.3223H24.3085H24.3155ZM38.2772 28.1922H39.119V24.0104H38.2772V28.1922ZM34.9381 26.3969H36.4824V25.6316H34.9381V24.7758H37.185V24.0104H34.1033V28.1922H37.2685V27.4267H34.945V26.39L34.9381 26.3969ZM31.6059 26.891L30.6529 24.0104H29.9572L29.0042 26.891L28.079 24.0104H27.1747L28.6355 28.1991H29.3381L30.2912 25.4507L31.2442 28.1991H31.9538L33.4076 24.0104H32.5242L31.599 26.891H31.6059ZM21.7833 26.4109C21.7833 27.0927 21.4424 27.4546 20.8303 27.4546C20.2181 27.4546 19.8703 27.0789 19.8703 26.383V24.0173H19.0216V26.4109C19.0216 27.5868 19.6755 28.2618 20.8164 28.2618C21.9572 28.2618 22.6321 27.5729 22.6321 26.3692V24.0034H21.7833V26.404V26.4109ZM16.9972 24.0104H17.8459V28.1991H16.9972V26.4944H15.0773V28.1991H14.2285V24.0104H15.0773V25.7012H16.9972V24.0104Z" fill="white"/>
<path fill-rule="evenodd" clip-rule="evenodd" d="M26.6657 18.6664C23.7231 18.6664 21.3301 16.2729 21.3301 13.3296H22.0813C22.0813 15.8553 24.1335 17.908 26.6587 17.908C29.1839 17.908 31.2361 15.8553 31.2361 13.3296H31.9874C31.9874 16.2729 29.5944 18.6664 26.6518 18.6664" fill="white"/>
</g>
<defs>
<clipPath id="clip0_717_1158">
<rect width="160" height="48" fill="white"/>
</clipPath>
</defs>
</svg>
