<svg width="69" height="25" viewBox="0 0 69 25" fill="none" xmlns="http://www.w3.org/2000/svg">
<g clip-path="url(#clip0_93_34)">
<path d="M44.9435 6.59155H40.4303C40.3031 6.59155 40.1811 6.64196 40.0911 6.73163C40.0012 6.8213 39.9506 6.94288 39.9506 7.06969V8.47852H39.8821C39.2885 7.65738 38.4975 6.99801 37.5817 6.56091C36.666 6.12381 35.6548 5.92298 34.641 5.97682C29.5026 5.97682 25.7002 10.2459 25.7002 15.4713C25.7002 20.6968 29.3656 24.9915 34.641 24.9915C36.9875 24.9915 39.1114 24.0266 39.8821 22.43H39.9506V23.8645C39.9495 23.928 39.9611 23.991 39.9847 24.05C40.0083 24.109 40.0434 24.1627 40.0881 24.208C40.1327 24.2534 40.186 24.2894 40.2447 24.3139C40.3035 24.3385 40.3665 24.3511 40.4303 24.3511H44.9435C45.0072 24.3511 45.0702 24.3385 45.129 24.3139C45.1877 24.2894 45.241 24.2534 45.2856 24.208C45.3303 24.1627 45.3654 24.109 45.389 24.05C45.4126 23.991 45.4242 23.928 45.423 23.8645V7.06969C45.423 7.0069 45.4106 6.94473 45.3865 6.88672C45.3624 6.82871 45.3271 6.77603 45.2826 6.73163C45.238 6.68723 45.1852 6.65201 45.127 6.62798C45.0688 6.60395 45.0064 6.59155 44.9435 6.59155ZM35.3432 20.1247C34.4151 20.1708 33.4943 19.9385 32.6998 19.4579C31.9052 18.9772 31.2734 18.2703 30.8857 17.4282C30.498 16.5861 30.3723 15.6476 30.5248 14.7336C30.6772 13.8196 31.1009 12.9721 31.7411 12.3004C32.3812 11.6288 33.2086 11.1637 34.1164 10.9654C35.0241 10.767 35.9707 10.8444 36.834 11.1875C37.6973 11.5306 38.4376 12.1237 38.9596 12.8903C39.4815 13.6569 39.7611 14.5618 39.7622 15.4884C39.7921 16.6872 39.3436 17.8489 38.515 18.7182C37.6864 19.5875 36.5457 20.0934 35.3432 20.1247Z" fill="#001779"/>
<path d="M5.34392 8.63208H0.590911C0.326045 8.63208 0.111328 8.84615 0.111328 9.11022V23.8899C0.111328 24.154 0.326045 24.3681 0.590911 24.3681H5.34392C5.60879 24.3681 5.8235 24.154 5.8235 23.8899V9.11022C5.8235 8.84615 5.60879 8.63208 5.34392 8.63208Z" fill="#001779"/>
<path d="M23.1312 18.6644H15.5521V0.529167C15.5532 0.465662 15.5416 0.402539 15.5181 0.343539C15.4945 0.284539 15.4593 0.230839 15.4147 0.185532C15.37 0.140224 15.3168 0.10425 15.258 0.0796894C15.1993 0.0551284 15.1362 0.0424703 15.0725 0.0424805H10.3195C10.2558 0.0424703 10.1927 0.0551284 10.134 0.0796894C10.0752 0.10425 10.022 0.140224 9.97731 0.185532C9.93267 0.230839 9.89751 0.284539 9.87392 0.343539C9.85033 0.402539 9.83878 0.465662 9.83992 0.529167V23.8813C9.83992 24.0081 9.89043 24.1297 9.98037 24.2194C10.0703 24.309 10.1923 24.3594 10.3195 24.3594H23.1655C23.2935 24.3594 23.4163 24.3093 23.5076 24.2199C23.5989 24.1305 23.6514 24.0088 23.6536 23.8813V19.1425C23.6526 19.0764 23.6381 19.0111 23.6109 18.9507C23.5838 18.8903 23.5445 18.8361 23.4956 18.7913C23.4467 18.7466 23.3892 18.7123 23.3265 18.6905C23.2639 18.6686 23.1974 18.6597 23.1312 18.6644Z" fill="#001779"/>
<path d="M60.1281 5.97686C59.1862 5.9362 58.2463 6.09556 57.3708 6.44443C56.4952 6.79329 55.7041 7.32367 55.0497 8.00043V0.563591C55.0497 0.434515 54.9982 0.310757 54.9067 0.219486C54.8151 0.128216 54.691 0.0769043 54.5615 0.0769043H49.9113C49.7833 0.0791431 49.6613 0.131428 49.5716 0.222457C49.4819 0.313486 49.4317 0.435981 49.4317 0.563591V23.8986C49.4306 23.9621 49.4421 24.0252 49.4657 24.0842C49.4893 24.1432 49.5244 24.197 49.5691 24.2423C49.6137 24.2876 49.667 24.3236 49.7257 24.3481C49.7845 24.3727 49.8476 24.3853 49.9113 24.3853H54.3389C54.403 24.3853 54.4665 24.3727 54.5257 24.3483C54.5849 24.3238 54.6387 24.2879 54.6841 24.2427C54.7294 24.1976 54.7653 24.1439 54.7899 24.0849C54.8144 24.0259 54.827 23.9626 54.827 23.8986V22.4898H54.887C55.692 24.0011 57.8501 24.9915 60.0254 24.9915C65.5234 24.9915 69.0346 20.859 69.0346 15.3775C69.0004 9.4434 64.7612 5.97686 60.1281 5.97686ZM59.2717 20.1248C58.3433 20.1725 57.4218 19.9418 56.6262 19.4622C55.8306 18.9827 55.1974 18.2765 54.8084 17.4346C54.4193 16.5928 54.2923 15.654 54.4438 14.7395C54.5952 13.8249 55.0181 12.9767 55.6579 12.3042C56.2976 11.6316 57.1249 11.1657 58.0329 10.9666C58.9408 10.7675 59.8879 10.8443 60.7517 11.1871C61.6154 11.5298 62.3563 12.1229 62.8787 12.8896C63.4011 13.6563 63.6809 14.5615 63.6821 15.4884C63.7122 16.6801 63.2695 17.8355 62.4501 18.7036C61.6307 19.5717 60.5008 20.0824 59.306 20.1248H59.2717Z" fill="#001779"/>
<path d="M2.9717 5.9253C4.61293 5.9253 5.9434 4.59882 5.9434 2.96253C5.9434 1.32623 4.61293 -0.000244141 2.9717 -0.000244141C1.33048 -0.000244141 0 1.32623 0 2.96253C0 4.59882 1.33048 5.9253 2.9717 5.9253Z" fill="#FF0000"/>
</g>
<defs>
<clipPath id="clip0_93_34">
<rect width="69" height="25" fill="white"/>
</clipPath>
</defs>
</svg>
