<svg width="32" height="32" viewBox="0 0 32 32" fill="none" xmlns="http://www.w3.org/2000/svg">
<circle cx="16" cy="16" r="16" fill="#F3F6F9"/>
<g clip-path="url(#clip0_717_1206)">
<path d="M16.0557 12.4863C14.0957 12.4863 12.4717 14.051 12.4717 16.0001C12.4717 17.9491 14.0677 19.5138 16.0557 19.5138C18.0437 19.5138 19.6397 17.9216 19.6397 16.0001C19.6397 14.0785 18.0157 12.4863 16.0557 12.4863ZM16.0557 18.251C14.7957 18.251 13.7597 17.2353 13.7597 16.0001C13.7597 14.7648 14.7957 13.7491 16.0557 13.7491C17.3157 13.7491 18.3517 14.7648 18.3517 16.0001C18.3517 17.2353 17.3157 18.251 16.0557 18.251Z" fill="#626873"/>
<path d="M19.7798 13.2001C20.2282 13.2001 20.5918 12.8437 20.5918 12.404C20.5918 11.9643 20.2282 11.6079 19.7798 11.6079C19.3313 11.6079 18.9678 11.9643 18.9678 12.404C18.9678 12.8437 19.3313 13.2001 19.7798 13.2001Z" fill="#626873"/>
<path d="M21.8798 10.3452C21.1518 9.60404 20.1158 9.21973 18.9398 9.21973H13.1718C10.7358 9.21973 9.11182 10.8119 9.11182 13.2001V18.8276C9.11182 20.008 9.50382 21.0236 10.2878 21.7648C11.0438 22.4786 12.0518 22.8354 13.1998 22.8354H18.9118C20.1158 22.8354 21.1238 22.4511 21.8518 21.7648C22.6078 21.0511 22.9998 20.0354 22.9998 18.855V13.2001C22.9998 12.0472 22.6078 11.0589 21.8798 10.3452ZM21.7678 18.855C21.7678 19.706 21.4598 20.3923 20.9558 20.8589C20.4518 21.3256 19.7518 21.5727 18.9118 21.5727H13.1998C12.3598 21.5727 11.6598 21.3256 11.1558 20.8589C10.6518 20.3648 10.3998 19.6786 10.3998 18.8276V13.2001C10.3998 12.3766 10.6518 11.6903 11.1558 11.1962C11.6318 10.7295 12.3598 10.4825 13.1998 10.4825H18.9678C19.8078 10.4825 20.5078 10.7295 21.0118 11.2236C21.4878 11.7178 21.7678 12.404 21.7678 13.2001V18.855Z" fill="#626873"/>
</g>
<defs>
<clipPath id="clip0_717_1206">
<rect width="14" height="14" fill="white" transform="translate(9 9)"/>
</clipPath>
</defs>
</svg>
