<svg width="32" height="32" viewBox="0 0 32 32" fill="none" xmlns="http://www.w3.org/2000/svg">
<circle cx="16" cy="16" r="16" fill="#F3F6F9"/>
<g clip-path="url(#clip0_717_1184)">
<path d="M13.4062 13.0938H11V21H13.4062V13.0938Z" fill="#626873"/>
<path d="M19.251 13.0938C17.875 13.0938 17.4934 13.5448 17.1875 14.125V13.0938H14.7812V21H17.1875V16.5312C17.1875 15.8438 17.1875 15.1562 18.3906 15.1562C19.5938 15.1562 19.5938 15.8438 19.5938 16.5312V21H22V16.5312C22 14.4688 21.6562 13.0938 19.251 13.0938Z" fill="#626873"/>
<path d="M12.2031 12.4062C12.8676 12.4062 13.4062 11.8676 13.4062 11.2031C13.4062 10.5387 12.8676 10 12.2031 10C11.5387 10 11 10.5387 11 11.2031C11 11.8676 11.5387 12.4062 12.2031 12.4062Z" fill="#626873"/>
</g>
<defs>
<clipPath id="clip0_717_1184">
<rect width="11" height="11" fill="white" transform="translate(11 10)"/>
</clipPath>
</defs>
</svg>
